<?xml version="1.0" encoding="utf-8"?>
<!-- Generator: Adobe Illustrator 22.1.0, SVG Export Plug-In . SVG Version: 6.00 Build 0)  -->
<svg version="1.1" id="Light" xmlns="http://www.w3.org/2000/svg" xmlns:xlink="http://www.w3.org/1999/xlink" x="0px" y="0px"
	 viewBox="0 0 24 24" style="enable-background:new 0 0 24 24;" xml:space="preserve">
<g>
	<title>arrow-thick-circle-right-1</title>
	<path d="M12,19.785c-0.267,0-0.518-0.104-0.706-0.292l-1.291-1.292c-0.189-0.189-0.293-0.44-0.293-0.707
		c0-0.267,0.104-0.518,0.293-0.707L12.792,14H5c-0.551,0-1-0.448-1-1v-2c0-0.551,0.449-1,1-1h7.777l-2.774-2.779
		c-0.39-0.39-0.39-1.024,0-1.414l1.289-1.289C11.481,4.33,11.732,4.225,12,4.225c0.264,0,0.513,0.102,0.701,0.286l6.786,6.786
		c0.39,0.39,0.39,1.024,0,1.414l-6.779,6.78C12.519,19.68,12.268,19.784,12,19.785C12,19.785,12,19.785,12,19.785z M5,13h9
		c0.203,0,0.384,0.121,0.462,0.309c0.078,0.187,0.035,0.401-0.108,0.545l-3.643,3.641L12,18.784l6.78-6.78l-6.775-6.775
		l-1.294,1.285l3.626,3.632c0.143,0.144,0.185,0.357,0.108,0.545C14.367,10.879,14.186,11,13.983,11H5L5,13z"/>
	<path d="M12,24C5.383,24,0,18.617,0,12C0,5.383,5.383,0,12,0c6.617,0,12,5.383,12,12C24,18.617,18.617,24,12,24z M12,1
		C5.935,1,1,5.935,1,12s4.935,11,11,11s11-4.935,11-11S18.065,1,12,1z"/>
</g>
</svg>
