<?xml version="1.0" encoding="utf-8"?>
<!-- Generator: Adobe Illustrator 22.1.0, SVG Export Plug-In . SVG Version: 6.00 Build 0)  -->
<svg version="1.1" id="Layer_1" xmlns="http://www.w3.org/2000/svg" xmlns:xlink="http://www.w3.org/1999/xlink" x="0px" y="0px"
	 viewBox="0 0 24 24" style="enable-background:new 0 0 24 24;" xml:space="preserve">
<g>
	<title>robot</title>
	<path d="M6.001,10.5c-1.103,0-2-0.897-2-2v-6c0-1.103,0.897-2,2-2h12c1.103,0,2,0.897,2,2v6c0,1.103-0.897,2-2,2H6.001z M6.001,1.5
		c-0.551,0-1,0.449-1,1v6c0,0.551,0.449,1,1,1h12c0.552,0,1-0.449,1-1v-6c0-0.551-0.448-1-1-1H6.001z"/>
	<path d="M8.001,7.5c-1.103,0-2-0.897-2-2s0.897-2,2-2s2,0.897,2,2S9.104,7.5,8.001,7.5z M8.001,4.5c-0.551,0-1,0.449-1,1
		s0.449,1,1,1s1-0.449,1-1S8.552,4.5,8.001,4.5z"/>
	<path d="M16.001,7.5c-1.103,0-2-0.897-2-2s0.897-2,2-2s2,0.897,2,2S17.104,7.5,16.001,7.5z M16.001,4.5c-0.552,0-1,0.449-1,1
		s0.448,1,1,1s1-0.449,1-1S16.552,4.5,16.001,4.5z"/>
	<path d="M10.501,12.5c-0.276,0-0.5-0.224-0.5-0.5c0-0.276,0.224-0.5,0.5-0.5h3c0.276,0,0.5,0.224,0.5,0.5
		c0,0.276-0.224,0.5-0.5,0.5H10.501z"/>
	<path d="M10.501,14.5c-0.276,0-0.5-0.224-0.5-0.5s0.224-0.5,0.5-0.5h3c0.276,0,0.5,0.224,0.5,0.5s-0.224,0.5-0.5,0.5H10.501z"/>
	<path d="M6.401,23.5c-0.475-0.004-0.875-0.328-0.974-0.79l-0.466-2.177c-0.061-0.286-0.092-0.578-0.092-0.869
		c0-0.051,0.002-0.101,0.005-0.151L3.007,18.07c-1.201-0.944-1.79-2.492-1.532-3.987c-0.096-0.057-0.188-0.118-0.274-0.183
		c-1.323-0.992-1.592-2.876-0.6-4.2c0.094-0.125,0.244-0.2,0.4-0.2c0.109,0,0.213,0.035,0.3,0.1c0.107,0.08,0.176,0.197,0.195,0.329
		c0.019,0.132-0.015,0.264-0.095,0.371c-0.662,0.882-0.482,2.138,0.4,2.8c0.348,0.261,0.762,0.399,1.197,0.399
		c0.638,0,1.222-0.291,1.603-0.799c0.094-0.125,0.243-0.2,0.4-0.2c0.109,0,0.212,0.035,0.3,0.1c0.107,0.08,0.176,0.197,0.195,0.329
		c0.019,0.132-0.015,0.264-0.095,0.371c-0.563,0.75-1.461,1.199-2.403,1.199c-0.187,0-0.375-0.018-0.562-0.054
		c-0.117,1.074,0.332,2.165,1.186,2.836l1.445,1.117c0.2-0.631,0.549-1.206,1.021-1.678c0.786-0.787,1.831-1.22,2.943-1.22h5.94
		c0.297,0,0.59,0.031,0.874,0.092c1.087,0.232,2.019,0.875,2.623,1.808c0.2,0.309,0.358,0.643,0.47,0.997l1.445-1.118
		c0.852-0.669,1.301-1.76,1.183-2.834c-0.187,0.036-0.375,0.054-0.562,0.054c-0.942,0-1.84-0.448-2.403-1.199
		c-0.08-0.106-0.114-0.238-0.095-0.37c0.019-0.132,0.088-0.25,0.195-0.33c0.087-0.065,0.19-0.1,0.3-0.1
		c0.157,0,0.307,0.075,0.401,0.201c0.38,0.508,0.965,0.799,1.602,0.799c0.435,0,0.849-0.138,1.198-0.399
		c0.882-0.662,1.062-1.918,0.4-2.8c-0.08-0.107-0.114-0.238-0.095-0.371c0.019-0.132,0.088-0.249,0.195-0.329
		c0.087-0.065,0.19-0.1,0.3-0.1c0.157,0,0.306,0.075,0.4,0.2c0.48,0.64,0.682,1.43,0.568,2.224
		c-0.114,0.794-0.529,1.496-1.169,1.976c-0.087,0.065-0.179,0.127-0.276,0.183c0.255,1.499-0.333,3.045-1.527,3.984l-1.865,1.443
		c0.013,0.346-0.017,0.69-0.088,1.023l-0.466,2.176c-0.098,0.458-0.51,0.791-0.978,0.791H6.401z M9.031,16.5
		c-0.845,0-1.639,0.329-2.236,0.927c-0.597,0.598-0.926,1.392-0.926,2.237c0,0.221,0.024,0.443,0.07,0.66L6.405,22.5l1.596,0v-3
		c0-0.552,0.449-1,1-1h6c0.552,0,1,0.448,1,1v3h1.6l0.466-2.176c0.177-0.826,0.021-1.672-0.438-2.381
		c-0.459-0.709-1.167-1.197-1.993-1.374c-0.217-0.046-0.439-0.07-0.661-0.07H9.031z M15.001,22.5v-3h-6l0,3H15.001z"/>
</g>
</svg>
