<svg width="542" height="476" viewBox="0 0 542 476" fill="none" xmlns="http://www.w3.org/2000/svg">
<rect x="201" y="253" width="126" height="221" fill="#D9D9D9"/>
<path d="M269.213 0.54126L271.344 0.96751L276.033 3.09876L280.295 4.80376L284.984 7.36126L295.214 13.3288L299.903 15.8863L300.755 16.3125V17.165L302.886 18.0175L308.001 21.4275L312.264 24.4113L314.395 25.2638L319.51 28.6738V29.5263L321.215 30.3788L325.904 32.9363L337.413 39.7563L342.528 42.74L345.511 44.445V45.2975L347.643 46.15L357.02 52.1175L363.414 55.9538L364.266 56.8063L368.955 60.2163L371.513 61.495V62.3475L373.644 62.7738L377.906 65.7575L382.595 68.315V69.1675L384.726 70.02L389.415 72.5775L393.251 75.135L401.776 80.25L410.301 85.7913L413.285 87.9225L420.531 92.6113L426.073 96.0213L431.188 99.4313L434.171 101.136L443.123 106.678L446.959 109.661L451.221 111.793L455.484 114.776V115.629L457.615 116.481L461.878 119.039L468.271 123.301L475.944 127.99L484.469 133.531L491.289 137.368L494.273 139.073L496.404 140.778L497.256 142.909V154.418L496.83 159.959L495.978 161.238L493.846 171.041L490.863 177.861L487.879 183.403L484.895 188.091L482.338 192.354L477.223 199.6L474.665 203.863L471.255 208.551L467.419 213.24L465.714 216.224L462.73 219.634L458.894 224.323L455.058 227.733L453.779 230.29L452.5 237.963L449.516 261.406L449.09 266.948L469.55 266.521H477.223L483.19 266.948L485.748 268.226L487.453 270.358L491.289 279.735L492.994 284.424L494.699 294.654L495.125 298.49H501.093L502.371 297.638L503.224 276.751V228.585L502.798 213.24V203.01L503.224 202.584H518.995L523.258 203.01V232.421L522.831 241.373L522.405 259.275V312.983L530.93 315.114L534.34 317.245L536.471 320.655L538.603 327.901L540.308 336.426L541.16 342.394L541.586 347.935V356.46L540.734 365.411L537.75 373.936L533.914 381.183L530.504 385.871L527.094 390.134L524.963 392.691L521.553 395.249L519.421 396.101L512.175 396.954H502.798L494.273 396.101V402.921L493.42 410.594L492.141 414.856L487.453 422.103L482.338 427.218L479.78 428.923L474.665 430.201L466.993 431.054L466.566 431.906L463.583 432.333L453.779 432.759H432.893L428.63 431.906L427.351 430.201L425.22 416.561L422.663 418.266L415.843 423.808L410.301 427.644L403.481 431.054L394.53 435.316L382.595 440.005L377.054 442.563L371.086 444.268L360.004 445.973H354.889L348.921 445.546L338.691 443.415L337.839 466.433L337.413 472.4L336.986 474.105L325.478 473.679L321.215 473.253L321.641 463.449L322.494 451.088L322.92 435.316L320.363 434.89L312.264 431.054L305.444 426.365L299.476 421.25L294.788 416.135L293.509 414.43V413.578H292.656L290.099 410.168L285.836 403.348L283.279 398.233L276.033 381.609L274.328 380.33L273.049 379.904H262.393L260.261 381.183L258.556 385.871L257.278 390.56L255.146 399.938L251.736 405.905L247.9 411.873L244.49 416.135L237.244 423.381L231.703 427.644L225.309 431.906L223.178 433.611L218.489 436.169L217.636 436.595L216.358 441.284L215.505 474.531L203.144 475.384L201.439 464.728L199.308 443.841L189.93 445.12L186.094 445.546H173.733L160.519 443.415L151.994 440.431L141.764 436.169V435.316L139.633 434.464L132.386 428.923L127.698 425.939L122.583 422.103L113.205 414.43L112.353 414.004L111.926 421.25L110.221 433.185L109.369 434.89L108.09 435.316L97.0076 434.464L94.0238 434.038L95.7288 433.185L75.2688 432.759L65.8913 432.333L62.055 431.906L61.6288 431.054L56.0876 429.349L50.9725 425.086L48.8413 422.529L47.5625 418.693L45.0051 408.036L43.3 396.954H23.2663L19.8563 396.101L16.4463 393.118L11.7575 388.003L10.0525 385.445L8.34755 383.74L7.9213 381.609L5.3638 376.068L3.23255 370.526L1.52755 361.575L0.675049 351.771V335.574L1.9538 327.475L5.3638 321.508L7.9213 318.098L12.1838 314.261L15.5938 311.278L18.5775 308.72L21.5613 305.31L22.84 303.179L23.6925 291.244L24.545 285.276L24.9713 279.309L25.8238 277.178L27.5288 276.751L27.955 275.899L28.3813 277.178L28.8076 282.719L29.66 286.129L30.9388 286.555L31.365 298.49L31.7913 298.916H35.2013L41.1688 297.211L43.7263 295.506L45.0051 293.801L48.4151 283.998L50.12 278.03L52.2513 274.194L55.6613 271.21L59.9238 269.505L65.8913 268.653L90.1876 267.8L91.4663 267.374L91.8925 263.964L91.0401 258.849L89.7613 257.57L88.0563 251.176L87.2038 240.946L86.7775 232.421L82.9413 227.733L69.7276 214.519L63.3338 207.699L61.6288 205.141L59.9238 203.436L56.5138 198.321V196.616L55.2351 196.19L48.4151 182.976L44.1525 171.894L39.4638 157.828L37.7588 148.024L37.3326 144.188L43.3 141.204L50.9725 136.515L60.3501 131.4L71.0063 125.433L78.2525 121.17L92.3188 111.793L99.1388 107.104L105.533 103.268L113.205 97.7263L116.615 95.595L120.025 93.89L124.714 90.48L130.255 87.07L131.96 86.6438V85.7913L134.944 84.5125L138.78 81.5288L141.338 79.8238L156.683 70.4463L159.24 68.7413L161.371 67.4625L163.076 67.0363L171.175 61.495L173.733 59.79L174.159 58.9375H175.011V58.085L177.995 56.38L178.848 56.8063L179.274 56.38L186.094 52.1175L190.356 49.1338L198.881 44.0188L201.439 42.3138L203.57 41.4613L207.833 38.4775L212.948 35.4938L214.653 35.0675L218.915 32.0838L230.424 24.4113L236.391 21.0013L239.801 19.2963L244.064 16.3125L250.031 12.4763L251.736 11.1975H253.015V10.345L257.278 8.21376L259.409 7.36126L265.803 3.09876L267.508 1.39376L269.213 0.54126Z" fill="#020913"/>
<path d="M351.905 289.113H367.25L376.201 291.244L380.037 292.949L384.3 294.228L391.972 297.638L397.087 301.474V302.326L398.792 303.179L401.776 306.589L405.186 309.573L412.859 321.508L417.547 331.311L420.105 338.131L420.957 342.82V346.23L418.826 348.361L419.679 350.919L421.384 350.493L422.236 353.476V359.018L420.957 369.674L418.826 379.051L416.695 386.298L414.564 391.413L410.727 397.806L408.17 401.216L405.186 405.479L399.645 411.02L394.956 414.43L386.431 419.119L382.169 421.676L376.201 423.808L373.217 425.086L368.102 426.365L363.414 426.791L345.937 427.218L340.822 425.939L336.56 424.66L325.477 419.119L319.936 414.856L315.247 411.02L311.411 407.184L310.132 405.053L308.001 402.921L306.296 400.79L302.886 396.101L298.624 389.708L294.787 380.756L291.804 374.789L289.246 365.838L288.394 359.87V352.624L289.246 346.23L291.377 339.41L294.787 332.59L299.05 323.639L302.034 318.524L305.017 313.835L308.854 309.146L313.542 304.884L317.379 301.9L320.789 299.343L328.887 295.08L334.429 292.949L340.396 291.244L345.937 289.965L351.905 289.113Z" fill="white"/>
<path d="M173.511 290H188.856L197.808 292.131L201.644 293.836L205.906 295.115L213.579 298.525L218.694 302.361V303.214L220.399 304.066L223.382 307.476L226.793 310.46L234.465 322.395L239.154 332.199L241.711 339.019L242.564 343.708V347.118L240.433 349.249L241.285 351.806L242.99 351.38L243.842 354.364V359.905L242.564 370.561L240.433 379.939L238.301 387.185L236.17 392.3L232.334 398.694L229.776 402.104L226.793 406.366L221.251 411.908L216.562 415.318L208.038 420.006L203.775 422.564L197.808 424.695L194.824 425.974L189.709 427.253L185.02 427.679L167.544 428.105L162.429 426.826L158.166 425.548L147.084 420.006L141.543 415.744L136.854 411.908L133.017 408.071L131.739 405.94L129.608 403.809L127.903 401.678L124.493 396.989L120.23 390.595L116.394 381.644L113.41 375.676L110.853 366.725L110 360.758V353.511L110.853 347.118L112.984 340.298L116.394 333.478L120.656 324.526L123.64 319.411L126.624 314.723L130.46 310.034L135.149 305.771L138.985 302.788L142.395 300.23L150.494 295.968L156.035 293.836L162.003 292.131L167.544 290.853L173.511 290Z" fill="white"/>
<path d="M260.261 170.615H278.164L300.755 171.894L318.658 174.025L339.544 177.435L351.479 179.566L358.725 181.697L366.824 183.829L377.054 186.812L383.448 189.37L397.088 196.19L406.039 200.879L414.99 205.994L423.089 210.682L429.056 214.945L432.04 218.355V220.912L431.188 223.044V237.962L429.909 237.536L428.63 235.405V234.552H427.778L426.499 232.421L425.22 231.569V230.716L422.663 229.864L419.253 228.159L417.121 227.732L406.465 222.617L401.776 219.634L399.219 218.355L396.661 217.502V216.65L391.12 215.371L382.169 211.961L376.201 209.83L369.808 207.699L354.889 203.862L342.528 200.026L328.888 198.321L319.084 196.616L305.87 195.337L296.066 194.059L291.804 193.206L282 192.78H268.786L257.278 193.632L238.096 195.764L225.735 196.616L215.505 197.895L212.948 198.747L201.013 200.452L196.324 201.731L189.078 203.01L182.258 204.715L177.569 205.567L169.896 207.699L163.929 208.977L153.699 213.24L141.764 217.929L133.239 221.765L121.73 226.454L116.615 228.585L109.369 232.421H108.516L108.09 231.569L106.385 218.781V214.519L109.795 212.387L117.041 208.977L128.976 203.01L134.091 200.026L141.338 196.19L150.289 192.354L157.109 189.37L166.06 186.812L177.143 183.829L183.536 181.697L189.504 179.992L195.898 178.287L202.291 177.009L205.275 176.156L224.456 174.025L226.588 173.172L252.163 171.041L260.261 170.615Z" fill="#FAFAFA"/>
<path d="M267.934 22.7063H270.918L277.738 26.1163L286.689 31.2313L291.378 34.215L298.198 38.0513L303.739 41.8875L309.706 46.15L316.953 51.265L322.494 55.5275L327.609 58.5113L334.855 63.2001L344.659 68.7413L350.626 72.5775L356.594 75.9875L358.725 77.6926L369.808 84.9388L379.185 90.48L385.579 94.3163L396.661 100.71L400.071 103.268L402.203 104.973L406.465 107.104L413.285 112.645L418.4 116.055V116.908H419.679V117.76L422.236 118.186L429.909 123.301L436.729 126.711L442.27 130.121L443.549 131.4L450.795 135.663L469.976 148.45L474.239 151.86L475.091 152.713V156.975L473.386 164.221L472.96 165.5L471.255 164.648L468.271 161.238L466.566 159.959V159.106L464.435 158.254L462.304 156.975V156.123L459.746 155.696L455.058 152.286L448.238 148.024L445.68 146.319L443.123 145.466L437.155 142.056L432.04 138.646L426.073 135.236L423.089 133.105V132.253L420.958 131.4L417.974 128.843L412.433 124.58L411.154 123.301L409.023 122.023L404.334 119.039L399.219 116.481L394.104 113.071L391.546 110.94V110.088L389.415 109.235L388.136 108.383V107.53L386.005 106.678L380.464 103.268L378.759 102.841L372.791 98.5788L368.529 96.0213L359.578 90.0538L356.168 87.9226L354.036 87.4963L348.495 84.5126L342.528 80.6763L337.839 77.6926L333.15 75.1351L325.051 69.1675L319.084 64.905L309.706 58.9375L303.739 55.1013L299.903 52.97L296.919 51.6913L288.394 46.5763L280.295 41.4613L274.754 38.0513L273.049 37.1988L270.065 37.625L266.655 41.035L263.245 42.74L256.425 45.7238L250.458 48.7076L240.654 54.675L232.555 59.7901L224.03 65.3313L220.194 67.4626L213.374 71.7251L206.98 75.5613L195.898 81.9551L191.209 84.9388L188.651 86.6438L185.241 88.3488L180.553 91.3326L173.306 96.0213L165.634 100.71L159.24 104.973L152.846 108.383L145.6 113.071L137.928 117.76L131.108 122.449L127.271 124.58L120.878 128.843L112.353 133.958L103.401 139.073L94.0238 145.04L82.9413 151.434L76.9738 155.27L70.58 159.533L68.4488 161.238V167.205L68.875 174.025L67.5963 172.32L64.1863 165.5L59.4975 156.549L59.0713 153.139L63.76 149.729L70.58 145.466L79.105 140.351L87.63 134.81L94.45 130.548L98.7125 127.564L103.828 124.154L111.074 119.465L120.025 114.35L128.124 108.809L135.796 104.12L142.19 99.8576L151.141 94.7426L161.798 88.3488L172.028 81.9551L180.126 76.4138L184.815 73.8563L194.193 67.8888L200.16 64.905L206.98 60.6426L216.358 54.675L221.899 51.265L229.145 47.0026L234.26 44.445L238.949 41.4613L245.343 37.625L253.015 32.9363L259.835 28.2475L265.376 24.8375L267.934 22.7063Z" fill="#F9F9F9"/>
<path d="M351.905 289.113H367.25L376.201 291.244L380.037 292.949L384.3 294.228L391.972 297.638L397.087 301.474V302.326L398.792 303.179L401.776 306.589L405.186 309.573L412.859 321.508L417.547 331.311L420.105 338.131L420.957 342.82V346.23L418.826 348.361L419.679 350.919L421.384 350.493L422.236 353.476V359.018L420.957 369.674L418.826 379.051L416.695 386.298L414.564 391.413L410.727 397.806L408.17 401.216L405.186 405.479L399.645 411.02L394.956 414.43L386.431 419.119L382.169 421.676L376.201 423.808L373.217 425.086L368.102 426.365L363.414 426.791L345.937 427.218L340.822 425.939L336.56 424.66L325.477 419.119L319.936 414.856L315.247 411.02L311.411 407.184L310.132 405.053L308.001 402.921L306.296 400.79L302.886 396.101L298.624 389.708L294.787 380.756L291.804 374.789L289.246 365.838L288.394 359.87V352.624L289.246 346.23L291.377 339.41L294.787 332.59L299.05 323.639L302.034 318.524L305.017 313.835L308.854 309.146L313.542 304.884L317.379 301.9L320.789 299.343L328.887 295.08L334.429 292.949L340.396 291.244L345.937 289.965L351.905 289.113ZM348.495 305.31L342.101 306.589L335.707 308.72L331.019 311.278L323.346 316.393L319.51 319.803L315.674 324.491L312.69 328.754L309.28 335.148L308.001 337.279L305.444 347.083L304.591 354.329V363.28L305.87 372.658L309.28 380.756L313.542 387.576L318.657 394.396L323.346 398.659L328.887 402.921L335.707 406.331L343.38 409.315L350.626 411.02L354.462 411.446H359.577L367.25 410.168L377.906 405.905L384.726 402.069L391.12 397.38L394.104 394.823L397.94 389.708L403.055 382.035L406.465 375.215L409.022 364.133L410.301 358.165L410.727 354.329V350.493L409.022 344.099L406.891 338.558L404.334 332.59L401.776 328.328L397.087 322.36L393.677 318.524L388.562 314.688L379.185 309.146L376.201 307.868L373.217 307.015L371.512 306.163H368.102L361.709 305.31H348.495Z" fill="#F9F9FA"/>
<path d="M171.601 289.539H182.258L190.356 290.818L195.471 292.096L198.455 292.949L205.275 295.08L208.685 296.359L215.931 299.769L220.194 303.179L225.735 307.868L229.998 312.13L234.686 318.098L241.506 331.738L244.916 340.689L245.769 345.378V365.411L244.064 373.936L242.785 378.625H241.933L240.654 383.314L239.375 385.871L236.818 384.593L235.965 383.74L234.26 383.314L231.703 382.461L231.276 379.478L229.571 385.445L227.014 389.281L223.604 393.544H222.751V394.396H221.899V395.249L215.079 399.938L209.964 402.921L203.144 406.331L197.603 411.446L196.75 412.725L197.176 414.856L198.455 415.283H201.439L206.554 413.578L210.816 410.594L217.21 403.774L218.489 402.495L221.473 400.79L223.178 399.938L224.883 401.216L225.735 402.921L227.866 404.626L227.44 406.758L224.456 410.168L222.751 412.725L214.653 417.414L201.865 423.808L195.898 425.513L186.52 426.791H184.389L184.815 425.086L186.946 422.103V418.266L186.094 414.004L184.389 410.168L183.11 407.61L180.979 406.758L183.11 404.626L193.34 402.069L198.455 399.938L202.718 397.38L207.406 393.118L210.816 390.134L215.931 385.445L217.21 383.74H218.063L218.915 381.609L223.178 376.068L226.588 370.526L228.719 365.411L229.998 358.591V348.361L229.145 341.968L227.44 335.574L224.456 329.18L221.046 324.491L216.358 319.803L210.39 315.966L197.176 309.146L195.045 308.294L187.799 307.015L180.979 305.736H166.913L166.486 306.163H163.503L162.224 305.736L156.683 306.589L153.699 308.294L143.043 318.95L139.633 321.934L135.37 326.623L132.813 330.885L128.976 338.984L125.566 350.066L124.714 353.903V359.444L126.845 368.395L131.108 379.904L134.518 386.724L138.354 393.97L141.764 396.954L149.436 401.216L152.846 402.921L158.388 404.626L167.339 407.184L169.47 408.463L171.601 409.315L172.88 411.873L173.306 421.676V427.218L169.47 426.791L166.486 426.365L162.224 425.939L157.535 424.234L150.289 419.971L142.616 415.283L142.19 414.43L139.633 414.004V413.151H138.78L136.649 410.594L133.239 407.61L130.681 405.479L125.993 399.085L122.156 393.97L119.173 389.708L114.91 380.33L112.779 372.658L111.926 366.69V362.428L113.205 351.771L115.336 338.984L117.041 333.443L117.894 331.738H118.746L119.599 327.901L128.124 314.261L131.108 310.425L134.518 307.015L137.928 304.031L144.321 299.343L150.715 295.933L162.65 291.67L169.044 289.965L171.601 289.539Z" fill="#F9F9FA"/>
<path d="M348.495 305.31H361.709L369.381 306.163L372.365 306.589L373.644 307.441L377.054 308.294L383.021 311.278L389.841 315.54L395.382 320.229L399.219 324.918L403.481 330.885L407.317 339.836L409.022 344.099L410.728 350.493V354.329L409.875 361.149L406.039 376.494L401.776 384.166L395.809 392.691L392.825 396.101L387.71 399.938L381.316 404.2L374.923 407.184L367.25 410.168L359.577 411.446H354.462L346.364 410.168L337.412 407.184L330.592 403.774L326.756 401.216L322.067 397.38L317.805 393.544L311.837 385.019L308.001 378.199L305.87 372.658L304.591 363.28V354.329L305.444 347.083L308.001 337.279L310.559 333.016L313.116 327.901L317.379 322.36L320.362 318.95L325.051 315.114L333.15 309.999L337.839 307.868L345.511 305.736L348.495 305.31ZM356.167 317.671L349.347 318.524L345.085 319.803L338.691 323.213L334.429 326.196L331.019 329.18L328.461 331.311L323.346 339.41L319.936 345.804L318.231 352.624L317.805 356.034V362.001L319.084 368.821L321.215 373.51L323.772 378.199L328.035 384.166L331.445 388.429L339.97 394.823L342.528 395.675L343.806 396.528L349.347 398.659L353.61 399.511H360.004L365.119 398.659L366.824 397.38V396.528L369.381 396.101L373.217 394.396L375.349 393.544L380.037 389.708L382.169 388.003L385.152 384.593L388.562 380.33L392.399 373.51L394.53 367.969L395.809 362.001V349.64L394.104 342.82L391.546 337.705L386.431 331.738L382.169 327.475L376.201 323.639L369.808 320.229L362.987 318.098L356.167 317.671Z" fill="#020913"/>
<path d="M264.95 209.83L267.081 210.256L266.655 211.109L265.376 230.29L264.098 247.766L263.671 248.619H252.162L234.26 248.192L187.799 247.766L179.7 247.34L177.143 246.914L156.256 245.635L138.78 243.077H130.255L131.96 241.799L140.059 238.389L146.453 234.552L156.256 229.864L161.371 227.732L175.438 223.896L186.094 220.912L198.455 217.929L218.915 214.519L238.096 211.961L259.409 210.682L264.95 209.83Z" fill="#FAFBFB"/>
<path d="M452.074 284.85H474.665L475.091 293.801V336.852L474.665 350.919V411.872L474.239 412.299H462.73L447.811 411.872L447.385 411.446L446.959 372.657V338.984L448.664 303.179L449.516 285.702L452.074 284.85Z" fill="#838B91"/>
<path d="M68.4487 286.981H89.3349V345.377H86.7774L85.9249 347.509L84.6462 347.935L84.2199 350.919L88.9087 351.345L89.3349 354.329V412.299H63.3337L63.7599 387.15V362.001L63.3337 349.64L62.4812 336.426L62.0549 310.851V287.407L68.4487 286.981Z" fill="#FBFBFB"/>
<path d="M309.706 281.014L310.985 281.44L304.591 287.834L302.034 289.539H301.181L299.902 291.244L299.05 293.375L296.919 295.506L291.804 301.048L290.525 303.605H289.672L288.82 306.163L287.541 308.294L284.984 313.835L282.426 320.655L279.442 326.623L277.311 327.475H269.639L261.54 327.049L258.13 326.623L255.999 323.639L249.179 309.999L244.49 301.474L241.08 296.785L237.244 292.523L231.702 286.981L226.587 283.145L224.882 281.44L237.67 282.293L258.556 283.145H287.967L302.034 282.293L308.427 281.44L309.706 281.014Z" fill="#D9D9D9"/>
<path d="M125.566 246.488H130.681L149.01 249.898L154.978 251.176L172.028 252.881L230.85 255.439L263.245 256.291H279.016L313.543 255.439L328.888 254.16L354.889 252.029L380.89 251.603L387.71 251.176H395.383L393.677 252.029L379.611 254.16L372.791 255.865L362.135 257.996L345.085 260.554L323.346 263.111L314.395 263.964L299.476 264.39H250.884L217.21 263.111L182.684 261.406L169.47 260.128L160.945 258.849H158.814V257.996L154.551 257.57L151.994 256.718L148.584 255.865L143.043 255.013L136.223 252.881L129.403 249.898L125.14 247.766L125.566 246.488Z" fill="#F2F3F3"/>
<path d="M85.4987 344.951H89.335V345.378H86.7775L85.925 347.509L84.6462 347.935L84.22 350.919L88.9087 351.345L89.335 354.329V412.299H63.3337L63.76 387.15V355.181H64.1862L64.6125 359.444L71.8587 359.018L72.7112 358.591L71.4325 357.739V356.886H70.58L70.1537 354.755L71.8587 352.624L65.465 352.198L64.6125 351.771L64.1862 347.083L65.0387 346.23L69.3012 345.804L80.3837 345.378L85.4987 344.951Z" fill="#7A7D80"/>
<path d="M452.074 284.85H474.665L475.091 293.801V336.852L474.665 345.377H467.419L447.811 344.951L448.238 323.212L448.664 303.179L449.516 285.702L452.074 284.85Z" fill="#FAFAFA"/>
<path d="M43.7262 315.54H45.0049L45.8574 324.065V338.984L44.5787 344.099L43.2999 347.083L39.8899 349.214H39.0374L40.3162 362.854L40.7424 365.411V373.936L39.8899 379.904L39.4637 380.33H36.0537L30.9387 378.625L27.1024 376.068L24.5449 372.658L22.8399 367.969L22.4137 365.411V347.083L23.6924 338.558L25.8237 332.59L30.0862 326.623L34.7749 321.508L40.3162 317.245L43.7262 315.54Z" fill="#F9FAFA"/>
<path d="M508.765 327.475H512.601L515.585 328.754L517.29 330.885L518.995 337.705L519.848 345.804V362.427L518.995 370.526L517.29 375.641L515.159 377.772L513.028 378.625H504.503L499.814 376.92L498.535 375.215V364.985L500.24 357.739L504.503 330.885L505.355 328.327L508.765 327.475Z" fill="#F9FAFA"/>
<path d="M426.925 262.685H428.204L429.056 274.194L429.483 316.819L428.204 315.114L425.646 307.868L423.089 303.605L419.253 299.343L413.711 294.228L410.728 292.096V291.244L409.023 290.391L405.613 287.408L404.334 286.555V285.703L402.629 284.85L395.383 278.03L392.825 275.899L386.858 272.915L399.645 272.489L406.891 271.21L417.548 266.948L425.646 263.111L426.925 262.685Z" fill="#F9F9F9"/>
<path d="M110.221 262.259L114.058 263.111L120.025 266.521L126.419 269.931L135.796 271.636L142.616 272.489L145.6 273.768L144.748 275.473L138.78 280.161L133.665 283.998L132.813 284.85H131.534V285.703L128.124 288.686L125.566 291.244H124.714L123.861 292.949L120.451 295.933L116.189 300.621L111.5 307.868L109.795 310.425H109.369L108.943 302.753V276.751L109.795 263.111L110.221 262.259Z" fill="#F7F7F8"/>
<path d="M455.058 356.886H469.976L470.403 370.526V408.462L469.124 408.036V406.757H467.845V405.905H465.714L466.993 403.774V401.642H466.14V400.79H465.288L464.009 398.659V397.38L462.73 396.954V396.101L459.32 394.822V393.97L457.615 393.544L456.336 391.839L454.205 390.986L452.926 389.707L452.074 384.166V378.199L451.221 373.51L449.943 367.542L449.09 367.116L448.664 363.28V357.312L455.058 356.886Z" fill="#787B7F"/>
<path d="M309.706 281.014L310.985 281.44L304.591 287.834L302.034 289.539H301.181L299.902 291.244L299.05 293.375L296.919 295.506L294.361 297.638V296.359H295.214L296.066 294.654L297.771 292.096L294.361 295.08L290.099 296.785H282L270.491 295.933L261.114 294.228L254.72 293.375L241.08 292.096L237.244 290.391L233.407 287.408L232.555 285.703L234.26 284.424L252.589 283.998L252.162 283.145H287.967L302.034 282.293L308.427 281.44L309.706 281.014Z" fill="#9BA8B0"/>
<path d="M407.317 251.176L409.449 251.603L408.596 252.881L410.301 252.455L412.432 252.029L414.137 251.603L413.711 253.308L412.432 256.291L412.006 258.423H414.99L415.842 257.57H417.547V258.423L413.285 260.554L412.432 261.406L413.285 262.259L411.154 263.538L409.022 265.243L406.891 265.669L404.76 266.948L402.202 267.374L401.35 266.948V267.8L397.514 268.226L394.53 268.653H391.12L386.857 269.931L386.005 270.358L381.742 270.784V269.931L373.644 270.784L368.955 269.931L365.971 268.226L365.119 266.948L362.135 268.653L359.151 268.226L360.004 266.521L365.971 263.111L365.119 262.259L368.955 259.701L370.234 259.275L370.66 257.996H363.414L364.692 257.144L372.791 255.439L379.611 253.734L391.546 252.029H394.53V252.455L389.841 252.881V253.734L398.792 252.881L404.334 251.603L406.039 252.029L407.317 251.176Z" fill="#020D20"/>
<path d="M386.431 278.03H390.268L396.661 280.161L397.088 281.014L397.94 280.161L403.481 285.276L404.334 285.703V286.555L406.039 287.408L409.875 290.818L410.728 291.244V292.096L412.433 292.949L418.4 298.064L417.548 298.49L414.138 295.933L409.875 292.949L411.154 296.785L410.728 298.064L410.301 297.638L409.023 299.343V297.638L407.744 298.064L406.039 296.785L403.908 298.916L403.481 300.621L400.924 300.195L398.793 299.343L403.055 303.605L403.481 304.884L403.055 306.589L406.465 309.146L408.17 312.13L410.728 316.393L411.58 317.671L411.154 319.376L407.318 313.409L404.334 309.146L400.924 306.163L397.94 302.753L394.53 299.769L389.415 296.785L382.169 293.801L376.628 292.096L372.791 290.818L367.25 289.539H348.921L350.2 288.686L357.02 287.408L367.25 287.834L372.365 289.113H374.496L374.923 288.686L371.086 286.129L370.66 283.998L374.923 282.719L375.349 281.44L383.021 279.309L382.595 278.456L386.431 278.03Z" fill="#040E21"/>
<path d="M414.99 400.364L415.416 401.216L414.137 402.921L417.121 403.348L416.269 404.626H415.416V405.905L418.4 406.331L421.384 407.61V408.463H420.531V409.741H421.384L422.662 411.446L422.236 413.578L419.252 415.709L418.4 417.414L417.121 419.545L414.99 420.824L413.711 422.103L409.449 424.66L403.481 427.644L395.809 429.775L394.53 429.349H391.546L391.12 430.628H393.677L391.972 431.48L387.71 431.054L385.579 431.906H383.447L381.742 428.496L382.595 426.365L386.431 423.381L390.694 421.25L392.399 419.971L393.251 420.398L394.956 419.545L397.087 418.266L398.366 416.988L402.202 414.43L403.481 413.151H404.334V412.299H405.186L406.039 410.594L409.022 406.758L414.99 400.364Z" fill="#020D20"/>
<path d="M265.376 434.89H275.18L280.721 436.595L282.852 437.874L284.557 440.858L284.984 444.694L284.131 448.956L281.574 453.219L279.869 455.35L276.885 457.055L276.032 457.481H271.77L269.639 457.055V455.776L267.081 455.35L263.671 452.793L260.687 448.956L258.556 447.678H257.704L257.277 446.825V442.136L259.835 438.3L262.392 436.169L265.376 434.89Z" fill="#020913"/>
<path d="M447.385 349.64L449.943 350.493L473.813 351.771L474.665 362.428V402.495L474.239 410.594L470.829 410.168L470.403 398.659L469.976 370.526V356.886L455.058 357.313L447.385 357.739V349.64Z" fill="#FAFBFB"/>
<path d="M198.881 208.125H206.127L208.685 208.978V211.109L206.554 212.388L202.717 214.093H199.307L197.176 214.945L194.192 215.798L193.34 215.371V216.224L191.209 216.65L189.504 217.076H187.799L187.372 217.929L183.536 218.355L181.405 219.208L172.88 221.339L169.896 221.765L168.617 222.618L166.486 223.044L157.961 225.175L151.567 227.733H147.731L146.026 226.88L146.879 225.175L150.715 222.618L159.24 218.355L163.076 217.503L165.207 217.076L170.749 214.945L172.88 214.519V213.666L176.716 212.388L180.126 211.109L185.667 209.83L196.75 209.404H202.291L198.881 208.551V208.125Z" fill="#020D20"/>
<path d="M294.361 13.755H296.492L300.755 16.3125V17.165L302.886 18.0175L308.001 21.4275L312.264 24.4113L314.395 25.2638L319.51 28.6738V29.5263L321.215 30.3788L325.904 32.9363L337.412 39.7563L342.527 42.74L345.511 44.445V45.2975L347.642 46.15L357.02 52.1175L363.414 55.9538L364.266 56.8063L368.955 60.2163L371.512 61.495V62.3475L373.644 62.7738L377.906 65.7575L382.595 68.315V69.1675L384.726 70.02L389.415 72.5775L393.251 75.135L401.776 80.25L410.301 85.7913L413.285 87.9225L420.531 92.6113L426.072 96.0213L431.187 99.4313L434.171 101.136L443.122 106.678L446.959 109.661L451.221 111.793L455.484 114.776V115.629L457.615 116.481L461.877 119.039L468.271 123.301L475.944 127.99L484.469 133.531L491.289 137.368L494.272 139.073L496.404 140.778L496.83 142.483L490.862 139.073L486.174 136.089L479.354 131.826L470.829 126.711L462.73 121.596L453.779 116.055L440.565 107.53V106.678L438.86 106.251V105.399L436.302 104.973L429.056 100.284L413.285 90.0538L393.251 77.2663L385.579 72.5775L377.48 67.4625L365.119 59.3638L362.561 57.6588L360.856 55.9538L357.02 54.2488L346.79 47.855L340.822 44.0188L331.445 38.4775L321.641 32.51L302.46 19.7225L294.787 15.0338L294.361 13.755Z" fill="#141E2F"/>
<path d="M309.706 281.014L310.985 281.44L304.591 287.834L302.034 289.539H301.181L299.902 291.244L299.05 293.375L296.919 295.506L294.361 297.638V296.359H295.214L296.066 294.654L297.771 292.096L294.361 295.08L290.099 296.785H282L270.491 295.933L261.114 294.228L254.72 293.375L241.08 292.096L237.244 290.391L233.407 287.408L232.555 285.703L234.26 284.424L252.589 283.998L252.162 283.145H287.967L302.034 282.293L308.427 281.44L309.706 281.014ZM273.475 284.424L264.95 285.276L238.949 285.703L235.965 286.555L236.391 287.834L238.522 289.965L242.785 291.244L251.31 292.096L264.95 292.949L276.032 293.375H288.82L293.935 292.523L297.345 290.818L298.624 289.539L298.197 286.981L294.361 286.129L281.147 284.85L273.475 284.424Z" fill="#C7CDCE"/>
<path d="M85.4988 344.951H89.335V345.378H86.7775L85.925 347.509L84.6463 347.935L84.22 350.919L88.9088 351.345V358.591L79.5313 359.018H73.5638L71.4325 357.739V356.886H70.58L70.1538 354.755L71.8588 352.624L65.465 352.198L64.6125 351.771L64.1863 347.083L65.0388 346.23L69.3013 345.804L80.3838 345.378L85.4988 344.951Z" fill="#CCD1D2"/>
<path d="M161.371 277.604H170.323L173.306 278.03L174.159 277.604L175.011 279.309H176.29V280.161H177.569L177.143 281.866L172.88 281.44L172.028 279.735H171.175V280.588L165.208 280.161L163.929 279.735L163.503 280.588L161.371 280.161L160.945 280.588H166.913L168.618 281.014L169.47 280.588L169.896 281.866L168.618 282.719L172.454 283.998L172.028 285.276L168.618 286.555L163.076 287.834L160.945 288.686L156.256 289.113L152.42 290.391L150.715 287.834L148.158 286.555L148.584 288.26L150.715 289.113L151.141 289.965L149.863 291.244L149.01 290.818V291.67L146.026 292.949L144.321 292.096L144.748 293.375L142.19 293.801V294.228L139.206 293.801L137.075 292.096L136.223 289.539L137.928 286.981L140.911 283.998L143.469 283.571L143.043 285.703L145.174 283.998H146.026L146.453 282.719L148.158 283.145L146.879 283.571L146.026 285.276L148.158 284.85L148.584 283.571L150.715 283.998L153.273 284.85L153.699 283.571L155.83 284.424L158.814 285.276L160.945 283.998L166.913 283.145L163.503 281.866H160.093L159.24 281.44L158.814 278.456L161.371 277.604Z" fill="#020D20"/>
<path d="M348.495 305.31H361.709L369.381 306.163L372.365 306.589L373.644 307.441L377.054 308.294L383.021 311.278L389.841 315.54L395.382 320.229L399.219 324.918L403.481 330.885L407.317 339.836L409.022 344.099L410.727 350.493V354.329L409.875 361.149L409.022 364.133H408.596V358.591L407.317 359.444L405.612 363.706L403.481 366.264H402.629L402.202 364.559L401.35 365.411L401.776 362.854L402.629 362.428L403.055 355.608V347.083L403.907 345.804L404.334 344.099L405.612 344.525L405.186 345.378L406.039 344.951L406.465 342.394L403.907 336.853L402.202 332.164L399.219 327.475L396.235 323.639L389.841 317.245L384.3 313.409L378.333 310.425L371.939 308.294L365.119 307.015L360.004 306.589H355.741L345.938 307.441L337.839 309.146L334.003 309.999L335.708 308.72L343.806 306.163L348.495 305.31Z" fill="#040F22"/>
<path d="M260.688 168.91H284.131L293.083 169.763L312.69 171.894L315.674 172.746L327.609 174.025L334.855 175.73L345.085 177.435L360.43 181.271L375.775 185.534L383.874 188.518L388.989 191.075L390.694 191.501V192.354L393.251 193.206H397.514L399.645 194.059L398.793 194.911L400.498 196.19L403.055 197.043V198.321L409.023 202.158L408.17 202.584L401.35 198.748L394.956 195.338L388.136 191.928L379.611 188.091L370.234 185.108L358.725 182.124L351.479 179.993L334.855 177.009L324.625 175.304L300.755 172.32L278.164 171.041H260.261L248.326 171.894L241.933 172.32H237.244L238.523 171.468L246.621 170.189L260.688 168.91Z" fill="#020D20"/>
<path d="M493.42 318.098L498.109 321.081L501.519 323.639L503.224 325.77V330.033L501.945 335.574L499.814 340.689L497.683 346.656L496.83 350.493H496.404L495.125 345.378L492.994 339.836L492.568 337.705V321.934L493.42 318.098Z" fill="#F6F6F7"/>
<path d="M492.141 300.621L493.42 301.047L495.125 308.72L496.404 312.13L497.256 313.835L503.224 318.097L504.929 319.376L510.044 320.229L514.306 321.934L515.585 323.639V327.049L517.29 329.18L518.143 331.311L517.716 333.016L516.011 329.606L513.88 328.327L512.601 327.901H508.765L505.355 328.327L506.208 327.901L506.634 326.196L505.781 325.344L504.503 324.917L502.798 325.77L500.24 322.786L494.273 318.95H492.994V316.392L491.715 311.704L491.289 302.326L492.141 300.621Z" fill="#030E21"/>
<path d="M470.403 398.659H470.829V410.167L474.239 410.594V402.495H474.665V411.872L474.239 412.299H462.73L447.811 411.872V402.921L448.238 404.2L458.468 405.052L467.845 406.331L469.124 406.757L469.55 408.036L470.403 408.462V398.659Z" fill="#81888E"/>
<path d="M275.18 333.016L276.885 333.869L279.016 337.705L279.869 341.967H276.459L272.196 342.394L269.639 341.115L269.212 339.836L268.36 340.689L268.786 341.967L266.229 341.541L265.802 339.41L264.097 338.984L262.392 340.262L264.097 340.689V341.541H262.819V340.689L259.409 339.836L258.982 338.557H257.277L256.851 339.41H255.572L255.146 337.279L255.572 336L262.819 334.295L266.655 333.869H271.77L275.18 333.016Z" fill="#030E21"/>
<path d="M164.781 269.079H168.191L178.848 271.636L180.979 272.915L179.274 273.341L175.438 272.915L172.88 272.062L169.896 271.636L170.749 272.489L171.601 272.915V273.767H173.306V274.62H175.438H176.29L178.421 275.046L178.848 276.751L181.831 277.604L180.126 278.456L177.569 278.03V276.751L175.438 277.177L174.159 275.899V275.046L172.454 275.899H168.191L166.913 276.325L165.208 275.472L163.503 275.899H160.945H159.666H157.109L154.978 275.472H152.42L151.141 277.177L150.289 276.751L151.141 274.194H151.994V273.341L153.699 272.489L152.42 272.062L150.715 272.489L149.436 275.472H149.01V272.062L153.273 270.357L154.125 269.505H158.388L159.666 269.931L164.355 269.505L164.781 269.079Z" fill="#020D20"/>
<path d="M291.804 192.78H298.624L310.559 193.633L318.231 194.485L328.887 196.19L335.707 197.469L348.069 200.026L355.741 202.158L365.545 204.715L377.054 208.125L380.89 209.83L395.809 215.798L394.53 216.224L391.12 215.371L382.169 211.961L376.201 209.83L369.807 207.699L354.889 203.863L342.527 200.026L328.887 198.321L319.084 196.616L305.87 195.338L296.066 194.059L291.804 193.206V192.78Z" fill="#868E94"/>
<path d="M63.76 355.181H64.1862L64.6125 359.444L66.3175 359.87H65.465L65.8912 364.133V371.379L65.465 376.068V386.298L66.3175 394.396L66.7437 407.184L68.0225 409.741L75.695 410.594L77.4 411.02H88.4825V408.889H88.9087L89.335 412.299H63.3337L63.76 387.15V355.181Z" fill="#A1ACB3"/>
<path d="M448.238 344.951H467.419L472.534 345.378L472.96 345.804V349.64L472.534 351.345H467.845L465.714 350.493L462.73 350.066L449.943 349.214L448.238 348.361V344.951Z" fill="#868E94"/>
<path d="M448.237 313.835H448.664V323.212L448.237 344.951L448.664 348.361L449.942 348.787L462.73 349.64L466.566 350.492L467.845 350.919L472.534 351.345V345.377H474.665V350.919L474.239 356.886H473.812V351.771H464.861L449.942 350.919L447.811 350.066V357.312H448.664L449.09 363.28V375.641L448.237 376.494L447.811 384.592H447.385L446.959 372.657V338.984L448.237 313.835Z" fill="#98A2A9"/>
<path d="M85.4988 344.951H89.335V345.378H86.7775L85.925 347.509L84.6463 347.935L84.22 350.919L88.9088 351.345V351.771H67.17L68.4488 347.509L69.3013 345.804L80.3838 345.378L85.4988 344.951Z" fill="#848C92"/>
<path d="M440.565 107.104L442.696 107.53L445.68 108.383L446.959 109.661L451.221 111.793L455.484 114.776V115.629L457.615 116.481L461.878 119.039L468.271 123.301L475.944 127.99L484.469 133.531L491.289 137.368L494.273 139.073L496.404 140.778L496.83 142.483L490.863 139.073L486.174 136.089L479.354 131.826L470.829 126.711L462.73 121.596L453.779 116.055L440.565 107.53V107.104Z" fill="#0F192B"/>
<path d="M493.42 341.541L494.699 343.246L496.83 348.361L497.683 350.066L496.83 358.165L496.404 360.296H495.551V359.018H494.699L492.994 354.329V352.624H492.141L491.715 356.886L492.994 359.87V361.575L490.436 360.723L490.863 352.624H490.01V347.935L490.863 345.804L492.141 345.378L492.568 345.804L493.42 341.541Z" fill="#020D20"/>
<path d="M343.806 178.714H346.79L352.758 179.992L358.725 181.697L366.824 183.829L377.054 186.812L383.448 189.37L397.088 196.19L406.039 200.879L414.99 205.994L423.089 210.682L426.073 212.814L425.22 213.24L419.253 209.83V208.977L415.416 207.699L412.006 205.567L408.596 203.862V203.01L406.465 202.584L397.088 197.469L392.825 195.337L391.12 194.911V194.059L387.284 192.78L385.579 191.927V191.075L383.021 190.649L377.48 188.091L370.66 186.386L367.676 185.534L355.315 182.124L349.348 180.419L343.806 179.14V178.714Z" fill="#939BA0"/>
<path d="M400.924 81.1025L403.908 81.5288L410.301 85.7913L413.285 87.9225L420.531 92.6113L426.073 96.0213L431.188 99.4313L434.171 101.136L443.123 106.678L444.401 107.956L443.549 108.383L439.713 106.678L438.86 106.251V105.399L436.303 104.973L429.056 100.284L413.285 90.0538L402.629 83.2338L400.924 81.955V81.1025Z" fill="#091325"/>
<path d="M309.706 252.881H319.084L331.871 253.734V254.16L325.051 255.012L313.542 255.865L279.016 256.717H263.245L263.671 255.865L281.574 255.439L304.165 255.012L311.411 253.734L309.706 253.307V252.881Z" fill="#020D1F"/>
<path d="M447.811 402.921L448.238 404.2L455.484 405.053L458.468 405.905L461.878 406.331L463.583 407.184L467.845 407.61L469.55 408.889V409.741L447.811 409.315V402.921Z" fill="#CDD2D3"/>
<path d="M448.664 266.521H477.223L483.19 266.947L485.748 268.226L487.453 270.357L490.01 276.751L489.584 278.03L486.6 273.341L484.043 269.931L481.485 269.079L473.813 268.652L449.09 268.226L448.664 266.521Z" fill="#030E20"/>
<path d="M291.804 192.78H298.624L310.559 193.633L318.231 194.485L328.887 196.19L335.707 197.469L340.396 198.321V198.748H331.871L319.084 196.616L305.87 195.338L296.066 194.059L291.804 193.206V192.78Z" fill="#899196"/>
<path d="M503.224 202.584H518.995L523.257 203.01V232.421L522.405 246.061L521.552 244.356L521.979 203.436L502.797 203.862L503.224 202.584Z" fill="#131D2E"/>
<path d="M281.147 392.265H282L285.41 399.085L289.672 406.758L290.099 408.036L291.804 408.463L292.656 409.741L293.935 410.168V411.02L295.64 411.873L298.624 415.283L299.476 417.414L300.329 418.266L301.181 421.676L299.05 420.824L294.787 416.135L293.509 414.43V413.578H292.656L290.099 410.168L285.836 403.348L283.279 398.233L281.147 393.544V392.265Z" fill="#051023"/>
<path d="M200.16 252.881H210.816L213.374 253.307L225.309 254.16L239.375 255.012L247.047 255.439V255.865H230.85L191.209 254.16V253.734L200.16 252.881Z" fill="#020D20"/>
<path d="M63.76 349.214H64.6125V351.771L73.5638 352.197L71.8588 352.624L71.0063 354.329L70.58 356.034V356.886H71.4325V357.739L73.5638 358.591L71.8588 359.444H64.6125L64.1863 360.722L63.76 355.181V349.214Z" fill="#FAFAFA"/>
<path d="M232.129 287.834L233.834 288.686L240.654 295.506L244.916 301.474L250.031 310.851L253.441 317.671L257.704 325.77L258.13 326.622L256.425 325.77L253.868 321.507L249.179 312.556L245.769 307.015L242.785 301.9L240.654 298.064L235.113 291.67L232.129 288.686V287.834Z" fill="#071123"/>
<path d="M322.92 436.169H323.346L323.772 439.152V447.677L322.92 470.269L322.494 472.4L323.772 471.974L335.707 472.4L336.986 473.252V474.105L325.477 473.679L321.215 473.252L321.641 463.449L322.494 451.087L322.92 436.169Z" fill="#071123"/>
<path d="M448.664 345.377H472.534V346.656L469.55 347.935H466.14L464.435 348.787H458.041V347.935L450.795 347.082V346.23L448.664 345.804V345.377Z" fill="#6D7175"/>
<path d="M137.501 239.667L141.338 240.946L150.715 243.077L160.945 244.782L169.896 245.635V246.061H162.65L153.273 245.209L138.78 243.077H130.255L131.96 241.799L137.501 239.667Z" fill="#A1A8AD"/>
<path d="M44.1525 171.041L45.4312 172.32L48.8412 180.845L53.1037 189.796L57.7925 197.469L62.9075 204.289L66.7437 208.978L70.1537 212.814L68.875 213.666L63.76 208.125L61.6287 205.141L59.9237 203.436L56.5137 198.321V196.616L55.235 196.19L48.415 182.976L44.1525 171.894V171.041Z" fill="#081224"/>
<path d="M161.371 277.604H170.322L173.306 278.03L174.159 277.604L175.011 279.309H176.29V280.161H177.569L177.142 281.866L172.88 281.44L172.027 279.735H171.175V280.588L165.207 280.161L163.929 279.735L163.502 280.588L161.371 280.161L160.945 280.588L163.502 281.014L162.224 281.866L159.24 281.44L158.814 278.456L161.371 277.604Z" fill="#030E21"/>
<path d="M387.71 251.176H395.382L393.678 252.029L379.611 254.16L372.791 255.865L362.135 257.996L356.594 258.423L357.873 257.57L372.791 254.16L374.923 253.308L381.743 252.881L373.218 252.455V252.029L387.71 251.176Z" fill="#95A0A7"/>
<path d="M24.9713 289.113L26.6763 289.539V290.391H27.5288L28.3813 295.933L30.5125 296.785L31.365 299.343L30.5125 299.769H26.25L24.9713 298.064L24.545 298.49L24.1188 301.9H23.6925V297.211L24.545 289.539L24.9713 289.113Z" fill="#020D20"/>
<path d="M268.786 192.354H282L291.804 192.78L299.903 194.059L304.591 194.911V195.338L298.624 194.911L283.279 193.633H270.918L255.146 194.485L251.736 194.911H247.474V194.485L251.736 193.633L261.114 192.78L268.786 192.354Z" fill="#020D20"/>
<path d="M69.3013 345.804H77.4L79.9575 346.656L79.5313 347.509L75.2688 348.787L73.99 350.919L71.4325 351.771H67.17L68.4488 347.509L69.3013 345.804Z" fill="#9CA9B1"/>
<path d="M371.939 184.681L378.332 186.386L385.579 189.37L388.989 191.075L390.694 191.501V192.354L393.251 193.206H397.514L399.645 194.059L398.792 194.911L400.497 196.19L403.055 197.043V198.321L409.022 202.158L408.17 202.584L401.35 198.748L394.956 195.338L388.136 191.928L379.611 188.091L371.939 185.534V184.681Z" fill="#030E21"/>
<path d="M42.8737 347.083L43.3 348.788L41.595 360.723L41.1687 367.969H40.7425L39.89 362.854L39.0375 353.476V349.214L42.8737 347.083Z" fill="#95A1A8"/>
<path d="M443.549 217.502L446.106 217.929L446.959 219.634L448.664 220.912L449.09 222.617L449.516 225.175L447.811 227.732L446.106 229.011L444.828 227.732L443.975 223.47L443.549 217.502Z" fill="#020D20"/>
<path d="M216.784 437.874H217.21L216.784 474.531H215.505V455.35L215.931 441.284L216.784 437.874Z" fill="#80878C"/>
<path d="M376.201 66.1837L378.759 67.0362L382.169 68.7412L386.858 71.2987L389.415 72.5775L393.251 75.135L401.776 80.25L402.629 81.1025L400.924 81.5287L398.793 80.6762L388.989 74.7087L382.169 70.4462L376.201 66.61V66.1837Z" fill="#0C1728"/>
<path d="M245.769 318.95L247.474 319.376L249.605 322.786V323.639L250.457 324.491L251.31 325.77L251.736 328.327L252.589 328.754L253.015 330.032L252.162 332.164L250.884 332.59L249.179 330.885L247.047 326.196L246.195 322.36L246.621 321.507H247.9L245.769 318.95Z" fill="#020D20"/>
<path d="M253.441 381.182L254.72 382.035V387.15L252.589 394.396L250.031 398.659L249.605 397.38L250.031 395.249L249.605 393.117L250.457 389.281L251.736 386.297L253.015 383.74L253.441 381.182Z" fill="#030E21"/>
<path d="M408.17 364.133H408.596L408.17 368.395L406.039 376.494L401.776 384.166L395.809 392.691L392.825 396.101L387.71 399.938L386.858 399.511L390.268 396.101L393.251 393.544L397.94 387.576L399.645 385.445L401.35 382.461L403.055 379.904L406.891 369.248L408.17 364.133Z" fill="#030E21"/>
<path d="M320.362 371.805L321.641 373.51L324.199 378.199L328.461 384.166L331.445 388.002L339.97 394.396L342.954 395.249L344.659 396.954L342.101 396.527L336.56 393.544L331.445 389.707L326.756 385.019L323.346 379.477L320.362 373.51V371.805Z" fill="#091426"/>
<path d="M458.468 357.312H469.976V377.346H469.55L469.124 365.411L468.271 364.559L467.845 361.149L466.993 359.87L458.468 358.165V357.312Z" fill="#5E6267"/>
<path d="M248.326 388.855L249.179 389.281V393.117L248.752 397.38L247.047 399.511L246.621 402.069L245.342 406.757L246.621 407.184L244.49 408.889L243.211 410.167L241.932 410.594L241.506 408.889L242.785 407.61L243.637 405.052L245.342 402.495L246.195 396.954L247.047 391.839L248.326 388.855Z" fill="#030E21"/>
<path d="M294.361 13.755H296.492L300.755 16.3125V17.165L302.886 18.0175L308.001 21.4275L312.264 24.4113L314.395 25.2638L316.526 27.395L314.395 27.8213L304.591 21.0013L298.197 17.165L294.361 14.6075V13.755Z" fill="#0B1628"/>
<path d="M458.041 283.145H465.714L473.386 283.571L474.665 283.998V284.85L452.074 285.276L449.516 285.703L450.369 283.571L458.041 283.145Z" fill="#283140"/>
<path d="M356.594 52.1174L360.856 54.2487L363.414 55.9537L364.266 56.8062L368.955 60.2162L371.512 61.4949V62.3474L373.644 62.7737L377.906 65.7574L382.595 68.3149L381.742 69.1674L377.054 66.6099L374.07 65.3312L362.561 57.6587L360.856 55.9537L359.151 55.1012L357.872 53.8224L356.167 52.5437L356.594 52.1174Z" fill="#0B1527"/>
<path d="M321.641 396.527L323.772 397.38L328.461 401.216L336.56 405.052L345.085 408.462L351.052 410.167L353.61 410.594V411.02L348.069 410.594L340.822 408.462L331.871 404.626L327.182 401.642L321.641 396.954V396.527Z" fill="#030E21"/>
<path d="M447.811 357.312H448.664L449.09 363.28V375.641L448.238 376.494L447.811 384.593H447.385V357.739L447.811 357.312Z" fill="#9BA8B0"/>
<path d="M173.306 423.807H173.732L174.159 427.217L175.011 427.644L182.684 428.07L182.257 428.922L178.847 429.775H174.585L164.355 427.217L158.387 425.086L159.666 424.66L163.929 425.939H167.339L173.306 427.217V423.807Z" fill="#030E21"/>
<path d="M380.464 421.25H381.743V422.103L374.496 425.513L368.955 427.218H352.758L351.479 426.365L363.414 425.939L370.234 425.086L375.775 423.381L380.464 421.25Z" fill="#0A1427"/>
<path d="M401.35 249.045H406.039V249.898L406.891 250.324L400.497 251.176L398.792 251.603L398.366 250.75L390.694 251.176L380.89 252.029H369.807V251.603L372.791 251.176L394.104 249.898L401.35 249.045Z" fill="#020C1E"/>
<path d="M180.126 181.698H181.831V182.55L177.142 184.255L166.06 187.239L157.109 189.796L155.83 189.37L157.961 188.091L168.617 184.681L175.437 182.976L180.126 181.698Z" fill="#0B1628"/>
<path d="M321.215 415.282L322.92 416.135L332.297 421.25L340.396 424.234L351.479 426.365V426.791L345.937 427.217L340.822 425.939L336.56 424.66L325.477 419.119L321.215 415.709V415.282Z" fill="#7F8488"/>
<path d="M277.311 255.439H304.165V255.865L279.016 256.717H263.245L263.671 255.865L277.311 255.439Z" fill="#030E21"/>
<path d="M305.017 350.066H305.444V360.296L305.87 366.264L307.575 372.658L309.706 377.773L311.837 383.314L313.542 385.871L313.116 386.724L309.28 380.756L306.722 374.789L305.87 372.658L304.591 363.28V354.329L305.017 350.066Z" fill="#040F21"/>
<path d="M302.034 282.292H307.575L305.017 285.276L303.739 286.555H302.886V284.85L291.804 284.424V283.571L295.64 282.719L302.034 282.292Z" fill="#EBECED"/>
<path d="M92.3188 256.291H96.155V258.849L94.8763 261.406L93.5975 262.685L92.3188 266.095L91.8925 264.39L91.04 258.849L90.1875 258.423V257.144L92.3188 256.291Z" fill="#040F21"/>
<path d="M155.83 245.635H162.65L177.142 246.488L180.126 247.34V247.766H169.044L158.814 246.914L155.83 246.061V245.635Z" fill="#020B1B"/>
<path d="M256.425 264.39H293.082V264.816L275.606 265.243V265.669H264.097L258.13 265.243L256.425 264.39Z" fill="#030E21"/>
<path d="M396.661 216.65L398.793 217.076L408.596 221.765L420.531 227.733L419.253 228.159L417.121 227.733L406.465 222.618L401.776 219.634L399.219 218.355L396.661 217.503V216.65Z" fill="#83898E"/>
<path d="M19.0038 395.675L23.2663 396.528L43.3 396.954V397.806L35.6275 398.233H22.84L19.43 396.528L19.0038 395.675Z" fill="#ACB6BB"/>
<path d="M446.959 212.387L447.385 213.24L450.369 213.666L452.5 214.945L453.352 218.355L451.221 218.781L449.516 219.207L449.09 220.06L447.385 219.634L446.959 217.929L447.385 216.65L446.959 214.945L448.664 214.092L446.959 213.666V212.387Z" fill="#020D20"/>
<path d="M190.356 290.391L194.192 290.817L201.012 292.522L211.242 296.359L215.079 298.916L214.226 299.342L208.685 296.785L202.717 294.654L195.897 292.949L194.192 292.096L190.356 291.244V290.391Z" fill="#0C1728"/>
<path d="M366.824 205.568L369.807 205.994L377.054 208.125L380.89 209.83L395.809 215.798L394.53 216.224L391.12 215.371L382.169 211.961L377.48 209.83L372.365 207.699L367.25 206.42L366.824 205.568Z" fill="#8B949A"/>
<path d="M1.52747 356.886H1.95372L2.80622 361.575L4.08497 367.116L5.78997 373.084L8.77372 380.756L8.34747 382.035L7.06872 379.904L3.23247 370.526L1.52747 361.575V356.886Z" fill="#040F21"/>
<path d="M265.803 113.924H267.508L267.934 116.481L266.229 116.907L265.376 117.334L266.229 117.76V118.612L267.081 119.039L263.671 120.744L261.114 119.465L260.688 118.186L261.114 117.334H262.819V116.481L265.803 113.924Z" fill="#030E21"/>
<path d="M218.489 434.89L219.767 435.316L217.636 436.595L216.357 441.284L215.505 471.974H215.079V443.415L215.931 437.021L218.489 434.89Z" fill="#030E21"/>
<path d="M333.576 325.77L335.281 326.196L332.724 327.901L327.609 333.016L321.641 343.246L319.51 348.361L318.657 350.066V347.509L320.789 342.394L325.051 334.295L328.035 330.459L332.724 326.623L333.576 325.77Z" fill="#081225"/>
<path d="M259.835 379.904L261.114 380.33L259.409 382.888L257.277 390.56L255.146 399.938L251.736 405.905L251.31 404.626L253.441 399.938L255.999 391.413L257.277 386.298L258.982 381.183L259.835 379.904Z" fill="#030E21"/>
<path d="M319.084 196.19H328.887L335.707 197.469L340.396 198.321V198.747H331.871L319.084 196.616V196.19Z" fill="#82888D"/>
<path d="M95.7287 432.759H104.68L109.369 433.185V434.89L108.09 435.316L97.0074 434.464L94.0237 434.038L95.7287 432.759Z" fill="#020D20"/>
<path d="M64.6125 359.444L66.3175 359.87H65.465L65.8913 364.132V371.379L65.465 376.067V385.871L64.6125 386.297V359.444Z" fill="#9BA8B0"/>
<path d="M457.189 357.739L462.73 358.591L466.992 359.444L468.271 361.575L468.697 364.559L469.124 365.838V370.953H468.697L468.271 367.969L467.419 364.985L466.992 361.575L463.156 360.723L458.467 359.444L457.189 357.739Z" fill="#838B91"/>
<path d="M113.205 262.685L115.762 263.111L126.419 268.653L133.239 270.784L134.517 271.636L130.255 271.21L125.566 269.931L119.172 266.521L113.205 263.111V262.685Z" fill="#040F22"/>
<path d="M125.14 247.766L127.698 248.619L134.091 251.602L141.338 254.16L143.895 255.012L144.321 255.865L145.6 256.717L142.616 256.291L136.223 254.16L125.993 249.045L125.14 247.766Z" fill="#020D20"/>
<path d="M400.071 198.748L403.055 199.174L414.138 205.568L421.81 209.83L426.073 212.814L425.22 213.24L419.253 209.83V208.978L415.416 207.699L412.006 205.568L408.596 203.863V203.01L406.465 202.584L400.071 199.174V198.748Z" fill="#91999E"/>
<path d="M467.845 171.041H468.698L469.124 171.894L469.55 177.435L468.271 178.288V176.583L466.993 176.156L466.566 176.583H465.288H464.435L464.009 174.878L465.288 173.599L464.435 173.173L466.566 171.468L467.845 171.041Z" fill="#020D20"/>
<path d="M522.405 313.409L526.241 313.835L531.783 315.54L534.34 317.245L536.471 320.655L538.603 327.901V328.754H537.75L535.619 321.934L533.488 318.524L528.799 315.966L522.405 313.835V313.409Z" fill="#091326"/>
<path d="M139.632 414.004H142.19L142.616 415.283L144.747 416.135L150.289 419.545L158.387 424.234L157.109 424.66L146.452 419.119L139.632 414.43V414.004Z" fill="#091426"/>
<path d="M315.247 106.677V107.956H314.395L313.969 110.087L311.837 114.35L308.427 120.317L305.444 125.006L304.591 125.432L305.017 123.727L309.706 115.202L312.69 109.235L314.821 107.104L315.247 106.677Z" fill="#030E21"/>
<path d="M257.277 20.1487L261.114 21.4274L260.687 23.1324L258.982 24.8374L258.13 24.4112L257.277 23.5587H253.015L249.179 24.4112L251.31 22.7062L255.999 21.0012H257.277V20.1487Z" fill="#030E21"/>
<path d="M44.1525 171.041L45.4312 172.32L48.8412 180.845L53.1037 189.796L55.6612 194.059L55.235 195.338L53.9562 193.633L48.415 182.976L44.1525 171.894V171.041Z" fill="#020D20"/>
<path d="M345.937 45.2975L351.905 48.7075L356.594 52.1175L357.872 53.3962L359.151 54.2487V55.1012L357.02 54.2487L346.79 47.855L345.085 46.5762V45.7237L345.937 45.2975Z" fill="#091325"/>
<path d="M267.934 21.0012L270.065 21.4275L275.606 24.4112L275.18 25.2637L270.917 23.1325H267.934L263.671 26.5425L259.835 28.6737L258.13 29.9525H257.277L258.13 28.2475L264.95 23.985L267.934 21.0012Z" fill="#091325"/>
<path d="M385.152 213.24L388.136 213.666L391.972 215.371L395.809 216.224L396.661 216.65V217.502L400.497 218.355L402.629 220.486L401.776 220.912L389.841 215.797L385.152 213.666V213.24Z" fill="#020C1C"/>
<path d="M470.403 398.659H470.829V409.741H469.55L467.845 408.036L462.304 407.184L461.878 406.757L457.189 405.905L455.484 405.052L461.451 405.479L467.845 406.331L469.124 406.757L469.55 408.036L470.403 408.462V398.659Z" fill="#A0ACB3"/>
<path d="M484.043 187.665L484.469 188.944L481.485 193.633L477.223 199.6L473.386 205.994H472.534L473.386 203.863L475.944 198.748L480.206 193.206L484.043 187.665Z" fill="#030E20"/>
<path d="M230.85 195.764H237.67V196.19L216.784 198.748H212.948L214.653 197.895L218.489 197.043L230.85 195.764Z" fill="#030E21"/>
<path d="M137.501 239.667L141.338 240.946L142.19 241.372V242.225L141.338 242.651L130.255 243.077L131.96 241.799L137.501 239.667Z" fill="#CACFD0"/>
<path d="M347.642 304.884H366.397L370.234 305.736L368.529 306.589L361.709 305.736H348.495L342.101 307.015L339.544 307.868L337.839 307.441L345.085 305.31L347.642 304.884Z" fill="#8C9398"/>
<path d="M250.884 193.206H257.278V193.633L238.096 195.764H231.703V195.338L241.506 194.059L250.884 193.206Z" fill="#8E969B"/>
<path d="M216.358 456.203H216.784V474.531H215.505V462.596L215.931 462.17L216.358 456.203Z" fill="#8D979E"/>
<path d="M502.371 334.295H502.797L502.371 337.279L501.092 342.394L500.666 343.246H499.814L499.387 345.378L498.535 347.083L497.682 346.23L498.109 344.099L500.666 337.705L501.945 334.721L502.371 334.295Z" fill="#071223"/>
<path d="M71.8588 216.224L73.99 217.076L83.7938 226.88L86.7775 230.716L86.3513 231.995L82.9413 227.733L71.8588 216.65V216.224Z" fill="#3E444A"/>
<path d="M174.159 444.268H192.061V444.694L186.094 445.546H173.732L171.601 445.12V444.694L174.159 444.268Z" fill="#020D1F"/>
<path d="M490.862 414.856H491.715L490.862 416.987L487.452 422.102L482.337 427.217L479.78 428.922L478.501 428.496L481.911 425.939L484.469 422.955L486.174 421.25L487.452 419.545H488.305L489.157 417.414L490.862 414.856Z" fill="#040F22"/>
<path d="M299.05 322.786L299.476 323.639L293.935 335.574L291.804 339.41L291.378 338.131L295.214 328.754L298.624 323.213L299.05 322.786Z" fill="#030E21"/>
<path d="M309.706 281.014L310.985 281.44L304.591 287.834L302.034 289.539L301.608 288.26L307.149 282.719L305.87 281.866L309.706 281.014Z" fill="#7F8489"/>
<path d="M498.961 361.149L499.387 362.427L498.961 364.985V375.215L500.666 376.92L503.65 377.772L503.224 378.625L500.24 378.199L498.109 376.92L497.682 376.067V366.264L498.535 361.575L498.961 361.149Z" fill="#2D3643"/>
<path d="M335.281 198.748H342.101L352.331 201.305L352.757 202.158L354.889 203.01L353.184 203.436L349.774 202.158L343.38 200.453L339.544 199.6L335.281 199.174V198.748Z" fill="#80868A"/>
<path d="M277.311 4.37744L280.295 4.80369L284.984 7.36119L290.951 10.7712L290.525 11.6237L287.968 10.7712L284.984 9.49244V8.63994L282.426 7.78744L279.869 6.50869L277.311 4.80369V4.37744Z" fill="#323A46"/>
<path d="M251.31 378.625L252.589 379.478L251.736 382.461L251.31 384.593L249.605 388.003H248.753L248.326 386.724L249.605 382.035L251.31 378.625Z" fill="#030E21"/>
<path d="M263.245 75.135L266.229 75.5613L264.95 76.4138L259.409 78.545L251.736 83.66L252.589 81.955L257.277 78.1188L261.966 75.5613L263.245 75.135Z" fill="#040F21"/>
<path d="M489.158 358.165L490.01 359.444L490.863 362.001L491.715 362.854L492.141 364.559L493.846 365.411L494.699 364.985L493.846 364.133L496.404 362.001L495.125 366.69L493.42 367.116L492.568 365.838L490.436 365.411L489.584 363.706L488.731 359.87L489.158 358.165Z" fill="#030E21"/>
<path d="M39.89 348.787L41.1687 349.214L40.7425 360.296H39.89L39.0375 353.476V349.214L39.89 348.787Z" fill="#7D8286"/>
<path d="M291.804 192.78H298.624L303.312 193.206L307.149 194.485L310.132 194.911V195.338H305.87L296.066 194.059L291.804 193.206V192.78Z" fill="#7C8084"/>
<path d="M220.62 173.172H226.588L224.883 174.025L224.456 174.451L213.374 175.73H208.685V175.304L215.505 174.451L217.636 173.599L220.62 173.172Z" fill="#030E21"/>
<path d="M245.769 402.495L246.195 403.774L245.342 406.757L246.621 407.184L244.49 408.889L243.211 410.167L241.932 410.594L241.506 408.889L242.785 407.61L243.637 405.052L245.769 402.495Z" fill="#020D20"/>
<path d="M82.515 347.509H84.6463V350.066L83.3675 351.345H76.9738V350.919L79.9575 350.066L80.81 348.788L80.3838 347.935H82.515V347.509Z" fill="#7A7E81"/>
<path d="M287.541 46.15L290.099 47.0025L298.198 52.1175L301.181 53.3963L306.723 56.38L305.87 57.2325L301.181 54.675L299.05 53.3963L294.361 50.8388L287.968 47.0025L287.541 46.15Z" fill="#020D1E"/>
<path d="M397.514 388.855V390.134L394.956 393.544L392.825 396.101L387.71 399.937L386.858 399.511L390.268 396.101L393.251 393.544L396.235 390.134L397.514 388.855Z" fill="#0B1627"/>
<path d="M401.35 249.045H406.039V249.898L406.891 250.324L400.497 251.176L398.792 251.603L398.366 250.75H393.251L394.104 249.898L401.35 249.045Z" fill="#030E21"/>
<path d="M88.9088 346.23H89.335V351.771L85.0725 351.345L86.3513 347.509H88.9088V346.23Z" fill="#020D1F"/>
<path d="M255.146 9.06628V10.345L248.326 15.0338L244.064 18.0175H243.211V18.87H241.08L243.211 16.7388L250.031 12.4763L251.736 11.1975H253.015V10.345L255.146 9.06628Z" fill="#899197"/>
<path d="M474.665 429.775L476.37 430.201L473.386 431.906L468.271 432.333H463.583V431.906H466.566L466.993 430.628L474.665 429.775Z" fill="#98A0A4"/>
<path d="M363.414 426.365L368.103 426.791L366.398 427.644H352.758L351.479 426.791L363.414 426.365Z" fill="#7E8388"/>
<path d="M231.276 385.445L232.555 385.871L232.981 389.281H232.129V390.134L230.424 390.986L229.145 390.56V387.576H229.998L230.85 385.871L231.276 385.445Z" fill="#F5F5F6"/>
<path d="M286.689 377.772L288.394 378.199L290.099 380.33L289.673 381.182L288.394 380.756L288.82 382.035L287.115 382.461L285.836 381.609V380.33H284.984L285.41 378.625L286.689 377.772Z" fill="#030E21"/>
<path d="M166.486 270.784L169.044 271.21L167.765 272.489L165.207 272.062L163.076 273.341H156.682V272.489L163.502 271.21L166.486 270.784Z" fill="#020913"/>
<path d="M155.83 245.635H162.65L167.339 246.061L169.044 247.34H162.224L158.814 246.914L155.83 246.061V245.635Z" fill="#020D20"/>
<path d="M49.6937 421.25L51.825 423.381L56.0875 426.791L61.6287 428.496L63.76 428.923L62.055 429.775L58.645 429.349L53.9562 426.791L50.5462 423.381L49.6937 421.25Z" fill="#7D8287"/>
<path d="M447.811 357.312H448.664V363.706L448.238 364.985L447.811 375.215H447.385V357.739L447.811 357.312Z" fill="#CCD1D2"/>
<path d="M348.921 426.791L352.758 427.218L366.398 427.644V428.07L361.283 428.496H355.315L346.364 427.644V427.218L348.921 426.791Z" fill="#030E21"/>
<path d="M368.955 255.012L370.66 255.439L369.381 255.865V256.717L359.151 258.422H356.594L357.873 257.57L368.955 255.012Z" fill="#91989D"/>
<path d="M321.215 415.282L322.92 416.135L332.297 421.25L335.707 422.529L335.281 423.381L331.019 422.102L325.051 418.692L321.215 415.709V415.282Z" fill="#82898E"/>
<path d="M540.307 362.854H540.734L540.307 367.116L536.897 375.641L533.914 381.183L533.487 379.904L536.471 373.936L539.455 366.69L540.307 362.854Z" fill="#0F192B"/>
<path d="M82.9413 432.759H95.7288L100.844 433.185V433.611L91.04 434.038L82.9413 433.185V432.759Z" fill="#888F95"/>
<path d="M173.733 274.62L175.864 275.046L177.569 274.62L178.848 275.899V276.751L181.831 277.604L180.126 278.456L177.569 278.03V276.751L175.438 277.177L173.733 275.046V274.62Z" fill="#030E21"/>
<path d="M374.922 253.307H382.169V253.734L373.644 255.439L371.086 256.291L369.381 255.865L371.086 254.586L374.922 253.307Z" fill="#7D8185"/>
<path d="M448.238 408.889L463.583 409.315V409.741L451.648 410.168V411.02L450.795 411.446H447.811V409.315L448.238 408.889Z" fill="#9FABB2"/>
<path d="M527.094 388.855V390.134L524.962 392.691L521.552 395.249L519.421 396.101H517.29L518.569 394.396L521.979 393.117L525.815 390.134L527.094 388.855Z" fill="#101A2B"/>
<path d="M360.004 204.715L365.119 205.141L368.103 206.42L372.365 207.272L377.48 209.404L376.201 209.83L369.808 207.699L360.004 205.141V204.715Z" fill="#7A7D80"/>
<path d="M289.246 304.458L290.099 304.884L289.246 307.015L286.262 312.983L283.705 318.95L283.279 317.671L284.557 313.835L287.115 308.294L289.246 304.458Z" fill="#0F1928"/>
<path d="M307.575 402.921L308.854 403.348L310.985 405.479L312.69 408.036L318.658 414.004H316.953L313.969 411.02L310.559 406.758L308.428 404.626L307.575 402.921Z" fill="#131D2E"/>
<path d="M173.732 58.9375V60.2163L165.634 65.7575L162.224 67.8888L161.371 67.0363L167.339 63.2L173.732 58.9375Z" fill="#848B91"/>
<path d="M65.4649 431.054H70.5799L75.2687 431.48L76.1212 432.332H65.8912L62.0549 431.906V431.48L65.4649 431.054Z" fill="#020D20"/>
<path d="M176.29 222.617H178.421V223.47L172.027 225.175L166.912 226.454L167.765 224.749L173.732 223.47L176.29 222.617Z" fill="#0A1425"/>
<path d="M259.409 382.461L259.835 383.314L256.851 395.675L255.999 398.232H255.573L255.999 393.97L258.983 382.887L259.409 382.461Z" fill="#838A8E"/>
<path d="M42.8738 347.083L43.3 348.788L42.4475 354.755H42.0213L41.595 351.771L41.1688 356.46H40.7425V349.214L40.3163 348.361L42.8738 347.083Z" fill="#81898E"/>
<path d="M409.449 223.47L413.285 224.749L419.252 227.732L417.974 228.159L415.842 227.732L409.449 224.749V223.47Z" fill="#889197"/>
<path d="M301.181 271.636L303.739 272.489L305.018 275.046L305.87 276.325L303.739 275.899L301.608 274.62V273.767H300.755L301.181 271.636Z" fill="#030E21"/>
<path d="M447.811 205.568L448.664 205.994V206.846L450.369 207.699L452.5 207.273L454.631 208.125L453.779 209.404H452.074L451.648 210.256L449.516 209.83L447.811 206.846V205.568Z" fill="#030E21"/>
<path d="M254.72 157.401L255.572 158.254L255.999 161.237L256.851 163.369H255.572V162.09L254.294 162.516L252.589 161.664L253.441 158.254L254.72 157.401Z" fill="#030E21"/>
<path d="M266.229 1.81995V3.0987L261.54 6.5087L258.13 8.63995H257.277L257.704 7.3612L263.245 3.52495L266.229 1.81995Z" fill="#82898F"/>
<path d="M216.784 437.874H217.21V445.12L216.784 449.383L215.931 450.235V441.284L216.784 437.874Z" fill="#7F8387"/>
<path d="M144.321 267.8H146.879L144.321 271.636H145.6L146.026 272.915L145.174 273.768L142.616 272.915L142.19 271.636L143.469 270.784L144.321 267.8Z" fill="#091325"/>
<path d="M106.385 214.519L106.811 215.798H107.664L108.09 222.618V227.733H107.664L106.385 218.781V214.519Z" fill="#8A9399"/>
<path d="M515.159 377.346L516.011 377.772L514.306 379.051L511.749 379.477H503.65L503.224 378.199H513.028L515.159 377.346Z" fill="#0F192A"/>
<path d="M447.811 396.954H448.238V399.085L449.516 399.511L449.943 400.364V404.2H448.238L447.811 402.921V396.954Z" fill="#9BA8B0"/>
<path d="M495.978 159.532L496.83 159.959L496.404 164.221L494.699 169.762L493.846 170.189L494.273 166.779L495.978 159.532Z" fill="#878E93"/>
<path d="M232.981 23.1324L233.834 23.5587L229.571 26.5424L224.882 29.5262L222.751 29.9524L224.882 28.2474L231.276 23.9849L232.981 23.1324Z" fill="#0B1424"/>
<path d="M472.534 345.377H474.665V350.919L474.239 356.886H473.813L473.386 349.214L473.813 347.935H472.96L472.534 345.377Z" fill="#BBC0C2"/>
<path d="M146.026 233.7L147.731 234.126L138.354 239.667L136.649 240.094L138.78 237.962L145.6 234.126L146.026 233.7Z" fill="#030E21"/>
<path d="M19.0038 395.675L23.2663 396.528L32.2175 396.954V397.38L27.955 397.806H21.5613L19.0038 396.101V395.675Z" fill="#889096"/>
<path d="M45.8575 410.167L46.71 411.446L49.2675 420.397L50.5463 422.955L50.12 423.807L48.8413 422.529L47.5625 418.692L45.8575 411.872V410.167Z" fill="#172131"/>
<path d="M387.71 251.176H395.383L393.678 252.029L391.546 252.455L380.89 252.029V251.603L387.71 251.176Z" fill="#7C8084"/>
<path d="M443.549 145.892H446.106L449.516 148.45L454.205 151.434L453.353 151.86L444.828 147.171L443.549 145.892Z" fill="#020D1F"/>
<path d="M390.267 126.711L393.251 127.137L393.677 128.416H392.825L394.104 131.4L391.972 130.547L391.546 128.842H390.267L389.841 127.137L390.267 126.711Z" fill="#030E21"/>
<path d="M259.835 379.904L261.114 380.33L259.409 382.888L257.277 390.56L256.425 391.839V388.855L258.982 381.183L259.835 379.904Z" fill="#020D20"/>
<path d="M412.859 321.934L414.138 322.36L417.548 328.754L417.974 330.885L417.121 331.311L413.711 324.491L412.859 321.934Z" fill="#0A1425"/>
<path d="M417.548 382.035H417.974L417.548 385.445L415.416 391.413L414.564 393.118H413.711L413.285 394.396L412.859 393.544L415.416 388.429L417.548 382.035Z" fill="#0C1627"/>
<path d="M408.17 364.133H408.596L408.17 368.395L406.039 376.494L405.186 375.641L406.039 371.805L408.17 364.133Z" fill="#0C1729"/>
<path d="M491.289 353.902H491.715V356.886L492.994 359.87V361.575L490.436 360.722L490.863 354.329L491.289 353.902Z" fill="#030E21"/>
<path d="M419.679 265.242L420.958 265.669L413.711 269.079L411.58 269.931L410.301 269.505L416.269 266.521L419.679 265.242Z" fill="#020D1E"/>
<path d="M414.99 206.846L417.121 207.272L423.089 210.682L426.072 212.814L425.22 213.24L419.252 209.83V208.977L415.416 207.699L414.99 206.846Z" fill="#979FA4"/>
<path d="M204.849 175.73H208.259V176.156L203.144 177.009L201.013 177.861L194.193 178.714L195.045 177.861L204.849 175.73Z" fill="#020D20"/>
<path d="M460.599 156.123H462.304V156.975L464.435 157.828L466.566 159.106V159.959L468.271 160.811L470.403 163.369L468.698 162.516L464.861 159.533L460.599 156.549V156.123Z" fill="#0A1426"/>
<path d="M418.4 228.585L420.958 229.011L424.368 230.29L425.646 231.569L426.499 233.7L421.81 230.716L418.4 229.011V228.585Z" fill="#071224"/>
<path d="M276.885 120.744V122.023L273.901 124.58L271.344 126.285H270.491L270.917 125.006L275.606 121.596L276.885 120.744Z" fill="#081225"/>
<path d="M385.579 212.814L389.415 213.24L395.809 215.797L394.53 216.224L391.12 215.371L385.579 213.24V212.814Z" fill="#81868B"/>
<path d="M335.281 421.25L339.544 422.103L342.528 422.955L342.101 424.234L337.839 423.381L335.281 422.103V421.25Z" fill="#7D8185"/>
<path d="M391.973 194.059L395.809 195.337L401.35 198.321V198.747H399.219L391.973 194.911V194.059Z" fill="#868D92"/>
<path d="M274.754 434.89L279.869 436.169L282.853 437.874L283.705 440.005L278.59 437.021L274.328 435.743L274.754 434.89Z" fill="#051021"/>
<path d="M464.009 430.627H466.14L464.861 431.906L463.583 432.332H455.91V431.906L464.009 430.627Z" fill="#020D1F"/>
<path d="M466.14 213.666H466.993L466.14 215.798L462.73 219.634L462.304 220.486H461.451L462.304 217.503L464.435 215.371L466.14 213.666Z" fill="#151F2F"/>
<path d="M343.806 178.714H346.79L352.758 179.992L355.315 180.845V181.271H352.331L345.938 179.566L343.806 179.14V178.714Z" fill="#8A9196"/>
<path d="M114.484 414.856L116.189 415.709L123.009 420.824L122.583 421.676L120.878 420.824L114.91 415.709L114.484 414.856Z" fill="#081325"/>
<path d="M318.231 414.004L320.363 414.856L325.478 418.693L324.625 419.119L319.084 415.709L318.231 414.004Z" fill="#030E21"/>
<path d="M386.431 399.511V400.79L380.464 404.626H379.611L380.038 403.347L382.595 402.069L383.874 401.642V400.79L386.431 399.511Z" fill="#020D20"/>
<path d="M289.246 246.061L290.951 246.914L291.377 248.193L289.246 248.619V249.471H287.541L287.115 248.193L289.246 246.061Z" fill="#030E21"/>
<path d="M175.437 205.141H177.569L176.716 205.994L169.896 207.699H166.912L168.191 206.846L175.437 205.141Z" fill="#878D91"/>
<path d="M384.3 190.223L386.431 190.649L391.972 193.633V194.911H391.12V194.059L387.284 192.78L385.579 191.928V191.075L384.3 190.649V190.223Z" fill="#8F979C"/>
<path d="M354.463 181.271L358.725 181.697L362.561 182.55L362.988 183.829L360.004 183.402L354.463 181.697V181.271Z" fill="#969DA2"/>
<path d="M39.89 348.787L41.1687 349.214L40.3162 352.197L39.89 356.034H39.4637L39.0375 353.476V349.214L39.89 348.787Z" fill="#020913"/>
<path d="M235.965 421.25L236.818 421.676L232.981 425.086L229.145 427.218V426.365L234.686 422.103L235.965 421.25Z" fill="#020D20"/>
<path d="M474.239 402.495H474.665V411.872H472.108L471.255 410.167L474.239 410.594V402.495Z" fill="#B7BFC3"/>
<path d="M131.108 405.905L132.813 406.758L135.796 409.741L138.78 412.299V413.151L137.075 412.299L131.108 406.331V405.905Z" fill="#030E21"/>
<path d="M447.385 340.689H447.811L448.664 350.066L449.516 350.492L447.811 350.066L447.385 349.64V340.689Z" fill="#CCD1D2"/>
<path d="M299.05 290.818L299.902 291.67L299.05 293.375L296.919 295.506L294.361 297.638V296.359H295.214L296.066 294.654L299.05 290.818Z" fill="#82878B"/>
<path d="M146.453 255.439L149.863 255.865L154.125 256.717V257.57L151.994 257.144V257.996L150.289 257.57L147.731 256.717V255.865L146.453 255.439Z" fill="#6F757C"/>
<path d="M346.364 200.453L352.331 201.305L352.758 202.158L354.889 203.01L353.184 203.436L349.774 202.158L346.364 201.305V200.453Z" fill="#7E8387"/>
<path d="M224.882 103.267H225.735L226.587 104.972V110.514L225.735 109.235L224.882 106.251V103.267Z" fill="#020D20"/>
<path d="M284.131 8.21375L287.115 8.64L290.951 10.7712L290.525 11.6237L287.967 10.7712L284.984 9.4925V8.64L284.131 8.21375Z" fill="#3E4550"/>
<path d="M313.116 431.054L316.1 431.48L322.92 434.89L321.641 435.316L314.821 432.332L313.116 431.054Z" fill="#061022"/>
<path d="M258.13 326.623L264.95 327.049L266.655 327.901H259.835L258.13 327.049V326.623Z" fill="#020D20"/>
<path d="M149.01 249.471L154.125 249.897L156.683 250.75V251.602L153.699 251.176L149.01 250.324V249.471Z" fill="#0C1728"/>
<path d="M373.217 393.97L374.07 394.396L371.086 396.527L368.955 397.38L366.824 396.954L371.939 394.396L373.217 393.97Z" fill="#777E85"/>
<path d="M361.709 269.079L366.824 270.357V270.784L361.709 271.21L360.43 270.784L360.856 269.505L361.709 269.079Z" fill="#030E21"/>
<path d="M185.668 51.6913L186.52 52.1175L180.126 56.38H179.274V57.2325L178.421 56.8063V55.9538L183.963 52.5438L185.668 51.6913Z" fill="#848C91"/>
<path d="M40.7425 359.87H41.1688V367.969H40.7425L39.89 362.854V360.296L40.7425 359.87Z" fill="#9EA7AD"/>
<path d="M420.105 346.23H420.958V349.64L419.679 350.919L418.4 347.935L420.105 346.23Z" fill="#0C1627"/>
<path d="M426.925 309.999L427.778 311.278V312.13H428.63V309.999H429.056L429.483 316.819L428.204 315.114L426.925 311.704V309.999Z" fill="#9BA3A8"/>
<path d="M257.277 372.231L259.409 372.657V373.51L260.261 373.936L257.277 374.362L255.146 375.215L255.999 373.084H257.277V372.231Z" fill="#030E21"/>
<path d="M226.588 110.514L228.293 112.645L229.998 117.76L229.571 118.613L227.44 114.35L226.588 110.514Z" fill="#020D20"/>
<path d="M290.525 11.1975L293.082 12.05L295.214 13.755L293.082 14.1813L289.672 12.05L290.525 11.1975Z" fill="#091426"/>
<path d="M363.414 426.365L368.102 426.791L366.397 427.644H360.43L361.282 426.791L363.414 426.365Z" fill="#6B7075"/>
<path d="M400.071 198.748L403.055 199.174L406.891 201.731L406.465 202.584L400.071 199.174V198.748Z" fill="#9AA2A7"/>
<path d="M424.794 306.162L426.072 307.867L427.777 312.982L427.351 313.835L425.646 309.999L424.367 307.015L424.794 306.162Z" fill="#061021"/>
<path d="M90.1875 258.422H91.4663L92.3188 264.39L91.4663 265.242L90.1875 259.701V258.422Z" fill="#A5ADB1"/>
<path d="M381.743 210.682L384.3 211.109L387.284 212.387V212.814H384.3L381.316 211.535L381.743 210.682Z" fill="#8E969B"/>
<path d="M403.907 405.479L404.76 405.905L399.645 411.02L398.366 411.446L399.219 409.741L403.907 405.479Z" fill="#A1A9AE"/>
<path d="M115.336 382.887L116.615 383.314L118.746 388.002H117.467L115.762 384.592L115.336 382.887Z" fill="#192333"/>
<path d="M258.556 447.251L260.688 448.53L263.245 451.514L262.819 452.366L258.13 447.677L258.556 447.251Z" fill="#8F989E"/>
<path d="M124.714 421.25L126.419 422.103L130.681 424.66L131.107 425.939L128.976 425.086L124.714 421.676V421.25Z" fill="#0A1527"/>
<path d="M389.841 377.346L390.268 379.051L388.989 381.182H388.136V382.461L386.431 383.314L387.284 381.182L389.841 377.346Z" fill="#1B2535"/>
<path d="M375.775 208.551L378.333 208.978L381.743 210.256V211.109L379.185 210.683L375.775 208.978V208.551Z" fill="#858D92"/>
<path d="M260.261 154.417H262.819L263.245 155.27L261.54 155.696L261.114 156.122H258.13L258.556 154.844L260.261 154.417Z" fill="#030E21"/>
<path d="M300.329 95.1687L302.034 96.0212L305.444 99.005L306.296 100.71L304.591 99.8575L300.329 95.595V95.1687Z" fill="#020D20"/>
<path d="M151.568 73.4299L152.42 73.8562L151.568 75.1349L147.731 77.2662H146.879L147.305 75.9874L151.568 73.4299Z" fill="#0E1829"/>
<path d="M245.342 15.46L246.195 15.8862L244.064 18.0175H243.211V18.87H241.08L243.211 16.7387L245.342 15.46Z" fill="#4D545C"/>
<path d="M294.361 13.755H296.492L300.755 16.3125L299.476 17.165L294.361 14.1813V13.755Z" fill="#5E646C"/>
<path d="M503.224 378.199L509.191 378.625L508.765 379.477H503.65L503.224 378.199Z" fill="#0A1423"/>
<path d="M386.858 272.915H396.235V273.341H390.694V274.194L386.858 273.341V272.915Z" fill="#90989E"/>
<path d="M140.911 254.16L143.895 255.013L144.321 255.865L145.6 256.718L142.616 256.291L140.911 255.865L140.485 254.586L140.911 254.16Z" fill="#020C1E"/>
<path d="M455.058 206.846H456.336L457.189 209.404L454.205 209.83L455.058 206.846Z" fill="#030E21"/>
<path d="M232.981 23.1324L233.834 23.5587L229.571 26.5424L228.292 26.9687L227.866 26.1162L232.981 23.1324Z" fill="#757C82"/>
<path d="M126.419 399.511L128.124 401.642L130.681 404.626L130.255 405.479L127.271 402.495L125.992 399.937L126.419 399.511Z" fill="#0F192B"/>
<path d="M291.804 272.062H294.787L295.214 274.62L293.082 273.768L291.804 272.915V272.062Z" fill="#030E21"/>
<path d="M82.0887 226.454L83.7937 226.88L86.7775 230.716L86.3512 231.995L82.9412 227.732L82.0887 226.454Z" fill="#848B90"/>
<path d="M406.039 221.765H408.596L410.728 223.044V224.323L408.17 223.47L406.039 222.191V221.765Z" fill="#80868B"/>
<path d="M193.34 402.921H194.619V403.774L192.914 404.626H189.504L190.783 404.2V403.348L193.34 402.921Z" fill="#F7F8F8"/>
<path d="M374.922 253.307H378.332L377.054 254.16L373.217 255.012H371.086L372.791 254.16L374.922 253.307Z" fill="#A9B4BA"/>
<path d="M49.6937 421.25L51.825 423.381L54.3825 425.513V426.365L52.6775 425.513L49.6937 422.103V421.25Z" fill="#82898E"/>
<path d="M309.706 281.014L310.985 281.44L308.001 284.424H307.149L308.001 282.719L308.427 281.44L309.706 281.014Z" fill="#A7ADB0"/>
<path d="M415.416 226.027L417.547 226.454L420.531 227.732L419.252 228.159L417.121 227.732L414.99 226.88L415.416 226.027Z" fill="#838A8F"/>
<path d="M379.185 188.517H381.742L384.3 189.796L384.726 191.075L382.169 190.222L379.185 188.944V188.517Z" fill="#9FA7AB"/>
<path d="M362.987 182.976L368.102 184.255V184.681H364.266L362.987 184.255V182.976Z" fill="#8E9499"/>
<path d="M226.588 173.172H230.85L229.145 174.025L224.456 174.451L224.883 173.599L226.588 173.172Z" fill="#848C91"/>
<path d="M494.699 164.647H495.551L495.125 168.484L494.273 170.189L493.846 168.484L494.699 164.647Z" fill="#72787F"/>
<path d="M209.615 160.36C203.325 160.36 197.658 159.057 192.615 156.45C187.572 153.787 183.605 150.103 180.715 145.4C177.882 140.64 176.465 135.257 176.465 129.25C176.465 123.243 177.882 117.888 180.715 113.185C183.605 108.425 187.572 104.742 192.615 102.135C197.658 99.4717 203.325 98.14 209.615 98.14C215.395 98.14 220.552 99.16 225.085 101.2C229.618 103.24 233.358 106.187 236.305 110.04L223.64 121.345C219.957 116.698 215.622 114.375 210.635 114.375C206.442 114.375 203.07 115.735 200.52 118.455C197.97 121.118 196.695 124.717 196.695 129.25C196.695 133.783 197.97 137.41 200.52 140.13C203.07 142.793 206.442 144.125 210.635 144.125C215.622 144.125 219.957 141.802 223.64 137.155L236.305 148.46C233.358 152.313 229.618 155.26 225.085 157.3C220.552 159.34 215.395 160.36 209.615 160.36ZM270.912 98.14C276.692 98.14 281.792 99.3017 286.212 101.625C290.632 103.892 294.06 107.235 296.497 111.655C298.99 116.018 300.237 121.232 300.237 127.295V159H280.177V147.015H261.307V159H241.587V127.295C241.587 121.232 242.805 116.018 245.242 111.655C247.735 107.235 251.192 103.892 255.612 101.625C260.032 99.3017 265.132 98.14 270.912 98.14ZM280.177 131.885V125.595C280.177 121.912 279.299 119.135 277.542 117.265C275.842 115.338 273.575 114.375 270.742 114.375C267.909 114.375 265.614 115.338 263.857 117.265C262.157 119.135 261.307 121.912 261.307 125.595V131.885H280.177ZM338.061 99.5C343.558 99.5 348.346 100.407 352.426 102.22C356.506 104.033 359.651 106.64 361.861 110.04C364.071 113.44 365.176 117.407 365.176 121.94C365.176 126.473 364.071 130.44 361.861 133.84C359.651 137.24 356.506 139.847 352.426 141.66C348.346 143.473 343.558 144.38 338.061 144.38H329.476V159H309.416V99.5H338.061ZM336.786 128.91C339.506 128.91 341.546 128.315 342.906 127.125C344.266 125.878 344.946 124.15 344.946 121.94C344.946 119.73 344.266 118.03 342.906 116.84C341.546 115.593 339.506 114.97 336.786 114.97H329.476V128.91H336.786Z" fill="#2FEEFF"/>
<rect x="24" y="205" width="22" height="110" fill="#020913"/>
<rect x="169" y="320" width="14" height="80" fill="#020913"/>
<rect x="502" y="201" width="22" height="110" fill="#020913"/>
</svg>
