
<svg width="979" height="833" xmlns="http://www.w3.org/2000/svg" xmlns:xlink="http://www.w3.org/1999/xlink" version="1.1" baseProfile="full" viewBox="0 0 979 833">
    <rect width="979" height="833" x="0" y="0" id="0" fill="none"></rect>
    <path d="M256.1183 279.2957A270.725 270.725 0 0 1 355.0616 181.5142L375.7444 217.6659A229.075 229.075 0 0 0 292.0232 300.404Z" fill="rgb(138,202,227)" stroke="white" stroke-width="2" stroke-linejoin="bevel"></path>
    <path d="M248.9374 275.074A279.055 279.055 0 0 1 276.913 235.7282L283.2589 241.1243A270.725 270.725 0 0 0 256.1183 279.2957Z" fill="rgb(161,213,233)" stroke="white" stroke-width="2" stroke-linejoin="bevel"></path>
    <path d="M276.913 235.7282A279.055 279.055 0 0 1 311.2515 201.7929L316.5723 208.202A270.725 270.725 0 0 0 283.2589 241.1243Z" fill="rgb(161,213,233)" stroke="white" stroke-width="2" stroke-linejoin="bevel"></path>
    <path d="M311.2515 201.7929A279.055 279.055 0 0 1 350.925 174.2839L355.0616 181.5142A270.725 270.725 0 0 0 316.5723 208.202Z" fill="rgb(161,213,233)" stroke="white" stroke-width="2" stroke-linejoin="bevel"></path>
    <path d="M260.4299 414.997A229.075 229.075 0 0 1 489.5 187.425L489.5 270.725A145.775 145.775 0 0 0 343.7281 415.5435Z" fill="rgb(115,192,222)" stroke="white" stroke-width="2" stroke-linejoin="bevel"></path>
    <path d="M218.7808 414.7237A270.725 270.725 0 0 1 256.1183 279.2957L292.0232 300.4041A229.075 229.075 0 0 0 260.4299 414.997Z" fill="rgb(138,202,227)" stroke="white" stroke-width="2" stroke-linejoin="bevel"></path>
    <path d="M210.451 414.669A279.055 279.055 0 0 1 220.4819 342.3317L228.5123 344.5457A270.725 270.725 0 0 0 218.7808 414.7237Z" fill="rgb(161,213,233)" stroke="white" stroke-width="2" stroke-linejoin="bevel"></path>
    <path d="M220.4819 342.3317A279.055 279.055 0 0 1 248.9374 275.074L256.1183 279.2957A270.725 270.725 0 0 0 228.5123 344.5457Z" fill="rgb(161,213,233)" stroke="white" stroke-width="2" stroke-linejoin="bevel"></path>
    <path d="M355.0616 181.5142A270.725 270.725 0 0 1 489.5 145.775L489.5 187.425A229.075 229.075 0 0 0 375.7444 217.6659Z" fill="rgb(138,202,227)" stroke="white" stroke-width="2" stroke-linejoin="bevel"></path>
    <path d="M350.925 174.2839A279.055 279.055 0 0 1 394.7461 154.0245L397.5746 161.8596A270.725 270.725 0 0 0 355.0616 181.5142Z" fill="rgb(161,213,233)" stroke="white" stroke-width="2" stroke-linejoin="bevel"></path>
    <path d="M394.7461 154.0245A279.055 279.055 0 0 1 441.4033 141.6211L442.839 149.8265A270.725 270.725 0 0 0 397.5746 161.8596Z" fill="rgb(161,213,233)" stroke="white" stroke-width="2" stroke-linejoin="bevel"></path>
    <path d="M441.4033 141.6211A279.055 279.055 0 0 1 489.5 137.445L489.5 145.775A270.725 270.725 0 0 0 442.839 149.8265Z" fill="rgb(161,213,233)" stroke="white" stroke-width="2" stroke-linejoin="bevel"></path>
    <path d="M489.5 187.425A229.075 229.075 0 0 1 718.5732 417.4018L635.2739 417.0739A145.775 145.775 0 0 0 489.5 270.725Z" fill="#91cc75" stroke="white" stroke-width="2" stroke-linejoin="bevel"></path>
    <path d="M489.5 145.775A270.725 270.725 0 0 1 625.1701 182.2231L604.2977 218.2657A229.075 229.075 0 0 0 489.5 187.425Z" fill="rgb(163,212,140)" stroke="white" stroke-width="2" stroke-linejoin="bevel"></path>
    <path d="M625.1701 182.2231A270.725 270.725 0 0 1 724.3092 281.7533L688.1847 302.4836A229.075 229.075 0 0 0 604.2977 218.2657Z" fill="rgb(163,212,140)" stroke="white" stroke-width="2" stroke-linejoin="bevel"></path>
    <path d="M629.3445 175.0146A279.055 279.055 0 0 1 687.2097 219.5671L681.3079 225.4457A270.725 270.725 0 0 0 625.1701 182.2231Z" fill="rgb(181,221,163)" stroke="white" stroke-width="2" stroke-linejoin="bevel"></path>
    <path d="M687.2097 219.5671A279.055 279.055 0 0 1 731.5341 277.6073L724.3092 281.7533A270.725 270.725 0 0 0 681.3079 225.4457Z" fill="rgb(181,221,163)" stroke="white" stroke-width="2" stroke-linejoin="bevel"></path>
    <path d="M724.3092 281.7533A270.725 270.725 0 0 1 760.2229 417.5658L718.5732 417.4018A229.075 229.075 0 0 0 688.1847 302.4836Z" fill="rgb(163,212,140)" stroke="white" stroke-width="2" stroke-linejoin="bevel"></path>
    <path d="M718.5732 417.4018A229.075 229.075 0 0 1 487.6964 645.5679L488.3522 562.2705A145.775 145.775 0 0 0 635.2739 417.0739Z" fill="#fac858" stroke="white" stroke-width="2" stroke-linejoin="bevel"></path>
    <path d="M760.2229 417.5658A270.725 270.725 0 0 1 723.241 553.0913L687.2808 532.0773A229.075 229.075 0 0 0 718.5732 417.4018Z" fill="rgb(250,209,115)" stroke="white" stroke-width="2" stroke-linejoin="bevel"></path>
    <path d="M723.241 553.0913A270.725 270.725 0 0 1 623.3212 651.8378L602.7334 615.632A229.075 229.075 0 0 0 687.2808 532.0773Z" fill="rgb(250,209,115)" stroke="white" stroke-width="2" stroke-linejoin="bevel"></path>
    <path d="M623.3212 651.8378A270.725 270.725 0 0 1 487.3684 687.2166L487.6964 645.5679A229.075 229.075 0 0 0 602.7334 615.632Z" fill="rgb(250,209,115)" stroke="white" stroke-width="2" stroke-linejoin="bevel"></path>
    <path d="M487.6964 645.5679A229.075 229.075 0 0 1 260.4299 414.997L343.7281 415.5435A145.775 145.775 0 0 0 488.3522 562.2705Z" fill="rgb(238,102,102)" stroke="white" stroke-width="2" stroke-linejoin="bevel"></path>
    <path d="M487.3684 687.2166A270.725 270.725 0 0 1 351.9896 649.7014L373.145 613.8243A229.075 229.075 0 0 0 487.6964 645.5679Z" fill="rgb(240,127,127)" stroke="white" stroke-width="2" stroke-linejoin="bevel"></path>
    <path d="M351.9896 649.7014A270.725 270.725 0 0 1 253.6372 549.3937L289.9237 528.9485A229.075 229.075 0 0 0 373.145 613.8243Z" fill="rgb(240,127,127)" stroke="white" stroke-width="2" stroke-linejoin="bevel"></path>
    <path d="M253.6372 549.3937A270.725 270.725 0 0 1 218.7808 414.7237L260.4299 414.997A229.075 229.075 0 0 0 289.9237 528.9485Z" fill="rgb(240,127,127)" stroke="white" stroke-width="2" stroke-linejoin="bevel"></path>
    <path d="M246.3798 553.4828A279.055 279.055 0 0 1 226.4084 509.5296L234.2619 506.7526A270.725 270.725 0 0 0 253.6372 549.3937Z" fill="rgb(243,153,153)" stroke="white" stroke-width="2" stroke-linejoin="bevel"></path>
    <path d="M226.4084 509.5296A279.055 279.055 0 0 1 214.3115 462.7921L222.526 461.4103A270.725 270.725 0 0 0 234.2619 506.7526Z" fill="rgb(243,153,153)" stroke="white" stroke-width="2" stroke-linejoin="bevel"></path>
    <path d="M214.3115 462.7921A279.055 279.055 0 0 1 210.451 414.669L218.7808 414.7237A270.725 270.725 0 0 0 222.526 461.4103Z" fill="rgb(243,153,153)" stroke="white" stroke-width="2" stroke-linejoin="bevel"></path>
    <text dominant-baseline="central" text-anchor="middle" style="font-size:12px;font-family:Microsoft YaHei;" transform="matrix(0.711,-0.703,0.703,0.711,313.8406,238.7536)" fill="#333">Engineers</text>
    <text dominant-baseline="central" text-anchor="end" style="font-size:12px;font-family:Microsoft YaHei;" x="-5" transform="matrix(0.815,0.579,-0.579,0.815,257.9977,251.8976)" fill="#333" stroke="rgb(255,255,255)" stroke-width="2" paint-order="stroke" stroke-miterlimit="2">Electronic</text>
    <text dominant-baseline="central" text-anchor="end" style="font-size:12px;font-family:Microsoft YaHei;" x="-5" transform="matrix(0.703,0.711,-0.711,0.703,289.8324,214.4602)" fill="#333" stroke="rgb(255,255,255)" stroke-width="2" paint-order="stroke" stroke-miterlimit="2">Mechanics</text>
    <text dominant-baseline="central" text-anchor="end" style="font-size:12px;font-family:Microsoft YaHei;" x="-5" transform="matrix(0.57,0.822,-0.822,0.57,327.6432,183.0699)" fill="#333" stroke="rgb(255,255,255)" stroke-width="2" paint-order="stroke" stroke-miterlimit="2">Optical</text>
    <text dominant-baseline="central" text-anchor="middle" style="font-size:12px;font-family:Microsoft YaHei;" transform="matrix(0.709,-0.705,0.705,0.709,357.406,283.5364)" fill="#333">Creators</text>
    <text dominant-baseline="central" text-anchor="middle" style="font-size:12px;font-family:Microsoft YaHei;" transform="matrix(0.266,-0.964,0.964,0.266,248.5882,350.0806)" fill="#333">Designers</text>
    <text dominant-baseline="central" text-anchor="end" style="font-size:12px;font-family:Microsoft YaHei;" x="-5" transform="matrix(0.991,0.137,-0.137,0.991,208.1372,377.484)" fill="#333" stroke="rgb(255,255,255)" stroke-width="2" paint-order="stroke" stroke-miterlimit="2">UI/UX</text>
    <text dominant-baseline="central" text-anchor="end" style="font-size:12px;font-family:Microsoft YaHei;" x="-5" transform="matrix(0.921,0.39,-0.39,0.921,227.8951,305.8198)" fill="#333" stroke="rgb(255,255,255)" stroke-width="2" paint-order="stroke" stroke-miterlimit="2">Industrial</text>
    <text dominant-baseline="central" text-anchor="middle" style="font-size:12px;font-family:Microsoft YaHei;" transform="matrix(0.966,-0.257,0.257,0.966,425.2964,174.9883)" fill="#333">Developers</text>
    <text dominant-baseline="central" text-anchor="end" style="font-size:12px;font-family:Microsoft YaHei;" x="-5" transform="matrix(0.42,0.908,-0.908,0.42,370.2984,158.6663)" fill="#333" stroke="rgb(255,255,255)" stroke-width="2" paint-order="stroke" stroke-miterlimit="2">Frontend</text>
    <text dominant-baseline="central" text-anchor="end" style="font-size:12px;font-family:Microsoft YaHei;" x="-5" transform="matrix(0.257,0.966,-0.966,0.257,416.5214,141.9798)" fill="#333" stroke="rgb(255,255,255)" stroke-width="2" paint-order="stroke" stroke-miterlimit="2">Backend</text>
    <text dominant-baseline="central" text-anchor="end" style="font-size:12px;font-family:Microsoft YaHei;" x="-5" transform="matrix(0.087,0.996,-0.996,0.087,464.9287,133.5097)" fill="#333" stroke="rgb(255,255,255)" stroke-width="2" paint-order="stroke" stroke-miterlimit="2">Embedded</text>
    <text dominant-baseline="central" text-anchor="middle" style="font-size:12px;font-family:Microsoft YaHei;" transform="matrix(0.706,0.708,-0.708,0.706,622.2901,284.2316)" fill="#333">Investors</text>
    <text dominant-baseline="central" text-anchor="middle" style="font-size:12px;font-family:Microsoft YaHei;" transform="matrix(0.966,0.259,-0.259,0.966,554.3372,175.1576)" fill="#333">Banks</text>
    <text dominant-baseline="central" text-anchor="middle" style="font-size:12px;font-family:Microsoft YaHei;" transform="matrix(0.706,0.708,-0.708,0.706,666.5535,240.1422)" fill="#333">Venture</text>
    <text dominant-baseline="central" text-anchor="start" style="font-size:12px;font-family:Microsoft YaHei;" x="5" transform="matrix(0.61,-0.792,0.792,0.61,662.7912,191.428)" fill="#333" stroke="rgb(255,255,255)" stroke-width="2" paint-order="stroke" stroke-miterlimit="2">Funds</text>
    <text dominant-baseline="central" text-anchor="start" style="font-size:12px;font-family:Microsoft YaHei;" x="5" transform="matrix(0.795,-0.607,0.607,0.795,715.2525,244.0963)" fill="#333" stroke="rgb(255,255,255)" stroke-width="2" paint-order="stroke" stroke-miterlimit="2">Angels</text>
    <text dominant-baseline="central" text-anchor="middle" style="font-size:12px;font-family:Microsoft YaHei;" transform="matrix(0.256,0.967,-0.967,0.256,731.0958,352.6134)" fill="#333">Leasing</text>
    <text dominant-baseline="central" text-anchor="middle" style="font-size:12px;font-family:Microsoft YaHei;" transform="matrix(0.711,-0.703,0.703,0.711,621.2446,549.8098)" fill="#333">Innovators</text>
    <text dominant-baseline="central" text-anchor="middle" style="font-size:12px;font-family:Microsoft YaHei;" transform="matrix(0.263,-0.965,0.965,0.263,730.5853,482.2869)" fill="#333">Inventors</text>
    <text dominant-baseline="central" text-anchor="middle" style="font-size:12px;font-family:Microsoft YaHei;" transform="matrix(0.711,-0.703,0.703,0.711,665.1594,594.2464)" fill="#333">Scientists</text>
    <text dominant-baseline="central" text-anchor="middle" style="font-size:12px;font-family:Microsoft YaHei;" transform="matrix(0.968,-0.252,0.252,0.968,552.435,658.3454)" fill="#333">Experts</text>
    <text dominant-baseline="central" text-anchor="middle" style="font-size:12px;font-family:Microsoft YaHei;" transform="matrix(0.702,0.712,-0.712,0.702,356.0174,548.0695)" fill="#333">Enterpreneurs</text>
    <text dominant-baseline="central" text-anchor="middle" style="font-size:12px;font-family:Microsoft YaHei;" transform="matrix(0.964,0.267,-0.267,0.964,422.7645,657.3244)" fill="#333">Manufacturers</text>
    <text dominant-baseline="central" text-anchor="middle" style="font-size:12px;font-family:Microsoft YaHei;" transform="matrix(0.7,0.714,-0.714,0.7,311.0634,591.4583)" fill="#333">Integrators</text>
    <text dominant-baseline="central" text-anchor="middle" style="font-size:12px;font-family:Microsoft YaHei;" transform="matrix(0.251,0.968,-0.968,0.251,247.5722,479.1176)" fill="#333">Sturtups</text>
    <text dominant-baseline="central" text-anchor="end" style="font-size:12px;font-family:Microsoft YaHei;" x="-5" transform="matrix(0.91,-0.414,0.414,0.91,230.8897,534.0073)" fill="#333" stroke="rgb(255,255,255)" stroke-width="2" paint-order="stroke" stroke-miterlimit="2">Robotics</text>
    <text dominant-baseline="central" text-anchor="end" style="font-size:12px;font-family:Microsoft YaHei;" x="-5" transform="matrix(0.968,-0.251,0.251,0.968,214.5068,487.6758)" fill="#333" stroke="rgb(255,255,255)" stroke-width="2" paint-order="stroke" stroke-miterlimit="2">Manufacturing</text>
    <text dominant-baseline="central" text-anchor="end" style="font-size:12px;font-family:Microsoft YaHei;" x="-5" transform="matrix(0.997,-0.08,0.08,0.997,206.3546,439.214)" fill="#333" stroke="rgb(255,255,255)" stroke-width="2" paint-order="stroke" stroke-miterlimit="2">AI</text>
</svg>