<svg width="1057" height="277" xmlns="http://www.w3.org/2000/svg" xmlns:xlink="http://www.w3.org/1999/xlink" version="1.1" baseProfile="full" viewBox="0 0 1057 277">
<rect width="1057" height="277" x="0" y="0" id="0" fill="none"></rect>
<path d="M8.3603 20C8.3603 81.4075 8 46.3175 8 107.725L392.375 107.725C392.375 46.3175 392.7353 81.4075 392.7353 20Z" transform="translate(52.85 13.85)" fill="rgb(234,124,204)" fill-opacity="0.2"></path>
<path d="M392.7353 20C392.7353 81.4075 400.375 46.3175 400.375 107.725L631 107.725C631 46.3175 623.3603 81.4075 623.3603 20Z" transform="translate(52.85 13.85)" fill="rgb(234,124,204)" fill-opacity="0.2"></path>
<path d="M623.3603 20C623.3603 81.4075 639 46.3175 639 107.725L792.75 107.725C792.75 46.3175 777.1103 81.4075 777.1103 20Z" transform="translate(52.85 13.85)" fill="rgb(234,124,204)" fill-opacity="0.2"></path>
<path d="M400.375 127.725C400.375 189.1325 392.375 154.0425 392.375 215.45L623 215.45C623 154.0425 631 189.1325 631 127.725Z" transform="translate(52.85 13.85)" fill="rgb(227,201,94)" fill-opacity="0.2"></path>
<path d="M8 127.725C8 189.1325 0 154.0425 0 215.45L384.375 215.45C384.375 154.0425 392.375 189.1325 392.375 127.725Z" transform="translate(52.85 13.85)" fill="rgb(170,152,169)" fill-opacity="0.2"></path>
<path d="M715.875 127.725C715.875 189.1325 715.875 154.0425 715.875 215.45L792.75 215.45C792.75 154.0425 792.75 189.1325 792.75 127.725Z" transform="translate(52.85 13.85)" fill="rgb(138,194,126)" fill-opacity="0.2"></path>
<path d="M639 127.725C639 189.1325 631 154.0425 631 215.45L707.875 215.45C707.875 154.0425 715.875 189.1325 715.875 127.725Z" transform="translate(52.85 13.85)" fill="rgb(138,194,126)" fill-opacity="0.2"></path>
<path d="M8.3603 0l768.75 0l0 20l-768.75 0Z" transform="translate(52.85 13.85)" fill="rgb(234,124,204)"></path>
<path d="M8 107.725l384.375 0l0 20l-384.375 0Z" transform="translate(52.85 13.85)" fill="rgb(170,152,169)"></path>
<path d="M400.375 107.725l230.625 0l0 20l-230.625 0Z" transform="translate(52.85 13.85)" fill="rgb(227,201,94)"></path>
<path d="M639 107.725l153.75 0l0 20l-153.75 0Z" transform="translate(52.85 13.85)" fill="rgb(138,194,126)"></path>
<path d="M0 215.45l384.375 0l0 20l-384.375 0Z" transform="translate(52.85 13.85)" fill="rgb(170,152,169)"></path>
<path d="M392.375 215.45l230.625 0l0 20l-230.625 0Z" transform="translate(52.85 13.85)" fill="rgb(227,201,94)"></path>
<path d="M631 215.45l76.875 0l0 20l-76.875 0Z" transform="translate(52.85 13.85)" fill="rgb(84,112,198)"></path>
<path d="M715.875 215.45l76.875 0l0 20l-76.875 0Z" transform="translate(52.85 13.85)" fill="rgb(84,112,198)"></path>
<text dominant-baseline="central" text-anchor="middle" style="font-size:12px;font-family:Microsoft YaHei;" y="-6" transform="translate(445.5853 8.85)" fill="#333" stroke="rgb(255,255,255)" stroke-width="2" paint-order="stroke" stroke-miterlimit="2">Incom</text>
<text dominant-baseline="central" text-anchor="middle" style="font-size:12px;font-family:Microsoft YaHei;" xml:space="preserve" y="-6" transform="translate(253.0375 116.575)" fill="#333" stroke="rgb(255,255,255)" stroke-width="2" paint-order="stroke" stroke-miterlimit="2">Hot Liqudity Fund</text>
<text dominant-baseline="central" text-anchor="middle" style="font-size:12px;font-family:Microsoft YaHei;" xml:space="preserve" y="-6" transform="translate(568.5375 116.575)" fill="#333" stroke="rgb(255,255,255)" stroke-width="2" paint-order="stroke" stroke-miterlimit="2">Development Fund</text>
<text dominant-baseline="central" text-anchor="middle" style="font-size:12px;font-family:Microsoft YaHei;" xml:space="preserve" y="-6" transform="translate(768.725 116.575)" fill="#333" stroke="rgb(255,255,255)" stroke-width="2" paint-order="stroke" stroke-miterlimit="2">Solenopsys Fondation</text>
<text dominant-baseline="central" text-anchor="middle" style="font-size:12px;font-family:Microsoft YaHei;" y="-6" transform="translate(245.0375 224.3)" fill="#333" stroke="rgb(255,255,255)" stroke-width="2" paint-order="stroke" stroke-miterlimit="2">Microfunds..</text>
<text dominant-baseline="central" text-anchor="middle" style="font-size:12px;font-family:Microsoft YaHei;" y="-6" transform="translate(560.5375 224.3)" fill="#333" stroke="rgb(255,255,255)" stroke-width="2" paint-order="stroke" stroke-miterlimit="2">Developers..</text>
<text dominant-baseline="central" text-anchor="middle" style="font-size:12px;font-family:Microsoft YaHei;" y="-6" transform="translate(722.2875 224.3)" fill="#333" stroke="rgb(255,255,255)" stroke-width="2" paint-order="stroke" stroke-miterlimit="2">Staff</text>
<text dominant-baseline="central" text-anchor="middle" style="font-size:12px;font-family:Microsoft YaHei;" y="-6" transform="translate(807.1625 224.3)" fill="#333" stroke="rgb(255,255,255)" stroke-width="2" paint-order="stroke" stroke-miterlimit="2">Servers</text>
</svg>