<svg xmlns="http://www.w3.org/2000/svg" width="171" height="64" fill="none"><path fill="#06121B" d="M39.645 7.245c.694.05.985.27 1.473.735.417.625.311 1.355.245 2.084-.268.65-.658.868-1.275 1.145l-.198.081c.404.052.404.052.86 0l.307-.306c.306-.307.306-.307.713-.376 1.1.168 1.93.848 2.663 1.663 0 .368 0 .368-.202.574l-.266.215a4.7 4.7 0 0 0-.882.927l.242-.045 1.085-.2.381-.07.366-.068.337-.062c.29-.045.29-.045.658-.045l-.122-.245a16 16 0 0 1-.031-.85l-.01-.464c.04-.402.04-.402.21-.643.199-.127.199-.127.468-.089l.222.084-.245.246c-.044.395-.037.655.13 1.019.34.296.657.296 1.097.329l-.067.216c-.13.645.22 1.231.555 1.76q.225.33.454.659c.498.727.941 1.48 1.376 2.246l.204.354c1.072 1.904 1.072 1.904 1.131 2.932l.021.312.01.225h-.737l-.131-.285a30 30 0 0 0-1.534-2.765l-.201-.326a18 18 0 0 0-.977-1.427 8 8 0 0 1-.825-1.357l-.114-.223c-.202-.406-.27-.63-.27-1.095l-.345.168c-.404.18-.774.239-1.213.292-.349.047-.349.047-.652.153-.236.362-.236.362-.344.627-.327.513-.949.749-1.498.966-.376.079-.72.104-1.105.123l-.123.123c-.381.046-.767.057-1.15.076l-.327.02-.314.016-.288.015c-.254-.005-.254-.005-.622-.127l-.123.245h-.982v-.49l3.315-.246c-.055-.704-.055-.704-.114-1.408-.049-.729-.049-.729.173-1.114l.187-.175c-.372-.218-.582-.266-1.006-.199-.93.119-1.865.086-2.8.077v.735q-.122-.12-.246-.245l-.238.061-.254.062-.368-.245.123-.736-.234-.069c-.909-.307-1.398-.77-1.976-1.525.146-.436.29-.53.652-.804l.29-.223c.286-.199.286-.199.56-.334.236-.092.236-.092.324-.332.202-.392.538-.6.875-.881.169-.264.169-.264.246-.49h.245l.737 2.084V9.45l.737.736q.364.027.729.03l.402.01.342-.04c.234-.35.303-.542.384-.942l.062-.3.045-.23h-.245l.015.4c-.022.654-.022.654-.26.95-.323.091-.323.091-.615.122v-.49l-.49-.123h.859c-.135-.61-.268-1.067-.614-1.594l-.123-.367q.12-.182.245-.368m2.21 4.413c-.28.225-.28.225-.27.564l.009.37.015.66h1.35c-.056-.576-.116-1.018-.49-1.471-.306-.131-.306-.131-.614-.123"/><path fill="#061821" d="M52.415 3.69c-.063.555-.189.903-.514 1.356l-.213.303c-.597.705-1.164 1.026-2.029 1.302l-.3.1q-.47.157-.943.31l-1.236.41-.301.1a35 35 0 0 0-2.11.778c-.51.185-1.029.286-1.564.367v.245h.614c-.265.265-.425.328-.775.445l-.282.096c-.293.072-.293.072-.907.072V8.348l.614-.306.41-.205q.45-.226.903-.448 1.56-.773 3.093-1.597l.286-.152.254-.137c.21-.097.21-.097.456-.097l.123-.368c.235-.139.235-.139.542-.268l.338-.144.356-.147.346-.148c.945-.397 1.804-.684 2.839-.641"/><path fill="#05121B" d="M34.119 3.567c.888.037 1.414.43 2.032 1.049.63.714.719 1.338.7 2.262-.093 1.117-.727 1.98-1.543 2.719-.388.317-.802.542-1.244.774-.656.384-1.37.872-1.91 1.41q-.43.008-.86 0c.008-.223.008-.223.123-.49q.428-.191.86-.369c.166-.353.166-.353 0-.613h-.614l-.115.23-.253.506q-.425.046-.852.061c-.625-.011-.625-.011-1.113.307h-.368l.245-1.104h1.842v-.245c.28-.189.57-.355.864-.523.277-.196.277-.196.276-.543l-.035-.282.315.115c.428.132.839.192 1.282.253l.122.122.624-.24c.32-.173.506-.325.727-.618a5.5 5.5 0 0 0 .038-.935l-.003-.252c-.008-.464-.008-.464-.158-.897-.016-.328-.005-.652 0-.98h.246c-.28-.77-.5-1.198-1.228-1.594z"/><path fill="#1C2B30" d="M44.433.87c.33.657.195 1.75.044 2.453-.387 1.08-1.3 1.63-2.2 2.282l-.236.173q-.23.166-.46.33-.306.221-.604.45c-.35.197-.35.197-.647.188-.408-.147-.81-.302-1.207-.474l-.237-.098c-.577-.247-.577-.247-.715-.523l.33-.13a12.9 12.9 0 0 0 3.354-2.076l.36-.281c.426-.355.75-.772 1.083-1.213.828-1.08.828-1.08 1.135-1.08"/><path fill="#0A1317" d="M31.048 13.224c.247.028.247.028.615.273.023.444.023.444 0 .858h.246v.49h-.246l.027.273c-.034.433-.167.56-.457.877-.494.584-.837 1.183-1.183 1.86a10 10 0 0 1-.72 1.212c-.547.782-.935 1.664-1.35 2.52h-.614a2590.652 2590.652 0 0 0-.048-1.28c.057-.522.195-.66.539-1.048.21-.342.396-.695.583-1.05l.153-.28.144-.272q.066-.12.131-.245c.124-.27.124-.27.094-.728v-.245h.368l.095-.204c.24-.454.547-.865.843-1.285.244-.509.11-.847-.032-1.369l-.046-.207c.23-.23.552-.144.858-.15"/><path fill="#011A28" d="M44.065 16.194c.07 1.328.07 1.328-.369 1.839-.606.62-1.27.842-2.087 1.103l-.313.112c-.775.264-1.448.287-2.266.256l.123-1.84.898-.152a11.2 11.2 0 0 0 3.388-1.201c.257-.117.257-.117.626-.117"/><path fill="#324147" d="m31.417 7.367.246.368.253.368c.235.362.36.594.36 1.027-.18.476-.54.696-.981.934h-.246v.246c-1.155.14-1.155.14-1.719.122l-.368.858c-.389-.461-.737-1.006-.737-1.624.123-.215.123-.215.407-.368.411-.267.502-.524.704-.958.161-.327.306-.518.608-.727.496-.13.984-.184 1.473 0z"/><path fill="#C2C6BE" d="M44.188.993q-.402.495-.808.988-.256.31-.506.625c-.894 1.095-2.08 1.876-3.298 2.57l-.253.145c-.426.235-.655.33-1.152.33.058-.774.34-1.354.914-1.878.43-.363.88-.7 1.334-1.033q.264-.196.524-.4c.61-.46 1.252-.791 1.948-1.102l.26-.117c.623-.266.623-.266 1.037-.128"/><path fill="#81837B" d="M47.38 2.954q.01.357.015.713l.01.4c-.025.358-.025.358-.27.726-.206.125-.206.125-.448.236-.503.238-.987.5-1.471.776l-.255.143q-.625.354-1.248.711c-.733.421-1.464.833-2.227 1.199-.245-.368-.245-.368-.238-.604.168-.37.41-.522.737-.76l.195-.143a32 32 0 0 1 1.91-1.24 32 32 0 0 0 1.94-1.299l.682-.482.308-.218c.237-.158.237-.158.36-.158"/><path fill="#38474F" d="M52.783.748h.123c.038 1.122.06 2.126-.368 3.187l-.123-.245c-1.184.198-2.223.467-3.316.98-.09-.33-.09-.33-.122-.735.185-.304.185-.304.452-.582l.263-.282c.25-.223.46-.341.758-.484l.173-.177c.347-.34.799-.522 1.228-.743.283-.163.461-.321.687-.551h.245z"/><path fill="#131B21" d="M30.804.012c1.057-.068 1.85.144 2.716.766.309.452.33.797.23 1.318-.14.46-.307.905-.49 1.349h.736v.245l-.33.076c-.402.167-.479.225-.721.552-.3.353-.3.353-.645.399l-.268-.046c-.055-.65.047-1.019.356-1.588.27-.506.503-1.002.503-1.584-.102-.285-.102-.285-.394-.398-.365-.115-.652-.137-1.033-.131l-.35.002c-.326.009-.326.009-.679.143-.437.023-.437.023-.86 0C29.33.87 29.33.87 29.33.38l1.474-.123z"/><path fill="#96978F" d="M53.029.257v1.594h-.123l-.123-.736-.31.277c-.424.353-.874.584-1.37.82l-.521.257a17 17 0 0 1-.92.415c-.36.161-.64.294-.931.56-.18.49-.235.952-.246 1.472l-.368.122V2.71l-.491-.122.46-.13c.769-.255 1.43-.68 2.118-1.096C52.103.257 52.103.257 53.03.257"/><path fill="#151A71" d="M36.82 19.381a5.6 5.6 0 0 1 .821.253c1.119.316 2.448.066 3.6-.008-.067.475-.1.592-.46.943-.9.638-1.792.603-2.856.529-.437-.095-.744-.228-1.036-.583-.095-.382-.084-.742-.069-1.134"/><path fill="#254655" d="M37.557 14.232h3.07c.3 1.352.3 1.352.245 1.717-.395.263-.56.287-1.022.322l-.382.031-.399.03-.403.032-.986.075v.368c-.612-.061-1.063-.183-1.596-.49l-.292-.154c-.2-.214-.2-.214-.23-.666l.03-.406.208.152c1.105.779 2.016.86 3.353.95v-1.715l-.59.015c-.472.012-.599.01-1.006-.26"/><path fill="#303F43" d="M48.844 13.142c.37.158.462.383.657.73q.105.188.215.38l.22.402.227.4c.404.724.404.724.533 1.017l-.123.245-.246-.122v.368h-.614v.245h-.245c-.19-.29-.366-.58-.537-.881-.261-.454-.51-.887-.842-1.294-.21-.268-.29-.434-.34-.767q.197-.19.399-.376l.224-.211c.236-.149.236-.149.471-.136"/><path fill="#AAAFA7" d="M32.277 3.2c0 .367 0 .367-.123.612q-.008.43 0 .859l.369.122c-.23.537-.547.87-1.052 1.165-.313.192-.455.38-.667.674h-.246l-.107.23c-.139.26-.139.26-.384.505-.323.016-.323.016-.614 0-.083-.207-.083-.207-.123-.49.495-1.07 1.357-2.02 2.088-2.942l.259-.346c.232-.267.232-.267.6-.39"/><path fill="#E5E9E2" d="M30.31 3.614c0 .265 0 .265-.07.441q-.003.31 0 .619l.21.088c-.131.387-.31.627-.596.84-.177.138-.257.274-.378.485h-.139l-.06.166c-.079.187-.079.187-.218.364-.182.01-.182.01-.347 0-.047-.15-.047-.15-.07-.353.28-.77.768-1.456 1.182-2.12l.147-.25c.13-.192.13-.192.34-.28"/><path fill="#0A0F12" d="M35.715 13.007c-.245 1.292-.245 1.292-.614 1.838-.407.153-.566.139-.982 0a12.7 12.7 0 0 0-2.088.123c-.245-.368-.245-.368-.2-.636l.078-.222q.38-.062.76-.123l.427-.069a6 6 0 0 1 1.023-.053l.1-.223c.388-.714.718-.674 1.496-.635"/><path fill="#0E171D" d="M34.242 16.93c-.313 1.154-.313 1.154-.614 1.67-.409.755-.48 1.66-.614 2.497-.369-.122-.369-.122-.485-.332-.24-.722-.295-1.361-.252-2.12h.491l.046-.367c.073-.503.18-.983.322-1.471.393-.196.703-.004 1.106.123"/><path fill="#1D2830" d="M37.311 6.632c.833-.04 1.561.034 2.333.368l.123.245q-.06.117-.123.237c-.165.267-.165.267 0 .621l-.86.736-.367-.246c.165-.541.4-.777.86-1.103-.634.036-.634.036-1.144.383-.24.407-.345.753-.453 1.21-.18-.324-.246-.477-.246-.857-.274.109-.274.109-.422.421-.192.314-.192.314-.56.56a8.5 8.5 0 0 1 .499-1.081c.257-.501.32-.935.36-1.494"/><path fill="#364E5A" d="M35.47 16.93c.19.284.343.552.49.858l.246-.49c.39-.02.69-.017 1.06.114.617.194 1.244.213 1.887.253-.092.95-.092.95-.368 1.226-.253.006-.253.006-.545-.03l-.291-.033c-.27-.06-.27-.06-.637-.305a58 58 0 0 0-.86-.122c-.674-.165-.674-.165-.906-.46-.096-.345-.093-.655-.076-1.012"/><path fill="#092A34" d="M45.539 16.194c.245.122.245.122.377.512.407 1.529.597 2.8-.132 4.269h-.123l-.036-.28a20 20 0 0 0-.538-2.583c-.143-.529-.209-1.004-.163-1.55.292-.246.292-.246.614-.368"/><path fill="#7C807F" d="m28.299 16.293.371.008.373.007.287.008-.368.123.145.276.1.337q-.18.249-.368.49c-.218.411-.412.835-.608 1.256-.227.47-.397.805-.866 1.074-.057-1.141.062-2.21.369-3.31.245-.246.245-.246.565-.27"/><path fill="#C5D0C9" d="m29.584 16.262-.34-.008-.34-.005-.262-.008.337-.103-.134-.232-.09-.284q.164-.208.336-.412c.198-.346.376-.702.555-1.057.206-.394.362-.677.79-.903a7.9 7.9 0 0 1-.336 2.785c-.225.206-.225.206-.516.227"/><path fill="#0F1171" d="m32.4 10.31.123.367c-.348.4-.576.555-1.105.613l-.123.49h.737c-.403.403-.844.392-1.397.407-.64-.004-.952-.104-1.428-.529l-.122-.245c.313-.301.474-.366.915-.404l.466.013.47.01.359.013.115-.23c.258-.514.372-.71.99-.505"/><path fill="#12181D" d="M28.547 2.273c.53.347.985.855 1.274 1.417-.023.485-.2.768-.499 1.142l-.203.259-.157.193c-.123-.368-.123-.368-.031-.767.036-.545-.062-.722-.397-1.133-.511-.506-1.087-.605-1.782-.675l-.123-.49a2.63 2.63 0 0 1 1.918.054"/><path fill="#1A272F" d="M47.257 11.168c.542.062.834.24 1.228.613.227.309.246.463.246.85-.17.518-.422.672-.86.989q-.12-.182-.245-.368.06-.121.123-.245l-.737-.123c-.146-.437-.155-.767-.123-1.226.184-.299.184-.299.368-.49"/><path fill="#EEFCFE" d="M34.61 5.896v.613l-.33.085c-.425.135-.425.135-.714.482-.307.291-.307.291-.698.345-.345-.054-.345-.054-.591-.299-.006-.256-.006-.256.03-.551l.033-.295c.06-.257.06-.257.305-.502.684-.205 1.29-.039 1.965.122"/><path fill="#5D6D6E" d="M31.172 6.264h.245v1.349l-.305.01-.4.02-.398.018c-.444.09-.587.21-.861.565-.116.249-.116.249-.184.505-.156.455-.156.455-.422.644l-.254.076-.49.246c-.128-.62-.136-1.21-.124-1.84l.46.07c.52.069.52.069 1.014-.07q.06-.18.123-.367l1.227-.245.116-.353c.13-.383.13-.383.253-.628"/><path fill="#0A2E3A" d="m40.627 13.007.614.367-.122.304c-.145.504-.151.938-.14 1.459l.004.273.012.661-.491.123.123-.245h.245l-.245-1.716-.53.035-.698.041-.348.024c-.718.04-1.3.005-1.985-.223l-.246-.245.23-.1c.298-.14.298-.14.507-.513v.49c1.613.043 1.613.043 3.193-.245z"/><path fill="#182E3A" d="M45.661 5.896c-.022.223-.022.223-.123.49-.27.187-.27.187-.625.362l-.383.193-.404.197-.786.391-.355.174c-.287.13-.287.13-.393.4a20 20 0 0 1-.86.368l-.123-.736 1.271-.72q.322-.181.643-.364l.412-.233.378-.214c.975-.494.975-.494 1.348-.308"/><path fill="#8C0002" d="M35.101 7.49h.246c.061.376.061.376 0 .858-.396.48-.845.884-1.474.981q-.26.011-.521.008l-.461-.008v-.245q-.303-.19-.614-.368c-.245-.245-.245-.245-.245-.613h.245l.123-.245.23.245c.535.342.991.363 1.612.245.383-.208.662-.463.86-.858"/><path fill="#C5D0C9" d="m36.207 13.497.414.222.233.125c.212.143.212.143.458.511.06.466.033.68-.208 1.088-.284.26-.284.26-.583.345-.482-.13-.638-.423-.928-.82z"/><path fill="#1B3C44" d="M50.328 16.194c.296.078.296.078.613.245.114.32.114.32.162.705l.052.381c.031.376.038.744.032 1.12h-.368l-.123.246q-.282-.478-.56-.958l-.163-.274-.152-.265-.143-.243c-.087-.222-.087-.222.036-.59h.614z"/><path fill="#8B9492" d="M38.417 14.478h.736v1.716c-.87.02-1.626.03-2.456-.245l-.245-.246c.238-.069.238-.069.491-.122l.123.122c.352-.051.352-.051.737-.245.17-.25.304-.5.433-.774q.09-.101.18-.207"/><path fill="#72BFC4" d="M35.347 17.297q.238.357.456.726c.32.431.624.635 1.086.906l.215.129c1.125.664 2.309.542 3.538.231 1.198-.317 2.385-.688 3.423-1.379-.393.814-.393.814-.718.962l-.272.08-.3.091-.306.093q-.277.095-.553.192c-1.304.431-3.198.947-4.496.304l-.231-.128-.305-.163c-.64-.36-1.144-.68-1.537-1.308-.038-.414-.038-.414 0-.736"/><path fill="#4BD3D2" d="M47.626 8.348c-.597.48-1.09.713-1.837.886l-.25.095-.123.368-.737.122q.06-.12.123-.245l-.614-.122v-.613c.827-.358 1.512-.545 2.417-.496.427.008.593-.137 1.02.005"/><path fill="#656B6B" d="M45.907 11.78h.123l.122 1.717-1.529.316-.33.067-.301.062a5 5 0 0 1-.91.045 9 9 0 0 1 2.134-1.348c.36-.172.43-.217.63-.582z"/><path fill="#122735" d="M35.96 18.155c.77.116 1.392.258 2.088.613.4.031.4.031.737 0l.246-.613h.123v1.226l.49.245c-1.376.12-2.306-.179-3.418-.99l-.265-.235z"/><path fill="#FF1A1A" d="M34.733 5.774c.606.586.606.586.626.974l-.012.742H35.1l-.1.23c-.145.26-.145.26-.514.506V7.98h-1.105l.246-.736h.245V7c.325-.18.478-.245.86-.245z"/><path fill="#0F2534" d="M34.61 3.935c.428.27.591.496.737.98v.369H35.1v.735l-.171-.13c-.598-.416-1.053-.555-1.78-.576-.259-.03-.259-.03-.505-.275.123-.245.123-.245.329-.321a6 6 0 0 1 1.053-.054l.4.003.306.005z"/><path fill="#5C625C" d="M33.26 3.322c.414-.015.414-.015.859 0 .443.442.63.862.737 1.471l-.752-.008-.423-.004c-.42 0-.42 0-.82.09-.338.045-.338.045-.707-.2l.269-.077c.344-.168.433-.257.652-.552.307-.352.307-.352.652-.398l.27.046v-.245h-.738z"/><path fill="#8961DA" d="M50.819 6.019q.12.06.245.123c-.467.423-.865.583-1.473.735L49.468 7l.368.122v.49h-.491v.246c-.385.228-.66.27-1.105.245v-.245h.737V7.49H47.38v-.245l.303-.1 1.587-.523.688-.227.42-.138c.305-.085.305-.085.44-.238"/><path fill="#CEDFDB" d="M29.085 5.038c.122.246.122.246.031.547l-.139.357a8 8 0 0 0-.384 1.18l.369.123c.146.253.146.253.245.49h-.368V7.49h-.246v.368h-.614v.735h-.122c-.04-1.213.003-2.483.86-3.432z"/><path fill="#CC2020" d="M40.627 13.007q.06.24.123.49c-.98.412-1.896.435-2.947.368l-.246-.123v-.49l.408-.023.536-.03q.132-.008.268-.015c.627-.038 1.233-.177 1.858-.177"/><path fill="#3C8C91" d="M42.469 19.259c-.297.97-.297.97-.74 1.272a11 11 0 0 1-.856.321l-.384.215c-.694.305-1.574.179-2.318.153v-.123l.315-.01c.976-.048 1.807-.117 2.502-.855.147-.252.147-.252.253-.606h-.614v-.122c.642-.18 1.176-.273 1.842-.245"/><path fill="#243033" d="M41.855 11.658c.299.008.299.008.614.123.374.454.434.896.49 1.47h-1.35c-.024-1.029-.024-1.029 0-1.348z"/><path fill="#080B0E" d="m47.818 2.701.3.008.007 1.157.003.334.001.317.002.294c-.014.227-.014.227-.137.35q-.306.008-.614 0l-.007-1.157-.003-.334-.002-.317-.002-.294c.023-.362.087-.349.452-.358"/><path fill="#E64646" d="M41.732 20.73c-.51.567-1.017.869-1.785.911q-.304.003-.61 0l-.308.008c-.69 0-1.067-.103-1.595-.552l-.123-.245.373.12c1.507.429 2.642-.328 4.048-.242"/><path fill="#94DEDC" d="M36.82 6.142h.123v1.225h.246q.06-.24.123-.49c.048.627-.089.993-.392 1.54l-.22.407a4.3 4.3 0 0 1-.862.995c-.407.039-.407.039-.737 0l.14-.157c.99-1.134 1.448-1.995 1.58-3.52"/><path fill="#1F262C" d="m27.45 1.966.53.008v.122l-1.229.245.246.246c-.123.245-.123.245-.468.413-.398.175-.398.175-.652.475l-.23.215c-.273-.023-.42-.051-.615-.245a12 12 0 0 1 0-.613l.714-.36.402-.203c.462-.223.794-.31 1.302-.303"/><path fill="#322CD9" d="m48.01 7.421.966.07v.367h-.736v.245c-1.49.444-1.49.444-2.088.368l-.245-.245.859-.246-.246-.245h.246V7.49c.395-.197.814-.101 1.243-.069"/><path fill="#68F4F4" d="m37.434 16.93 3.438.122-.245.49q-.633.006-1.267.008l-.363.003-.349.001-.321.002c-.279-.014-.279-.014-.647-.136v-.245h-.246z"/><path fill="#E54646" d="M32.277 6.142c.162.324.134.573.13.934l-.003.373-.004.286h.86l.245-.49q.06.12.123.245c-.116.26-.116.26-.246.49l.368-.122q.37.05.737.122v.368c-.458.229-.975.191-1.473.123-.392-.199-.64-.487-.906-.835-.123-.43-.105-.803-.077-1.25z"/><path fill="#33868D" d="M35.347 16.317c.357.126.63.256.936.482 1.168.713 2.523.698 3.852.744v.122q-.59.01-1.181.015l-.337.007c-.615.004-1.094-.04-1.674-.267-.4-.02-.4-.02-.737 0l-.245.49-.238-.306-.254-.307h-.122z"/><path fill="#1F343B" d="m47.257 4.425.246.123v.735q-.417.252-.837.498l-.239.145c-.209.123-.426.231-.643.338l-.368-.122v-.246l-.246-.122q.387-.247.775-.49l.221-.142c.559-.349.559-.349.969-.349z"/><path fill="#728A89" d="m32.768 16.317.614.49h-.245l-.046.437c-.06.488-.176.933-.323 1.402h-.49c-.023-1.413-.023-1.413.122-2.084h.368z"/><path fill="#FF0B0B" d="M43.82 15.58q.12.061.245.123v.123h.245c.075 1.715.075 1.715-.575 2.436l-.161.138-.246-.122.236-.194c.323-.375.35-.637.409-1.124l.055-.435.037-.331-.36.176c-.529.227-1.037.267-1.605.314q-.43.057-.86.123c.492-.327 1.017-.495 1.57-.697.397-.15.397-.15.738-.373z"/><path fill="#797DE4" d="m48.018 8.148.222.078-.269.26a8 8 0 0 0-.66.751c-.31.35-.359.393-.79.46q-.292.012-.583.007l-.298-.003-.224-.004c.123-.368.123-.368.4-.517l.352-.142c.445-.19.824-.377 1.205-.674.376-.261.376-.261.645-.216"/><path fill="#E64646" d="M33.137 5.406c1.107-.095 1.107-.095 1.557.26.195.426.163.645.039 1.089l-.86.245v.245l-.237.107c-.273.117-.273.117-.377.383h-.86l-.122-.613.246.123c.352.061.352.061.736 0q.311-.303.614-.613c.407-.1.407-.1.737-.122v-.613l-1.719-.123.246-.123z"/><path fill="#345C66" d="M37.803 8.226h.123l.122.735.246-.245.063.202.09.265.087.263c.162.317.31.444.62.618.317.045.317.045.644.023l.583-.023.246-1.348h.245q-.016.26-.038.52l-.022.294c-.077.356-.166.527-.43.78-.499.109-.974.092-1.474 0-.31-.22-.418-.4-.614-.736v.858c-.386-.315-.507-.62-.614-1.103.016-.373.062-.736.123-1.103"/><path fill="#FC1693" d="m46.766 7.735.246.246c-2.653.999-2.653.999-3.807.98v-.245l.391-.117c1.26-.379 1.26-.379 2.458-.913.285-.095.434-.057.712.05"/><path fill="#A3C4C8" d="M47.872 5.161v.245c-2.83 1.559-2.83 1.559-4.152 2.192l-.258.126c-.58.271-.58.271-.993.134l.277-.142 1.273-.655.23-.118a51 51 0 0 0 2.959-1.628c.295-.154.295-.154.663-.154"/><path fill="#4ADEE0" d="M39.645 8.103c.406.502.552.826.49 1.471-.743.024-.743.024-.981 0q-.122-.12-.246-.245c.04-.748.04-.748.3-1.096.191-.13.191-.13.437-.13"/><path fill="#B4A1F7" d="M44.924 14.723q.008.367 0 .735l-.123.123a25 25 0 0 0-.069.927l-.016.264-.037.648h-.369v-1.594l-.49.123q.108-.273.222-.544l.125-.306c.191-.338.377-.376.757-.376"/><path fill="#094355" d="M32.523 4.916c.245.122.245.122.368.245q.31.042.622.069l.606.054v.122h-.982v.245q-.365.253-.737.49c-.3.244-.3.244-.269.72.008.349.035.664.146.997l-.491-.123c-.12-.574-.21-1.044.092-1.57.46-.652.46-.652.645-.881l-.246-.123z"/><path fill="#B1B8B2" d="m37.189 14.11 1.228.368c-.147.537-.284.886-.737 1.226-.4.091-.4.091-.737.122.108-.598.108-.598.246-.735q.012-.249.007-.498z"/><path fill="#30ABBA" d="M44.188 8.716v.736h.982c-.512.463-.942.412-1.605.397a3.2 3.2 0 0 1-1.096-.275c.33-.329.66-.375 1.105-.49v-.245c.368-.123.368-.123.614-.123"/><path fill="#9F9D8F" d="M33.137 14.723c.755-.012.755-.012.982 0l.123.122c-.047.5-.108.916-.369 1.349-.548-.061-.698-.085-1.105-.49l.86-.736z"/><path fill="#36E6E5" d="m42.737 16.554.223.13c-.783.39-1.455.686-2.333.736l.123-.245-2.702-.123v-.123l.227-.007c1.083-.037 3.588-.742 4.462-.368"/><path fill="#969F99" d="M31.418 5.774h.245q-.06.242-.123.49h-.368l-.115.353c-.203.597-.203.597-.46.758-.285.115-.285.115-.676.176l-.345.062-.123.245h-.368v.858h-.123v-.735h-.86l.491-.123V7.49h.246v.245h.368l.123-.613.123.246c.658-.16.95-.423 1.381-.935q.284-.336.584-.66"/><path fill="#676D6E" d="m50.327 2.464.246.122-.198.14c-.725.518-.725.518-1.276 1.209-.04.393-.04.393 0 .735l-.614.123c-.035-1.075-.035-1.075.246-1.471.364-.24.364-.24.798-.467l.221-.12c.188-.1.383-.186.577-.271"/><path fill="#F3F7F4" d="M35.715 12.762h.737c.123.367.123.367.009.65l-.17.315c-.218.407-.41.81-.576 1.241h-.246l.054-.758.03-.427c.034-.35.085-.68.162-1.021"/><path fill="#103594" d="M43.574 18.646c-.189.418-.435.753-.722 1.11l-.252.32c-.236.265-.443.467-.745.654-.4.023-.4.023-.737 0l.215-.092c.55-.306.815-.665 1.013-1.257l-.246-.245.936-.383c.292-.107.292-.107.538-.107"/><path fill="#3C8C91" d="M51.064 16.93h.123c.244 1.362.43 2.656.368 4.045h-.123l-.27-.81q-.118-.351-.244-.7c-.1-.329-.1-.329-.1-.82h.369l-.062-.306c-.069-.48-.07-.926-.061-1.41"/><path fill="#2CD4D9" d="M35.47 15.09h.122l.008.399c.07.485.07.485.476.735.55.266 1.138.427 1.727.583l-.369.122v.246l.246.122c-.96-.018-1.562-.438-2.333-.98z"/><path fill="#264A5B" d="M45.446 14.685c.207.272.29.44.338.773h-.245v-.367h-.246q.06.362.123.735h-.369v2.084c-.312-.468-.277-.846-.268-1.387v-.277c.004-.52.044-1.011.145-1.523l-.49.122c.122-.245.122-.245.406-.352.33-.015.33-.015.606.191"/><path fill="#217E82" d="m45.784 16.071.491.613.246-.367q.009.543.015 1.087l.006.313.003.3.004.276c-.028.23-.028.23-.274.475q-.125-.432-.245-.866c-.036-.12-.036-.12-.071-.244a4.9 4.9 0 0 1-.175-1.587"/><path fill="#F71919" d="m41.985 16.309.36.008c-.966.643-2.018.662-3.146.635l-.409-.005a96 96 0 0 1-.987-.018v-.122h.859l.123-.368.368.123q.271.004.542-.01l.314-.017.326-.02.33-.016c.482-.026.876-.181 1.32-.19"/><path fill="#06111C" d="M32.522 5.283c-.15.315-.311.59-.506.882-.301.512-.278.991-.23 1.57l.49.123v.245h-.245l-.122.245c-.409-.7-.646-1.267-.492-2.084.536-.98.536-.98 1.105-.98"/><path fill="#9DF1F1" d="m35.838 9.82-.583.528-.329.297c-.261.23-.525.442-.807.645v-.245l-.369.245c-.268-.046-.268-.046-.49-.122.583-.368.583-.368.859-.368l.084-.238c.161-.252.161-.252.484-.344l.291-.031.123-.368c.306-.152.419-.095.737 0"/><path fill="#051018" d="m38.294 8.593.614.123.084.352c.123.407.123.407.484.552l.291.077v.49c-.494-.028-.776-.048-1.151-.383-.232-.41-.286-.745-.322-1.21"/><path fill="#1D2C2C" d="M34.242 14.846h.737q-.048.356-.1.712l-.056.4c-.092.366-.166.499-.458.726l-.123-.613h-.246z"/><path fill="#8D938D" d="M31.663 13.62h2.456v.245c-.752.172-1.439.274-2.21.245v.245h-.246z"/><path fill="#0D3945" d="M45.293 15.09h.245v.368l.223.016c.268.107.268.107.491.452.143.384.179.513.023.88l-.491-.49-.737.246v-.736h.369z"/><path fill="#0B0F0E" d="m32.768 15.826.254.123c.423.144.776.14 1.22.122.04.284.08.567.123.858a38 38 0 0 1-.591-.1l-.333-.055c-.335-.099-.473-.173-.673-.457z"/><path fill="#32B6BA" d="m34.856 9.82.245.122c-.264.29-.51.439-.86.613l-.166.168a4.55 4.55 0 0 1-2.044 1.18c.616-.92 1.806-1.663 2.825-2.084"/><path fill="#D3CBC3" d="m39.399 7.368-.144.157a7.7 7.7 0 0 0-1.084 1.559l-.246-.123c-.036-.359-.062-.63 0-.98.458-.523.78-.696 1.474-.614"/><path fill="#183B45" d="m35.593 18.278.368.245v.245l.284.1c.328.145.48.235.698.513.036.277.036.277.023.575l-.01.3-.013.228c-.73-.709-1.06-1.24-1.35-2.206"/><path fill="#323030" d="M22.617 33.436v22.1h-5.9v-11.85l-.9-1.8 3.2-8.45zm-20.4 13.8v-3.55l8.6-22.2h5.85l-8.7 22.9-.9-2.75h20.25v5.6zm30.924 8.3h-5.8v-34.05h5.8zm2.628 0v-34.05h12.55q3.55 0 6.25 1.5 2.7 1.45 4.2 4 1.55 2.55 1.55 5.85t-1.55 5.85q-1.5 2.55-4.2 4-2.7 1.4-6.25 1.4h-7.9v-5.5h7.15q3.1 0 4.9-1.5 1.85-1.55 1.85-4.25 0-2.901-1.85-4.35-1.8-1.5-4.9-1.5h-7.2l1.2-1.3v29.85zm18.55 0-7.7-14.05h6.35l7.7 14.05z"/><path fill="#000" d="M71.61 27.71v-1.76h2.84v1.76zm.61 2.29h-1.81v-6.81h4.48v1.76h-3.4l.73-.83zm4.398-3.4q0-.78.25-1.43t.71-1.12a3.1 3.1 0 0 1 1.1-.74q.64-.26 1.42-.26t1.42.26q.65.26 1.11.74.47.47.72 1.12t.25 1.43-.25 1.43q-.249.65-.72 1.13a3.2 3.2 0 0 1-1.11.73q-.64.25-1.42.25t-1.42-.25a3.2 3.2 0 0 1-1.1-.73 3.4 3.4 0 0 1-.71-1.13 4 4 0 0 1-.25-1.43m1.85 0q0 .56.2.95.21.39.58.59t.85.2q.49 0 .86-.2t.58-.59q.21-.4.21-.96t-.21-.95a1.4 1.4 0 0 0-.58-.59 1.8 1.8 0 0 0-.86-.2q-.48 0-.85.21-.37.2-.58.59-.2.39-.2.95m9.867 3.54q-.99 0-1.63-.35a2.2 2.2 0 0 1-.94-1.06q-.3-.71-.3-1.76v-3.78h1.82v3.95q0 .58.26.91.26.32.79.32t.79-.32q.26-.33.26-.91v-3.95h1.82v3.78q0 1.05-.31 1.76-.3.7-.93 1.06-.63.35-1.63.35M93.41 30v-6.81h2.52q.75 0 1.36.29.62.28.98.84.37.55.37 1.37t-.37 1.38a2.25 2.25 0 0 1-.98.83q-.61.28-1.36.28h-1.14v-1.76h1.08q.46 0 .69-.18.24-.18.24-.55 0-.36-.24-.55-.23-.19-.69-.19h-1.09l.44-.39V30zm3.32 0-1.34-2.72h1.98l1.34 2.72zm9.737 0h-1.81v-6.81h1.81zm6.557 0-3.21-4.54.68-.18V30h-1.81v-6.81h1.69l3.2 4.54-.68.18v-4.72h1.82V30zm3.906 0v-6.81h2.49q1.11 0 1.87.41.77.4 1.17 1.16t.4 1.83-.4 1.84a2.76 2.76 0 0 1-1.17 1.17q-.77.4-1.88.4zm1.81-.96-.79-.8h1.32q.56 0 .94-.16.39-.17.59-.53.21-.37.21-.96t-.2-.95a1.16 1.16 0 0 0-.59-.52q-.38-.17-.94-.17h-1.4l.86-.47zm8.866 1.1q-.99 0-1.63-.35a2.2 2.2 0 0 1-.94-1.06q-.3-.71-.3-1.76v-3.78h1.82v3.95q0 .58.26.91.26.32.79.32t.79-.32q.26-.33.26-.91v-3.95h1.82v3.78q0 1.05-.31 1.76-.3.7-.93 1.06-.63.35-1.63.35m7.613.04q-.64 0-1.17-.18a3 3 0 0 1-.93-.54 3 3 0 0 1-.67-.85l1.36-.89q.26.37.67.6.42.22.85.22.33 0 .49-.13a.39.39 0 0 0 .17-.32.36.36 0 0 0-.08-.23q-.07-.1-.29-.19a3.3 3.3 0 0 0-.64-.19q-.88-.2-1.4-.5-.52-.31-.74-.74a2.2 2.2 0 0 1-.22-1q0-.62.32-1.12.32-.51.91-.81.6-.3 1.42-.3.92 0 1.57.37.65.36 1 .93l-1.36.98a1.24 1.24 0 0 0-.62-.44 2.1 2.1 0 0 0-.73-.14.93.93 0 0 0-.5.12.35.35 0 0 0-.18.31q0 .2.2.32.21.12.82.26.84.19 1.37.49.54.29.79.73.26.43.26 1.06t-.32 1.13a2.15 2.15 0 0 1-.92.77q-.6.28-1.43.28m6.271-.18v-6.17h1.83V30zm-1.93-5.05v-1.76h5.68v1.76zm7.589 5.05v-6.81h2.52q.75 0 1.36.29.62.28.98.84.37.55.37 1.37t-.37 1.38q-.36.55-.98.83-.61.28-1.36.28h-1.14v-1.76h1.08q.46 0 .69-.18.24-.18.24-.55 0-.36-.24-.55-.23-.19-.69-.19h-1.09l.44-.39V30zm3.32 0-1.34-2.72h1.98l1.34 2.72zm5.74 0h-1.81v-6.81h1.81zm3.496-2.69h2.85v1.67h-2.85zm-1.65 2.69 2.41-6.81h1.81l2.19 6.81h-1.82l-1.63-5.58h.72l-1.87 5.58zm12.555 0h-4.3v-6.81h1.81v5.9l-.56-.85h3.05zM70.41 42v-6.81h2.52q.75 0 1.36.29.62.28.98.84.37.55.37 1.37t-.37 1.38q-.36.55-.98.83-.61.28-1.36.28h-1.14v-1.76h1.08q.46 0 .69-.18.24-.18.24-.55 0-.36-.24-.55-.23-.19-.69-.19h-1.09l.44-.39V42zm3.32 0-1.34-2.72h1.98L75.71 42zm5.04-2.54v-1.73h2.84v1.73zm-.03-2.54.73-.8v5.08l-.78-.93h3.45V42h-4.48v-6.81h4.48v1.73zM86.135 42l-2.23-6.81h1.86l1.77 5.58h-.86l1.78-5.58h1.81L88.035 42zm5.353-3.4q0-.78.25-1.43t.71-1.12a3.1 3.1 0 0 1 1.1-.74q.64-.26 1.42-.26t1.42.26q.651.26 1.11.74.471.47.72 1.12.25.65.25 1.43t-.25 1.43q-.249.65-.72 1.13a3.2 3.2 0 0 1-1.11.73q-.64.25-1.42.25t-1.42-.25a3.2 3.2 0 0 1-1.1-.73 3.4 3.4 0 0 1-.71-1.13 4 4 0 0 1-.25-1.43m1.85 0q0 .56.2.95.21.39.58.59t.85.2q.49 0 .86-.2t.58-.59q.21-.4.21-.96t-.21-.95a1.4 1.4 0 0 0-.58-.59 1.8 1.8 0 0 0-.86-.2q-.48 0-.85.21-.37.2-.58.59-.2.39-.2.95m11.367 3.4h-4.3v-6.81h1.81v5.9l-.56-.85h3.05zm4.842.14q-.99 0-1.63-.35a2.2 2.2 0 0 1-.94-1.06q-.3-.71-.3-1.76v-3.78h1.82v3.95q0 .58.26.91.26.32.79.32t.79-.32q.26-.33.26-.91v-3.95h1.82v3.78q0 1.05-.31 1.76-.3.7-.93 1.06-.63.35-1.63.35m6.684-.14v-6.17h1.83V42zm-1.93-5.05v-1.76h5.68v1.76zM123.7 42h-1.81v-6.81h1.81zm1.947-3.4q0-.78.25-1.43a3.23 3.23 0 0 1 1.81-1.86q.64-.26 1.42-.26t1.42.26q.65.26 1.11.74.47.47.72 1.12t.25 1.43-.25 1.43-.72 1.13a3.2 3.2 0 0 1-1.11.73q-.64.25-1.42.25a3.9 3.9 0 0 1-1.42-.25 3.2 3.2 0 0 1-1.1-.73 3.3 3.3 0 0 1-.71-1.13 4 4 0 0 1-.25-1.43m1.85 0q0 .56.2.95.21.39.58.59t.85.2q.49 0 .86-.2t.58-.59q.21-.4.21-.96t-.21-.95a1.4 1.4 0 0 0-.58-.59 1.8 1.8 0 0 0-.86-.2q-.48 0-.85.21-.37.2-.58.59-.2.39-.2.95m11.406 3.4-3.21-4.54.68-.18V42h-1.81v-6.81h1.69l3.2 4.54-.68.18v-4.72h1.82V42zM73.62 54.14q-1.08 0-1.86-.45t-1.2-1.24q-.42-.8-.42-1.85 0-.78.25-1.43t.71-1.12a3 3 0 0 1 1.1-.73q.64-.26 1.42-.26 1.22 0 2.02.56.8.55 1.16 1.64l-1.6.68q-.23-.54-.61-.83t-.97-.29q-.48 0-.85.21t-.58.61q-.2.4-.2.96t.2.96q.21.4.58.61.37.2.85.2.59 0 .97-.28.38-.29.61-.83l1.6.68q-.36 1.09-1.16 1.65-.8.55-2.02.55m9.336-.14h-4.3v-6.81h1.81v5.9l-.56-.85h3.05zm4.842.14q-.99 0-1.63-.35a2.2 2.2 0 0 1-.94-1.06q-.3-.71-.3-1.76v-3.78h1.82v3.95q0 .58.26.91.26.32.79.32t.79-.32q.26-.33.26-.91v-3.95h1.82v3.78q0 1.05-.31 1.76-.3.7-.93 1.06-.63.35-1.63.35m5.074-.14v-6.81h2.58q.95 0 1.49.22t.76.65q.22.42.22 1.04 0 .47-.18.83-.18.35-.51.55t-.78.2v-.17q.58 0 .92.23.34.22.49.58t.15.76q0 .97-.59 1.45-.59.47-1.78.47zm1.81-5.97v5.06l-.61-.82h1.51a.73.73 0 0 0 .42-.11q.17-.11.17-.35t-.16-.35a.7.7 0 0 0-.41-.11h-1.53v-1.51h1.4q.3 0 .44-.11.15-.11.15-.35t-.15-.35q-.14-.11-.44-.11h-1.37z"/></svg>