<?xml version="1.0" encoding="utf-8"?>
<!-- Generator: Adobe Illustrator 22.1.0, SVG Export Plug-In . SVG Version: 6.00 Build 0)  -->
<svg version="1.1" id="Layer_1" xmlns="http://www.w3.org/2000/svg" xmlns:xlink="http://www.w3.org/1999/xlink" x="0px" y="0px"
	 viewBox="0 0 24 24" style="enable-background:new 0 0 24 24;" xml:space="preserve">
<g>
	<title>analytics-graph-bar-1</title>
	<path d="M0.504,24c-0.276,0-0.5-0.224-0.5-0.5s0.224-0.5,0.5-0.5H1v-3c0-0.552,0.449-1,1-1h2c0.551,0,1,0.448,1,1v3h2v-8
		c0-0.552,0.449-1,1-1h2c0.551,0,1,0.448,1,1v8h2v-5c0-0.552,0.448-1,1-1h2c0.552,0,1,0.448,1,1v5h2V10c0-0.551,0.448-1,1-1h2
		c0.552,0,1,0.449,1,1v13h0.504c0.276,0,0.5,0.224,0.5,0.5s-0.224,0.5-0.5,0.5H0.504z M22,23V10h-2l0,13H22z M16,23v-5h-2l0,5H16z
		 M10,23v-8H8l0,8H10z M4,23v-3H2l0,3H4z"/>
	<path d="M2.504,12.5c-1.379,0-2.5-1.121-2.5-2.5s1.121-2.5,2.5-2.5C3,7.5,3.472,7.643,3.881,7.916L5.92,5.877
		C5.647,5.468,5.504,4.996,5.504,4.5c0-1.379,1.121-2.5,2.5-2.5s2.5,1.121,2.5,2.5c0,0.274-0.045,0.543-0.133,0.802l1.772,1.034
		C12.618,5.802,13.284,5.5,14.004,5.5c0.598,0,1.164,0.21,1.616,0.594l3.151-2.476c-0.175-0.348-0.267-0.73-0.267-1.119
		c0-1.379,1.122-2.5,2.5-2.5s2.5,1.121,2.5,2.5S22.382,5,21.004,5c-0.598,0-1.164-0.21-1.616-0.594l-3.151,2.476
		c0.175,0.348,0.267,0.73,0.267,1.119c0,1.379-1.122,2.5-2.5,2.5s-2.5-1.121-2.5-2.5c0-0.274,0.045-0.543,0.133-0.802L9.865,6.165
		C9.39,6.698,8.723,7,8.004,7C7.508,7,7.036,6.857,6.627,6.584L4.588,8.623C4.861,9.032,5.004,9.504,5.004,10
		C5.004,11.379,3.882,12.5,2.504,12.5z M2.504,8.5c-0.827,0-1.5,0.673-1.5,1.5s0.673,1.5,1.5,1.5s1.5-0.673,1.5-1.5
		S3.331,8.5,2.504,8.5z M14.004,6.5c-0.827,0-1.5,0.673-1.5,1.5s0.673,1.5,1.5,1.5s1.5-0.673,1.5-1.5S14.831,6.5,14.004,6.5z
		 M8.004,3c-0.827,0-1.5,0.673-1.5,1.5S7.177,6,8.004,6s1.5-0.673,1.5-1.5S8.831,3,8.004,3z M21.004,1c-0.827,0-1.5,0.673-1.5,1.5
		s0.673,1.5,1.5,1.5s1.5-0.673,1.5-1.5S21.831,1,21.004,1z"/>
</g>
</svg>
