<svg width="78" height="64" viewBox="0 0 78 64" fill="none" xmlns="http://www.w3.org/2000/svg">
<path d="M26.7637 12.6791C26.5734 12.9747 26.6199 13.1389 26.9874 13.4033C28.39 14.4231 30.899 15.2243 34.3874 15.7682C36.0571 16.0245 38.8837 16.6133 40.0185 16.9531C41.0486 17.247 42.1227 17.4819 42.8975 17.5648C43.2699 17.5986 43.732 17.6631 43.9258 17.695C44.1196 17.7269 44.7901 17.7937 45.4232 17.8527C46.0564 17.9116 46.7345 18.0009 46.9285 18.0476C47.2865 18.1259 47.2865 18.1259 47.0639 18.183C46.9378 18.2189 45.8815 18.252 44.7058 18.2542C43.5301 18.2563 41.2907 18.2989 39.7287 18.3563C35.9349 18.4788 34.3039 18.3495 31.2757 17.7063C28.2027 17.0479 25.5873 16.0372 24.7074 15.1868C24.4817 14.9611 24.4225 14.9902 24.1455 15.523C23.9631 15.8558 23.9713 15.9229 24.1819 16.1335C24.5355 16.4871 25.9265 17.1273 27.5847 17.696C29.2131 18.2644 31.6302 18.8264 34.1719 19.2187C36.3933 19.5702 37.1764 19.735 38.2889 20.0819C39.4984 20.4523 40.4605 20.6488 41.6 20.743C42.9557 20.8619 46.982 20.9131 48.0154 20.8276C49.4503 20.7167 51.0875 20.7196 51.8703 20.8546C52.8469 21.0215 53.6156 21.2308 53.5347 21.3118C53.4978 21.3486 53.3713 21.3397 53.2592 21.3013C52.4524 21.0098 49.8255 21.0036 47.2466 21.2955C46.1317 21.4173 44.7415 21.5436 44.1687 21.5597C43.5886 21.5832 42.4802 21.6232 41.6992 21.6519C39.5868 21.7331 37.9797 21.7603 36.4838 21.7366C31.3263 21.6731 25.347 19.9487 23.3459 17.9476C22.8343 17.436 22.7823 17.4429 22.5444 18.1472C22.4074 18.555 22.4233 18.6445 22.6339 18.8551C23.1906 19.4118 25.0463 20.3547 26.8393 20.9993C28.5949 21.636 29.6768 21.9082 31.9734 22.335C35.0528 22.8968 35.8061 23.0613 37.0012 23.4761C38.637 24.0371 40.1722 24.2472 42.2107 24.2099C43.3787 24.1853 45.2398 24.2502 45.2404 24.3098C45.2486 24.3768 44.2542 24.6339 43.6674 24.7243C43.0656 24.8144 39.6012 25.1191 38.798 25.155C32.6541 25.4008 27.6274 24.3639 24.3145 22.1699C23.7373 21.7841 22.4514 20.5423 22.1485 20.0628C22.0047 19.8454 21.9374 19.8075 21.8564 19.8885C21.7092 20.0357 21.4519 21.0151 21.5206 21.1722C21.6043 21.3442 23.6614 23.0185 24.1107 23.2764C26.1249 24.422 27.9623 25.0521 31.3858 25.7814C32.5492 26.0173 33.8922 26.3444 34.3626 26.4909C34.833 26.6374 35.6169 26.8766 36.0873 27.0231C37.7599 27.5473 39.1533 27.7187 41.9069 27.7486C43.7079 27.7682 44.95 27.7147 45.6926 27.574C47.8092 27.1877 48.8794 27.0654 49.8171 27.0756C50.3307 27.0886 50.77 27.1157 50.7926 27.1383C50.8227 27.1684 50.5255 27.2098 50.1388 27.2353C48.7335 27.3317 47.5226 27.5194 46.0159 27.8826C43.5444 28.4733 41.2247 28.6565 36.0086 28.6816C32.3997 28.6945 28.3045 27.7794 25.3641 26.3112C24.4963 25.8851 24.3087 25.7417 23.2636 24.7555C22.2411 23.7919 21.6457 23.0934 21.2586 22.3971C21.1143 22.1351 21.0343 22.3054 20.9171 23.1599L20.8066 23.9474L21.6492 24.79C23.274 26.4001 24.8693 27.3476 27.4236 28.2088C28.2452 28.4856 29.6186 28.8726 30.4989 29.0757C32.1251 29.4505 34.3054 30.1291 35.4343 30.6101C36.5183 31.0758 37.45 31.2125 40.0029 31.2625C41.3722 31.2774 42.4593 31.3339 42.4151 31.3781C42.2532 31.54 40.2706 31.9277 39.237 31.9984C36.3742 32.1979 33.5817 32.0113 30.6806 31.4217C28.2941 30.9344 26.9049 30.4579 25.1233 29.4861C23.4988 28.5978 22.4001 27.4696 20.8714 25.1164C20.6745 24.8018 20.58 25.0017 20.5229 25.9163C20.4223 27.6118 20.886 30.5636 21.5531 32.3791C22.6655 35.4496 23.8988 37.3308 26.502 39.9487C27.984 41.4307 29.2293 42.3521 31.0178 43.2719C32.0654 43.8042 34.3367 44.6474 35.366 44.867C37.0667 45.2426 39.4498 45.4174 41.2641 45.2883C42.6173 45.1839 45.0512 44.5555 46.807 43.8379C51.0447 42.1129 54.6234 38.6395 56.6523 34.2935C57.0739 33.3754 57.2979 32.7602 57.8226 31.0618C57.8804 30.8988 57.9996 30.2229 58.1114 29.5544C58.7664 25.4688 58.0576 21.1823 56.1758 17.843C54.9013 15.5968 54.3503 14.8839 52.4857 13.1223C51.6286 12.3094 50.7796 11.5635 50.5998 11.4573C50.4201 11.3512 49.9854 11.0637 49.648 10.8293C48.7933 10.2396 46.9379 9.32651 45.6155 8.84333C43.0158 7.90723 37.3889 7.10938 38.0434 7.76389C38.2315 7.95197 40.2917 8.5399 42.2084 8.94024C43.7747 9.2698 47.4428 10.597 48.8124 11.3188C49.3139 11.5847 49.5033 11.8919 49.0623 11.7159C47.844 11.219 47.4109 11.0804 46.2614 10.7553C45.5375 10.5614 44.1505 10.2933 43.1668 10.1636C38.0324 9.49016 35.7426 8.99647 34.895 8.38451C34.3924 8.01442 34.1617 8.00447 33.808 8.32805L33.5134 8.60762L33.8364 8.88646C34.4822 9.42925 37.058 10.2088 39.5999 10.616C41.128 10.8632 42.6056 11.2514 44.5402 11.9198C45.5037 12.2502 46.8032 12.6811 47.4156 12.8812C48.0204 13.0738 48.596 13.3108 48.6938 13.4085C48.8593 13.5741 48.8517 13.5665 48.5755 13.4817C47.9706 13.2891 44.4647 12.5068 43.8388 12.4256C43.1606 12.3364 42.6245 12.3008 40.2126 12.2151C36.2671 12.068 32.5678 11.2985 31.0466 10.3221C30.7468 10.1253 30.4397 9.93597 30.3723 9.89803C30.2825 9.85241 30.1495 9.94026 29.9584 10.1614C29.6939 10.4711 29.687 10.5231 29.853 10.7333C30.0718 11.011 30.8054 11.4059 31.7841 11.7663C33.1364 12.2646 34.2926 12.5228 36.767 12.8771C38.839 13.1824 39.7193 13.3854 41.758 14.055C42.6841 14.3627 43.8632 14.6732 44.3627 14.7604C45.764 14.9691 48.1652 15.4417 48.3672 15.5407C48.4794 15.594 48.5096 15.6389 48.4354 15.653C48.3017 15.6813 46.7153 15.5525 45.9402 15.4399C43.9503 15.1578 41.9476 15.0691 38.6068 15.0997C34.1202 15.1477 29.3678 14.017 27.3637 12.4251C27.146 12.2516 27.0127 12.3097 26.7637 12.6791ZM22.4973 28.8771C24.479 30.4613 27.0889 31.6431 30.222 32.3617C30.692 32.4636 31.543 32.711 32.1105 32.8957C33.171 33.2495 34.8615 34.0567 34.8558 34.2129C34.8577 34.3915 31.0313 34.2457 29.8607 34.0321C27.8698 33.6607 26.2558 33.0479 24.8393 32.1172C24.532 31.9129 23.9306 31.3557 23.2832 30.6641C22.4324 29.7545 22.1531 29.3868 21.8793 28.8481C21.6967 28.474 21.5595 28.1749 21.5744 28.175C21.6041 28.1753 22.0094 28.4923 22.4973 28.8771ZM24.0497 32.7262C25.4739 33.6793 27.0141 34.3509 29.2534 34.9854C29.7685 35.1324 30.418 35.3255 30.687 35.4326C33.3468 36.414 33.6229 36.484 34.732 36.5184C35.3349 36.5324 36.6966 36.5248 37.7455 36.499C38.7871 36.4806 39.6429 36.4824 39.6432 36.5122C39.6445 36.6313 38.3603 36.9224 37.1861 37.0585C35.9225 37.1936 34.7092 37.1581 31.9008 36.882C30.0012 36.6902 29.2403 36.5182 28.1263 36.0373C26.3544 35.2665 24.4493 33.8914 23.454 32.69C22.9035 32.0217 23.0153 32.0304 24.0497 32.7262ZM43.803 13.2438C44.3768 13.317 44.9882 13.4278 45.175 13.4968C45.3616 13.5509 45.623 13.6356 45.7497 13.6593C47.033 13.9709 48.1902 14.3184 48.1239 14.3846C48.0577 14.4509 42.7776 13.3815 42.6798 13.2837C42.5369 13.1407 42.9311 13.1227 43.803 13.2438ZM41.8391 16.0352C42.6206 16.0512 46.5175 16.5177 49.7967 16.9849C50.5792 17.0902 50.863 17.1826 50.6032 17.2467C50.529 17.2608 49.5756 17.176 48.473 17.0598C47.3779 16.9512 46.037 16.8176 45.5082 16.7746C43.1619 16.5631 41.5302 16.3742 41.0003 16.227C40.6421 16.1339 40.6346 16.1263 40.8423 16.0691C40.9684 16.0332 41.4073 16.0157 41.8391 16.0352ZM47.389 11.8094C47.785 11.9551 48.2032 12.0935 48.3077 12.1244C48.4198 12.1629 48.5771 12.2613 48.6599 12.3441C48.7501 12.4344 48.2204 12.3021 47.4884 12.056C46.7565 11.8099 46.1214 11.5724 46.0838 11.5347C45.9558 11.392 46.6569 11.5484 47.389 11.8094ZM43.9058 19.2798C47.2175 19.3084 47.9264 19.4872 45.6294 19.7078C44.0163 19.8614 41.1131 19.7555 39.7112 19.4872C38.6896 19.2901 39.6862 19.2414 43.9058 19.2798ZM25.9526 35.9541C27.0312 36.6058 28.0261 37.0854 29.5809 37.7274C30.4255 38.0714 31.106 38.3839 31.1139 38.4212C31.1078 38.5477 29.2596 38.2894 28.6768 38.0748C28.3556 37.9596 27.7795 37.6781 27.4052 37.4656C26.6339 37.0182 25.0644 35.7138 24.6719 35.2035L24.4152 34.8584L24.8805 35.2207C25.1283 35.4243 25.6155 35.7496 25.9526 35.9541ZM41.0257 22.6715C43.1754 22.5981 45.2143 22.5905 45.2895 22.6658C45.3873 22.7636 44.3486 23.0499 43.739 23.1028C42.6461 23.1877 40.5781 23.2545 40.533 23.2094C40.5029 23.1793 40.0408 23.1147 39.512 23.0718C38.9757 23.0213 38.4986 22.9417 38.4384 22.8815C38.3331 22.7762 38.4966 22.7631 41.0257 22.6715ZM49.0747 13.5392C49.0678 13.5912 49.0232 13.5907 48.9705 13.5381C48.9178 13.4854 48.9173 13.4407 48.9694 13.4339C49.0215 13.4419 49.0667 13.487 49.0747 13.5392ZM38.2951 26.1244C39.0465 26.1102 40.3033 26.042 41.1064 25.9912C41.902 25.9329 42.9953 25.8778 43.5308 25.8539C44.0663 25.8299 45.2921 25.6423 46.272 25.4297C48.6179 24.9194 50.0603 24.8012 51.6324 24.9894C52.5116 25.0883 52.1925 25.1667 50.9126 25.1676C49.3499 25.1655 48.1315 25.3458 46.0016 25.8807C43.8124 26.4299 43.5747 26.472 42.3705 26.5928C40.6014 26.7671 38.9859 26.6974 37.2261 26.3657C36.555 26.2394 36.8668 26.1684 38.2951 26.1244ZM27.3515 38.6929C27.6587 38.8822 28.0635 39.1545 28.2511 39.2979C28.5962 39.5547 28.5962 39.5547 28.29 39.4546C27.8271 39.3157 26.8528 38.68 26.4389 38.2513L26.0775 37.8605L26.4299 38.1099C26.6322 38.2386 27.0444 38.5035 27.3515 38.6929ZM38.3188 29.6816C41.1459 29.623 42.5601 29.6533 42.509 29.7494C42.4364 29.9124 39.6494 30.2318 38.6742 30.1989C37.7288 30.1663 36.2307 29.9491 36.1028 29.8212C36.0201 29.7384 36.1763 29.7327 38.3188 29.6816ZM49.7355 18.8818C50.6062 18.8838 51.4922 18.9307 51.6937 18.9849C51.9027 19.0467 52.0223 19.0927 51.9776 19.0922C51.695 19.104 48.5174 19.0918 48.2642 19.0742C48.0781 19.0647 47.9958 19.0266 48.0621 18.9604C48.1062 18.9162 48.8648 18.8798 49.7355 18.8818ZM35.3323 34.925C35.9495 34.8796 37.2586 34.8343 38.2258 34.8151C41.2019 34.773 42.7999 34.6043 44.6924 34.1412C45.1154 34.0342 45.6648 33.9211 45.91 33.8866C46.1552 33.852 46.378 33.8098 46.4078 33.8101C46.4375 33.8104 46.4676 33.8405 46.4681 33.8852C46.4617 33.9819 44.2503 34.5382 42.6686 34.841C40.4036 35.2703 38.0103 35.5271 36.3138 35.5384C34.5576 35.5342 33.7679 35.4512 33.3188 35.2082C33.0794 35.0865 33.1016 35.0793 33.637 35.0405C33.9419 35.0215 34.7003 34.9702 35.3323 34.925ZM37.0243 33.1277C40.2231 33.0434 42.3633 32.769 44.3886 32.2032C45.8128 31.7871 47.439 31.4699 47.9603 31.5053C48.3847 31.5322 48.2809 31.5609 47.2932 31.7511C46.662 31.8707 45.8162 32.0996 43.2496 32.8456C41.9144 33.2329 40.66 33.5244 39.8353 33.6419C38.7803 33.7942 36.4581 33.7541 35.9799 33.5703C35.7558 33.4934 35.517 33.4313 35.4576 33.4455C35.3389 33.474 35.0913 33.2853 35.1575 33.219C35.1796 33.197 36.02 33.154 37.0243 33.1277ZM31.524 39.1847C34.1773 39.5707 36.9998 39.7725 39.634 39.7714C40.8619 39.7773 41.7775 39.8096 41.6736 39.8382C41.251 39.975 37.9707 40.0956 36.5115 40.0351C32.9751 39.8702 30.9032 39.5798 30.0052 39.1087C29.8032 39.0097 29.803 38.9948 29.989 38.9894C30.1081 38.9907 30.7937 39.0875 31.524 39.1847ZM48.656 22.9405C50.4174 22.7438 51.3776 22.7617 52.4517 22.9966C52.9216 23.0985 53.3319 23.1996 53.3545 23.2222C53.3846 23.2523 52.8931 23.2172 52.2673 23.1509C51.0157 23.0182 50.0189 23.052 47.9976 23.2979C46.2809 23.51 46.2809 23.51 46.2208 23.4498C46.1079 23.3369 47.3329 23.0749 48.656 22.9405ZM39.4302 38.1395C39.4974 38.1626 40.294 38.1936 41.202 38.2034C42.8394 38.2361 43.495 38.3028 42.945 38.3712C42.6552 38.4053 41.9264 38.442 39.7096 38.5072C38.8466 38.5276 37.9244 38.5771 37.6642 38.5966C37.4114 38.6236 36.541 38.6365 35.7446 38.6204C34.271 38.6044 33.3096 38.4674 32.5919 38.162C32.2779 38.0246 32.9771 38.0024 35.7533 38.0549C37.7107 38.0836 39.3632 38.1314 39.4302 38.1395ZM31.001 41.0468C32.0542 41.408 33.2111 41.7256 34.5464 42.0304C35.8668 42.3349 35.9639 42.3732 35.2565 42.3283C34.1322 42.264 30.0345 41.1256 29.711 40.8021C29.5228 40.5991 29.9404 40.6781 31.001 41.0468ZM29.545 41.2691C29.5831 41.3513 29.5384 41.3509 29.4557 41.2681C29.3655 41.1927 29.3425 41.1255 29.3947 41.1335C29.4393 41.134 29.5144 41.1943 29.545 41.2691ZM30.6439 41.7349C30.7041 41.7951 30.8389 41.871 30.9509 41.9094C31.0628 41.933 31.6753 42.148 32.3251 42.3708C32.9676 42.6011 33.55 42.786 33.6246 42.8017C33.6916 42.8098 33.8635 42.8787 33.9983 42.9546C34.3428 43.1518 33.3056 42.8949 32.3046 42.5418C30.7209 41.9739 30.2199 41.7527 30.0168 41.5495C29.8211 41.339 29.8211 41.339 30.1799 41.4918C30.3742 41.5683 30.5912 41.6823 30.6439 41.7349ZM31.3647 40.2768C31.6487 40.3841 34.7492 40.8345 35.6429 40.9038C36.0673 40.9307 36.776 41.0947 36.8588 41.1774C36.9566 41.2752 36.7793 41.3924 36.6223 41.3237C36.5475 41.2931 36.1378 41.2514 35.6986 41.2392C34.314 41.1944 31.3016 40.6259 31.0232 40.3475C30.8878 40.2121 31.0734 40.1769 31.3647 40.2768ZM44.2017 30.0729C46.2869 29.5375 48.3966 29.2032 49.4833 29.2299C50.0938 29.2514 49.8716 29.3532 49.0909 29.4117C48.2509 29.4844 46.8694 29.7224 46.0829 29.9371C44.562 30.3596 44.2427 30.4231 43.7589 30.4104C43.4761 30.4073 43.2748 30.3679 43.3042 30.3385C43.3337 30.3091 43.7416 30.187 44.2017 30.0729ZM34.5138 43.1462C34.507 43.1982 34.4623 43.1977 34.4097 43.1451C34.357 43.0924 34.3565 43.0478 34.4085 43.0409C34.4607 43.0489 34.5058 43.094 34.5138 43.1462ZM34.8868 43.2247C34.8799 43.2767 34.8352 43.2762 34.7826 43.2235C34.7299 43.1709 34.7294 43.1262 34.7814 43.1193C34.8336 43.1274 34.8788 43.1725 34.8868 43.2247ZM41.2697 36.902C41.3073 36.9396 41.3742 36.9329 41.411 36.896C41.4552 36.8519 41.7964 36.7514 42.1601 36.6735C42.5239 36.5956 42.843 36.5172 42.8578 36.5025C42.8798 36.4804 43.2732 36.388 43.7484 36.2889C44.2236 36.1899 44.6243 36.0901 44.6464 36.068C44.6685 36.0459 44.7874 36.0323 44.9065 36.0336C45.4423 36.0395 44.8567 36.2489 43.3797 36.5975C41.962 36.9318 40.6097 37.1106 41.0317 36.9142C41.1205 36.8706 41.232 36.8643 41.2697 36.902ZM37.8341 41.2252C38.0796 41.2205 38.2808 41.245 38.2813 41.2896C38.2818 41.3343 38.0515 41.369 37.776 41.3585C37.1507 41.3369 37.1942 41.2332 37.8341 41.2252ZM36.6632 42.351C36.6563 42.403 36.6121 42.4472 36.5601 42.4541C36.5079 42.4461 36.5075 42.4014 36.559 42.3499C36.6105 42.2984 36.6552 42.2988 36.6632 42.351ZM38.7494 41.2277C38.9583 41.2747 38.9 41.3931 38.6691 41.3682C38.5425 41.3594 38.4974 41.3143 38.5415 41.2701C38.5857 41.226 38.6822 41.2047 38.7494 41.2277Z" fill="url(#paint0_linear_0_1)"/>
<path d="M5.104 54.552C5.104 53.944 4.77333 53.64 4.112 53.64H2.784V61.336H4.112C4.77333 61.336 5.104 60.9947 5.104 60.312V54.552ZM0.864 52.04H4.352C5.20533 52.04 5.86133 52.2533 6.32 52.68C6.78933 53.096 7.024 53.6987 7.024 54.488V60.456C7.024 62.152 6.16533 63 4.448 63H0.864V52.04ZM9.55838 52.04H14.8224V53.72H11.4784V56.616H14.3744V58.296H11.4784V61.32H14.8224V63H9.55838V52.04ZM22.3601 52.04V53.72H20.3281V63H18.3921V53.72H16.3601V52.04H22.3601ZM28.4349 54.712C28.4349 53.9867 28.0349 53.624 27.2349 53.624C26.4455 53.624 26.0509 53.9867 26.0509 54.712V60.328C26.0509 61.0533 26.4455 61.416 27.2349 61.416C28.0349 61.416 28.4349 61.0533 28.4349 60.328V54.712ZM24.1309 54.616C24.1309 53.784 24.3922 53.1227 24.9149 52.632C25.4375 52.1307 26.2109 51.88 27.2349 51.88C28.2589 51.88 29.0322 52.1307 29.5549 52.632C30.0882 53.1227 30.3549 53.784 30.3549 54.616V60.424C30.3549 61.256 30.0882 61.9227 29.5549 62.424C29.0322 62.9147 28.2589 63.16 27.2349 63.16C26.2109 63.16 25.4375 62.9147 24.9149 62.424C24.3922 61.9227 24.1309 61.256 24.1309 60.424V54.616ZM37.5639 52.04H39.4679V63H37.5319C35.9639 59 35.0679 56.6747 34.8439 56.024C34.6199 55.3627 34.4972 55 34.4759 54.936C34.4759 54.9573 34.5025 55.1547 34.5559 55.528C34.6945 56.4987 34.7639 57.6987 34.7639 59.128V63H32.8759V52.04H34.8439C36.1985 55.464 36.9825 57.48 37.1959 58.088C37.4092 58.696 37.5639 59.1653 37.6599 59.496C37.7665 59.816 37.8305 60.0027 37.8519 60.056C37.8519 60.0133 37.8252 59.8107 37.7719 59.448C37.6332 58.3813 37.5639 57.1707 37.5639 55.816V52.04ZM46.7884 63L46.2604 60.264H43.7964L43.2844 63H41.4444L43.7164 52.04H46.3884L48.6444 63H46.7884ZM44.1004 58.632H45.9404L45.0124 53.768L44.1004 58.632ZM55.872 52.04V53.72H53.84V63H51.904V53.72H49.872V52.04H55.872ZM57.8028 52.04H59.7388V63H57.8028V52.04ZM66.563 54.712C66.563 53.9867 66.163 53.624 65.363 53.624C64.5737 53.624 64.179 53.9867 64.179 54.712V60.328C64.179 61.0533 64.5737 61.416 65.363 61.416C66.163 61.416 66.563 61.0533 66.563 60.328V54.712ZM62.259 54.616C62.259 53.784 62.5203 53.1227 63.043 52.632C63.5657 52.1307 64.339 51.88 65.363 51.88C66.387 51.88 67.1603 52.1307 67.683 52.632C68.2163 53.1227 68.483 53.784 68.483 54.616V60.424C68.483 61.256 68.2163 61.9227 67.683 62.424C67.1603 62.9147 66.387 63.16 65.363 63.16C64.339 63.16 63.5657 62.9147 63.043 62.424C62.5203 61.9227 62.259 61.256 62.259 60.424V54.616ZM75.692 52.04H77.596V63H75.66C74.092 59 73.196 56.6747 72.972 56.024C72.748 55.3627 72.6253 55 72.604 54.936C72.604 54.9573 72.6307 55.1547 72.684 55.528C72.8227 56.4987 72.892 57.6987 72.892 59.128V63H71.004V52.04H72.972C74.3267 55.464 75.1107 57.48 75.324 58.088C75.5373 58.696 75.692 59.1653 75.788 59.496C75.8947 59.816 75.9587 60.0027 75.98 60.056C75.98 60.0133 75.9533 59.8107 75.9 59.448C75.7613 58.3813 75.692 57.1707 75.692 55.816V52.04Z" fill="#0B0A0B"/>
<defs>
<linearGradient id="paint0_linear_0_1" x1="26.1811" y1="13.2092" x2="61.8923" y2="38.4303" gradientUnits="userSpaceOnUse">
<stop stop-color="#FC1693"/>
<stop offset="0.408621" stop-color="#FC1693"/>
<stop offset="0.945" stop-color="#300303"/>
</linearGradient>
</defs>
</svg>
