<svg width="346" height="274" viewBox="0 0 346 274" fill="none" xmlns="http://www.w3.org/2000/svg">
<path fill-rule="evenodd" clip-rule="evenodd" d="M174.483 0H167.347L163.709 0.419776L160.071 0.979478L156.293 1.53918L151.535 2.51866L148.317 3.49813L144.959 4.75746L139.222 7.13619L136.563 8.53545L132.925 10.4944L130.127 12.1735L127.328 14.1325L124.81 15.9515L123.271 17.3507L121.312 18.8899L119.632 20.569L118.513 21.5485L116.834 23.2276L115.435 24.7668L114.455 26.4459L113.616 28.5448V29.6642H113.896L114.315 29.2444L115.155 29.3843L115.295 30.5037L115.575 30.9235L115.994 31.0634L116.134 31.6231L115.295 31.7631H105.92L99.0634 31.3433H93.6063L93.1866 31.6231L92.9067 32.8825V34.7015L93.1866 36.3806L93.6063 37.2201L94.7257 38.0597L96.9646 38.3396L102.142 38.4795H116.134L116.694 38.7593L117.114 39.459V40.8582L116.834 41.4179L116.134 41.8377L112.496 42.3974L104.381 42.9571L92.347 43.5168L88.709 43.9366L87.7295 44.2164L87.5896 45.056L87.7295 47.7146L88.0093 49.3937L88.569 50.5131L89.5485 50.9328L110.957 51.0728L110.817 52.7519L110.397 53.8713L108.159 56.1101L107.319 56.5299L97.2444 56.8097H90.3881L86.3302 56.6698L83.9515 56.3899L83.6716 55.5504L81.7127 55.2705H80.3134L79.334 55.4104L78.0746 55.8302L77.375 56.3899L76.8153 57.3694L76.5354 58.4888V59.8881L76.6754 60.4478L77.2351 61.4272L78.0746 61.9869L80.5933 62.2668L87.5896 62.5466L105.36 63.5261L106.619 63.806L106.759 64.2257L107.039 67.0243H103.541L99.3433 66.8843H86.6101L79.6138 67.1642H76.8153L76.2556 66.8843L73.597 66.4646H72.0578L70.3787 66.7444L68.9795 67.444L68.2799 68.2836L68 69.5429L68.1399 71.0821L68.5597 72.0616L69.5392 73.3209L70.9384 74.0205H73.1772L74.4366 73.7407L77.375 72.6213L78.9142 72.2015L83.2519 71.9216H93.1866L104.94 72.2015H107.179V75.4198L105.78 75.5597L93.7463 75.9795L89.1287 76.2593L85.6306 76.6791L84.2313 77.0989L83.1119 77.9384L82.1325 79.4776L81.4328 80.1772L81.153 80.8769L80.7332 82.1362L80.4534 84.6548V87.7332L80.7332 88.8526L81.4328 89.6922L82.2724 90.2519L83.6716 90.6716L87.4496 90.9515L101.302 91.6511L107.599 92.0709L107.879 94.0298L108.159 95.4291L104.241 95.1493L95.7052 94.5896L90.8078 94.4496H82.972L81.7127 94.5896L80.0336 95.0093L79.4739 95.4291L79.0541 96.8284L79.194 98.0877L79.4739 98.3675L80.5933 98.6474L85.0709 99.0672L94.166 99.4869L106.479 99.7668H110.397L110.677 101.306L111.237 103.545L105.08 103.825L91.7873 104.104L85.6306 104.384V105.084L85.9104 107.323L85.4907 105.504L85.3507 104.524L84.2313 104.384L83.6716 104.104L81.8526 103.545H78.7743L77.6549 103.965L77.0951 104.804L76.9552 106.343L77.2351 107.743L77.7948 108.722L78.4944 109.282L79.4739 109.701H81.8526L82.6922 109.562L83.1119 109.282L85.0709 109.002L85.9104 108.722L86.6101 109.002L88.709 109.142L99.0634 109.562H112.776L115.854 109.422L116.274 113.2L111.517 113.479H98.3638L93.0466 113.34L90.3881 113.2L89.2687 113.34L88.9888 114.459V116.978L89.2687 118.237L89.9683 118.937L90.9478 119.216H94.166L96.6847 119.076H101.162L109.418 119.496L118.373 120.056L118.793 120.196L119.213 122.854L117.394 122.994L113.056 123.134L99.2034 123.414L97.1045 123.554L95.5653 123.834L94.166 124.394L93.4664 124.953L92.9067 126.073V128.172L93.1866 129.291L93.4664 129.431L105.92 129.571L116.974 129.851L118.513 129.991L119.073 130.55L120.892 132.09L122.431 133.209L124.25 134.608L126.489 136.287L129.147 137.966L131.526 139.506L133.065 140.345L134.465 141.185L138.382 143.144L141.741 144.683L146.218 146.502L149.437 147.621L153.354 148.601L156.993 149.16L162.17 149.72L166.507 150H175.323L180.08 149.58L185.957 148.741L188.896 148.181L192.114 147.341L196.731 145.802L200.929 144.263L203.588 143.144L208.205 140.905L210.584 139.506L212.963 137.966L215.341 136.287L218.14 134.188L220.659 132.369L223.037 130.69L224.437 129.991H244.586L245.425 129.851L246.125 129.151L246.545 127.612V125.373L246.405 124.813L245.985 124.254L245.146 123.834H240.668L239.968 123.974H236.47L232.272 123.694L226.675 123.134L223.037 122.435L222.198 121.875L222.338 120.756L222.897 120.336L225.556 119.776L229.334 119.356L237.03 118.937L248.784 118.797L250.463 118.657L251.442 118.377L251.862 117.957L252.142 117.257V115.438L251.582 113.899L251.022 113.34L232.552 113.2L228.075 113.06L226.535 112.92L226.256 112.22V110.541L226.535 109.701L228.634 109.422L234.931 109.142L246.265 108.862H253.961L259.558 109.282H261.237L262.076 109.002L262.916 108.022L263.336 106.763V104.944L263.196 104.524L262.636 104.104L261.377 103.825H253.121L249.763 103.685L236.05 102.985L232.412 102.565L231.853 102.285L231.433 101.166V99.6269L232.972 99.4869L244.306 99.347L255.08 98.9272L261.237 98.6474L262.216 97.8078L262.636 96.6884V95.2892L262.496 94.7295L262.216 94.4496L260.817 94.1698H259.278L258.159 94.3097L251.722 94.5896L238.709 94.8694H235.631L235.771 93.3302L236.61 91.6511L237.729 91.3713L241.787 91.2313L254.241 90.9515L256.759 90.8116L257.319 90.6716L257.739 90.2519L259.278 88.4328L259.978 87.0336V84.6548L259.418 82.2761L258.578 80.3172L257.039 77.7985L255.5 77.3787L252.142 76.959L247.384 76.6791L236.75 75.9795H235.071L235.211 73.6007L236.19 73.4608L247.804 72.7612L256.759 72.3414L259.698 72.0616L262.776 71.9216L262.636 70.6623L263.196 72.4813L263.756 73.041L265.015 73.4608L267.674 73.7407H271.731L272.571 73.6007L273.83 73.041L274.53 71.9216V69.8228L274.25 68.8433L273.55 67.7239L272.571 66.8843L271.032 66.3246H268.373L266.974 66.6045L263.616 67.7239H258.578L257.039 67.584L252.841 67.3041L246.125 67.0243L235.211 66.8843L235.351 64.9254L235.631 63.1063L239.968 62.9664L245.006 62.6866L252.981 62.4067L259.838 62.2668L261.657 62.1269L262.076 61.9869L263.336 61.1474L264.315 60.028L264.595 59.1884L264.455 58.209L263.896 57.2295L262.636 56.25L261.097 55.6903L259.138 55.4104L258.159 55.5504L257.319 55.9701L256.06 56.8097L254.94 57.0896L239.828 56.8097L237.17 56.6698L234.791 56.3899L231.993 55.8302L231.013 55.4104V54.291L231.153 53.5914L231.573 52.8918L232.692 52.1922L234.231 51.7724L238.989 51.2127L244.026 50.9328L251.582 50.7929L252.002 50.653L252.841 50.0933L253.541 48.9739L253.821 47.7146V46.5951L253.681 46.1754L252.981 45.4757L251.302 44.7761H245.705L242.907 44.916H236.19L233.951 44.7761L230.034 44.3563L226.955 43.7966V43.097L227.235 41.278L227.515 41.1381L229.614 40.8582L240.808 39.7388L244.446 39.319L246.265 38.7593L247.384 37.7799L248.364 35.8209V34.1418L247.944 33.3022L247.244 32.7425L245.985 32.3228H242.207L235.631 32.6026H232.272L231.993 32.4627L231.713 31.903L230.313 28.4049L229.054 26.306L225.416 22.6679L223.877 21.4086L222.058 19.7295L219.959 17.9104L218 16.3713L216.181 14.972L214.642 13.8526L212.683 12.4534L209.604 10.4944L205.826 8.39552L202.608 6.57649L199.95 5.31716L197.151 4.05784L194.353 3.07836L190.715 2.09888L186.377 1.25933L180.5 0.419776L174.483 0ZM192.953 11.8937H190.715L189.875 12.7332L188.336 14.972L186.797 17.6306L184.698 21.1288L183.578 22.6679L181.759 25.3265L180.78 26.7258L179.381 28.5448L177.701 30.9235L176.582 32.3228L175.323 34.0019L173.364 36.6605L171.965 38.3396L170.425 40.5784L168.606 42.8172L166.927 45.1959L165.528 47.1549L164.269 48.694L162.729 50.653L159.371 55.1306L157.972 57.0896L156.433 59.1885L154.474 61.987L152.795 64.3657L151.396 66.1847L149.576 68.8433L148.037 70.6623L146.218 73.3209L144.679 75.4198L143 77.7985L141.041 80.4571L139.502 82.6959L138.382 84.6549L138.522 85.3545L167.347 85.2146L167.067 86.1941L165.248 91.2314L163.709 95.1493L161.89 100.466L159.091 107.463L157.692 111.381L155.873 115.858L154.334 120.056L152.935 123.554L151.396 127.472L149.856 132.929L149.716 134.468L149.996 134.608H151.675L152.935 133.909L154.334 132.509L157.132 129.011L158.951 126.493L160.491 124.534L162.03 122.435L163.429 120.616L165.528 117.817L166.927 115.998L168.746 113.479L170.006 111.8L171.825 109.422L173.084 107.743L174.623 105.784L175.743 104.104L177.142 102.285L178.401 100.606L179.101 99.347L179.521 98.9273L180.64 97.6679L182.179 95.709L183.718 93.6101L184.838 92.2108L185.397 91.6511L185.817 90.9515L186.657 89.972L187.776 88.5728L189.175 86.7538L189.735 86.0541L190.295 85.2146L190.575 84.5149H190.854L191.274 83.8153L192.534 82.2761L192.813 81.7164H193.093L193.933 80.597L195.052 79.0579L195.892 77.9385L196.172 77.3788H196.451L197.571 76.1194L198.131 75.2799L199.25 74.0205L200.369 72.6213L202.048 70.6623L203.168 69.2631L203.448 68.5635L203.168 68.4235L196.591 68.7034L179.66 69.1232H173.923L174.483 66.7444L175.743 62.8265L177.002 59.6082L179.521 51.7724L180.92 47.9944L184.278 37.9198L186.937 30.2239L188.336 26.5858L189.735 22.8079L191.414 17.7705L192.673 14.2724L193.093 12.5933L192.953 11.8937ZM82.4124 81.5765H84.931L96.9646 81.8563L102.841 82.1362L104.8 82.2761V82.556L105.78 82.6959L107.459 83.1157V83.3955L107.879 83.5354V83.8153H108.299V84.0951H108.578L108.718 84.375V85.4944H108.438L108.578 85.9142L107.879 86.0541L89.9683 85.6343L86.0504 85.3545L83.9515 84.7948L83.112 84.0951L82.5523 82.416L82.4124 81.5765ZM256.479 80.7369H254.8L250.323 80.8769L248.504 81.0168L244.446 81.5765L240.108 81.9963L238.009 82.556L236.89 82.9757L237.03 83.5354L237.729 84.6548L239.548 85.0746L242.347 85.2146L247.804 85.3545H256.759L257.179 85.2146L257.459 84.7948V83.1157L257.319 81.9963L257.039 81.2966L256.479 80.7369Z" fill="#217AFF"/>
<path d="M69.6175 92.791H71.2966L72.9757 93.2108L74.375 94.0503L76.334 96.0093L76.7537 96.569L76.6138 97.2686L75.7743 98.388L74.375 99.3675L72.556 100.067L71.0168 100.347H69.7575L67.9384 99.9272L65.9795 98.9477L65.1399 97.9683L65 97.6884V96.4291L65.5597 95.4496L66.3993 94.4701L67.7985 93.4906L69.0578 92.9309L69.6175 92.791Z" fill="#217AFF"/>
<path d="M259.338 31H261.157L262.696 31.4198L263.535 32.1194L264.375 33.5187L264.795 34.9179V36.3172L264.235 37.2966L263.116 38.2761L262.276 38.556L261.297 38.6959L259.058 38.556L257.239 37.9963L255.979 37.2966L255.28 36.7369L255 36.1772V34.6381L255.56 33.2388L256.259 32.3993L257.799 31.4198L259.338 31Z" fill="#217AFF"/>
<path d="M271.81 92.3713H273.069L274.748 92.6511L275.588 93.0709L276.287 93.7705L276.847 94.4702L277.267 95.8694L277.127 97.1287L276.427 98.3881L275.308 99.3675L274.049 99.9272L273.489 100.067H271.25L269.431 99.3675L268.312 98.2481L267.612 97.1287L267.472 96.0093L268.032 94.4702L269.011 93.3508L270.271 92.6511L271.81 92.3713Z" fill="#217AFF"/>
<path d="M264.394 123.155H266.073L267.472 123.854L268.591 125.114L269.291 126.793L269.431 127.493V128.612L269.011 129.871L268.032 130.991L266.492 131.97L265.373 132.25L263.974 131.55L262.714 130.151L262.155 128.612V126.233L262.435 125.114L263.134 123.994L263.834 123.435L264.394 123.155Z" fill="#217AFF"/>
<path d="M73.1157 123.295L74.375 123.435L75.4945 124.134L76.334 125.254L76.7538 126.653V129.032L76.1941 130.151L75.0747 131.131L72.8359 132.11H71.9963L70.737 131.271L69.7575 130.011L69.4777 129.452V127.493L70.4571 125.534L71.4366 124.274L72.2762 123.575L73.1157 123.295Z" fill="#217AFF"/>
<path d="M81.9309 123.155L85.2891 123.575L86.4085 123.994L87.1082 124.834L87.388 126.373V127.772L87.1082 129.172L86.5485 130.291L85.8488 131.131L84.5895 131.83L84.1697 131.97H83.1903L82.3507 131.41L81.3712 130.151L80.9514 128.612L80.8115 127.213V123.994L81.2313 123.295L81.9309 123.155Z" fill="#217AFF"/>
<path d="M79.2388 32H80.9179L81.7575 32.4198L82.4571 33.2593L82.7369 34.0989V36.0578L82.3172 37.4571L81.7575 38.1567L80.778 38.5765H79.2388L77.9795 37.7369L77.1399 36.4776L77 36.0578V34.3787L77.5597 33.1194L78.1194 32.4198L79.2388 32Z" fill="#217AFF"/>
<path d="M255.858 123.575H256.838L257.817 123.994L258.097 124.274L258.237 124.834V126.793L257.677 128.192L256.838 129.312L256.138 130.011L255.159 130.431H254.039L253.2 129.451L252.78 128.192L252.64 126.793L253.06 125.394L253.759 124.554L255.298 123.715L255.858 123.575Z" fill="#217AFF"/>
<path d="M28.62 252.44C23.4 252.44 18.3 251.87 13.32 250.73C8.4 249.53 4.35 247.94 1.17 245.96L8.01 230.48C11.01 232.22 14.37 233.63 18.09 234.71C21.81 235.73 25.38 236.24 28.8 236.24C31.74 236.24 33.84 235.97 35.1 235.43C36.36 234.83 36.99 233.96 36.99 232.82C36.99 231.5 36.15 230.51 34.47 229.85C32.85 229.19 30.15 228.47 26.37 227.69C21.51 226.67 17.46 225.59 14.22 224.45C10.98 223.25 8.16 221.33 5.76 218.69C3.36 215.99 2.16 212.36 2.16 207.8C2.16 203.84 3.27 200.24 5.49 197C7.71 193.76 11.01 191.21 15.39 189.35C19.83 187.49 25.2 186.56 31.5 186.56C35.82 186.56 40.05 187.04 44.19 188C48.39 188.9 52.08 190.25 55.26 192.05L48.87 207.44C42.69 204.32 36.84 202.76 31.32 202.76C25.86 202.76 23.13 204.08 23.13 206.72C23.13 207.98 23.94 208.94 25.56 209.6C27.18 210.2 29.85 210.86 33.57 211.58C38.37 212.48 42.42 213.53 45.72 214.73C49.02 215.87 51.87 217.76 54.27 220.4C56.73 223.04 57.96 226.64 57.96 231.2C57.96 235.16 56.85 238.76 54.63 242C52.41 245.18 49.08 247.73 44.64 249.65C40.26 251.51 34.92 252.44 28.62 252.44ZM126.38 188V251H105.14V227.78H85.5204V251H64.2804V188H85.5204V210.32H105.14V188H126.38ZM169.644 252.44C162.864 252.44 156.774 251.03 151.374 248.21C145.974 245.39 141.744 241.49 138.684 236.51C135.624 231.47 134.094 225.8 134.094 219.5C134.094 213.2 135.624 207.56 138.684 202.58C141.744 197.54 145.974 193.61 151.374 190.79C156.774 187.97 162.864 186.56 169.644 186.56C176.424 186.56 182.514 187.97 187.914 190.79C193.314 193.61 197.544 197.54 200.604 202.58C203.664 207.56 205.194 213.2 205.194 219.5C205.194 225.8 203.664 231.47 200.604 236.51C197.544 241.49 193.314 245.39 187.914 248.21C182.514 251.03 176.424 252.44 169.644 252.44ZM169.644 235.25C172.284 235.25 174.654 234.62 176.754 233.36C178.914 232.04 180.624 230.21 181.884 227.87C183.144 225.47 183.774 222.68 183.774 219.5C183.774 216.32 183.144 213.56 181.884 211.22C180.624 208.82 178.914 206.99 176.754 205.73C174.654 204.41 172.284 203.75 169.644 203.75C167.004 203.75 164.604 204.41 162.444 205.73C160.344 206.99 158.664 208.82 157.404 211.22C156.144 213.56 155.514 216.32 155.514 219.5C155.514 222.68 156.144 225.47 157.404 227.87C158.664 230.21 160.344 232.04 162.444 233.36C164.604 234.62 167.004 235.25 169.644 235.25ZM245.483 252.44C238.823 252.44 232.823 251.06 227.483 248.3C222.143 245.48 217.943 241.58 214.883 236.6C211.883 231.56 210.383 225.86 210.383 219.5C210.383 213.14 211.883 207.47 214.883 202.49C217.943 197.45 222.143 193.55 227.483 190.79C232.823 187.97 238.823 186.56 245.483 186.56C251.603 186.56 257.063 187.64 261.863 189.8C266.663 191.96 270.623 195.08 273.743 199.16L260.333 211.13C256.433 206.21 251.843 203.75 246.563 203.75C242.123 203.75 238.553 205.19 235.853 208.07C233.153 210.89 231.803 214.7 231.803 219.5C231.803 224.3 233.153 228.14 235.853 231.02C238.553 233.84 242.123 235.25 246.563 235.25C251.843 235.25 256.433 232.79 260.333 227.87L273.743 239.84C270.623 243.92 266.663 247.04 261.863 249.2C257.063 251.36 251.603 252.44 245.483 252.44ZM305.526 230.12L300.756 235.43V251H279.876V188H300.756V210.86L321.456 188H344.586L319.386 215.72L345.846 251H321.276L305.526 230.12Z" fill="#217AFF"/>
</svg>
