<svg width="82" height="70" viewBox="0 0 82 70" fill="none" xmlns="http://www.w3.org/2000/svg">
<rect x="35.5882" y="37.5294" width="8.58823" height="8.58823" transform="rotate(-180 35.5882 37.5294)" fill="white" stroke="black" stroke-width="2"/>
<rect x="43.9412" y="12" width="8.58823" height="8.58823" fill="white" stroke="black" stroke-width="2"/>
<rect x="35.4706" y="12" width="8.58823" height="8.58823" fill="white" stroke="black" stroke-width="2"/>
<rect x="35.4706" y="37.4117" width="8.58823" height="8.58823" fill="white" stroke="black" stroke-width="2"/>
<rect x="27" y="20.4706" width="8.58823" height="8.58823" fill="white" stroke="black" stroke-width="2"/>
<rect x="27" y="37.4117" width="8.58823" height="8.58823" fill="white" stroke="black" stroke-width="2"/>
<rect x="43.9412" y="37.4117" width="8.58823" height="8.58823" fill="white" stroke="black" stroke-width="2"/>
<rect x="27" y="12" width="8.58823" height="8.58823" fill="white" stroke="black" stroke-width="2"/>
<rect x="35.5882" y="37.5294" width="8.58823" height="8.58823" transform="rotate(-180 35.5882 37.5294)" fill="white" stroke="black" stroke-width="2"/>
<rect x="35.4706" y="12" width="8.58823" height="8.58823" fill="white" stroke="black" stroke-width="2"/>
<rect x="27" y="20.4706" width="8.58823" height="8.58823" fill="white" stroke="black" stroke-width="2"/>
<rect x="27" y="37.4117" width="8.58823" height="8.58823" fill="#9D489D" stroke="black" stroke-width="2"/>
<rect x="52.4118" y="12" width="8.58823" height="8.58823" stroke="#E0E0E0" stroke-width="2"/>
<rect x="43.9412" y="28.9412" width="8.58823" height="8.58823" stroke="#C0C0C0" stroke-width="2"/>
<rect x="35.4706" y="28.9412" width="8.58823" height="8.58823" stroke="#C0C0C0" stroke-width="2"/>
<rect x="35.4706" y="28.9412" width="8.58823" height="8.58823" stroke="#E0E0E0" stroke-width="2"/>
<rect x="52.4118" y="28.9412" width="8.58823" height="8.58823" stroke="#E0E0E0" stroke-width="2"/>
<rect x="43.9412" y="20.4706" width="8.58823" height="8.58823" stroke="#E0E0E0" stroke-width="2"/>
<rect x="35.4706" y="20.4706" width="8.58823" height="8.58823" stroke="#E0E0E0" stroke-width="2"/>
<rect x="52.4118" y="20.4706" width="8.58823" height="8.58823" stroke="#E0E0E0" stroke-width="2"/>
<rect x="52.4118" y="37.4117" width="8.58823" height="8.58823" stroke="#E0E0E0" stroke-width="2"/>
<rect x="27" y="12" width="8.58823" height="8.58823" fill="white" stroke="black" stroke-width="2"/>
<rect x="43.9412" y="12" width="8.58823" height="8.58823" fill="#9FCC3E" stroke="black" stroke-width="2"/>
<rect x="35.4706" y="12" width="8.58823" height="8.58823" fill="#1CA593" stroke="black" stroke-width="2"/>
<rect x="27" y="20.4706" width="8.58823" height="8.58823" fill="#0E5AA8" stroke="black" stroke-width="2"/>
<rect x="27" y="29" width="8.58823" height="8.58823" fill="#6C459E" stroke="black" stroke-width="2"/>
<rect x="27" y="12" width="8.58823" height="8.58823" fill="#188CC5" stroke="black" stroke-width="2"/>
<line x1="57" y1="46" x2="67" y2="46" stroke="#E0E0E0" stroke-width="2"/>
<line x1="62" y1="12" x2="72" y2="12" stroke="#E0E0E0" stroke-width="2"/>
<line x1="12" y1="12" x2="26" y2="12" stroke="#E0E0E0" stroke-width="2"/>
<line x1="16" y1="46" x2="26" y2="46" stroke="#E0E0E0" stroke-width="2"/>
<line x1="61" y1="11" x2="61" y2="1" stroke="#E0E0E0" stroke-width="2"/>
<line x1="61" y1="52" x2="61" y2="42" stroke="#E0E0E0" stroke-width="2"/>
<line x1="27" y1="11" x2="27" stroke="#E0E0E0" stroke-width="2"/>
<line x1="27" y1="51" x2="27" y2="47" stroke="#E0E0E0" stroke-width="2"/>
<rect x="35.4706" y="37.4117" width="8.58823" height="8.58823" fill="#DC1381" stroke="black" stroke-width="2"/>
<rect x="43.9412" y="37.4117" width="8.58823" height="8.58823" fill="#FC1616" stroke="black" stroke-width="2"/>
<path d="M0.9465 60.504C0.9465 59.704 1.2185 59.08 1.7625 58.632C2.31717 58.184 3.14917 57.96 4.2585 57.96C4.98383 57.96 5.6345 58.04 6.2105 58.2V59.96C5.5705 59.7787 4.95717 59.688 4.3705 59.688C3.7945 59.688 3.39983 59.7733 3.1865 59.944C2.98383 60.104 2.8825 60.344 2.8825 60.664V66.376C2.8825 67.0267 3.3465 67.352 4.2745 67.352C5.05317 67.352 5.7145 67.2667 6.2585 67.096V68.84C5.6825 69 5.00517 69.08 4.2265 69.08C2.03983 69.08 0.9465 68.2373 0.9465 66.552V60.504ZM12.6949 60.712C12.6949 59.9867 12.2949 59.624 11.4949 59.624C10.7055 59.624 10.3109 59.9867 10.3109 60.712V66.328C10.3109 67.0533 10.7055 67.416 11.4949 67.416C12.2949 67.416 12.6949 67.0533 12.6949 66.328V60.712ZM8.39088 60.616C8.39088 59.784 8.65221 59.1227 9.17488 58.632C9.69754 58.1307 10.4709 57.88 11.4949 57.88C12.5189 57.88 13.2922 58.1307 13.8149 58.632C14.3482 59.1227 14.6149 59.784 14.6149 60.616V66.424C14.6149 67.256 14.3482 67.9227 13.8149 68.424C13.2922 68.9147 12.5189 69.16 11.4949 69.16C10.4709 69.16 9.69754 68.9147 9.17488 68.424C8.65221 67.9227 8.39088 67.256 8.39088 66.424V60.616ZM25.5679 58.04V69H23.7119V64.456C23.7119 63.3787 23.7865 62.296 23.9359 61.208L22.1439 66.168H20.5439L18.7359 61.208C18.8959 62.2 18.9759 63.2827 18.9759 64.456V69H17.1359V58.04H19.1839L21.3439 64.12L23.5039 58.04H25.5679ZM34.3161 60.536V61.528C34.3161 62.5413 33.9428 63.1867 33.1961 63.464C34.0068 63.7093 34.4121 64.3653 34.4121 65.432V66.504C34.4121 68.168 33.5268 69 31.7561 69H28.2521V58.04H31.6601C33.4308 58.04 34.3161 58.872 34.3161 60.536ZM31.3721 59.672H30.1721V62.632H31.3721C32.0761 62.632 32.4281 62.3013 32.4281 61.64V60.648C32.4281 59.9973 32.0761 59.672 31.3721 59.672ZM32.5241 66.392V65.32C32.5241 64.6587 32.1721 64.328 31.4681 64.328H30.1721V67.368H31.4681C32.1721 67.368 32.5241 67.0427 32.5241 66.392ZM36.9465 58.04H38.8825V69H36.9465V58.04ZM46.2507 58.04H48.1547V69H46.2188C44.6507 65 43.7547 62.6747 43.5307 62.024C43.3067 61.3627 43.1841 61 43.1627 60.936C43.1627 60.9573 43.1894 61.1547 43.2427 61.528C43.3814 62.4987 43.4507 63.6987 43.4507 65.128V69H41.5627V58.04H43.5307C44.8854 61.464 45.6694 63.48 45.8827 64.088C46.0961 64.696 46.2507 65.1653 46.3467 65.496C46.4534 65.816 46.5174 66.0027 46.5387 66.056C46.5387 66.0133 46.5121 65.8107 46.4587 65.448C46.3201 64.3813 46.2507 63.1707 46.2507 61.816V58.04ZM55.4752 69L54.9472 66.264H52.4832L51.9712 69H50.1312L52.4032 58.04H55.0752L57.3312 69H55.4752ZM52.7872 64.632H54.6272L53.6992 59.768L52.7872 64.632ZM64.5589 58.04V59.72H62.5269V69H60.5909V59.72H58.5589V58.04H64.5589ZM70.6336 60.712C70.6336 59.9867 70.2336 59.624 69.4336 59.624C68.6443 59.624 68.2496 59.9867 68.2496 60.712V66.328C68.2496 67.0533 68.6443 67.416 69.4336 67.416C70.2336 67.416 70.6336 67.0533 70.6336 66.328V60.712ZM66.3296 60.616C66.3296 59.784 66.591 59.1227 67.1136 58.632C67.6363 58.1307 68.4096 57.88 69.4336 57.88C70.4576 57.88 71.231 58.1307 71.7536 58.632C72.287 59.1227 72.5536 59.784 72.5536 60.616V66.424C72.5536 67.256 72.287 67.9227 71.7536 68.424C71.231 68.9147 70.4576 69.16 69.4336 69.16C68.4096 69.16 67.6363 68.9147 67.1136 68.424C66.591 67.9227 66.3296 67.256 66.3296 66.424V60.616ZM76.9946 64.872V69H75.0746V58.04H78.3066C79.1706 58.04 79.8373 58.2533 80.3066 58.68C80.7866 59.096 81.0266 59.6933 81.0266 60.472V62.344C81.0266 63.5813 80.5786 64.36 79.6826 64.68L81.4106 69H79.2986L77.7786 64.872H76.9946ZM76.9946 59.688V63.32H78.1146C78.4666 63.32 78.7173 63.2453 78.8666 63.096C79.0266 62.936 79.1066 62.68 79.1066 62.328V60.616C79.1066 59.9973 78.776 59.688 78.1146 59.688H76.9946Z" fill="#3E3C3C"/>
</svg>
