<svg width="72" height="62" viewBox="0 0 72 62" fill="none" xmlns="http://www.w3.org/2000/svg">
<path d="M29.4932 18.9221C28.5401 20.1545 27.6793 21.3869 26.921 22.598C26.798 22.7892 26.6853 22.9804 26.5725 23.161C26.4598 23.3416 26.3573 23.5222 26.2446 23.7028C26.1934 23.7878 26.1524 23.8728 26.1011 23.9472C26.0601 24.0109 26.0191 24.0853 25.9782 24.149C25.9167 24.2447 25.8654 24.3509 25.8039 24.4465C25.681 24.6696 25.558 24.9033 25.435 25.1264C23.6211 23.0229 22.0429 20.8982 20.7517 18.8372C22.1147 16.7868 23.7543 14.6833 25.6092 12.6329C25.6297 12.6647 25.64 12.7072 25.6605 12.7391C25.7015 12.8241 25.7527 12.9197 25.7937 13.0153C25.8449 13.1216 25.9064 13.2278 25.9577 13.334C25.9986 13.419 26.0499 13.504 26.0909 13.589C26.2139 13.8227 26.3471 14.0565 26.4803 14.2902C26.5213 14.3752 26.5725 14.4602 26.6238 14.5345L26.634 14.5452C26.6648 14.5983 26.6955 14.6514 26.7263 14.7045C26.7672 14.7789 26.8185 14.8639 26.8595 14.9382C26.921 15.0445 26.9825 15.1507 27.0542 15.2569C27.1157 15.3632 27.1874 15.48 27.2489 15.5863C27.3104 15.6925 27.3821 15.8094 27.4539 15.9156C27.4539 15.9156 27.4539 15.9156 27.4539 15.9262C27.5768 16.1281 27.6998 16.3193 27.833 16.5212C27.9253 16.6593 28.0072 16.7974 28.0995 16.9249C28.2327 17.1161 28.3659 17.318 28.4991 17.5198C28.5094 17.5411 28.5299 17.5623 28.5401 17.5729C28.6119 17.6685 28.6836 17.7748 28.7451 17.881C28.7656 17.9023 28.7758 17.9341 28.7963 17.9554C28.8681 18.051 28.9296 18.1466 29.0013 18.2422C29.0628 18.3378 29.1345 18.4335 29.196 18.5184C29.2165 18.5397 29.2268 18.5716 29.2472 18.5928C29.319 18.699 29.401 18.8053 29.483 18.9115C29.4932 18.9115 29.4932 18.9221 29.4932 18.9221Z" fill="black"/>
<path d="M42.3134 6.84297C42.2519 6.87484 42.2006 6.91733 42.1392 6.95983C42.0469 7.02357 41.9547 7.07669 41.8727 7.14043C41.801 7.18293 41.7292 7.23605 41.6575 7.28917C41.6063 7.33166 41.5448 7.36353 41.4935 7.40603C41.3296 7.52289 41.1656 7.62912 41.0016 7.74599C40.9299 7.7991 40.8479 7.85222 40.7762 7.90534C40.52 8.08595 40.2638 8.27718 40.0076 8.4684C39.9563 8.5109 39.8949 8.55339 39.8436 8.59589C39.3722 8.9571 38.9008 9.32893 38.4294 9.71138C38.3577 9.7645 38.2859 9.82824 38.2244 9.88136C38.1015 9.97698 37.9887 10.0726 37.8658 10.1788C37.7838 10.2532 37.6915 10.3276 37.6096 10.3913C37.5276 10.455 37.4456 10.5294 37.3636 10.6038C37.2406 10.71 37.1177 10.8163 36.9947 10.9225C35.2115 9.35018 33.4181 7.99033 31.676 6.84297C33.4796 5.36626 35.273 4.10203 36.9947 3.08215C38.7266 4.10203 40.5097 5.36626 42.3134 6.84297Z" fill="black"/>
<path d="M42.2417 31.3838C40.479 32.8818 38.7061 34.1672 36.9947 35.2296C35.2833 34.1672 33.5206 32.8711 31.7477 31.3838C31.881 31.2882 32.0142 31.2032 32.1474 31.1076C32.2089 31.0651 32.2806 31.012 32.3421 30.9695C32.5983 30.7889 32.8648 30.5977 33.121 30.3958C33.3157 30.2577 33.5001 30.109 33.6949 29.9602C33.8281 29.854 33.9613 29.7584 34.0945 29.6521C34.1765 29.5884 34.2585 29.5247 34.3405 29.4609C34.3507 29.4503 34.361 29.4503 34.3712 29.4397C34.4532 29.3759 34.5352 29.3016 34.6274 29.2378C34.8529 29.0572 35.0681 28.8766 35.2935 28.696C35.3755 28.6216 35.4678 28.5473 35.5497 28.4835C35.6112 28.4304 35.6727 28.3773 35.7342 28.3242C35.8162 28.2604 35.8982 28.1861 35.9801 28.1117C36.3183 27.8142 36.6565 27.5168 36.9947 27.2087C37.3329 27.5168 37.6711 27.8142 38.0092 28.1117C38.0912 28.1861 38.1732 28.2498 38.2552 28.3242C38.3167 28.3773 38.3782 28.4304 38.4397 28.4835C38.5216 28.5579 38.6139 28.6323 38.6959 28.696C38.9213 28.8872 39.1365 29.0678 39.362 29.2378C39.444 29.3016 39.5259 29.3759 39.6182 29.4397C39.6284 29.4503 39.6387 29.4503 39.6489 29.4609C39.7309 29.5247 39.8129 29.5884 39.8949 29.6521C40.0281 29.7584 40.1613 29.8646 40.2945 29.9602C40.4892 30.109 40.6737 30.2577 40.8684 30.3958C41.1246 30.587 41.3911 30.7783 41.6473 30.9695C41.7088 31.012 41.7805 31.0651 41.842 31.1076C41.9752 31.2032 42.1084 31.2988 42.2417 31.3838Z" fill="black"/>
<path d="M53.2377 18.8478C51.9465 20.9088 50.3785 23.0442 48.5544 25.137C47.4886 23.1292 46.1154 21.0256 44.4962 18.9221L44.5065 18.9115C44.5884 18.8053 44.6602 18.699 44.7422 18.5928C44.7627 18.5716 44.7729 18.5397 44.7934 18.5184C44.8651 18.4228 44.9266 18.3272 44.9881 18.2422C45.0599 18.1466 45.1213 18.051 45.1931 17.9554C45.2136 17.9341 45.2238 17.9023 45.2443 17.881C45.3161 17.7748 45.3878 17.6792 45.4493 17.5729C45.4595 17.5517 45.48 17.5304 45.4903 17.5198C45.6235 17.318 45.7567 17.1267 45.8899 16.9249C45.9822 16.7868 46.0642 16.6487 46.1564 16.5212C46.2896 16.3193 46.4126 16.1281 46.5356 15.9262C46.5356 15.9262 46.5356 15.9262 46.5356 15.9156C46.6073 15.8094 46.6688 15.6925 46.7405 15.5863C46.8123 15.48 46.8737 15.3632 46.9352 15.2569C46.9967 15.1507 47.0582 15.0445 47.1299 14.9382C47.1709 14.8639 47.2222 14.7789 47.2632 14.7045C47.2939 14.6514 47.3247 14.5983 47.3554 14.5452L47.3656 14.5345C47.4169 14.4495 47.4579 14.3645 47.5091 14.2902C47.6423 14.0565 47.7653 13.8227 47.8985 13.589C47.9395 13.504 47.9908 13.419 48.0318 13.334C48.083 13.2278 48.1445 13.1216 48.1957 13.0153C48.247 12.9197 48.288 12.8347 48.329 12.7391C48.3494 12.7072 48.3597 12.6647 48.3802 12.6329C50.2351 14.6939 51.8747 16.7868 53.2377 18.8478Z" fill="black"/>
<path d="M31.758 31.3838C31.2354 31.745 30.7127 32.085 30.2003 32.4037C30.1286 32.4462 30.0466 32.4993 29.9749 32.5418C29.8826 32.6055 29.7801 32.6587 29.6777 32.7224C29.5957 32.7755 29.5137 32.818 29.4317 32.8711C29.319 32.9349 29.2063 32.9986 29.0935 33.0624C29.0013 33.1155 28.8988 33.1686 28.8066 33.2217C28.7656 33.243 28.7144 33.2748 28.6734 33.2961C28.6119 33.328 28.5606 33.3598 28.4991 33.3917C28.202 33.5511 27.915 33.6998 27.6281 33.8485C27.4539 33.9335 27.2796 34.0185 27.1054 34.1035C27.0337 34.1354 26.962 34.1779 26.88 34.2097C26.7672 34.2629 26.6545 34.316 26.5418 34.3585C26.4701 34.3903 26.3983 34.4222 26.3266 34.4541C25.6707 34.7409 25.0353 34.9853 24.4205 35.1871C24.3385 35.219 24.2565 35.2402 24.1745 35.2615C24.113 35.2827 24.0618 35.2934 24.0003 35.3146C23.9593 35.3252 23.9183 35.3358 23.8773 35.3465C23.8056 35.3677 23.7338 35.389 23.6621 35.4102C23.6006 35.4315 23.5289 35.4421 23.4674 35.4633C23.2829 35.5165 23.1087 35.559 22.9243 35.5908C22.7808 35.049 22.6988 34.4435 22.6988 33.7954C22.6988 33.721 22.6988 33.6467 22.6988 33.5829C22.6988 33.5723 22.6988 33.5617 22.6988 33.5511C22.6988 33.4873 22.6988 33.4236 22.7091 33.3598C22.7091 33.2748 22.7193 33.2005 22.7193 33.1155C22.7193 33.0836 22.7193 33.0624 22.7295 33.0305C22.7398 32.9668 22.7398 32.903 22.75 32.8286C22.7603 32.7755 22.7603 32.7118 22.7705 32.6587V32.648C22.7705 32.6162 22.7808 32.5737 22.7808 32.5418C22.791 32.4781 22.8013 32.4037 22.8115 32.3399C22.8218 32.2975 22.8218 32.255 22.832 32.2125C22.832 32.1806 22.8423 32.1593 22.8423 32.1275C22.8525 32.085 22.8525 32.0425 22.8628 32.0106C22.873 31.9681 22.8833 31.915 22.8833 31.8619C22.8935 31.8088 22.9038 31.7556 22.914 31.7025V31.6919C22.914 31.6707 22.9243 31.6494 22.9243 31.6282C22.9243 31.6282 22.9243 31.6282 22.9243 31.6175C22.9345 31.5644 22.9448 31.5219 22.955 31.4688C22.996 31.2669 23.0472 31.0651 23.0985 30.8526C23.119 30.7889 23.1292 30.7145 23.1497 30.6508C23.16 30.6189 23.1702 30.587 23.1702 30.5552C23.1805 30.5127 23.1907 30.4702 23.2112 30.4171C23.2215 30.3639 23.2419 30.3108 23.2522 30.2577C23.2624 30.2152 23.2727 30.1727 23.2932 30.1302C23.3034 30.0771 23.3239 30.0346 23.3342 29.9815C23.3444 29.939 23.3649 29.8965 23.3752 29.854C23.5699 29.2272 23.7953 28.5898 24.072 27.9311C24.0925 27.8886 24.1028 27.8461 24.1233 27.8036C24.1438 27.7505 24.1745 27.6867 24.195 27.6336C24.2155 27.5911 24.2257 27.5486 24.2462 27.5168C24.277 27.4318 24.318 27.3468 24.359 27.2618C24.4 27.1662 24.441 27.0812 24.482 26.9856C24.6767 26.5606 24.8816 26.1357 25.0968 25.7001C25.1378 25.6151 25.1788 25.5407 25.2198 25.4558C25.23 25.4451 25.2403 25.4239 25.2403 25.4026C25.271 25.3495 25.2915 25.2964 25.3223 25.2433C25.353 25.1902 25.3735 25.1477 25.4043 25.0945C26.0806 25.8701 26.7877 26.6562 27.5256 27.4211C28.9398 28.8872 30.3438 30.1939 31.758 31.3838Z" fill="black"/>
<path d="M44.4962 18.9116C44.4142 19.0178 44.3323 19.124 44.2605 19.2303C44.1888 19.3259 44.1171 19.4215 44.0453 19.5171C43.8609 19.7615 43.6661 20.0164 43.4714 20.2608C43.4202 20.3245 43.3689 20.3989 43.3075 20.4626C43.1947 20.6114 43.0718 20.7601 42.9488 20.8982C42.8873 20.9832 42.8156 21.0576 42.7438 21.1425C42.6823 21.2169 42.6208 21.3019 42.5491 21.3763C42.5389 21.3869 42.5389 21.3869 42.5286 21.3975C42.4569 21.4825 42.3851 21.5781 42.3032 21.6631C42.2417 21.7269 42.1904 21.8012 42.1289 21.865C42.047 21.9606 41.965 22.0562 41.883 22.1518C41.8215 22.2262 41.7498 22.3005 41.6883 22.3749C41.0529 23.1079 40.3868 23.8304 39.6899 24.5528C39.5567 24.6909 39.4337 24.8184 39.3005 24.9459C39.2185 25.0308 39.1365 25.1158 39.0546 25.1902C38.9213 25.3177 38.7984 25.4452 38.6651 25.5727C38.5524 25.6789 38.4499 25.7851 38.3372 25.8914C38.0913 26.1251 37.8556 26.3588 37.6096 26.5819C37.5276 26.6563 37.4456 26.7306 37.3636 26.805C37.2304 26.9219 37.1074 27.0494 36.9742 27.1662C36.841 27.0494 36.718 26.9325 36.5848 26.805C36.5028 26.7306 36.4208 26.6563 36.3389 26.5819C36.0929 26.3588 35.8572 26.1251 35.6112 25.8914C35.4985 25.7851 35.396 25.6789 35.2833 25.5727C35.1501 25.4452 35.0271 25.3177 34.8939 25.1902C34.8119 25.1052 34.7299 25.0308 34.6479 24.9459C34.5147 24.8184 34.3917 24.6803 34.2585 24.5528C33.5617 23.8304 32.8955 23.1079 32.2602 22.3749C32.1884 22.3005 32.1269 22.2262 32.0655 22.1518C31.9835 22.0562 31.9015 21.9606 31.8195 21.865C31.758 21.8012 31.7068 21.7269 31.6453 21.6631C31.5736 21.5781 31.4916 21.4825 31.4198 21.3975C31.4096 21.3869 31.4096 21.3869 31.3993 21.3763C31.3378 21.3019 31.2661 21.2169 31.2046 21.1425C31.1329 21.0576 31.0714 20.9832 30.9997 20.8982C30.8767 20.7495 30.764 20.6007 30.641 20.4626C30.5897 20.3989 30.5385 20.3245 30.477 20.2608C30.2823 20.0058 30.0876 19.7615 29.9031 19.5171C29.8314 19.4215 29.7597 19.3259 29.6879 19.2303C29.6059 19.124 29.524 19.0178 29.4522 18.9116C29.524 18.8159 29.6059 18.7097 29.6879 18.6141C29.7494 18.5397 29.8109 18.4547 29.8724 18.3804C29.9749 18.2529 30.0773 18.1148 30.1901 17.9873C30.2618 17.9023 30.3335 17.8067 30.4053 17.7217C30.4463 17.6686 30.4873 17.6261 30.5283 17.573C30.5693 17.5198 30.6102 17.4773 30.6512 17.4242C30.7332 17.3286 30.8152 17.2224 30.8972 17.1268C31.4506 16.4681 32.0245 15.8094 32.6291 15.1614C32.7316 15.0551 32.8341 14.9383 32.9365 14.832C33.1415 14.6089 33.3567 14.3965 33.5617 14.1734C33.6539 14.0777 33.7461 13.9821 33.8383 13.8971C33.9101 13.8228 33.9818 13.7484 34.0536 13.674C34.2585 13.4722 34.4532 13.2703 34.6582 13.0685C34.7504 12.9835 34.8427 12.8879 34.9349 12.8029C35.1193 12.6223 35.3038 12.4523 35.4883 12.2717C35.6215 12.1442 35.7547 12.0167 35.8982 11.8892C35.9699 11.8255 36.0417 11.7618 36.1134 11.698C36.2569 11.5705 36.4003 11.443 36.5438 11.3156C36.6873 11.1881 36.8308 11.0606 36.9742 10.9331C38.1117 11.9317 39.2493 13.0154 40.3663 14.1734C41.8932 15.7244 43.2665 17.318 44.4962 18.9116Z" fill="black"/>
<path d="M50.5835 5.20683C50.5835 5.25995 50.5835 5.31307 50.5732 5.37681C50.5732 5.39806 50.5732 5.41931 50.5732 5.44056C50.5732 5.49367 50.563 5.55742 50.563 5.61054C50.563 5.63178 50.563 5.65303 50.563 5.67428C50.563 5.7274 50.5527 5.76989 50.5527 5.82301C50.5527 5.85488 50.5527 5.87613 50.5425 5.908C50.5425 5.96112 50.5322 6.00361 50.522 6.05673C50.522 6.09923 50.5117 6.1311 50.5117 6.17359C50.4707 6.51356 50.4093 6.86414 50.3375 7.22535C50.3273 7.26784 50.317 7.31034 50.3068 7.35283C50.2965 7.40595 50.2863 7.44845 50.276 7.50157C50.2658 7.57593 50.2453 7.63967 50.2248 7.71404C50.2145 7.76716 50.2043 7.82028 50.1838 7.8734C50.1736 7.91589 50.1633 7.96901 50.1531 8.0115C50.1121 8.17086 50.0711 8.33022 50.0198 8.48957C49.9993 8.55332 49.9788 8.61706 49.9583 8.69143C49.9379 8.75517 49.9276 8.81891 49.9071 8.87203C49.8969 8.92515 49.8764 8.97827 49.8559 9.03139C49.8456 9.08451 49.8251 9.127 49.8046 9.18012C49.7944 9.21199 49.7841 9.24386 49.7739 9.26511C49.7534 9.31823 49.7431 9.37135 49.7226 9.42447C49.7124 9.46696 49.6919 9.50946 49.6817 9.55195C49.6612 9.60507 49.6407 9.66881 49.6202 9.72193C49.5894 9.80692 49.5587 9.89191 49.5279 9.9769C49.4357 10.2319 49.3332 10.4975 49.2205 10.7631C49.2 10.8162 49.1795 10.8693 49.159 10.9224C49.1283 10.9968 49.0975 11.0712 49.0668 11.1349C49.036 11.1986 49.0053 11.273 48.9745 11.3367C48.9438 11.4005 48.9131 11.4749 48.8823 11.5386C48.8311 11.6555 48.7798 11.7723 48.7183 11.8892C48.6876 11.9529 48.6569 12.0167 48.6364 12.0804C48.5544 12.261 48.4621 12.4416 48.3802 12.6222C47.9702 12.176 47.5501 11.7192 47.1197 11.273C45.5415 9.63694 43.9223 8.14962 42.3134 6.83227C42.4056 6.76853 42.4978 6.71541 42.5901 6.65166C42.6516 6.60917 42.713 6.5773 42.7745 6.5348C42.8975 6.46044 43.0102 6.38607 43.1332 6.3117C43.1742 6.27983 43.2254 6.25858 43.2664 6.22671C43.3997 6.14172 43.5329 6.05673 43.6661 5.98237C43.7583 5.92925 43.8403 5.87613 43.9325 5.82301C44.0248 5.76989 44.1068 5.71677 44.199 5.66366C44.2502 5.63178 44.3117 5.59991 44.363 5.56804C44.5987 5.44055 44.8241 5.31307 45.0598 5.18559C45.1418 5.14309 45.234 5.08997 45.316 5.04747C45.4697 4.96248 45.6235 4.88812 45.7874 4.81375C45.8489 4.78188 45.9002 4.76063 45.9616 4.72876C46.1769 4.62252 46.3818 4.52691 46.597 4.4313C46.679 4.3888 46.761 4.35693 46.843 4.31444C46.9249 4.28256 47.0069 4.24007 47.0889 4.2082C47.1709 4.17633 47.2529 4.13383 47.3349 4.10196C47.4168 4.07009 47.4988 4.03822 47.5808 4.00635C47.8268 3.91073 48.0625 3.81512 48.3084 3.73013C48.3904 3.69826 48.4621 3.67701 48.5441 3.64514C48.6774 3.60264 48.8003 3.56015 48.9336 3.51765C48.954 3.50703 48.9745 3.50703 48.995 3.4964C49.0258 3.48578 49.0668 3.47516 49.0975 3.46453C49.282 3.41142 49.4562 3.3583 49.6304 3.30518C49.6714 3.29455 49.7226 3.28393 49.7636 3.27331C49.8149 3.26268 49.8764 3.24143 49.9276 3.23081C49.9993 3.20956 50.0711 3.19894 50.1428 3.17769C50.2145 3.15644 50.2863 3.14582 50.358 3.12457C50.5322 3.75137 50.604 4.45254 50.5835 5.20683Z" fill="black"/>
<path d="M31.6862 6.84294C30.0773 8.16029 28.4581 9.64762 26.8799 11.2837C26.4495 11.7299 26.0294 12.1761 25.6194 12.6329C25.5272 12.4523 25.4452 12.2717 25.3632 12.0911C25.3325 12.0273 25.3018 11.9636 25.2813 11.8999C25.23 11.783 25.1788 11.6661 25.1173 11.5493C25.0865 11.4855 25.0558 11.4112 25.0251 11.3474C24.9943 11.2837 24.9636 11.2093 24.9328 11.1456C24.9021 11.0712 24.8713 10.9968 24.8406 10.9331C24.8201 10.88 24.7996 10.8269 24.7791 10.7737C24.6664 10.5081 24.5741 10.2532 24.4717 9.98758C24.4409 9.90259 24.4102 9.8176 24.3794 9.73261C24.3589 9.67949 24.3384 9.61575 24.3179 9.56263C24.2975 9.52013 24.2872 9.47764 24.277 9.43514C24.2565 9.38203 24.236 9.32891 24.2257 9.27579C24.2155 9.24392 24.2052 9.21204 24.195 9.1908C24.1745 9.13768 24.1642 9.09518 24.1437 9.04206C24.1232 8.98895 24.113 8.93583 24.0925 8.88271C24.072 8.81896 24.0515 8.75522 24.0413 8.7021C24.0208 8.63836 24.0003 8.56399 23.9798 8.50025C23.9285 8.34089 23.8875 8.18154 23.8465 8.02218C23.8363 7.97969 23.826 7.92657 23.8158 7.88407C23.8055 7.83096 23.7851 7.77784 23.7748 7.72472C23.7543 7.65035 23.7441 7.58661 23.7236 7.51224C23.7133 7.45912 23.7031 7.41663 23.6928 7.36351C23.6826 7.32102 23.6723 7.27852 23.6621 7.23602C23.5903 6.87482 23.5289 6.52423 23.4879 6.18427C23.4776 6.14178 23.4776 6.1099 23.4776 6.06741C23.4674 6.01429 23.4674 5.9718 23.4571 5.91868C23.4571 5.88681 23.4469 5.86556 23.4469 5.83369C23.4366 5.78057 23.4366 5.73807 23.4366 5.68495C23.4366 5.66371 23.4366 5.64246 23.4366 5.62121C23.4366 5.56809 23.4264 5.50435 23.4264 5.45123C23.4264 5.42999 23.4264 5.40874 23.4264 5.38749C23.4264 5.33437 23.4161 5.27063 23.4161 5.21751C23.3956 4.46322 23.4674 3.76205 23.6313 3.14587C25.9884 3.65581 28.7656 4.93067 31.6862 6.84294Z" fill="black"/>
<path d="M51.0549 35.5908C50.8807 35.5483 50.6962 35.5058 50.5118 35.4633C50.4503 35.4527 50.3888 35.4315 50.3171 35.4102C50.2453 35.389 50.1736 35.3677 50.1019 35.3465C50.0609 35.3358 50.0199 35.3252 49.9789 35.3146C49.9174 35.2933 49.8662 35.2827 49.8047 35.2615C49.7227 35.2402 49.6407 35.2084 49.5587 35.1871C48.9438 34.9853 48.3085 34.7409 47.6526 34.4541C47.5809 34.4222 47.5091 34.3903 47.4374 34.3585C47.3247 34.3053 47.2119 34.2628 47.0992 34.2097C47.0275 34.1779 46.9557 34.1354 46.8737 34.1035C46.6995 34.0185 46.5253 33.9335 46.3511 33.8485C46.0642 33.6998 45.7772 33.5511 45.48 33.3917C45.4185 33.3598 45.3673 33.3279 45.3058 33.2961C45.2648 33.2748 45.2136 33.243 45.1726 33.2217C45.0804 33.1686 44.9779 33.1155 44.8856 33.0624C44.7729 32.9986 44.6602 32.9349 44.5475 32.8711C44.4655 32.818 44.3835 32.7755 44.3015 32.7224C44.2093 32.6693 44.1068 32.6055 44.0043 32.5418C43.9326 32.4993 43.8506 32.4462 43.7789 32.4037C43.2665 32.085 42.7438 31.745 42.2212 31.3838C43.6251 30.1939 45.0394 28.8766 46.4126 27.453C47.1504 26.6881 47.8576 25.9126 48.5339 25.1264C50.7885 29.3122 51.7415 33.073 51.0549 35.5908Z" fill="black"/>
<path d="M25.435 25.1263C23.2009 29.3121 22.2581 33.0835 22.9448 35.6013C20.475 36.1431 18.4561 35.8457 17.2366 34.5815C14.6542 31.9043 16.2528 25.615 20.7619 18.8477C22.0429 20.9087 23.6211 23.0334 25.435 25.1263Z" fill="#188CC5"/>
<path d="M50.3683 3.13511C48.0113 3.65567 45.2341 4.93052 42.3134 6.8428C40.5098 5.3661 38.7164 4.10187 36.9947 3.08199C42.3954 -0.126389 47.1402 -1.00816 49.3435 1.28657C49.8252 1.78589 50.1633 2.41269 50.3683 3.13511Z" fill="#188CC5"/>
<path d="M36.9947 3.08197C35.273 4.10185 33.4796 5.36608 31.676 6.84279C28.7553 4.93051 25.9781 3.65566 23.6211 3.13509C23.8158 2.40205 24.154 1.78587 24.6356 1.28656C26.8492 -0.997552 31.594 -0.126404 36.9947 3.08197Z" fill="#188CC5"/>
<path d="M47.1197 11.2835C47.5501 11.7297 47.9703 12.1759 48.3802 12.6327C48.3597 12.6646 48.3494 12.7071 48.3289 12.739C48.2879 12.824 48.2367 12.9196 48.1957 13.0152C48.1445 13.1214 48.083 13.2277 48.0318 13.3339C47.9908 13.4189 47.9395 13.5039 47.8985 13.5889C47.8268 13.7164 47.7653 13.8438 47.6936 13.9713C47.6321 14.0776 47.5808 14.1838 47.5194 14.29C47.4784 14.375 47.4271 14.46 47.3759 14.5344L47.3656 14.545C47.3349 14.5981 47.3041 14.6512 47.2734 14.7044C47.2324 14.7787 47.1812 14.8637 47.1402 14.9381C47.0787 15.0443 47.0172 15.1506 46.9455 15.2568C46.884 15.363 46.8122 15.4799 46.7508 15.5861C46.6893 15.6924 46.6175 15.8092 46.5458 15.9155C46.5458 15.9155 46.5458 15.9155 46.5458 15.9261C46.4228 16.1279 46.2998 16.3192 46.1666 16.521C46.0744 16.6591 45.9924 16.7972 45.9002 16.9247C45.7669 17.116 45.6337 17.3178 45.5005 17.5197C45.4903 17.5409 45.4698 17.5622 45.4595 17.5728C45.3878 17.6684 45.316 17.7746 45.2545 17.8809C45.2341 17.9021 45.2238 17.934 45.2033 17.9552C45.1316 18.0508 45.0701 18.1465 44.9984 18.2421C44.9369 18.3377 44.8651 18.4333 44.8036 18.5183C44.7831 18.5395 44.7729 18.5714 44.7524 18.5927C44.6807 18.6989 44.5987 18.8051 44.5167 18.9114L44.5065 18.922C43.2767 17.3284 41.9035 15.7349 40.397 14.1626C39.28 13.0046 38.1425 11.9209 37.0049 10.9223C38.7881 9.34998 40.5815 7.99014 42.3236 6.84277C43.9223 8.16012 45.5415 9.64745 47.1197 11.2835Z" fill="#188CC5"/>
<path d="M56.763 34.5815C55.5332 35.8563 53.5247 36.1431 51.0549 35.6013C51.7415 33.0835 50.7987 29.3227 48.5646 25.1263C50.3785 23.0228 51.9567 20.898 53.248 18.837C57.7468 25.615 59.3455 31.8936 56.763 34.5815Z" fill="#188CC5"/>
<path d="M36.9947 10.9223C35.8572 11.9209 34.7197 13.0046 33.6026 14.1626C32.0962 15.7242 30.723 17.3178 29.4932 18.922L29.483 18.9114C29.401 18.8051 29.3292 18.6989 29.2473 18.5927C29.2268 18.5714 29.2165 18.5395 29.196 18.5183C29.1243 18.4227 29.0628 18.3271 29.0013 18.2421C28.9296 18.1465 28.8681 18.0508 28.7964 17.9552C28.7759 17.934 28.7656 17.9021 28.7451 17.8809C28.6734 17.7746 28.6016 17.679 28.5402 17.5728C28.5299 17.5515 28.5094 17.5303 28.4992 17.5197C28.3659 17.3178 28.2327 17.1266 28.0995 16.9247C28.0073 16.7866 27.9253 16.6485 27.833 16.521C27.6998 16.3192 27.5768 16.1279 27.4539 15.9261C27.4539 15.9261 27.4539 15.9261 27.4539 15.9155C27.3821 15.8092 27.3206 15.6924 27.2489 15.5861C27.1772 15.4799 27.1157 15.363 27.0542 15.2568C26.9927 15.1506 26.9312 15.0443 26.8595 14.9381C26.8185 14.8637 26.7673 14.7787 26.7263 14.7044C26.6955 14.6512 26.6648 14.5981 26.634 14.545L26.6238 14.5344C26.5725 14.4494 26.5316 14.3644 26.4803 14.29C26.4188 14.1838 26.3573 14.0776 26.3061 13.9713C26.2344 13.8438 26.1626 13.7164 26.1011 13.5889C26.0601 13.5039 26.0089 13.4189 25.9679 13.3339C25.9167 13.2277 25.8552 13.1214 25.8039 13.0152C25.7527 12.9196 25.7117 12.8346 25.6707 12.739C25.6502 12.7071 25.64 12.6646 25.6195 12.6327C26.0294 12.1865 26.4496 11.7297 26.88 11.2835C28.4582 9.64745 30.0773 8.16012 31.6863 6.84277C33.4182 7.99014 35.2116 9.34998 36.9947 10.9223Z" fill="#188CC5"/>
<path d="M36.9947 35.2401C31.3071 38.7884 26.2651 39.8402 23.9593 37.4605C23.4777 36.9611 23.1395 36.3343 22.9448 35.6119C23.0165 35.6013 23.0882 35.5801 23.16 35.5588C23.2317 35.5482 23.2932 35.5269 23.3649 35.5057C23.4059 35.4951 23.4469 35.4844 23.4777 35.4738C23.5391 35.4632 23.6006 35.4419 23.6724 35.4207C23.7441 35.3995 23.8158 35.3782 23.8876 35.357C23.9286 35.3463 23.9696 35.3357 24.0106 35.3251C24.072 35.3038 24.1233 35.2932 24.1848 35.272C24.2565 35.2507 24.3282 35.2295 24.4 35.1976C25.0251 34.9958 25.6707 34.7514 26.3266 34.4539C26.3983 34.4221 26.4701 34.3902 26.5418 34.3583C26.6545 34.3052 26.7673 34.2627 26.88 34.2096C26.9517 34.1777 27.0235 34.1352 27.1054 34.1034C27.2796 34.0184 27.4539 33.9334 27.6281 33.8484C27.915 33.6997 28.202 33.5509 28.4992 33.3916C28.5811 33.3491 28.6734 33.2959 28.7554 33.2428C28.7861 33.2216 28.8168 33.211 28.8476 33.1897C28.9296 33.1472 29.0116 33.0941 29.0935 33.0516C29.3087 32.9347 29.5137 32.8073 29.7289 32.6798C29.8006 32.6373 29.8724 32.5948 29.9441 32.5523C30.2721 32.3504 30.6102 32.138 30.9484 31.9149C31.0202 31.8724 31.0919 31.8192 31.1636 31.7661C31.3583 31.6386 31.553 31.5112 31.7478 31.373C33.5207 32.8816 35.2833 34.1777 36.9947 35.2401Z" fill="#DC1381"/>
<path d="M53.2377 18.837C51.8747 16.7866 50.235 14.6831 48.3801 12.6327C48.4724 12.4521 48.5544 12.2715 48.6363 12.0909C48.6671 12.0272 48.6978 11.9634 48.7183 11.8997C48.7696 11.7828 48.8208 11.666 48.8823 11.5491C48.913 11.4854 48.9438 11.411 48.9745 11.3473C49.0053 11.2835 49.036 11.2091 49.0668 11.1454C49.0975 11.071 49.1282 10.9967 49.159 10.9329C49.1795 10.8798 49.2 10.8267 49.2205 10.7736C49.3332 10.508 49.4254 10.253 49.5279 9.98741C49.5587 9.90242 49.5894 9.81743 49.6201 9.73244C49.6406 9.67932 49.6611 9.61558 49.6816 9.56246C49.7021 9.51997 49.7124 9.47747 49.7226 9.43498C49.7431 9.38186 49.7636 9.32874 49.7739 9.27562C49.7841 9.24375 49.7944 9.21188 49.8046 9.19063C49.8251 9.13751 49.8354 9.09502 49.8559 9.0419C49.8763 8.98878 49.8866 8.93566 49.9071 8.88254C49.9276 8.8188 49.9481 8.75505 49.9583 8.70194C49.9788 8.63819 49.9993 8.56383 50.0198 8.50008C50.0711 8.34073 50.112 8.18137 50.153 8.02202C50.1633 7.97952 50.1735 7.9264 50.1838 7.88391C50.194 7.83079 50.2145 7.77767 50.2248 7.72455C50.2453 7.65018 50.2555 7.58644 50.276 7.51208C50.2863 7.45896 50.2965 7.41646 50.3068 7.36334C50.317 7.32085 50.3273 7.27835 50.3375 7.23586C50.4092 6.87465 50.4707 6.52407 50.5117 6.18411C50.522 6.14161 50.522 6.10974 50.522 6.06724C50.5322 6.01412 50.5322 5.97163 50.5425 5.91851C50.5425 5.88664 50.5527 5.86539 50.5527 5.83352C50.563 5.7804 50.563 5.73791 50.563 5.68479C50.563 5.66354 50.563 5.64229 50.563 5.62104C50.563 5.56792 50.5732 5.50418 50.5732 5.45107C50.5732 5.42982 50.5732 5.40857 50.5732 5.38732C50.5732 5.3342 50.5835 5.27046 50.5835 5.21734C50.6039 4.46305 50.5322 3.76189 50.3682 3.14571C52.838 2.6039 54.8569 2.90136 56.0764 4.16559C58.5256 6.70467 57.2139 12.4734 53.2377 18.837Z" fill="#DC1381"/>
<path d="M25.6194 12.6328C23.7543 14.6938 22.1248 16.7867 20.7619 18.8371C16.7857 12.4734 15.4739 6.70472 17.9232 4.15501C19.1529 2.88016 21.1615 2.59332 23.6313 3.13513C23.4571 3.75131 23.3956 4.45248 23.4161 5.20676C23.4161 5.25988 23.4161 5.313 23.4263 5.37675C23.4263 5.39799 23.4263 5.41924 23.4263 5.44049C23.4263 5.49361 23.4366 5.55735 23.4366 5.61047C23.4366 5.63172 23.4366 5.65296 23.4366 5.67421C23.4366 5.72733 23.4468 5.76983 23.4468 5.82295C23.4468 5.85482 23.4468 5.87606 23.4571 5.90793C23.4571 5.96105 23.4673 6.00355 23.4776 6.05667C23.4776 6.09916 23.4878 6.13103 23.4878 6.17353C23.5288 6.51349 23.5903 6.86407 23.662 7.22528C23.6723 7.26778 23.6825 7.31027 23.6928 7.35277C23.703 7.40589 23.7133 7.44838 23.7235 7.5015C23.7338 7.57587 23.7543 7.63961 23.7748 7.71397C23.785 7.76709 23.7953 7.82021 23.8158 7.87333C23.826 7.91583 23.8363 7.96894 23.8465 8.01144C23.8875 8.17079 23.9285 8.33015 23.9797 8.48951C24.0002 8.55325 24.0207 8.617 24.0412 8.69136C24.0617 8.7551 24.072 8.81884 24.0925 8.87196C24.1027 8.92508 24.1232 8.9782 24.1437 9.03132C24.1539 9.08444 24.1744 9.12693 24.1949 9.18005C24.2052 9.21192 24.2154 9.2438 24.2257 9.26504C24.2462 9.31816 24.2564 9.37128 24.2769 9.4244C24.2872 9.4669 24.3077 9.50939 24.3179 9.55188C24.3384 9.605 24.3589 9.66875 24.3794 9.72186C24.4101 9.80685 24.4409 9.89184 24.4716 9.97683C24.5639 10.2318 24.6663 10.4974 24.7791 10.763C24.7996 10.8161 24.8201 10.8692 24.8406 10.9224C24.8713 10.9967 24.902 11.0711 24.9328 11.1348C24.9635 11.1986 24.9943 11.2729 25.025 11.3367C25.0558 11.4004 25.0865 11.4748 25.1173 11.5385C25.1685 11.6554 25.2197 11.7723 25.2812 11.8891C25.312 11.9529 25.3427 12.0166 25.3632 12.0803C25.4452 12.2716 25.5272 12.4522 25.6194 12.6328Z" fill="#DC1381"/>
<path d="M36.9947 27.2085C36.8717 27.3148 36.7487 27.4316 36.636 27.5379C36.5335 27.6335 36.431 27.7185 36.3286 27.8141C36.2261 27.9097 36.1236 27.9947 36.0211 28.0903C35.9084 28.1859 35.8059 28.2815 35.6932 28.3771C35.5805 28.4728 35.478 28.5684 35.3653 28.6534C35.1193 28.8552 34.8836 29.0571 34.6479 29.2483C34.5659 29.312 34.4839 29.3864 34.3917 29.4501C34.3815 29.4608 34.3712 29.4608 34.361 29.4714C34.279 29.5351 34.197 29.5989 34.115 29.6626C33.9613 29.7795 33.8076 29.907 33.6538 30.0238C33.4796 30.1513 33.3157 30.2788 33.1415 30.4063C32.8853 30.5975 32.6188 30.7887 32.3626 30.98C32.3011 31.0225 32.2294 31.0756 32.1679 31.1181C32.0347 31.2137 31.9014 31.2987 31.7682 31.3943C30.3643 30.2044 28.95 28.8871 27.5768 27.4635C26.839 26.6986 26.1318 25.9231 25.4555 25.1369C26.5213 23.129 27.8945 21.0255 29.5137 18.922C29.5957 19.0282 29.6776 19.1345 29.7494 19.2407C29.8211 19.3363 29.8928 19.4319 29.9646 19.5276C30.149 19.7719 30.3438 20.0269 30.5385 20.2712C30.5897 20.335 30.6409 20.4093 30.7024 20.4731C30.8664 20.6749 31.0201 20.8768 31.1841 21.0786C31.2763 21.1849 31.3583 21.2911 31.4505 21.3973L31.4608 21.408C31.553 21.5248 31.6555 21.6311 31.7477 21.7479C31.7477 21.7585 31.758 21.7585 31.758 21.7692C31.8502 21.886 31.9527 22.0029 32.0552 22.1091C32.1474 22.2154 32.2294 22.311 32.3216 22.4172C32.957 23.1396 33.6129 23.862 34.2995 24.5738C34.4327 24.712 34.5557 24.8394 34.6889 24.9669C34.7709 25.0519 34.8529 25.1369 34.9348 25.2113C35.0681 25.3388 35.191 25.4662 35.3243 25.5937C35.437 25.7 35.5395 25.8062 35.6522 25.9124C35.7854 26.0399 35.9186 26.178 36.0621 26.3055C36.1543 26.3905 36.2466 26.4755 36.3286 26.5605C36.4413 26.6667 36.554 26.773 36.6667 26.8792C36.7692 26.9961 36.882 27.1023 36.9947 27.2085Z" fill="#DC1381"/>
<path d="M51.0447 35.6013C50.85 36.3343 50.5118 36.9505 50.0301 37.4498C47.7346 39.8296 42.6824 38.7778 36.9947 35.2295C38.7061 34.1671 40.4688 32.871 42.2417 31.3837C42.4364 31.5218 42.6311 31.6493 42.8258 31.7767C42.8976 31.8299 42.9693 31.8724 43.041 31.9255C43.3792 32.1486 43.7174 32.3611 44.0453 32.5629C44.1171 32.6054 44.1888 32.6479 44.2605 32.6904C44.4757 32.8179 44.6807 32.9454 44.8959 33.0622C44.9779 33.1047 45.0599 33.1578 45.1419 33.2003C45.1726 33.2216 45.2033 33.2322 45.2341 33.2535C45.3161 33.3066 45.4083 33.3491 45.4903 33.4022C45.7875 33.5615 46.0744 33.7103 46.3614 33.859C46.5356 33.944 46.7098 34.029 46.884 34.114C46.9557 34.1458 47.0275 34.1883 47.1095 34.2202C47.2222 34.2733 47.3349 34.3265 47.4477 34.3689C47.5194 34.4008 47.5911 34.4327 47.6629 34.4646C48.329 34.7514 48.9746 35.0064 49.5895 35.2082C49.6612 35.2295 49.7329 35.2507 49.8047 35.2826C49.8662 35.3038 49.9277 35.3145 49.9789 35.3357C50.0199 35.3463 50.0609 35.357 50.1019 35.3676C50.1736 35.3888 50.2453 35.4101 50.3171 35.4313C50.3786 35.4526 50.4503 35.4632 50.5118 35.4844C50.5528 35.4951 50.5938 35.5057 50.6245 35.5163C50.6963 35.5376 50.7577 35.5482 50.8295 35.5694C50.9012 35.5694 50.9729 35.5907 51.0447 35.6013Z" fill="#DC1381"/>
<path d="M48.5544 25.1263C47.878 25.9018 47.1709 26.688 46.4331 27.4529C45.0496 28.8871 43.6456 30.1938 42.2417 31.3837C42.1084 31.2881 41.9752 31.2031 41.842 31.1075C41.7805 31.065 41.7088 31.0118 41.6473 30.9693C41.3911 30.7887 41.1246 30.5975 40.8684 30.3957C40.6942 30.2682 40.5302 30.1407 40.356 30.0132C40.2023 29.8963 40.0486 29.7795 39.8949 29.652C39.8129 29.5883 39.7309 29.5245 39.6489 29.4608C39.6387 29.4501 39.6284 29.4501 39.6182 29.4395C39.5362 29.3758 39.4542 29.3014 39.362 29.2377C39.1263 29.0464 38.8803 28.8446 38.6446 28.6427C38.5319 28.5471 38.4294 28.4621 38.3167 28.3665C38.204 28.2709 38.1015 28.1753 37.9888 28.0797C37.8863 27.9947 37.7838 27.8991 37.6813 27.8035C37.5788 27.7078 37.4764 27.6229 37.3739 27.5272C37.2509 27.421 37.1279 27.3148 37.0152 27.1979C37.1279 27.0917 37.2407 26.9854 37.3534 26.8898C37.4661 26.7942 37.5788 26.6773 37.6916 26.5711C37.7838 26.4861 37.876 26.4011 37.958 26.3161C38.0912 26.1886 38.2347 26.0612 38.3679 25.9231C38.4807 25.8168 38.5831 25.7106 38.6959 25.6043C38.8291 25.4769 38.9521 25.3494 39.0853 25.2219C39.1673 25.1369 39.2493 25.0519 39.3312 24.9775C39.4645 24.8501 39.5874 24.7119 39.7207 24.5845C40.4073 23.8727 41.0631 23.1503 41.6985 22.4278C41.7907 22.3216 41.8727 22.226 41.965 22.1197C42.0674 22.0029 42.1597 21.886 42.2622 21.7798C42.2724 21.7692 42.2724 21.7692 42.2724 21.7585C42.3646 21.6417 42.4671 21.5354 42.5593 21.4186L42.5696 21.408C42.6618 21.3017 42.7438 21.1955 42.836 21.0892C43 20.8874 43.164 20.6855 43.3177 20.4837C43.3689 20.4199 43.4202 20.3456 43.4817 20.2818C43.6764 20.0269 43.8711 19.7825 44.0555 19.5382C44.1273 19.4426 44.199 19.3469 44.2708 19.2513C44.3527 19.1451 44.4347 19.0389 44.5065 18.9326C46.1256 21.0255 47.4886 23.129 48.5544 25.1263Z" fill="#DC1381"/>
<path d="M0.0514999 52.504C0.0514999 51.704 0.3235 51.08 0.8675 50.632C1.42217 50.184 2.25417 49.96 3.3635 49.96C4.08883 49.96 4.7395 50.04 5.3155 50.2V51.96C4.6755 51.7787 4.06217 51.688 3.4755 51.688C2.8995 51.688 2.50483 51.7733 2.2915 51.944C2.08883 52.104 1.9875 52.344 1.9875 52.664V58.376C1.9875 59.0267 2.4515 59.352 3.3795 59.352C4.15817 59.352 4.8195 59.2667 5.3635 59.096V60.84C4.7875 61 4.11017 61.08 3.3315 61.08C1.14483 61.08 0.0514999 60.2373 0.0514999 58.552V52.504ZM11.7999 52.712C11.7999 51.9867 11.3999 51.624 10.5999 51.624C9.81054 51.624 9.41587 51.9867 9.41587 52.712V58.328C9.41587 59.0533 9.81054 59.416 10.5999 59.416C11.3999 59.416 11.7999 59.0533 11.7999 58.328V52.712ZM7.49587 52.616C7.49587 51.784 7.75721 51.1227 8.27987 50.632C8.80254 50.1307 9.57587 49.88 10.5999 49.88C11.6239 49.88 12.3972 50.1307 12.9199 50.632C13.4532 51.1227 13.7199 51.784 13.7199 52.616V58.424C13.7199 59.256 13.4532 59.9227 12.9199 60.424C12.3972 60.9147 11.6239 61.16 10.5999 61.16C9.57587 61.16 8.80254 60.9147 8.27987 60.424C7.75721 59.9227 7.49587 59.256 7.49587 58.424V52.616ZM20.9289 50.04H22.8329V61H20.8969C19.3289 57 18.4329 54.6747 18.2089 54.024C17.9849 53.3627 17.8622 53 17.8409 52.936C17.8409 52.9573 17.8675 53.1547 17.9209 53.528C18.0595 54.4987 18.1289 55.6987 18.1289 57.128V61H16.2409V50.04H18.2089C19.5635 53.464 20.3475 55.48 20.5609 56.088C20.7742 56.696 20.9289 57.1653 21.0249 57.496C21.1315 57.816 21.1955 58.0027 21.2169 58.056C21.2169 58.0133 21.1902 57.8107 21.1369 57.448C20.9982 56.3813 20.9289 55.1707 20.9289 53.816V50.04ZM29.8814 50.04H31.8814L29.6894 61H27.0014L24.7774 50.04H26.7454L27.6734 54.968C27.7694 55.512 27.8974 56.3387 28.0574 57.448C28.228 58.5573 28.3294 59.1707 28.3614 59.288C28.404 59.0853 28.5054 58.4187 28.6654 57.288C28.8254 56.1573 28.9374 55.3893 29.0014 54.984L29.8814 50.04ZM33.8328 50.04H39.0968V51.72H35.7528V54.616H38.6488V56.296H35.7528V59.32H39.0968V61H33.8328V50.04ZM43.3065 56.872V61H41.3865V50.04H44.6185C45.4825 50.04 46.1492 50.2533 46.6185 50.68C47.0985 51.096 47.3385 51.6933 47.3385 52.472V54.344C47.3385 55.5813 46.8905 56.36 45.9945 56.68L47.7225 61H45.6105L44.0905 56.872H43.3065ZM43.3065 51.688V55.32H44.4265C44.7785 55.32 45.0292 55.2453 45.1785 55.096C45.3385 54.936 45.4185 54.68 45.4185 54.328V52.616C45.4185 51.9973 45.0878 51.688 44.4265 51.688H43.3065ZM49.7334 52.568C49.7334 51.7573 50.0214 51.1227 50.5974 50.664C51.184 50.1947 51.9734 49.96 52.9654 49.96C53.9574 49.96 54.7414 50.056 55.3174 50.248V52.072C54.6667 51.8373 53.9627 51.72 53.2054 51.72C52.1814 51.72 51.6694 52.0667 51.6694 52.76V58.376C51.6694 59.0267 52.096 59.352 52.9494 59.352C53.3227 59.352 53.6214 59.2827 53.8454 59.144V55.304H55.7334V60.424C54.9014 60.8613 53.968 61.08 52.9334 61.08C51.8987 61.08 51.104 60.8667 50.5494 60.44C50.0054 60.0027 49.7334 59.3733 49.7334 58.552V52.568ZM58.2284 50.04H63.4924V51.72H60.1484V54.616H63.0444V56.296H60.1484V59.32H63.4924V61H58.2284V50.04ZM70.0221 52.552C70.0221 51.944 69.6915 51.64 69.0301 51.64H67.7021V59.336H69.0301C69.6915 59.336 70.0221 58.9947 70.0221 58.312V52.552ZM65.7821 50.04H69.2701C70.1235 50.04 70.7795 50.2533 71.2381 50.68C71.7075 51.096 71.9421 51.6987 71.9421 52.488V58.456C71.9421 60.152 71.0835 61 69.3661 61H65.7821V50.04Z" fill="black"/>
</svg>
