<svg width="78" height="68" viewBox="0 0 78 68" fill="none" xmlns="http://www.w3.org/2000/svg">
<path d="M27.7637 12.6791C27.5734 12.9747 27.6199 13.1389 27.9874 13.4033C29.39 14.4231 31.899 15.2243 35.3874 15.7682C37.0571 16.0245 39.8837 16.6133 41.0185 16.9531C42.0486 17.247 43.1227 17.4819 43.8975 17.5648C44.2699 17.5986 44.732 17.6631 44.9258 17.695C45.1196 17.7269 45.7901 17.7937 46.4232 17.8527C47.0564 17.9116 47.7345 18.0009 47.9285 18.0476C48.2865 18.1259 48.2865 18.1259 48.0639 18.183C47.9378 18.2189 46.8815 18.252 45.7058 18.2542C44.5301 18.2563 42.2907 18.2989 40.7287 18.3563C36.9349 18.4788 35.3039 18.3495 32.2757 17.7063C29.2027 17.0479 26.5873 16.0372 25.7074 15.1868C25.4817 14.9611 25.4225 14.9902 25.1455 15.523C24.9631 15.8558 24.9713 15.9229 25.1819 16.1335C25.5355 16.4871 26.9265 17.1273 28.5847 17.696C30.2131 18.2644 32.6302 18.8264 35.1719 19.2187C37.3933 19.5702 38.1764 19.735 39.2889 20.0819C40.4984 20.4523 41.4605 20.6488 42.6 20.743C43.9557 20.8619 47.982 20.9131 49.0154 20.8276C50.4503 20.7167 52.0875 20.7196 52.8703 20.8546C53.8469 21.0215 54.6156 21.2308 54.5347 21.3118C54.4978 21.3486 54.3713 21.3397 54.2592 21.3013C53.4524 21.0098 50.8255 21.0036 48.2466 21.2955C47.1317 21.4173 45.7415 21.5436 45.1687 21.5597C44.5886 21.5832 43.4802 21.6232 42.6992 21.6519C40.5868 21.7331 38.9797 21.7603 37.4838 21.7366C32.3263 21.6731 26.347 19.9487 24.3459 17.9476C23.8343 17.436 23.7823 17.4429 23.5444 18.1472C23.4074 18.555 23.4233 18.6445 23.6339 18.8551C24.1906 19.4118 26.0463 20.3547 27.8393 20.9993C29.5949 21.636 30.6768 21.9082 32.9734 22.335C36.0528 22.8968 36.8061 23.0613 38.0012 23.4761C39.637 24.0371 41.1722 24.2472 43.2107 24.2099C44.3787 24.1853 46.2398 24.2502 46.2404 24.3098C46.2486 24.3768 45.2542 24.6339 44.6674 24.7243C44.0656 24.8144 40.6012 25.1191 39.798 25.155C33.6541 25.4008 28.6274 24.3639 25.3145 22.1699C24.7373 21.7841 23.4514 20.5423 23.1485 20.0628C23.0047 19.8454 22.9374 19.8075 22.8564 19.8885C22.7092 20.0357 22.4519 21.0151 22.5206 21.1722C22.6043 21.3442 24.6614 23.0185 25.1107 23.2764C27.1249 24.422 28.9623 25.0521 32.3858 25.7814C33.5492 26.0173 34.8922 26.3444 35.3626 26.4909C35.833 26.6374 36.6169 26.8766 37.0873 27.0231C38.7599 27.5473 40.1533 27.7187 42.9069 27.7486C44.7079 27.7682 45.95 27.7147 46.6926 27.574C48.8092 27.1877 49.8794 27.0654 50.8171 27.0756C51.3307 27.0886 51.77 27.1157 51.7926 27.1383C51.8227 27.1684 51.5255 27.2098 51.1388 27.2353C49.7335 27.3317 48.5226 27.5194 47.0159 27.8826C44.5444 28.4733 42.2247 28.6565 37.0086 28.6816C33.3997 28.6945 29.3045 27.7794 26.3641 26.3112C25.4963 25.8851 25.3087 25.7417 24.2636 24.7555C23.2411 23.7919 22.6456 23.0934 22.2586 22.3971C22.1143 22.1351 22.0343 22.3054 21.9171 23.1599L21.8066 23.9474L22.6492 24.79C24.274 26.4001 25.8693 27.3476 28.4236 28.2088C29.2452 28.4856 30.6186 28.8726 31.4989 29.0757C33.1251 29.4505 35.3054 30.1291 36.4343 30.6101C37.5183 31.0758 38.45 31.2125 41.0029 31.2625C42.3722 31.2774 43.4593 31.3339 43.4151 31.3781C43.2532 31.54 41.2706 31.9277 40.237 31.9984C37.3742 32.1979 34.5817 32.0113 31.6806 31.4217C29.2941 30.9344 27.9049 30.4579 26.1233 29.4861C24.4988 28.5978 23.4001 27.4696 21.8714 25.1164C21.6745 24.8018 21.58 25.0017 21.5229 25.9163C21.4223 27.6118 21.886 30.5636 22.5531 32.3791C23.6655 35.4496 24.8988 37.3308 27.502 39.9487C28.984 41.4307 30.2293 42.3521 32.0178 43.2719C33.0654 43.8042 35.3367 44.6474 36.366 44.867C38.0667 45.2426 40.4498 45.4174 42.2641 45.2883C43.6173 45.1839 46.0512 44.5555 47.807 43.8379C52.0447 42.1129 55.6234 38.6395 57.6523 34.2935C58.0739 33.3754 58.2979 32.7602 58.8226 31.0618C58.8804 30.8988 58.9996 30.2229 59.1114 29.5544C59.7664 25.4688 59.0576 21.1823 57.1758 17.843C55.9013 15.5968 55.3503 14.8839 53.4857 13.1223C52.6286 12.3094 51.7796 11.5635 51.5998 11.4573C51.4201 11.3512 50.9854 11.0637 50.648 10.8293C49.7933 10.2396 47.9379 9.32651 46.6155 8.84333C44.0158 7.90723 38.3889 7.10939 39.0434 7.76389C39.2315 7.95197 41.2917 8.5399 43.2084 8.94024C44.7747 9.2698 48.4428 10.597 49.8124 11.3188C50.3139 11.5847 50.5033 11.8919 50.0623 11.7159C48.844 11.219 48.4109 11.0804 47.2614 10.7553C46.5375 10.5614 45.1505 10.2933 44.1668 10.1636C39.0324 9.49016 36.7426 8.99647 35.895 8.38451C35.3924 8.01442 35.1617 8.00447 34.808 8.32805L34.5134 8.60762L34.8364 8.88645C35.4822 9.42925 38.058 10.2088 40.5999 10.616C42.128 10.8632 43.6056 11.2514 45.5402 11.9198C46.5037 12.2502 47.8032 12.6811 48.4156 12.8812C49.0204 13.0738 49.596 13.3108 49.6938 13.4086C49.8593 13.5741 49.8517 13.5665 49.5755 13.4817C48.9706 13.2891 45.4647 12.5068 44.8388 12.4256C44.1606 12.3364 43.6245 12.3008 41.2126 12.2151C37.2671 12.068 33.5678 11.2985 32.0466 10.3221C31.7468 10.1253 31.4397 9.93597 31.3723 9.89803C31.2825 9.85241 31.1495 9.94026 30.9584 10.1614C30.6939 10.4711 30.687 10.5231 30.853 10.7333C31.0718 11.011 31.8054 11.4059 32.7841 11.7663C34.1364 12.2646 35.2926 12.5228 37.767 12.8771C39.839 13.1824 40.7193 13.3854 42.758 14.055C43.6841 14.3627 44.8632 14.6732 45.3627 14.7604C46.764 14.9691 49.1652 15.4417 49.3672 15.5407C49.4794 15.594 49.5096 15.6389 49.4354 15.653C49.3017 15.6813 47.7153 15.5525 46.9402 15.4399C44.9503 15.1578 42.9476 15.0691 39.6068 15.0997C35.1202 15.1477 30.3678 14.017 28.3637 12.4251C28.146 12.2516 28.0127 12.3097 27.7637 12.6791ZM23.4973 28.8771C25.479 30.4613 28.0889 31.6431 31.222 32.3617C31.692 32.4636 32.543 32.711 33.1105 32.8957C34.171 33.2495 35.8615 34.0567 35.8558 34.2129C35.8577 34.3915 32.0313 34.2457 30.8607 34.0321C28.8698 33.6607 27.2558 33.0479 25.8393 32.1172C25.532 31.9129 24.9306 31.3557 24.2832 30.6641C23.4324 29.7545 23.1531 29.3868 22.8793 28.8481C22.6967 28.474 22.5595 28.1749 22.5744 28.175C22.6041 28.1753 23.0094 28.4923 23.4973 28.8771ZM25.0497 32.7262C26.4739 33.6793 28.0141 34.3509 30.2534 34.9854C30.7685 35.1324 31.418 35.3255 31.687 35.4326C34.3468 36.414 34.6229 36.484 35.732 36.5184C36.3349 36.5324 37.6966 36.5248 38.7455 36.499C39.7871 36.4806 40.6429 36.4824 40.6432 36.5122C40.6445 36.6313 39.3603 36.9224 38.1861 37.0585C36.9225 37.1936 35.7092 37.1581 32.9008 36.882C31.0012 36.6902 30.2403 36.5182 29.1263 36.0373C27.3544 35.2665 25.4493 33.8914 24.454 32.69C23.9035 32.0217 24.0153 32.0304 25.0497 32.7262ZM44.803 13.2438C45.3768 13.317 45.9882 13.4278 46.175 13.4968C46.3616 13.5509 46.623 13.6356 46.7497 13.6593C48.033 13.9709 49.1902 14.3184 49.1239 14.3846C49.0577 14.4509 43.7776 13.3815 43.6798 13.2837C43.5369 13.1407 43.9311 13.1227 44.803 13.2438ZM42.8391 16.0352C43.6206 16.0512 47.5175 16.5177 50.7967 16.9849C51.5792 17.0902 51.863 17.1826 51.6032 17.2467C51.529 17.2608 50.5756 17.176 49.473 17.0598C48.3779 16.9512 47.037 16.8176 46.5082 16.7746C44.1619 16.5631 42.5302 16.3742 42.0003 16.227C41.6421 16.1339 41.6346 16.1263 41.8423 16.0691C41.9684 16.0332 42.4073 16.0157 42.8391 16.0352ZM48.389 11.8094C48.785 11.9551 49.2032 12.0935 49.3077 12.1244C49.4198 12.1629 49.5771 12.2613 49.6599 12.3441C49.7501 12.4344 49.2204 12.3021 48.4884 12.056C47.7565 11.8099 47.1214 11.5724 47.0838 11.5347C46.9558 11.392 47.6569 11.5484 48.389 11.8094ZM44.9058 19.2798C48.2175 19.3084 48.9264 19.4872 46.6294 19.7078C45.0163 19.8614 42.1131 19.7555 40.7112 19.4872C39.6896 19.2901 40.6862 19.2414 44.9058 19.2798ZM26.9526 35.9541C28.0312 36.6058 29.0261 37.0854 30.5809 37.7274C31.4255 38.0714 32.106 38.3839 32.1139 38.4212C32.1078 38.5477 30.2596 38.2894 29.6768 38.0748C29.3556 37.9596 28.7795 37.6781 28.4052 37.4656C27.6339 37.0182 26.0644 35.7138 25.6719 35.2035L25.4152 34.8584L25.8805 35.2207C26.1283 35.4243 26.6155 35.7496 26.9526 35.9541ZM42.0257 22.6715C44.1754 22.5981 46.2143 22.5905 46.2895 22.6658C46.3873 22.7636 45.3486 23.0499 44.739 23.1028C43.6461 23.1877 41.5781 23.2545 41.533 23.2094C41.5029 23.1793 41.0408 23.1147 40.512 23.0718C39.9757 23.0213 39.4986 22.9417 39.4384 22.8815C39.3331 22.7762 39.4966 22.7631 42.0257 22.6715ZM50.0747 13.5392C50.0678 13.5912 50.0232 13.5907 49.9705 13.5381C49.9178 13.4854 49.9173 13.4407 49.9694 13.4339C50.0215 13.4419 50.0667 13.487 50.0747 13.5392ZM39.2951 26.1244C40.0465 26.1102 41.3033 26.042 42.1064 25.9912C42.902 25.9329 43.9953 25.8778 44.5308 25.8538C45.0663 25.8299 46.2921 25.6423 47.272 25.4297C49.618 24.9194 51.0603 24.8012 52.6324 24.9894C53.5116 25.0883 53.1925 25.1667 51.9126 25.1676C50.3499 25.1655 49.1315 25.3458 47.0016 25.8807C44.8124 26.4299 44.5747 26.472 43.3705 26.5928C41.6014 26.7671 39.9859 26.6974 38.2261 26.3657C37.555 26.2394 37.8668 26.1684 39.2951 26.1244ZM28.3515 38.6929C28.6587 38.8822 29.0635 39.1545 29.2511 39.2979C29.5962 39.5547 29.5962 39.5547 29.29 39.4546C28.8271 39.3157 27.8528 38.68 27.4389 38.2513L27.0775 37.8605L27.4299 38.1099C27.6322 38.2386 28.0444 38.5035 28.3515 38.6929ZM39.3188 29.6816C42.1459 29.623 43.5601 29.6533 43.509 29.7494C43.4364 29.9124 40.6494 30.2318 39.6742 30.1989C38.7288 30.1663 37.2307 29.9491 37.1028 29.8212C37.0201 29.7384 37.1763 29.7327 39.3188 29.6816ZM50.7355 18.8818C51.6062 18.8838 52.4922 18.9307 52.6937 18.9849C52.9027 19.0467 53.0223 19.0927 52.9776 19.0922C52.695 19.104 49.5174 19.0918 49.2642 19.0742C49.0781 19.0647 48.9958 19.0266 49.0621 18.9603C49.1062 18.9162 49.8648 18.8798 50.7355 18.8818ZM36.3323 34.925C36.9495 34.8796 38.2586 34.8343 39.2258 34.8151C42.2019 34.773 43.7999 34.6043 45.6924 34.1412C46.1154 34.0342 46.6648 33.9211 46.91 33.8866C47.1552 33.852 47.378 33.8098 47.4078 33.8101C47.4375 33.8104 47.4676 33.8405 47.4681 33.8852C47.4617 33.9819 45.2503 34.5382 43.6686 34.841C41.4036 35.2703 39.0103 35.5271 37.3138 35.5384C35.5576 35.5342 34.7679 35.4512 34.3188 35.2082C34.0794 35.0865 34.1016 35.0793 34.637 35.0405C34.9419 35.0215 35.7003 34.9702 36.3323 34.925ZM38.0243 33.1277C41.2231 33.0434 43.3633 32.769 45.3886 32.2032C46.8128 31.7871 48.439 31.4699 48.9603 31.5053C49.3847 31.5322 49.2809 31.5609 48.2932 31.7511C47.662 31.8707 46.8162 32.0996 44.2496 32.8456C42.9144 33.233 41.66 33.5244 40.8353 33.6419C39.7803 33.7942 37.4581 33.7541 36.9799 33.5703C36.7558 33.4934 36.517 33.4313 36.4576 33.4455C36.3389 33.474 36.0913 33.2853 36.1575 33.219C36.1796 33.197 37.02 33.154 38.0243 33.1277ZM32.524 39.1847C35.1773 39.5707 37.9998 39.7725 40.634 39.7714C41.8619 39.7773 42.7775 39.8096 42.6736 39.8382C42.251 39.975 38.9707 40.0956 37.5115 40.0351C33.9751 39.8702 31.9032 39.5798 31.0052 39.1087C30.8032 39.0097 30.803 38.9948 30.989 38.9894C31.1081 38.9907 31.7937 39.0875 32.524 39.1847ZM49.656 22.9405C51.4174 22.7438 52.3776 22.7617 53.4517 22.9966C53.9216 23.0985 54.3319 23.1996 54.3545 23.2222C54.3846 23.2523 53.8931 23.2172 53.2673 23.1509C52.0157 23.0182 51.0189 23.052 48.9976 23.2979C47.2809 23.51 47.2809 23.51 47.2208 23.4498C47.1079 23.3369 48.3329 23.0749 49.656 22.9405ZM40.4302 38.1395C40.4974 38.1626 41.294 38.1936 42.202 38.2034C43.8394 38.2361 44.495 38.3028 43.945 38.3712C43.6552 38.4053 42.9264 38.442 40.7096 38.5072C39.8466 38.5276 38.9244 38.5771 38.6642 38.5966C38.4114 38.6236 37.541 38.6365 36.7446 38.6204C35.271 38.6044 34.3096 38.4674 33.5919 38.162C33.2779 38.0246 33.9771 38.0024 36.7533 38.0549C38.7107 38.0836 40.3632 38.1314 40.4302 38.1395ZM32.001 41.0468C33.0542 41.408 34.2111 41.7256 35.5464 42.0304C36.8668 42.3349 36.9639 42.3732 36.2565 42.3283C35.1322 42.264 31.0345 41.1256 30.711 40.8021C30.5228 40.5991 30.9404 40.6781 32.001 41.0468ZM30.545 41.2691C30.5831 41.3513 30.5384 41.3509 30.4557 41.2681C30.3655 41.1927 30.3425 41.1255 30.3947 41.1335C30.4393 41.134 30.5144 41.1943 30.545 41.2691ZM31.6439 41.7349C31.7041 41.7951 31.8389 41.871 31.9509 41.9094C32.0628 41.933 32.6753 42.148 33.3251 42.3708C33.9676 42.6011 34.55 42.786 34.6246 42.8017C34.6916 42.8098 34.8635 42.8787 34.9983 42.9546C35.3428 43.1518 34.3056 42.8949 33.3046 42.5418C31.7209 41.9739 31.2199 41.7527 31.0168 41.5495C30.8211 41.339 30.8211 41.339 31.1799 41.4918C31.3742 41.5683 31.5912 41.6823 31.6439 41.7349ZM32.3647 40.2768C32.6487 40.3841 35.7492 40.8345 36.6429 40.9038C37.0673 40.9307 37.776 41.0947 37.8588 41.1774C37.9566 41.2752 37.7793 41.3924 37.6223 41.3237C37.5475 41.2931 37.1378 41.2514 36.6986 41.2392C35.314 41.1944 32.3016 40.6259 32.0232 40.3475C31.8878 40.2121 32.0734 40.1769 32.3647 40.2768ZM45.2017 30.0729C47.2869 29.5375 49.3966 29.2032 50.4833 29.2299C51.0938 29.2515 50.8716 29.3532 50.0909 29.4117C49.2509 29.4844 47.8694 29.7224 47.0829 29.9371C45.562 30.3596 45.2427 30.4231 44.7589 30.4104C44.4761 30.4073 44.2748 30.3679 44.3042 30.3385C44.3337 30.3091 44.7416 30.187 45.2017 30.0729ZM35.5138 43.1462C35.507 43.1982 35.4623 43.1977 35.4097 43.1451C35.357 43.0924 35.3565 43.0478 35.4085 43.0409C35.4607 43.0489 35.5058 43.094 35.5138 43.1462ZM35.8868 43.2247C35.8799 43.2767 35.8352 43.2762 35.7826 43.2235C35.7299 43.1709 35.7294 43.1262 35.7814 43.1193C35.8336 43.1274 35.8788 43.1725 35.8868 43.2247ZM42.2697 36.902C42.3073 36.9396 42.3742 36.9329 42.411 36.896C42.4552 36.8519 42.7964 36.7514 43.1601 36.6735C43.5239 36.5956 43.843 36.5172 43.8578 36.5025C43.8798 36.4804 44.2732 36.388 44.7484 36.2889C45.2236 36.1899 45.6243 36.0901 45.6464 36.068C45.6685 36.0459 45.7874 36.0323 45.9065 36.0336C46.4423 36.0395 45.8567 36.2489 44.3797 36.5975C42.962 36.9318 41.6097 37.1106 42.0317 36.9142C42.1205 36.8706 42.232 36.8643 42.2697 36.902ZM38.8341 41.2252C39.0796 41.2205 39.2808 41.245 39.2813 41.2896C39.2818 41.3343 39.0515 41.369 38.776 41.3585C38.1507 41.3369 38.1942 41.2332 38.8341 41.2252ZM37.6632 42.351C37.6563 42.403 37.6121 42.4472 37.5601 42.4541C37.5079 42.4461 37.5075 42.4014 37.559 42.3499C37.6105 42.2984 37.6552 42.2988 37.6632 42.351ZM39.7494 41.2277C39.9583 41.2747 39.9 41.3931 39.6691 41.3682C39.5425 41.3594 39.4974 41.3143 39.5415 41.2701C39.5857 41.226 39.6822 41.2047 39.7494 41.2277Z" fill="url(#paint0_linear_0_1)"/>
<path d="M5.104 58.552C5.104 57.944 4.77333 57.64 4.112 57.64H2.784V65.336H4.112C4.77333 65.336 5.104 64.9947 5.104 64.312V58.552ZM0.864 56.04H4.352C5.20533 56.04 5.86133 56.2533 6.32 56.68C6.78933 57.096 7.024 57.6987 7.024 58.488V64.456C7.024 66.152 6.16533 67 4.448 67H0.864V56.04ZM9.55838 56.04H14.8224V57.72H11.4784V60.616H14.3744V62.296H11.4784V65.32H14.8224V67H9.55838V56.04ZM22.3601 56.04V57.72H20.3281V67H18.3921V57.72H16.3601V56.04H22.3601ZM28.4349 58.712C28.4349 57.9867 28.0349 57.624 27.2349 57.624C26.4455 57.624 26.0509 57.9867 26.0509 58.712V64.328C26.0509 65.0533 26.4455 65.416 27.2349 65.416C28.0349 65.416 28.4349 65.0533 28.4349 64.328V58.712ZM24.1309 58.616C24.1309 57.784 24.3922 57.1227 24.9149 56.632C25.4375 56.1307 26.2109 55.88 27.2349 55.88C28.2589 55.88 29.0322 56.1307 29.5549 56.632C30.0882 57.1227 30.3549 57.784 30.3549 58.616V64.424C30.3549 65.256 30.0882 65.9227 29.5549 66.424C29.0322 66.9147 28.2589 67.16 27.2349 67.16C26.2109 67.16 25.4375 66.9147 24.9149 66.424C24.3922 65.9227 24.1309 65.256 24.1309 64.424V58.616ZM37.5639 56.04H39.4679V67H37.5319C35.9639 63 35.0679 60.6747 34.8439 60.024C34.6199 59.3627 34.4972 59 34.4759 58.936C34.4759 58.9573 34.5025 59.1547 34.5559 59.528C34.6945 60.4987 34.7639 61.6987 34.7639 63.128V67H32.8759V56.04H34.8439C36.1985 59.464 36.9825 61.48 37.1959 62.088C37.4092 62.696 37.5639 63.1653 37.6599 63.496C37.7665 63.816 37.8305 64.0027 37.8519 64.056C37.8519 64.0133 37.8252 63.8107 37.7719 63.448C37.6332 62.3813 37.5639 61.1707 37.5639 59.816V56.04ZM46.7884 67L46.2604 64.264H43.7964L43.2844 67H41.4444L43.7164 56.04H46.3884L48.6444 67H46.7884ZM44.1004 62.632H45.9404L45.0124 57.768L44.1004 62.632ZM55.872 56.04V57.72H53.84V67H51.904V57.72H49.872V56.04H55.872ZM57.8028 56.04H59.7388V67H57.8028V56.04ZM66.563 58.712C66.563 57.9867 66.163 57.624 65.363 57.624C64.5737 57.624 64.179 57.9867 64.179 58.712V64.328C64.179 65.0533 64.5737 65.416 65.363 65.416C66.163 65.416 66.563 65.0533 66.563 64.328V58.712ZM62.259 58.616C62.259 57.784 62.5203 57.1227 63.043 56.632C63.5657 56.1307 64.339 55.88 65.363 55.88C66.387 55.88 67.1603 56.1307 67.683 56.632C68.2163 57.1227 68.483 57.784 68.483 58.616V64.424C68.483 65.256 68.2163 65.9227 67.683 66.424C67.1603 66.9147 66.387 67.16 65.363 67.16C64.339 67.16 63.5657 66.9147 63.043 66.424C62.5203 65.9227 62.259 65.256 62.259 64.424V58.616ZM75.692 56.04H77.596V67H75.66C74.092 63 73.196 60.6747 72.972 60.024C72.748 59.3627 72.6253 59 72.604 58.936C72.604 58.9573 72.6307 59.1547 72.684 59.528C72.8227 60.4987 72.892 61.6987 72.892 63.128V67H71.004V56.04H72.972C74.3267 59.464 75.1107 61.48 75.324 62.088C75.5373 62.696 75.692 63.1653 75.788 63.496C75.8947 63.816 75.9587 64.0027 75.98 64.056C75.98 64.0133 75.9533 63.8107 75.9 63.448C75.7613 62.3813 75.692 61.1707 75.692 59.816V56.04Z" fill="#0B0A0B"/>
<defs>
<linearGradient id="paint0_linear_0_1" x1="27.1811" y1="13.2092" x2="62.8923" y2="38.4303" gradientUnits="userSpaceOnUse">
<stop stop-color="#FC1693"/>
<stop offset="0.408621" stop-color="#FC1693"/>
<stop offset="0.945" stop-color="#300303"/>
</linearGradient>
</defs>
</svg>
