<svg width="66" height="67" viewBox="0 0 66 67" fill="none" xmlns="http://www.w3.org/2000/svg">
<path d="M0.704 57.568C0.704 56.7573 0.992 56.1227 1.568 55.664C2.15467 55.1947 2.944 54.96 3.936 54.96C4.928 54.96 5.712 55.056 6.288 55.248V57.072C5.63733 56.8373 4.93333 56.72 4.176 56.72C3.152 56.72 2.64 57.0667 2.64 57.76V63.376C2.64 64.0267 3.06667 64.352 3.92 64.352C4.29333 64.352 4.592 64.2827 4.816 64.144V60.304H6.704V65.424C5.872 65.8613 4.93867 66.08 3.904 66.08C2.86933 66.08 2.07467 65.8667 1.52 65.44C0.976 65.0027 0.704 64.3733 0.704 63.552V57.568ZM11.119 61.872V66H9.199V55.04H12.431C13.295 55.04 13.9617 55.2533 14.431 55.68C14.911 56.096 15.151 56.6933 15.151 57.472V59.344C15.151 60.5813 14.703 61.36 13.807 61.68L15.535 66H13.423L11.903 61.872H11.119ZM11.119 56.688V60.32H12.239C12.591 60.32 12.8417 60.2453 12.991 60.096C13.151 59.936 13.231 59.68 13.231 59.328V57.616C13.231 56.9973 12.9003 56.688 12.239 56.688H11.119ZM22.3459 66L21.8179 63.264H19.3539L18.8419 66H17.0019L19.2739 55.04H21.9459L24.2019 66H22.3459ZM19.6579 61.632H21.4979L20.5699 56.768L19.6579 61.632ZM30.2135 57.68C30.2135 57.04 29.8775 56.72 29.2055 56.72H28.1175V60.944H29.2055C29.8775 60.944 30.2135 60.6187 30.2135 59.968V57.68ZM26.1815 55.04H29.4135C30.2775 55.04 30.9442 55.2533 31.4135 55.68C31.8935 56.1067 32.1335 56.7093 32.1335 57.488V60.16C32.1335 60.9387 31.8935 61.5413 31.4135 61.968C30.9442 62.3947 30.2775 62.608 29.4135 62.608H28.1175V66H26.1815V55.04ZM39.0776 55.04H41.0296V66H39.0776V61.472H36.4056V66H34.4696V55.04H36.4056V59.76H39.0776V55.04ZM43.7109 55.04H48.9749V56.72H45.6309V59.616H48.5269V61.296H45.6309V64.32H48.9749V66H43.7109V55.04ZM55.9526 55.04H57.8566V66H55.9206C54.3526 62 53.4566 59.6747 53.2326 59.024C53.0086 58.3627 52.886 58 52.8646 57.936C52.8646 57.9573 52.8913 58.1547 52.9446 58.528C53.0833 59.4987 53.1526 60.6987 53.1526 62.128V66H51.2646V55.04H53.2326C54.5873 58.464 55.3713 60.48 55.5846 61.088C55.798 61.696 55.9526 62.1653 56.0486 62.496C56.1553 62.816 56.2193 63.0027 56.2406 63.056C56.2406 63.0133 56.214 62.8107 56.1606 62.448C56.022 61.3813 55.9526 60.1707 55.9526 58.816V55.04ZM60.5371 55.04H65.8011V56.72H62.4571V59.616H65.3531V61.296H62.4571V64.32H65.8011V66H60.5371V55.04Z" fill="black"/>
<path d="M17.6138 25.2411L25.1764 12.1423L40.3015 12.1423L47.864 25.2411L40.3015 38.3398L25.1764 38.3398L17.6138 25.2411Z" stroke="black" stroke-width="2.5"/>
<circle cx="26.0825" cy="37.6583" r="3.41826" transform="rotate(-30 26.0825 37.6583)" fill="white" stroke="black" stroke-width="2"/>
<circle cx="40.4419" cy="37.6583" r="3.41826" transform="rotate(-30 40.4419 37.6583)" fill="white" stroke="black" stroke-width="2"/>
<circle cx="46.575" cy="24.4036" r="3.41826" transform="rotate(-30 46.575 24.4036)" fill="white" stroke="black" stroke-width="2"/>
<circle cx="18.3505" cy="24.4036" r="3.41826" transform="rotate(-30 18.3505 24.4036)" fill="white" stroke="black" stroke-width="2"/>
<circle cx="26.0825" cy="12.2533" r="3.41826" transform="rotate(-30 26.0825 12.2533)" fill="white" stroke="black" stroke-width="2"/>
<circle cx="40.4419" cy="12.2534" r="3.41826" transform="rotate(-30 40.4419 12.2534)" fill="white" stroke="black" stroke-width="2"/>
</svg>
