<svg width="171" height="64" viewBox="0 0 171 64" fill="none" xmlns="http://www.w3.org/2000/svg">
<path d="M39.6445 7.24487C40.3393 7.29442 40.6296 7.51498 41.1179 7.98041C41.5352 8.60521 41.4291 9.33532 41.3635 10.0644C41.0946 10.7132 40.7047 10.9324 40.0877 11.2089C40.0224 11.2358 39.9572 11.2626 39.89 11.2903C40.294 11.3416 40.294 11.3416 40.7496 11.2903C40.8509 11.1892 40.9522 11.088 41.0566 10.9838C41.3635 10.6774 41.3635 10.6774 41.7703 10.6084C42.8702 10.7759 43.6995 11.4559 44.4333 12.271C44.4333 12.6388 44.4333 12.6388 44.2314 12.8452C44.1435 12.9161 44.0557 12.9871 43.9651 13.0602C43.6138 13.3458 43.3488 13.622 43.0826 13.9873C43.1625 13.9724 43.2424 13.9576 43.3247 13.9422C43.6865 13.8752 44.0484 13.8086 44.4103 13.7421C44.536 13.7187 44.6618 13.6953 44.7913 13.6712C44.912 13.6491 45.0327 13.627 45.1571 13.6042C45.3239 13.5734 45.3239 13.5734 45.4942 13.5419C45.784 13.4969 45.784 13.4969 46.1523 13.4969C46.1118 13.416 46.0713 13.3351 46.0296 13.2517C46.0113 12.9686 46.0024 12.6849 45.9989 12.4013C45.9957 12.2485 45.9925 12.0956 45.9893 11.9382C46.0296 11.5355 46.0296 11.5355 46.1989 11.2951C46.3979 11.1677 46.3979 11.1677 46.6665 11.206C46.74 11.2338 46.8134 11.2617 46.8891 11.2903C46.7675 11.4117 46.7675 11.4117 46.6435 11.5355C46.6004 11.931 46.6067 12.1911 46.774 12.5545C47.1144 12.8506 47.4308 12.8508 47.8714 12.884C47.8491 12.9552 47.8268 13.0265 47.8038 13.0999C47.6741 13.7451 48.0239 14.331 48.3592 14.8593C48.5091 15.0801 48.6609 15.2995 48.8129 15.5189C49.3107 16.2457 49.754 16.9988 50.1891 17.7645C50.2562 17.8815 50.3234 17.9984 50.3926 18.1189C51.4655 20.0226 51.4655 20.0226 51.5244 21.0514C51.5314 21.1542 51.5383 21.2569 51.5455 21.3627C51.5503 21.4741 51.5503 21.4741 51.5551 21.5878C51.312 21.5878 51.0689 21.5878 50.8184 21.5878C50.7748 21.4937 50.7313 21.3997 50.6865 21.3028C50.2273 20.3472 49.7116 19.4399 49.153 18.5384C49.0865 18.4306 49.02 18.3229 48.9515 18.2119C48.6437 17.7203 48.329 17.2442 47.9745 16.7848C47.6419 16.351 47.3931 15.9174 47.15 15.4277C47.1123 15.3544 47.0747 15.281 47.0359 15.2055C46.834 14.7988 46.7663 14.5748 46.7663 14.1098C46.6523 14.1655 46.5384 14.2211 46.4209 14.2784C46.0165 14.458 45.6467 14.5168 45.2084 14.5696C44.8594 14.617 44.8594 14.617 44.5561 14.7228C44.3195 15.0849 44.3195 15.0849 44.2122 15.3501C43.8848 15.8633 43.2634 16.0988 42.7142 16.3164C42.338 16.3946 41.9947 16.4204 41.6091 16.439C41.5686 16.4795 41.5281 16.5199 41.4863 16.5616C41.1045 16.6082 40.7193 16.6192 40.3352 16.6382C40.2275 16.6446 40.1199 16.6509 40.009 16.6574C39.9055 16.6628 39.802 16.6681 39.6953 16.6737C39.6003 16.6787 39.5052 16.6837 39.4073 16.6888C39.1533 16.6842 39.1533 16.6842 38.7849 16.5616C38.7444 16.6425 38.7039 16.7234 38.6621 16.8068C38.338 16.8068 38.0138 16.8068 37.6798 16.8068C37.6798 16.645 37.6798 16.4832 37.6798 16.3164C39.3209 16.1951 39.3209 16.1951 40.9952 16.0713C40.9404 15.367 40.9404 15.367 40.8812 14.6631C40.8324 13.9341 40.8324 13.9341 41.0542 13.5486C41.1157 13.4911 41.1773 13.4336 41.2407 13.3743C40.869 13.1558 40.6594 13.1077 40.2354 13.1751C39.305 13.2938 38.3703 13.2615 37.4342 13.2517C37.4342 13.4945 37.4342 13.7372 37.4342 13.9873C37.3532 13.9064 37.2722 13.8254 37.1887 13.7421C37.1102 13.7623 37.0316 13.7825 36.9508 13.8034C36.8254 13.8337 36.8254 13.8337 36.6975 13.8647C36.5759 13.7838 36.4544 13.7029 36.3291 13.6195C36.3697 13.3768 36.4102 13.134 36.4519 12.884C36.3747 12.8614 36.2974 12.8388 36.2179 12.8155C35.309 12.508 34.8196 12.0445 34.2417 11.2903C34.3875 10.8536 34.5321 10.7596 34.894 10.4858C34.9898 10.4123 35.0855 10.3389 35.1842 10.2631C35.4696 10.0644 35.4696 10.0644 35.7444 9.92938C35.9799 9.83694 35.9799 9.83694 36.0682 9.59705C36.2703 9.20468 36.6063 8.9961 36.9431 8.71594C37.1116 8.4524 37.1116 8.4524 37.1887 8.22558C37.2697 8.22558 37.3507 8.22558 37.4342 8.22558C37.6774 8.91331 37.9205 9.60103 38.171 10.3096C38.171 10.0264 38.171 9.74323 38.171 9.45147C38.5394 9.81924 38.5394 9.81924 38.9077 10.187C39.1503 10.2055 39.3936 10.2142 39.6368 10.2177C39.7696 10.2208 39.9024 10.224 40.0392 10.2272C40.1521 10.214 40.2649 10.2007 40.3812 10.187C40.6149 9.83704 40.6835 9.64523 40.7649 9.2446C40.7855 9.14552 40.8061 9.04644 40.8273 8.94436C40.8422 8.86898 40.857 8.7936 40.8724 8.71594C40.7913 8.71594 40.7103 8.71594 40.6268 8.71594C40.6319 8.84742 40.6369 8.97889 40.6421 9.11435C40.6203 9.7689 40.6203 9.7689 40.3812 10.0644C40.0589 10.1564 40.0589 10.1564 39.7673 10.187C39.7673 10.0252 39.7673 9.86337 39.7673 9.69665C39.6052 9.6562 39.4431 9.61574 39.2761 9.57406C39.5597 9.57406 39.8434 9.57406 40.1356 9.57406C40.001 8.96427 39.8682 8.50684 39.5217 7.98041C39.4609 7.79836 39.4609 7.79836 39.3989 7.61264C39.4799 7.49128 39.561 7.36991 39.6445 7.24487ZM41.8547 11.6581C41.5757 11.8833 41.5757 11.8833 41.5851 12.2222C41.588 12.3445 41.5908 12.4668 41.5938 12.5928C41.5988 12.8103 41.6039 13.0277 41.6091 13.2517C42.0548 13.2517 42.5006 13.2517 42.9598 13.2517C42.9033 12.6764 42.8429 12.2344 42.4686 11.7807C42.163 11.65 42.163 11.65 41.8547 11.6581Z" fill="#06121B"/>
<path d="M52.4147 3.68982C52.3524 4.24469 52.2262 4.59305 51.9005 5.04596C51.8304 5.14599 51.7603 5.24602 51.688 5.34908C51.0912 6.0545 50.5238 6.37505 49.6591 6.65111C49.511 6.70069 49.511 6.70069 49.3599 6.75126C49.0459 6.85607 48.7312 6.95863 48.4163 7.06101C48.0041 7.19705 47.5922 7.33398 47.1803 7.47092C47.0807 7.50379 46.9812 7.53665 46.8786 7.57052C46.1652 7.80755 45.4654 8.06725 44.7683 8.349C44.2591 8.53412 43.7402 8.63522 43.2054 8.71596C43.2054 8.79687 43.2054 8.87778 43.2054 8.96114C43.408 8.96114 43.6106 8.96114 43.8194 8.96114C43.5545 9.22562 43.3944 9.2892 43.0443 9.40553C42.9044 9.45341 42.9044 9.45341 42.7618 9.50226C42.4687 9.57409 42.4687 9.57409 41.8547 9.57409C41.8547 9.16954 41.8547 8.765 41.8547 8.3482C42.0594 8.24604 42.264 8.14388 42.4687 8.04172C42.6717 7.94027 42.6717 7.94027 42.8788 7.83677C43.1794 7.68669 43.4803 7.53737 43.7815 7.38856C44.8218 6.87334 45.8522 6.34222 46.8745 5.79215C46.9689 5.74186 47.0633 5.69156 47.1606 5.63975C47.2446 5.59463 47.3285 5.54952 47.415 5.50303C47.6259 5.40606 47.6259 5.40606 47.8715 5.40606C47.912 5.2847 47.9525 5.16334 47.9942 5.0383C48.2293 4.89916 48.2293 4.89916 48.5358 4.76966C48.6473 4.72217 48.7588 4.67468 48.8737 4.62576C48.9912 4.57732 49.1087 4.52889 49.2298 4.47899C49.344 4.43008 49.4582 4.38117 49.5759 4.33078C50.521 3.9336 51.3803 3.64679 52.4147 3.68982Z" fill="#061821"/>
<path d="M34.1189 3.56714C35.0068 3.60408 35.5335 3.99659 36.1507 4.61585C36.7807 5.33 36.8697 5.95424 36.8505 6.87752C36.7585 7.99506 36.1244 8.85787 35.3084 9.59698C34.92 9.91362 34.506 10.1387 34.0637 10.3713C33.4076 10.7555 32.6931 11.2426 32.1542 11.7806C31.8677 11.7856 31.5811 11.7858 31.2947 11.7806C31.3024 11.5584 31.3024 11.5584 31.4175 11.2902C31.7021 11.1634 31.9887 11.0407 32.277 10.9225C32.4432 10.5692 32.4432 10.5692 32.277 10.3095C32.0744 10.3095 31.8718 10.3095 31.6631 10.3095C31.6251 10.3854 31.5871 10.4612 31.5479 10.5394C31.4635 10.7079 31.3791 10.8765 31.2947 11.0451C31.0117 11.0765 30.7273 11.0948 30.4428 11.1064C29.8176 11.0945 29.8176 11.0945 29.33 11.4128C29.2085 11.4128 29.0869 11.4128 28.9617 11.4128C29.0427 11.0487 29.1238 10.6846 29.2073 10.3095C29.8151 10.3095 30.4229 10.3095 31.0491 10.3095C31.0491 10.2286 31.0491 10.1477 31.0491 10.0643C31.3292 9.87516 31.6194 9.70935 31.9125 9.54095C32.1904 9.34547 32.1904 9.34547 32.1887 8.99792C32.1717 8.85831 32.1717 8.85831 32.1542 8.71587C32.258 8.7538 32.3619 8.79172 32.4689 8.8308C32.8967 8.96282 33.3078 9.02297 33.7505 9.08364C33.791 9.12409 33.8315 9.16455 33.8733 9.20623C34.005 9.15566 34.1367 9.10509 34.2723 9.05299C34.3464 9.02455 34.4205 8.9961 34.4968 8.96679C34.8169 8.79271 35.0028 8.64096 35.224 8.3481C35.2632 8.01703 35.2765 7.74154 35.2623 7.41336C35.2612 7.32993 35.26 7.24649 35.2587 7.16052C35.2514 6.69666 35.2514 6.69666 35.1012 6.26409C35.0847 5.93649 35.0959 5.61161 35.1012 5.28338C35.1822 5.28338 35.2633 5.28338 35.3468 5.28338C35.0666 4.51341 34.8462 4.08582 34.1189 3.68973C34.1189 3.64927 34.1189 3.60882 34.1189 3.56714Z" fill="#05121B"/>
<path d="M44.4334 0.870361C44.7623 1.52705 44.6284 2.62077 44.4766 3.32262C44.0903 4.40225 43.1775 4.95379 42.2769 5.60536C42.1991 5.66224 42.1213 5.71913 42.0412 5.77775C41.8884 5.88897 41.735 5.99934 41.5809 6.10876C41.3768 6.25491 41.1765 6.40644 40.9766 6.55829C40.6269 6.75463 40.6269 6.75463 40.3296 6.74649C39.9221 6.59918 39.5204 6.44366 39.1228 6.27193C39.0446 6.23946 38.9664 6.20698 38.8858 6.17353C38.309 5.92665 38.309 5.92665 38.1711 5.65133C38.28 5.60834 38.3889 5.56536 38.5011 5.52108C39.7422 4.98434 40.8304 4.32433 41.8548 3.44473C41.9734 3.35197 42.092 3.25921 42.2141 3.16364C42.6411 2.80893 42.9644 2.39166 43.2976 1.95068C44.1256 0.870361 44.1256 0.870361 44.4334 0.870361Z" fill="#1C2B30"/>
<path d="M31.0483 13.2236C31.2949 13.2519 31.2949 13.2519 31.6632 13.4971C31.6863 13.9415 31.6863 13.9415 31.6632 14.3552C31.7443 14.3552 31.8253 14.3552 31.9088 14.3552C31.9088 14.517 31.9088 14.6788 31.9088 14.8456C31.8278 14.8456 31.7467 14.8456 31.6632 14.8456C31.6765 14.9807 31.6765 14.9807 31.6901 15.1185C31.656 15.5507 31.5235 15.6774 31.2335 15.9948C30.7387 16.5787 30.3965 17.1783 30.0499 17.8542C29.8317 18.278 29.6062 18.6785 29.3302 19.0672C28.7827 19.8494 28.3945 20.731 27.9795 21.5879C27.7769 21.5879 27.5743 21.5879 27.3656 21.5879C27.3523 21.3148 27.3428 21.0415 27.3349 20.7681C27.3292 20.6159 27.3235 20.4638 27.3176 20.307C27.3751 19.7854 27.5132 19.6464 27.8568 19.2588C28.0666 18.917 28.2529 18.5636 28.44 18.2091C28.4905 18.1166 28.541 18.024 28.593 17.9287C28.6645 17.7942 28.6645 17.7942 28.7374 17.657C28.7806 17.5761 28.8237 17.4953 28.8682 17.412C28.9919 17.1412 28.9919 17.1412 28.9619 16.6844C28.9619 16.6035 28.9619 16.5226 28.9619 16.4392C29.0834 16.4392 29.205 16.4392 29.3302 16.4392C29.377 16.3382 29.377 16.3382 29.4247 16.2352C29.6646 15.7806 29.9723 15.37 30.2679 14.9499C30.5115 14.4414 30.3771 14.1031 30.2358 13.5814C30.2206 13.5131 30.2054 13.4448 30.1898 13.3745C30.4202 13.1445 30.7421 13.2299 31.0483 13.2236Z" fill="#0A1317"/>
<path d="M44.0647 16.1938C44.1344 17.5224 44.1344 17.5224 43.6963 18.0327C43.0897 18.6534 42.426 18.8752 41.6089 19.136C41.5057 19.173 41.4025 19.2099 41.2961 19.248C40.5206 19.5119 39.8483 19.5352 39.0303 19.5037C39.0708 18.8969 39.1113 18.2901 39.1531 17.6649C39.5975 17.5891 39.5975 17.5891 40.051 17.5117C41.273 17.2893 42.3443 16.8998 43.4392 16.3107C43.6963 16.1938 43.6963 16.1938 44.0647 16.1938Z" fill="#011A28"/>
<path d="M31.4174 7.36743C31.4984 7.48879 31.5795 7.61016 31.663 7.7352C31.7883 7.91724 31.7883 7.91724 31.9162 8.10296C32.1507 8.46541 32.2769 8.69735 32.2769 9.12965C32.0953 9.60553 31.7352 9.82566 31.2946 10.0644C31.2136 10.0644 31.1325 10.0644 31.049 10.0644C31.049 10.1453 31.049 10.2262 31.049 10.3096C29.8936 10.4503 29.8936 10.4503 29.33 10.4322C29.2084 10.7153 29.0868 10.9985 28.9616 11.2903C28.5732 10.8286 28.2249 10.2842 28.2249 9.66597C28.3476 9.45144 28.3476 9.45144 28.6316 9.29821C29.043 9.03074 29.1342 8.77405 29.3362 8.34048C29.497 8.0127 29.6421 7.82186 29.9439 7.61261C30.4403 7.48359 30.9282 7.42945 31.4174 7.61261C31.4174 7.5317 31.4174 7.45079 31.4174 7.36743Z" fill="#324147"/>
<path d="M44.1879 0.992878C43.9197 1.32318 43.6504 1.65258 43.3797 1.98077C43.2093 2.18771 43.04 2.39562 42.8741 2.60617C41.9798 3.70142 40.7935 4.48162 39.5756 5.17622C39.4922 5.2241 39.4089 5.27197 39.3231 5.32129C38.8971 5.55589 38.668 5.65126 38.1711 5.65126C38.2293 4.87703 38.511 4.29673 39.0854 3.77328C39.5159 3.41037 39.9643 3.07257 40.4186 2.73995C40.5956 2.60958 40.7697 2.47516 40.943 2.33992C41.5535 1.87949 42.1953 1.54878 42.8909 1.23806C42.9767 1.19938 43.0626 1.1607 43.151 1.12085C43.7736 0.855019 43.7736 0.855019 44.1879 0.992878Z" fill="#C2C6BE"/>
<path d="M47.3801 2.95435C47.3868 3.19182 47.3915 3.42936 47.3955 3.66689C47.3983 3.79916 47.4012 3.93143 47.4041 4.0677C47.3801 4.42541 47.3801 4.42541 47.1345 4.79318C46.9286 4.91804 46.9286 4.91804 46.6865 5.02878C46.1835 5.26733 45.7 5.52993 45.2159 5.80454C45.1318 5.85197 45.0477 5.89941 44.961 5.94829C44.544 6.18373 44.1279 6.42072 43.7127 6.65931C42.9799 7.0803 42.2487 7.4925 41.4862 7.8579C41.2406 7.49013 41.2406 7.49013 41.2478 7.25358C41.4157 6.88484 41.6583 6.73205 41.985 6.4941C42.0495 6.44703 42.114 6.39996 42.1804 6.35146C42.7979 5.90851 43.4421 5.50911 44.0896 5.11165C44.7548 4.70311 45.3954 4.26782 46.0294 3.81247C46.2568 3.65117 46.4845 3.49027 46.7124 3.32977C46.8139 3.25787 46.9154 3.18597 47.0199 3.11189C47.2573 2.95435 47.2573 2.95435 47.3801 2.95435Z" fill="#81837B"/>
<path d="M52.7831 0.747803C52.8236 0.747803 52.8641 0.747803 52.9058 0.747803C52.9435 1.86979 52.9665 2.87447 52.5375 3.93511C52.497 3.8542 52.4564 3.7733 52.4147 3.68994C51.2315 3.88843 50.1916 4.15691 49.0994 4.67065C49.0097 4.33927 49.0097 4.33927 48.9766 3.93511C49.1622 3.63056 49.1622 3.63056 49.4294 3.35282C49.5159 3.2599 49.6025 3.16698 49.6917 3.07124C49.9413 2.84753 50.1514 2.72995 50.45 2.58664C50.507 2.52848 50.564 2.47033 50.6227 2.41041C50.9701 2.07036 51.4215 1.88834 51.8506 1.66722C52.1341 1.50355 52.3121 1.34603 52.5375 1.11557C52.6185 1.11557 52.6996 1.11557 52.7831 1.11557C52.7831 0.994206 52.7831 0.872843 52.7831 0.747803Z" fill="#38474F"/>
<path d="M30.8036 0.012203C31.8612 -0.0559209 32.6545 0.156018 33.5203 0.778383C33.8286 1.22986 33.8491 1.57533 33.7505 2.09621C33.6091 2.55548 33.4426 3.00052 33.2594 3.44469C33.5025 3.44469 33.7456 3.44469 33.9961 3.44469C33.9961 3.5256 33.9961 3.60651 33.9961 3.68987C33.8872 3.71515 33.7783 3.74044 33.6661 3.76649C33.264 3.93312 33.1872 3.99122 32.9447 4.31814C32.6454 4.67058 32.6454 4.67058 32.3001 4.71655C32.1671 4.6938 32.1671 4.6938 32.0315 4.67058C31.9772 4.02071 32.0788 3.65223 32.3883 3.08267C32.6589 2.57718 32.891 2.08097 32.891 1.49859C32.7895 1.21396 32.7895 1.21396 32.4967 1.10066C32.1319 0.985894 31.8449 0.96416 31.4636 0.969929C31.348 0.970719 31.2325 0.971509 31.1134 0.972323C30.7881 0.980865 30.7881 0.980865 30.4352 1.1155C29.9977 1.13849 29.9977 1.13849 29.5757 1.1155C29.3301 0.870325 29.3301 0.870325 29.3301 0.37997C30.0595 0.319288 30.0595 0.319288 30.8036 0.257381C30.8036 0.176472 30.8036 0.0955634 30.8036 0.012203Z" fill="#131B21"/>
<path d="M53.0285 0.257324C53.0285 0.78323 53.0285 1.30914 53.0285 1.85098C52.988 1.85098 52.9475 1.85098 52.9057 1.85098C52.8449 1.48689 52.8449 1.48689 52.7829 1.11545C52.6298 1.25222 52.6298 1.25222 52.4735 1.39175C52.0489 1.74464 51.5994 1.97613 51.1022 2.21108C50.9287 2.2971 50.7553 2.38314 50.5818 2.46919C50.2774 2.61778 49.9751 2.75343 49.6618 2.88389C49.3014 3.04502 49.0222 3.17795 48.7308 3.44463C48.551 3.93484 48.4962 4.39562 48.4853 4.9157C48.3029 4.97638 48.3029 4.97638 48.1169 5.03829C48.1169 4.26966 48.1169 3.50103 48.1169 2.7091C47.9548 2.66865 47.7927 2.62819 47.6257 2.58651C47.7777 2.54353 47.9296 2.50055 48.0862 2.45626C48.8549 2.20166 49.5152 1.77785 50.2043 1.36062C52.1027 0.257324 52.1027 0.257324 53.0285 0.257324Z" fill="#96978F"/>
<path d="M36.8201 19.3813C37.1066 19.4473 37.367 19.5259 37.6413 19.6342C38.7596 19.9502 40.0893 19.7004 41.2406 19.6265C41.1737 20.1013 41.1402 20.2176 40.7801 20.5689C39.8816 21.2072 38.9886 21.172 37.9253 21.0976C37.4875 21.0027 37.181 20.87 36.8892 20.5153C36.7936 20.1333 36.8051 19.7731 36.8201 19.3813Z" fill="#151A71"/>
<path d="M37.5571 14.2324C38.5701 14.2324 39.5831 14.2324 40.6269 14.2324C40.9278 15.5842 40.9278 15.5842 40.8724 15.9487C40.4769 16.2119 40.3124 16.2357 39.8503 16.2714C39.7241 16.2817 39.5978 16.292 39.4678 16.3025C39.2704 16.317 39.2704 16.317 39.069 16.3318C38.8694 16.3476 38.8694 16.3476 38.6658 16.3638C38.3372 16.3899 38.0086 16.4149 37.6799 16.439C37.6799 16.5604 37.6799 16.6817 37.6799 16.8068C37.0677 16.7457 36.6169 16.624 36.0836 16.3164C35.9874 16.2659 35.8912 16.2153 35.792 16.1632C35.5925 15.9487 35.5925 15.9487 35.5618 15.4966C35.5719 15.3626 35.582 15.2286 35.5925 15.0905C35.695 15.1659 35.695 15.1659 35.7997 15.2428C36.9049 16.0219 37.8161 16.1028 39.1534 16.1938C39.1534 15.6275 39.1534 15.0611 39.1534 14.4776C38.9584 14.4827 38.7634 14.4877 38.5625 14.4929C38.0906 14.5052 37.964 14.5032 37.5571 14.2324Z" fill="#254655"/>
<path d="M48.8435 13.1423C49.2134 13.3004 49.3059 13.5245 49.5009 13.8718C49.5719 13.9975 49.6429 14.1232 49.7161 14.2528C49.7886 14.3851 49.8612 14.5175 49.936 14.6538C50.0484 14.8516 50.0484 14.8516 50.1631 15.0534C50.5672 15.778 50.5672 15.778 50.6957 16.0712C50.6552 16.1522 50.6147 16.2331 50.573 16.3164C50.4919 16.276 50.4109 16.2355 50.3274 16.1938C50.3274 16.3152 50.3274 16.4366 50.3274 16.5616C50.1248 16.5616 49.9222 16.5616 49.7134 16.5616C49.7134 16.6425 49.7134 16.7234 49.7134 16.8068C49.6324 16.8068 49.5513 16.8068 49.4678 16.8068C49.2782 16.5162 49.1023 16.2266 48.9306 15.9257C48.6699 15.4723 48.4205 15.0388 48.0893 14.6323C47.8783 14.3636 47.7982 14.1979 47.7488 13.8646C47.88 13.7377 48.0135 13.6129 48.1478 13.4892C48.2219 13.4195 48.296 13.3498 48.3723 13.278C48.6083 13.1291 48.6083 13.1291 48.8435 13.1423Z" fill="#303F43"/>
<path d="M32.277 3.19946C32.277 3.56723 32.277 3.56723 32.1543 3.81241C32.1493 4.09841 32.1489 4.38454 32.1543 4.67053C32.2758 4.71098 32.3974 4.75144 32.5226 4.79312C32.2923 5.32976 31.9756 5.66298 31.4712 5.95771C31.1581 6.15011 31.0162 6.33877 30.8036 6.63195C30.7225 6.63195 30.6415 6.63195 30.558 6.63195C30.5225 6.7078 30.4871 6.78366 30.4505 6.86181C30.3124 7.12231 30.3124 7.12231 30.0668 7.36748C29.7445 7.38281 29.7445 7.38281 29.4529 7.36748C29.3699 7.16014 29.3699 7.16014 29.3301 6.87713C29.8254 5.80777 30.6867 4.85647 31.4175 3.935C31.5031 3.8209 31.5888 3.70681 31.677 3.58926C31.9087 3.32205 31.9087 3.32205 32.277 3.19946Z" fill="#AAAFA7"/>
<path d="M30.3102 3.61377C30.3102 3.87875 30.3102 3.87875 30.2407 4.0554C30.2379 4.26147 30.2377 4.46763 30.2407 4.67369C30.3095 4.70284 30.3783 4.73198 30.4492 4.76201C30.3188 5.14867 30.1396 5.38876 29.8541 5.60112C29.6769 5.73974 29.5966 5.87567 29.4763 6.08691C29.4304 6.08691 29.3845 6.08691 29.3373 6.08691C29.3172 6.14157 29.2971 6.19622 29.2765 6.25253C29.1983 6.44022 29.1983 6.44022 29.0593 6.61687C28.8769 6.62791 28.8769 6.62791 28.7118 6.61687C28.6649 6.46748 28.6649 6.46748 28.6423 6.26357C28.9227 5.49308 29.4101 4.80766 29.8237 4.14373C29.8722 4.06152 29.9207 3.97932 29.9706 3.89462C30.1017 3.7021 30.1017 3.7021 30.3102 3.61377Z" fill="#E5E9E2"/>
<path d="M35.715 13.0065C35.4704 14.299 35.4704 14.299 35.101 14.8454C34.6936 14.9979 34.5346 14.9838 34.1187 14.8454C33.412 14.821 32.7318 14.8773 32.0313 14.968C31.7857 14.6002 31.7857 14.6002 31.8317 14.332C31.8571 14.2587 31.8824 14.1854 31.9085 14.1098C32.1616 14.0684 32.4149 14.0277 32.6682 13.9873C32.8093 13.9645 32.9503 13.9417 33.0956 13.9183C33.4439 13.8726 33.7684 13.8541 34.1187 13.8647C34.1516 13.7913 34.1845 13.718 34.2185 13.6425C34.6071 12.9277 34.9369 12.9683 35.715 13.0065Z" fill="#0A0F12"/>
<path d="M34.2416 16.9295C33.9288 18.084 33.9288 18.084 33.6277 18.5998C33.2195 19.3552 33.1481 20.2602 33.0137 21.0975C32.6453 20.9749 32.6453 20.9749 32.5288 20.7647C32.2886 20.0428 32.2342 19.4039 32.277 18.6457C32.4391 18.6457 32.6011 18.6457 32.7681 18.6457C32.7909 18.4637 32.7909 18.4637 32.8142 18.278C32.8872 17.7749 32.9932 17.2951 33.1365 16.8069C33.5295 16.6107 33.8392 16.803 34.2416 16.9295Z" fill="#0E171D"/>
<path d="M37.3114 6.63197C38.1435 6.59178 38.872 6.66616 39.6444 6.99974C39.685 7.08065 39.7255 7.16156 39.7672 7.24492C39.7267 7.3233 39.6862 7.40168 39.6444 7.48243C39.4786 7.74898 39.4786 7.74898 39.6444 8.10304C39.3608 8.34576 39.0772 8.58849 38.7849 8.83857C38.6634 8.75766 38.5418 8.67675 38.4165 8.59339C38.5823 8.05169 38.817 7.81576 39.2761 7.49009C38.6431 7.52638 38.6431 7.52638 38.1326 7.87318C37.8936 8.27972 37.7876 8.62632 37.6798 9.08375C37.5005 8.75921 37.4342 8.60633 37.4342 8.22563C37.1601 8.33472 37.1601 8.33472 37.0121 8.64703C36.8203 8.96116 36.8203 8.96116 36.4519 9.20634C36.5937 8.82891 36.7587 8.47954 36.9507 8.12602C37.2079 7.6249 37.2714 7.19109 37.3114 6.63197Z" fill="#1D2830"/>
<path d="M35.4697 16.9294C35.6595 17.2137 35.813 17.4819 35.9608 17.7876C36.0419 17.6257 36.1229 17.4639 36.2064 17.2972C36.5954 17.2787 36.8963 17.2805 37.2655 17.4121C37.8831 17.6062 38.5096 17.6255 39.1534 17.665C39.0613 18.615 39.0613 18.615 38.785 18.8909C38.5322 18.8966 38.5322 18.8966 38.2401 18.8602C38.096 18.8441 38.096 18.8441 37.949 18.8277C37.6799 18.7683 37.6799 18.7683 37.3115 18.5231C37.0253 18.48 36.7388 18.4393 36.452 18.4005C35.7784 18.2356 35.7784 18.2356 35.5464 17.9408C35.4504 17.5958 35.4534 17.2857 35.4697 16.9294Z" fill="#364E5A"/>
<path d="M45.5385 16.1938C45.784 16.3164 45.784 16.3164 45.9155 16.7058C46.3225 18.2347 46.5131 19.5061 45.784 20.9748C45.7435 20.9748 45.703 20.9748 45.6613 20.9748C45.6492 20.8825 45.6372 20.7902 45.6248 20.6952C45.5007 19.8151 45.3264 18.9668 45.0868 18.1119C44.9443 17.5833 44.8783 17.1084 44.9245 16.5616C45.2161 16.3164 45.2161 16.3164 45.5385 16.1938Z" fill="#092A34"/>
<path d="M28.2987 16.2925C28.4212 16.2953 28.5437 16.2982 28.67 16.3011C28.8547 16.3044 28.8547 16.3044 29.0431 16.3078C29.1378 16.3106 29.2324 16.3135 29.33 16.3164C29.2084 16.3569 29.0868 16.3973 28.9616 16.439C29.0097 16.53 29.0578 16.6211 29.1074 16.7148C29.1403 16.8261 29.1733 16.9373 29.2072 17.052C29.0875 17.2177 28.9637 17.3805 28.8388 17.5423C28.6212 17.9533 28.427 18.3766 28.2309 18.7981C28.0045 19.2671 27.834 19.6025 27.3653 19.8715C27.3079 18.7306 27.4265 17.6617 27.7337 16.5616C27.9793 16.3164 27.9793 16.3164 28.2987 16.2925Z" fill="#7C807F"/>
<path d="M29.5838 16.2615C29.472 16.2591 29.3601 16.2567 29.2448 16.2542C29.0762 16.2514 29.0762 16.2514 28.9041 16.2486C28.8176 16.2462 28.7312 16.2438 28.6421 16.2413C28.7532 16.2073 28.8642 16.1733 28.9785 16.1382C28.9346 16.0616 28.8906 15.985 28.8454 15.9061C28.8153 15.8125 28.7852 15.7189 28.7543 15.6225C28.8636 15.483 28.9766 15.346 29.0907 15.2099C29.2894 14.8641 29.4667 14.5079 29.6458 14.1532C29.8525 13.7586 30.0082 13.4764 30.4362 13.2501C30.4887 14.21 30.3803 15.1094 30.0998 16.035C29.8755 16.2413 29.8755 16.2413 29.5838 16.2615Z" fill="#C5D0C9"/>
<path d="M32.4001 10.3097C32.4406 10.4311 32.4811 10.5524 32.5228 10.6775C32.1748 11.0764 31.9474 11.2316 31.4177 11.2904C31.3772 11.4522 31.3367 11.614 31.2949 11.7808C31.5381 11.7808 31.7812 11.7808 32.0317 11.7808C31.6287 12.1831 31.1883 12.1721 30.6349 12.1868C29.9945 12.1826 29.6827 12.0826 29.2075 11.6582C29.167 11.5773 29.1265 11.4963 29.0847 11.413C29.3982 11.1119 29.5586 11.0467 29.9999 11.0093C30.1537 11.0136 30.3076 11.0178 30.4661 11.0222C30.6212 11.0256 30.7763 11.0289 30.9362 11.0323C31.1138 11.0387 31.1138 11.0387 31.2949 11.0452C31.3329 10.9694 31.3709 10.8935 31.4101 10.8154C31.6676 10.301 31.7825 10.1042 32.4001 10.3097Z" fill="#0F1171"/>
<path d="M28.5473 2.2725C29.0774 2.62036 29.5325 3.1277 29.8212 3.68993C29.7978 4.17451 29.6205 4.45797 29.3224 4.83154C29.2551 4.91703 29.1878 5.00253 29.1185 5.09061C29.0668 5.15429 29.015 5.21798 28.9617 5.28359C28.8389 4.91582 28.8389 4.91582 28.931 4.51741C28.9674 3.97186 28.8694 3.79549 28.5343 3.38442C28.0228 2.87772 27.4468 2.77864 26.7515 2.70922C26.7109 2.54741 26.6704 2.38559 26.6287 2.21887C27.3002 1.99539 27.8892 2.01199 28.5473 2.2725Z" fill="#12181D"/>
<path d="M47.2574 11.1677C47.7989 11.2295 48.091 11.4082 48.4853 11.7807C48.7125 12.0899 48.7309 12.2443 48.7309 12.6311C48.5614 13.1494 48.3093 13.3032 47.8714 13.6195C47.7904 13.4981 47.7093 13.3768 47.6258 13.2517C47.6663 13.1708 47.7069 13.0899 47.7486 13.0066C47.3839 12.9459 47.3839 12.9459 47.0119 12.884C46.866 12.447 46.8568 12.1171 46.8891 11.6581C47.0733 11.3593 47.0733 11.3593 47.2574 11.1677Z" fill="#1A272F"/>
<path d="M34.61 5.89641C34.61 6.09869 34.61 6.30096 34.61 6.50936C34.4466 6.55108 34.4466 6.55108 34.28 6.59364C33.8546 6.7291 33.8546 6.7291 33.5663 7.07633C33.2593 7.36748 33.2593 7.36748 32.8679 7.42111C32.5226 7.36748 32.5226 7.36748 32.277 7.1223C32.2712 6.86563 32.2712 6.86563 32.3077 6.57065C32.3184 6.47331 32.3292 6.37597 32.3403 6.27567C32.3998 6.019 32.3998 6.019 32.6453 5.77383C33.3295 5.56892 33.9347 5.73519 34.61 5.89641Z" fill="#EEFCFE"/>
<path d="M31.1719 6.26416C31.253 6.26416 31.334 6.26416 31.4175 6.26416C31.4175 6.70916 31.4175 7.15416 31.4175 7.61264C31.3168 7.6158 31.2162 7.61896 31.1124 7.62221C30.914 7.63264 30.914 7.63264 30.7115 7.64328C30.5149 7.65182 30.5149 7.65182 30.3143 7.66052C29.8698 7.75019 29.7268 7.87048 29.4529 8.22558C29.3369 8.47505 29.3369 8.47505 29.2687 8.73126C29.1125 9.18647 29.1125 9.18647 28.8466 9.37485C28.763 9.40014 28.6794 9.42542 28.5933 9.45147C28.5022 9.49698 28.411 9.54249 28.317 9.58938C28.2461 9.62478 28.1752 9.66018 28.1022 9.69665C27.975 9.07757 27.9668 8.48619 27.9794 7.85782C28.1313 7.88057 28.2833 7.90333 28.4398 7.92677C28.9581 7.99602 28.9581 7.99602 29.4529 7.85782C29.4934 7.73645 29.5339 7.61509 29.5756 7.49005C29.9809 7.40914 30.3861 7.32823 30.8035 7.24487C30.8415 7.12856 30.8795 7.01226 30.9187 6.89243C31.0491 6.50934 31.0491 6.50934 31.1719 6.26416Z" fill="#5D6D6E"/>
<path d="M40.6268 13.0066C40.9307 13.1886 40.9307 13.1886 41.2408 13.3744C41.2006 13.4745 41.1604 13.5747 41.1189 13.678C40.9744 14.1825 40.9676 14.6162 40.9798 15.1366C40.9809 15.2268 40.982 15.317 40.9832 15.41C40.9861 15.6305 40.9905 15.8509 40.9952 16.0713C40.8331 16.1118 40.671 16.1522 40.504 16.1939C40.5445 16.113 40.5851 16.0321 40.6268 15.9487C40.7078 15.9487 40.7889 15.9487 40.8724 15.9487C40.7913 15.3824 40.7103 14.816 40.6268 14.2325C40.4521 14.2442 40.2773 14.2559 40.0973 14.2679C39.8645 14.2817 39.6317 14.2954 39.3989 14.3091C39.2268 14.321 39.2268 14.321 39.0512 14.333C38.3334 14.3731 37.7502 14.3381 37.0659 14.1099C36.9849 14.029 36.9038 13.9481 36.8203 13.8647C36.8963 13.8318 36.9723 13.799 37.0505 13.7651C37.3483 13.625 37.3483 13.625 37.5571 13.2518C37.5571 13.4136 37.5571 13.5754 37.5571 13.7421C39.17 13.7849 39.17 13.7849 40.7496 13.4969C40.7091 13.3351 40.6686 13.1733 40.6268 13.0066Z" fill="#0A2E3A"/>
<path d="M45.6612 5.89631C45.6389 6.11892 45.6389 6.11892 45.5384 6.38666C45.2672 6.57348 45.2672 6.57348 44.913 6.74773C44.7865 6.81141 44.66 6.8751 44.5297 6.94071C44.3966 7.00566 44.2635 7.07061 44.1263 7.13752C43.8638 7.26747 43.6016 7.39801 43.3397 7.52923C43.1644 7.61507 43.1644 7.61507 42.9855 7.70264C42.6978 7.83392 42.6978 7.83392 42.5915 8.10291C42.3078 8.23206 42.0213 8.3551 41.7319 8.47068C41.6914 8.22795 41.6509 7.98522 41.6091 7.73514C42.0324 7.49438 42.4561 7.25448 42.8802 7.01535C43.0947 6.89419 43.3088 6.77236 43.5229 6.65052C43.6591 6.57388 43.7952 6.49723 43.9354 6.41827C44.0602 6.34765 44.1849 6.27703 44.3135 6.20428C45.2879 5.70996 45.2879 5.70996 45.6612 5.89631Z" fill="#182E3A"/>
<path d="M35.1012 7.49023C35.1823 7.49023 35.2633 7.49023 35.3468 7.49023C35.4082 7.86566 35.4082 7.86566 35.3468 8.34836C34.9507 8.82758 34.502 9.23223 33.8733 9.32907C33.6996 9.33698 33.5254 9.33962 33.3515 9.33673C33.1236 9.33294 33.1236 9.33294 32.891 9.32907C32.891 9.24816 32.891 9.16725 32.891 9.08389C32.6892 8.95666 32.4843 8.83434 32.2771 8.71612C32.0315 8.47095 32.0315 8.47095 32.0315 8.10318C32.1125 8.10318 32.1936 8.10318 32.2771 8.10318C32.3176 8.02227 32.3581 7.94136 32.3999 7.858C32.4758 7.93891 32.5518 8.01982 32.6301 8.10318C33.1655 8.4453 33.6214 8.46607 34.2417 8.34836C34.6245 8.14042 34.9035 7.88514 35.1012 7.49023Z" fill="#8C0002"/>
<path d="M36.2065 13.4971C36.4116 13.6071 36.4116 13.6071 36.6209 13.7193C36.7363 13.7811 36.7363 13.7811 36.854 13.8442C37.066 13.9874 37.066 13.9874 37.3116 14.3552C37.3725 14.8211 37.3446 15.0346 37.1044 15.4432C36.8204 15.7037 36.8204 15.7037 36.5211 15.7879C36.0395 15.6589 35.8827 15.3654 35.5925 14.9681C35.7951 14.4827 35.9977 13.9972 36.2065 13.4971Z" fill="#C5D0C9"/>
<path d="M50.3275 16.1938C50.6244 16.2724 50.6244 16.2724 50.9414 16.439C51.0551 16.7589 51.0551 16.7589 51.1026 17.1439C51.1198 17.2697 51.1371 17.3955 51.1549 17.5251C51.1862 17.9007 51.1932 18.2689 51.187 18.6456C51.0654 18.6456 50.9439 18.6456 50.8186 18.6456C50.7781 18.7265 50.7376 18.8074 50.6958 18.8908C50.5076 18.5724 50.3211 18.2531 50.1356 17.9331C50.055 17.7974 50.055 17.7974 49.9728 17.6589C49.9225 17.5716 49.8723 17.4843 49.8205 17.3944C49.7735 17.3141 49.7266 17.2339 49.6782 17.1512C49.5907 16.9294 49.5907 16.9294 49.7135 16.5616C49.9161 16.5616 50.1187 16.5616 50.3275 16.5616C50.3275 16.4403 50.3275 16.3189 50.3275 16.1938Z" fill="#1B3C44"/>
<path d="M38.4165 14.4775C38.6597 14.4775 38.9028 14.4775 39.1533 14.4775C39.1533 15.0439 39.1533 15.6103 39.1533 16.1938C38.2822 16.2135 37.5265 16.2245 36.6975 15.9486C36.6164 15.8677 36.5354 15.7868 36.4519 15.7034C36.6898 15.6345 36.6898 15.6345 36.9431 15.5808C36.9836 15.6213 37.0241 15.6617 37.0659 15.7034C37.4181 15.6516 37.4181 15.6516 37.8026 15.4582C37.973 15.208 38.1074 14.9572 38.2362 14.6835C38.2957 14.6155 38.3552 14.5475 38.4165 14.4775Z" fill="#8B9492"/>
<path d="M35.3469 17.2971C35.5055 17.5347 35.6581 17.7764 35.803 18.0226C36.1237 18.4544 36.4267 18.6584 36.8894 18.9291C36.9603 18.9715 37.0311 19.0139 37.1041 19.0577C38.2288 19.7221 39.4129 19.6004 40.6422 19.2892C41.8398 18.9721 43.0272 18.6008 44.065 17.9101C43.6716 18.7236 43.6716 18.7236 43.347 18.8716C43.2123 18.9114 43.2123 18.9114 43.075 18.9521C42.9761 18.9823 42.8771 19.0124 42.7752 19.0435C42.6741 19.074 42.5729 19.1045 42.4687 19.136C42.2844 19.1994 42.1002 19.2632 41.9162 19.3275C40.6123 19.7592 38.7176 20.2746 37.4204 19.6316C37.344 19.5894 37.2675 19.5472 37.1887 19.5037C37.0882 19.4501 36.9877 19.3966 36.8842 19.3414C36.2435 18.9814 35.7399 18.6605 35.3469 18.0327C35.3085 17.6189 35.3085 17.6189 35.3469 17.2971Z" fill="#72BFC4"/>
<path d="M47.6259 8.34823C47.0291 8.82743 46.5354 9.06073 45.7888 9.23413C45.7062 9.26542 45.6236 9.2967 45.5384 9.32894C45.4979 9.4503 45.4574 9.57167 45.4156 9.69671C45.1725 9.73716 44.9294 9.77762 44.6789 9.8193C44.7194 9.73839 44.7599 9.65748 44.8017 9.57412C44.5991 9.53367 44.3965 9.49321 44.1877 9.45153C44.1877 9.24926 44.1877 9.04699 44.1877 8.83859C45.0152 8.48067 45.7001 8.29437 46.6052 8.34296C47.0315 8.35087 47.1984 8.20598 47.6259 8.34823Z" fill="#4BD3D2"/>
<path d="M45.9067 11.7808C45.9472 11.7808 45.9877 11.7808 46.0295 11.7808C46.0903 12.6303 46.0903 12.6303 46.1523 13.497C45.7559 13.5795 45.3594 13.6611 44.9627 13.7422C44.8508 13.7656 44.7388 13.789 44.6234 13.8131C44.4602 13.8462 44.4602 13.8462 44.2936 13.8801C44.194 13.9006 44.0943 13.9212 43.9916 13.9423C43.6841 13.9892 43.3931 13.9951 43.0825 13.9874C43.7391 13.4343 44.4335 12.9905 45.216 12.6389C45.5754 12.4672 45.6457 12.422 45.8453 12.0566C45.8656 11.9656 45.8858 11.8745 45.9067 11.7808Z" fill="#656B6B"/>
<path d="M35.9609 18.1553C36.73 18.2714 37.3523 18.4127 38.0484 18.7682C38.4476 18.7991 38.4476 18.7991 38.7851 18.7682C38.8662 18.5659 38.9472 18.3637 39.0307 18.1553C39.0712 18.1553 39.1117 18.1553 39.1535 18.1553C39.1535 18.5598 39.1535 18.9644 39.1535 19.3812C39.3156 19.4621 39.4776 19.543 39.6446 19.6263C38.2677 19.7461 37.3375 19.4472 36.2257 18.6361C36.0946 18.5194 36.0946 18.5194 35.9609 18.4005C35.9609 18.3195 35.9609 18.2386 35.9609 18.1553Z" fill="#122735"/>
<path d="M34.7328 5.77393C35.3392 6.35983 35.3392 6.35983 35.3587 6.74793C35.3547 6.99534 35.3507 7.24276 35.3467 7.49017C35.2657 7.49017 35.1846 7.49017 35.1011 7.49017C35.0682 7.56602 35.0353 7.64187 35.0014 7.72002C34.8556 7.98053 34.8556 7.98053 34.4872 8.2257C34.4872 8.14479 34.4872 8.06389 34.4872 7.98053C34.1225 7.98053 33.7578 7.98053 33.3821 7.98053C33.4631 7.7378 33.5442 7.49507 33.6277 7.24499C33.7087 7.24499 33.7897 7.24499 33.8732 7.24499C33.8732 7.16408 33.8732 7.08317 33.8732 6.99981C34.1983 6.82076 34.3514 6.75464 34.7328 6.75464C34.7328 6.431 34.7328 6.10737 34.7328 5.77393Z" fill="#FF1A1A"/>
<path d="M34.6102 3.93506C35.0384 4.20582 35.2013 4.43123 35.3469 4.91577C35.3469 5.03713 35.3469 5.1585 35.3469 5.28354C35.2659 5.28354 35.1848 5.28354 35.1013 5.28354C35.1013 5.52626 35.1013 5.76899 35.1013 6.01907C35.0163 5.95483 35.0163 5.95483 34.9296 5.8893C34.332 5.47307 33.8771 5.33412 33.1491 5.31275C32.8911 5.28354 32.8911 5.28354 32.6455 5.03836C32.7683 4.79318 32.7683 4.79318 32.9736 4.71704C33.3285 4.65938 33.6675 4.65903 34.0269 4.66293C34.1592 4.66404 34.2915 4.66514 34.4279 4.66628C34.5286 4.6677 34.6292 4.66913 34.7329 4.67059C34.6924 4.42787 34.6519 4.18514 34.6102 3.93506Z" fill="#0F2534"/>
<path d="M33.2594 3.32204C33.6738 3.30672 33.6738 3.30672 34.1189 3.32204C34.5616 3.764 34.7484 4.1844 34.8557 4.79311C34.749 4.79168 34.6423 4.79026 34.5324 4.7888C34.3909 4.78769 34.2494 4.78658 34.1036 4.78544C33.8942 4.78331 33.8942 4.78331 33.6805 4.78113C33.2608 4.78168 33.2608 4.78168 32.8613 4.8702C32.5227 4.91569 32.5227 4.91569 32.1543 4.67052C32.2429 4.64523 32.3316 4.61995 32.4229 4.5939C32.7674 4.42573 32.8562 4.33657 33.0752 4.04225C33.3822 3.68981 33.3822 3.68981 33.7275 3.64384C33.8162 3.65901 33.9048 3.67418 33.9962 3.68981C33.9962 3.6089 33.9962 3.52799 33.9962 3.44463C33.753 3.44463 33.5099 3.44463 33.2594 3.44463C33.2594 3.40417 33.2594 3.36372 33.2594 3.32204Z" fill="#5C625C"/>
<path d="M50.8185 6.01904C50.8995 6.0595 50.9806 6.09995 51.0641 6.14163C50.5971 6.56547 50.1994 6.72521 49.5906 6.87717C49.5501 6.91762 49.5096 6.95807 49.4678 6.99975C49.5894 7.04021 49.7109 7.08066 49.8362 7.12234C49.8362 7.28416 49.8362 7.44598 49.8362 7.6127C49.6741 7.6127 49.512 7.6127 49.345 7.6127C49.345 7.69361 49.345 7.77452 49.345 7.85788C48.9601 8.08562 48.6851 8.12774 48.2399 8.10305C48.2399 8.02215 48.2399 7.94124 48.2399 7.85788C48.483 7.85788 48.7262 7.85788 48.9766 7.85788C48.9766 7.73651 48.9766 7.61515 48.9766 7.49011C48.4499 7.49011 47.9231 7.49011 47.3804 7.49011C47.3804 7.4092 47.3804 7.32829 47.3804 7.24493C47.4802 7.21215 47.5799 7.17937 47.6828 7.1456C48.052 7.02412 48.4211 6.90232 48.7901 6.78029C48.95 6.72748 49.11 6.6748 49.27 6.62226C49.4996 6.54684 49.729 6.4709 49.9585 6.39495C50.1659 6.32658 50.1659 6.32658 50.3774 6.25683C50.683 6.17162 50.683 6.17162 50.8185 6.01904Z" fill="#8961DA"/>
<path d="M29.0845 5.03833C29.2072 5.28351 29.2072 5.28351 29.1161 5.58519C29.0702 5.70308 29.0243 5.82096 28.977 5.94242C28.826 6.33367 28.6847 6.71271 28.5933 7.12234C28.7149 7.1628 28.8364 7.20325 28.9617 7.24493C29.1075 7.49777 29.1075 7.49777 29.2072 7.73529C29.0857 7.73529 28.9641 7.73529 28.8389 7.73529C28.8389 7.65438 28.8389 7.57347 28.8389 7.49011C28.7578 7.49011 28.6768 7.49011 28.5933 7.49011C28.5933 7.61147 28.5933 7.73283 28.5933 7.85787C28.3907 7.85787 28.1881 7.85787 27.9793 7.85787C27.9793 8.1006 27.9793 8.34333 27.9793 8.59341C27.9388 8.59341 27.8983 8.59341 27.8566 8.59341C27.8167 7.38018 27.8598 6.10966 28.7161 5.16092C28.8376 5.12046 28.9592 5.08001 29.0845 5.03833Z" fill="#CEDFDB"/>
<path d="M40.6269 13.0066C40.6674 13.1684 40.7079 13.3302 40.7497 13.4969C39.7692 13.9091 38.8537 13.9322 37.8027 13.8647C37.7217 13.8243 37.6406 13.7838 37.5571 13.7421C37.5571 13.5803 37.5571 13.4185 37.5571 13.2518C37.7592 13.2406 37.7592 13.2406 37.9653 13.2293C38.1439 13.2189 38.3225 13.2085 38.5011 13.1981C38.5896 13.1933 38.6782 13.1885 38.7694 13.1835C39.3958 13.1464 40.0017 13.0066 40.6269 13.0066Z" fill="#CC2020"/>
<path d="M42.4688 19.2585C42.1716 20.2294 42.1716 20.2294 41.7292 20.5313C41.4473 20.6533 41.1632 20.7532 40.8725 20.8521C40.7459 20.9229 40.6193 20.9937 40.4888 21.0667C39.7953 21.3724 38.9154 21.2457 38.1711 21.2199C38.1711 21.1794 38.1711 21.139 38.1711 21.0973C38.3269 21.0926 38.3269 21.0926 38.4858 21.0877C39.4618 21.039 40.2926 20.9702 40.9876 20.2315C41.1349 19.9802 41.1349 19.9802 41.2409 19.6262C41.0383 19.6262 40.8357 19.6262 40.6269 19.6262C40.6269 19.5858 40.6269 19.5453 40.6269 19.5037C41.2685 19.3238 41.8035 19.2308 42.4688 19.2585Z" fill="#3C8C91"/>
<path d="M41.8546 11.6582C42.1539 11.6659 42.1539 11.6659 42.4686 11.7808C42.8429 12.2346 42.9033 12.6766 42.9597 13.2519C42.514 13.2519 42.0683 13.2519 41.6091 13.2519C41.5851 12.2223 41.5851 12.2223 41.6091 11.9034C41.6901 11.8225 41.7711 11.7416 41.8546 11.6582Z" fill="#243033"/>
<path d="M47.8178 2.70142C47.966 2.70521 47.966 2.70521 48.1171 2.70908C48.1207 3.09472 48.1229 3.48036 48.1248 3.86601C48.1258 3.97607 48.1269 4.08614 48.1279 4.19954C48.1283 4.30423 48.1287 4.40892 48.1291 4.51678C48.1298 4.61372 48.1304 4.71066 48.1311 4.81054C48.1171 5.03827 48.1171 5.03827 47.9943 5.16085C47.7898 5.16584 47.585 5.16609 47.3804 5.16085C47.3768 4.77521 47.3747 4.38958 47.3727 4.00392C47.3717 3.89386 47.3707 3.78379 47.3696 3.67039C47.3692 3.5657 47.3688 3.46101 47.3684 3.35315C47.3674 3.20774 47.3674 3.20774 47.3665 3.0594C47.3886 2.69719 47.4532 2.71029 47.8178 2.70142Z" fill="#080B0E"/>
<path d="M41.7317 20.7298C41.2224 21.297 40.715 21.5988 39.9474 21.641C39.7441 21.6431 39.5407 21.6433 39.3373 21.6415C39.2355 21.644 39.1338 21.6464 39.0289 21.6489C38.3397 21.6484 37.9625 21.5458 37.4341 21.0975C37.3935 21.0166 37.353 20.9357 37.3113 20.8524C37.4341 20.892 37.5569 20.9317 37.6835 20.9726C39.1913 21.4008 40.3255 20.6438 41.7317 20.7298Z" fill="#E64646"/>
<path d="M36.8204 6.1416C36.8609 6.1416 36.9014 6.1416 36.9432 6.1416C36.9432 6.54614 36.9432 6.95069 36.9432 7.36749C37.0242 7.36749 37.1053 7.36749 37.1888 7.36749C37.2293 7.20567 37.2698 7.04386 37.3115 6.87713C37.3599 7.50434 37.2234 7.87046 36.9201 8.41716C36.8475 8.55132 36.7748 8.68548 36.7 8.82371C36.4457 9.21603 36.1931 9.51525 35.8381 9.81927C35.4313 9.85758 35.4313 9.85758 35.1013 9.81927C35.1474 9.76728 35.1934 9.71529 35.2409 9.66172C36.2317 8.52805 36.6887 7.66703 36.8204 6.1416Z" fill="#94DEDC"/>
<path d="M27.4498 1.966C27.5987 1.96766 27.5987 1.96766 27.7506 1.96935C27.8638 1.97149 27.8638 1.97149 27.9794 1.97366C27.9794 2.01412 27.9794 2.05457 27.9794 2.09625C27.5742 2.17716 27.169 2.25807 26.7515 2.34143C26.8325 2.42234 26.9135 2.50325 26.997 2.58661C26.8743 2.83178 26.8743 2.83178 26.5289 3.00034C26.1314 3.17513 26.1314 3.17513 25.8766 3.47538C25.8006 3.54617 25.7246 3.61697 25.6464 3.68991C25.374 3.6666 25.227 3.639 25.0324 3.44473C25.0274 3.24047 25.0272 3.03603 25.0324 2.83178C25.2702 2.71145 25.5081 2.59148 25.7461 2.47168C25.8786 2.40483 26.0111 2.33799 26.1476 2.26912C26.6097 2.04615 26.9423 1.95866 27.4498 1.966Z" fill="#1F262C"/>
<path d="M48.0093 7.42113C48.1482 7.43073 48.1482 7.43073 48.2899 7.44052C48.5187 7.45643 48.7475 7.47318 48.9762 7.49008C48.9762 7.61145 48.9762 7.73281 48.9762 7.85785C48.7331 7.85785 48.49 7.85785 48.2395 7.85785C48.2395 7.93876 48.2395 8.01967 48.2395 8.10303C46.7505 8.5474 46.7505 8.5474 46.1521 8.47079C46.071 8.38989 45.99 8.30898 45.9065 8.22562C46.1901 8.14471 46.4738 8.0638 46.766 7.98044C46.685 7.89953 46.6039 7.81862 46.5204 7.73526C46.6015 7.73526 46.6825 7.73526 46.766 7.73526C46.766 7.65435 46.766 7.57344 46.766 7.49008C47.1606 7.29312 47.5801 7.38893 48.0093 7.42113Z" fill="#322CD9"/>
<path d="M37.4341 16.9294C39.136 16.9901 39.136 16.9901 40.8722 17.052C40.7912 17.2138 40.7101 17.3757 40.6266 17.5424C40.2045 17.5459 39.7825 17.5481 39.3604 17.55C39.1805 17.5516 39.1805 17.5516 38.997 17.5532C38.8819 17.5536 38.7667 17.554 38.6481 17.5544C38.542 17.555 38.4359 17.5556 38.3266 17.5563C38.048 17.5424 38.048 17.5424 37.6797 17.4198C37.6797 17.3389 37.6797 17.258 37.6797 17.1746C37.5986 17.1746 37.5176 17.1746 37.4341 17.1746C37.4341 17.0937 37.4341 17.0128 37.4341 16.9294Z" fill="#68F4F4"/>
<path d="M32.2769 6.1416C32.4392 6.4658 32.4115 6.71502 32.4073 7.07634C32.4062 7.19928 32.4051 7.32223 32.404 7.4489C32.4026 7.5434 32.4011 7.63789 32.3997 7.73526C32.6833 7.73526 32.967 7.73526 33.2592 7.73526C33.3402 7.57344 33.4213 7.41162 33.5048 7.2449C33.5453 7.32581 33.5858 7.40672 33.6276 7.49008C33.5124 7.75058 33.5124 7.75058 33.382 7.98043C33.5035 7.93998 33.6251 7.89953 33.7504 7.85785C33.997 7.89164 34.243 7.93169 34.4871 7.98043C34.4871 8.1018 34.4871 8.22316 34.4871 8.3482C34.0292 8.57678 33.5122 8.5395 33.0136 8.47079C32.6218 8.27205 32.3731 7.9845 32.108 7.63565C31.9853 7.20682 32.0025 6.83266 32.0313 6.38678C32.1123 6.30587 32.1934 6.22496 32.2769 6.1416Z" fill="#E54646"/>
<path d="M35.3467 16.3167C35.704 16.4426 35.9763 16.5733 36.283 16.7993C37.4514 17.5122 38.8061 17.4974 40.1355 17.5425C40.1355 17.583 40.1355 17.6234 40.1355 17.6651C39.7416 17.6723 39.3476 17.6766 38.9536 17.6805C38.8427 17.6825 38.7317 17.6846 38.6174 17.6867C38.0023 17.6912 37.5234 17.6461 36.943 17.42C36.5438 17.3994 36.5438 17.3994 36.2062 17.42C36.1252 17.5818 36.0441 17.7436 35.9606 17.9103C35.8821 17.8092 35.8036 17.708 35.7227 17.6038C35.6392 17.5027 35.5556 17.4016 35.4695 17.2974C35.4289 17.2974 35.3884 17.2974 35.3467 17.2974C35.3467 16.9737 35.3467 16.6501 35.3467 16.3167Z" fill="#33868D"/>
<path d="M47.2574 4.42529C47.3384 4.46575 47.4194 4.5062 47.5029 4.54788C47.5029 4.79061 47.5029 5.03333 47.5029 5.28341C47.2249 5.45097 46.9461 5.61667 46.6664 5.78143C46.5875 5.82923 46.5086 5.87704 46.4273 5.92629C46.2182 6.04853 46.0013 6.15724 45.7839 6.26413C45.6623 6.22367 45.5407 6.18322 45.4155 6.14154C45.4155 6.06063 45.4155 5.97972 45.4155 5.89636C45.3345 5.8559 45.2534 5.81545 45.1699 5.77377C45.4277 5.6093 45.6861 5.44605 45.945 5.28341C46.0181 5.23664 46.0911 5.18986 46.1664 5.14167C46.7245 4.79306 46.7245 4.79306 47.1346 4.79306C47.1751 4.6717 47.2156 4.55033 47.2574 4.42529Z" fill="#1F343B"/>
<path d="M32.7683 16.3167C32.9709 16.4785 33.1735 16.6403 33.3822 16.807C33.3012 16.807 33.2202 16.807 33.1367 16.807C33.1215 16.9511 33.1063 17.0952 33.0906 17.2437C33.0305 17.7315 32.915 18.1773 32.7683 18.6458C32.6062 18.6458 32.4441 18.6458 32.2771 18.6458C32.2545 17.2334 32.2545 17.2334 32.3999 16.5618C32.5215 16.5618 32.643 16.5618 32.7683 16.5618C32.7683 16.4809 32.7683 16.4 32.7683 16.3167Z" fill="#728A89"/>
<path d="M43.8193 15.5808C43.9004 15.6213 43.9814 15.6617 44.0649 15.7034C44.0649 15.7439 44.0649 15.7843 44.0649 15.826C44.1459 15.826 44.227 15.826 44.3105 15.826C44.3855 17.5407 44.3855 17.5407 43.7349 18.2624C43.6551 18.3307 43.6551 18.3307 43.5737 18.4004C43.4927 18.3599 43.4117 18.3194 43.3282 18.2778C43.406 18.2139 43.4839 18.1501 43.5641 18.0843C43.8867 17.709 43.9143 17.4469 43.9728 16.9599C43.9912 16.8164 44.0095 16.673 44.0284 16.5251C44.0405 16.4158 44.0525 16.3064 44.0649 16.1938C43.9459 16.2519 43.8268 16.3101 43.7042 16.37C43.1764 16.5967 42.6676 16.6373 42.1003 16.6841C41.8131 16.7215 41.5271 16.7641 41.2407 16.8067C41.7318 16.4798 42.2568 16.3122 42.8092 16.11C43.2068 15.9607 43.2068 15.9607 43.5478 15.7374C43.6374 15.6857 43.727 15.6341 43.8193 15.5808Z" fill="#FF0B0B"/>
<path d="M48.0179 8.14804C48.0912 8.17364 48.1644 8.19924 48.2399 8.22562C48.107 8.35457 48.107 8.35457 47.9713 8.48612C47.7306 8.72379 47.5191 8.97028 47.3113 9.23698C47.0014 9.58609 46.9524 9.62998 46.5209 9.69668C46.3266 9.70471 46.132 9.7072 45.9376 9.70435C45.8395 9.70324 45.7414 9.70213 45.6402 9.70099C45.5662 9.69957 45.4921 9.69815 45.4158 9.69668C45.5386 9.32892 45.5386 9.32892 45.8158 9.18047C45.932 9.13338 46.0482 9.08629 46.1679 9.03777C46.6128 8.84881 46.9922 8.66148 47.3727 8.36353C47.7488 8.10303 47.7488 8.10303 48.0179 8.14804Z" fill="#797DE4"/>
<path d="M33.1366 5.40623C34.2442 5.31127 34.2442 5.31127 34.6945 5.66673C34.889 6.09191 34.857 6.31068 34.7329 6.75471C34.4493 6.83562 34.1656 6.91652 33.8734 6.99988C33.8734 7.08079 33.8734 7.1617 33.8734 7.24506C33.7949 7.28046 33.7164 7.31586 33.6355 7.35233C33.3635 7.46918 33.3635 7.46918 33.2594 7.73542C32.9758 7.73542 32.6921 7.73542 32.3999 7.73542C32.3594 7.53315 32.3188 7.33087 32.2771 7.12247C32.3987 7.18316 32.3987 7.18316 32.5227 7.24506C32.8755 7.30647 32.8755 7.30647 33.2594 7.24506C33.4666 7.04335 33.6713 6.83894 33.8734 6.63212C34.2801 6.53251 34.2801 6.53251 34.6101 6.50953C34.6101 6.30726 34.6101 6.10499 34.6101 5.89659C33.7592 5.8359 33.7592 5.8359 32.8911 5.774C32.9721 5.73354 33.0531 5.69309 33.1366 5.65141C33.1366 5.5705 33.1366 5.48959 33.1366 5.40623Z" fill="#E64646"/>
<path d="M37.8027 8.22559C37.8432 8.22559 37.8838 8.22559 37.9255 8.22559C37.966 8.46831 38.0066 8.71104 38.0483 8.96112C38.1293 8.88021 38.2104 8.7993 38.2939 8.71594C38.3252 8.81573 38.3252 8.81573 38.3572 8.91754C38.4018 9.0491 38.4018 9.0491 38.4474 9.18331C38.4759 9.27007 38.5044 9.35682 38.5337 9.44621C38.6961 9.76269 38.8434 9.89006 39.1534 10.0644C39.4713 10.1086 39.4713 10.1086 39.7981 10.0874C39.9905 10.0798 40.183 10.0722 40.3813 10.0644C40.4624 9.61942 40.5434 9.17442 40.6269 8.71594C40.7079 8.71594 40.789 8.71594 40.8725 8.71594C40.8617 8.88974 40.8484 9.06339 40.8341 9.23694C40.827 9.33366 40.8199 9.43037 40.8125 9.53001C40.7352 9.88588 40.6458 10.0574 40.3813 10.3096C39.883 10.4187 39.4084 10.4025 38.9078 10.3096C38.5977 10.0892 38.4897 9.90922 38.2939 9.57406C38.2939 9.85724 38.2939 10.1404 38.2939 10.4322C37.908 10.117 37.7873 9.81116 37.6799 9.32889C37.6958 8.95648 37.7422 8.5932 37.8027 8.22559Z" fill="#345C66"/>
<path d="M46.7662 7.73535C46.8473 7.81626 46.9283 7.89717 47.0118 7.98053C44.3586 8.97972 44.3586 8.97972 43.2053 8.96124C43.2053 8.88033 43.2053 8.79942 43.2053 8.71606C43.3343 8.6775 43.4633 8.63894 43.5962 8.59922C44.8551 8.22035 44.8551 8.22035 46.0544 7.6865C46.3394 7.59125 46.4883 7.62872 46.7662 7.73535Z" fill="#FC1693"/>
<path d="M47.8715 5.16113C47.8715 5.24204 47.8715 5.32295 47.8715 5.40631C45.0416 6.96469 45.0416 6.96469 43.7197 7.59759C43.6348 7.63915 43.5499 7.68071 43.4624 7.72353C42.8816 7.99547 42.8816 7.99547 42.4688 7.85809C42.5602 7.81123 42.6516 7.76438 42.7458 7.71611C43.1704 7.49822 43.5948 7.27987 44.019 7.06126C44.0948 7.02221 44.1707 6.98315 44.2488 6.94291C45.2511 6.42624 46.2417 5.8974 47.2077 5.31533C47.5031 5.16113 47.5031 5.16113 47.8715 5.16113Z" fill="#A3C4C8"/>
<path d="M39.6447 8.10303C40.0513 8.60453 40.1974 8.92882 40.1359 9.57409C39.3924 9.59804 39.3924 9.59804 39.1535 9.57409C39.0725 9.49319 38.9915 9.41228 38.908 9.32892C38.9488 8.58104 38.9488 8.58104 39.2073 8.23328C39.3991 8.10303 39.3991 8.10303 39.6447 8.10303Z" fill="#4ADEE0"/>
<path d="M44.9242 14.7229C44.9294 14.968 44.9292 15.2133 44.9242 15.4584C44.8837 15.4989 44.8432 15.5393 44.8014 15.581C44.7724 15.8907 44.7496 16.1978 44.7323 16.5081C44.727 16.5953 44.7217 16.6824 44.7163 16.7722C44.7032 16.9881 44.6909 17.2039 44.6786 17.4199C44.5571 17.4199 44.4355 17.4199 44.3103 17.4199C44.3103 16.8939 44.3103 16.368 44.3103 15.8262C44.1482 15.8667 43.9861 15.9071 43.8191 15.9488C43.8916 15.7668 43.9662 15.5856 44.0416 15.4048C44.083 15.3038 44.1243 15.2028 44.1668 15.0988C44.358 14.7611 44.5439 14.7229 44.9242 14.7229Z" fill="#B4A1F7"/>
<path d="M32.5226 4.91577C32.7682 5.03836 32.7682 5.03836 32.891 5.16095C33.0975 5.1895 33.3049 5.21153 33.5126 5.22991C33.6819 5.24531 33.6819 5.24531 33.8546 5.26103C33.9854 5.27217 33.9854 5.27217 34.1189 5.28354C34.1189 5.32399 34.1189 5.36445 34.1189 5.40613C33.7947 5.40613 33.4706 5.40613 33.1366 5.40613C33.1366 5.48704 33.1366 5.56794 33.1366 5.6513C32.8943 5.81958 32.6484 5.98282 32.3998 6.14166C32.1009 6.38516 32.1009 6.38516 32.1312 6.86187C32.1395 7.20997 32.1659 7.5251 32.277 7.8579C32.1149 7.81745 31.9529 7.777 31.7859 7.73532C31.666 7.16145 31.5757 6.69052 31.878 6.16465C32.3384 5.51339 32.3384 5.51339 32.5226 5.28354C32.4416 5.24308 32.3605 5.20263 32.277 5.16095C32.3581 5.08004 32.4391 4.99913 32.5226 4.91577Z" fill="#094355"/>
<path d="M37.1887 14.1099C37.5939 14.2312 37.9991 14.3526 38.4166 14.4776C38.2697 15.0155 38.1328 15.3643 37.6799 15.7035C37.2808 15.7955 37.2808 15.7955 36.9431 15.8261C37.0506 15.2285 37.0506 15.2285 37.1887 15.0906C37.1975 14.9248 37.199 14.7586 37.1964 14.5926C37.1938 14.4333 37.1913 14.274 37.1887 14.1099Z" fill="#B1B8B2"/>
<path d="M44.1878 8.71606C44.1878 8.95879 44.1878 9.20152 44.1878 9.4516C44.512 9.4516 44.8361 9.4516 45.1701 9.4516C44.6583 9.9149 44.2277 9.86394 43.5652 9.84857C43.169 9.8164 42.8325 9.73558 42.4688 9.57419C42.7985 9.24497 43.1289 9.199 43.5739 9.08383C43.5739 9.00292 43.5739 8.92201 43.5739 8.83865C43.9422 8.71606 43.9422 8.71606 44.1878 8.71606Z" fill="#30ABBA"/>
<path d="M33.1367 14.7228C33.8921 14.7109 33.8921 14.7109 34.119 14.7228C34.1595 14.7633 34.2 14.8038 34.2418 14.8454C34.1946 15.3447 34.1338 15.7607 33.8734 16.1939C33.3247 16.133 33.1748 16.1093 32.7683 15.7036C33.052 15.4608 33.3356 15.2181 33.6278 14.968C33.4658 14.8871 33.3037 14.8062 33.1367 14.7228Z" fill="#9F9D8F"/>
<path d="M42.7374 16.554C42.8108 16.5969 42.8843 16.6399 42.9599 16.6842C42.1774 17.0734 41.505 17.3701 40.6269 17.4197C40.6675 17.3388 40.708 17.2579 40.7497 17.1746C39.8583 17.1341 38.9668 17.0937 38.0483 17.052C38.0483 17.0115 38.0483 16.9711 38.0483 16.9294C38.1231 16.927 38.1979 16.9245 38.2749 16.922C39.358 16.885 41.8628 16.1797 42.7374 16.554Z" fill="#36E6E5"/>
<path d="M31.4176 5.77393C31.4987 5.77393 31.5797 5.77393 31.6632 5.77393C31.6227 5.93574 31.5822 6.09756 31.5404 6.26428C31.4189 6.26428 31.2973 6.26428 31.172 6.26428C31.1341 6.38059 31.0961 6.49689 31.0569 6.61672C30.8537 7.21356 30.8537 7.21356 30.5965 7.37524C30.3125 7.49017 30.3125 7.49017 29.9211 7.55146C29.8072 7.57169 29.6932 7.59192 29.5758 7.61276C29.5353 7.69367 29.4947 7.77458 29.453 7.85794C29.3314 7.85794 29.2099 7.85794 29.0846 7.85794C29.0846 8.14112 29.0846 8.4243 29.0846 8.71606C29.0441 8.71606 29.0036 8.71606 28.9618 8.71606C28.9618 8.47333 28.9618 8.23061 28.9618 7.98053C28.6782 7.98053 28.3945 7.98053 28.1023 7.98053C28.2644 7.94007 28.4265 7.89962 28.5935 7.85794C28.5935 7.73657 28.5935 7.61521 28.5935 7.49017C28.6745 7.49017 28.7555 7.49017 28.839 7.49017C28.839 7.57108 28.839 7.65199 28.839 7.73535C28.9606 7.73535 29.0822 7.73535 29.2074 7.73535C29.2479 7.53308 29.2884 7.3308 29.3302 7.1224C29.3707 7.20331 29.4112 7.28422 29.453 7.36758C30.1108 7.20821 30.4024 6.94481 30.8344 6.43284C31.0243 6.20932 31.2177 5.98859 31.4176 5.77393Z" fill="#969F99"/>
<path d="M50.3272 2.46387C50.4083 2.50432 50.4893 2.54478 50.5728 2.58646C50.475 2.65543 50.475 2.65543 50.3752 2.72581C49.6498 3.24418 49.6498 3.24418 49.0993 3.93493C49.0582 4.32842 49.0582 4.32842 49.0993 4.67047C48.8967 4.71092 48.6941 4.75138 48.4854 4.79306C48.4495 3.71837 48.4495 3.71837 48.731 3.32199C49.0955 3.08208 49.0955 3.08208 49.5291 2.85462C49.6386 2.795 49.6386 2.795 49.7502 2.73419C49.9382 2.63528 50.1325 2.54856 50.3272 2.46387Z" fill="#676D6E"/>
<path d="M35.7151 12.7615C35.9582 12.7615 36.2013 12.7615 36.4518 12.7615C36.5746 13.1292 36.5746 13.1292 36.4609 13.4118C36.3766 13.5677 36.3766 13.5677 36.2906 13.7269C36.0729 14.1342 35.8801 14.5364 35.7151 14.9681C35.634 14.9681 35.553 14.9681 35.4695 14.9681C35.4869 14.7152 35.5049 14.4624 35.5232 14.2096C35.5332 14.0688 35.5431 13.928 35.5534 13.7829C35.5866 13.4338 35.6383 13.1032 35.7151 12.7615Z" fill="#F3F7F4"/>
<path d="M43.5737 18.6458C43.3852 19.064 43.1387 19.399 42.8523 19.7567C42.7691 19.8618 42.6858 19.9669 42.6 20.0752C42.3643 20.3411 42.1566 20.5434 41.8547 20.7298C41.4556 20.7527 41.4556 20.7527 41.1179 20.7298C41.1888 20.6994 41.2597 20.6691 41.3328 20.6378C41.8836 20.3323 42.1481 19.9735 42.3458 19.3813C42.2648 19.3004 42.1837 19.2195 42.1002 19.1361C42.2996 19.0539 42.4991 18.9723 42.6988 18.8909C42.81 18.8454 42.9211 18.7999 43.0356 18.753C43.3281 18.6458 43.3281 18.6458 43.5737 18.6458Z" fill="#103594"/>
<path d="M51.0637 16.9294C51.1042 16.9294 51.1447 16.9294 51.1865 16.9294C51.431 18.2924 51.6161 19.586 51.5549 20.9749C51.5143 20.9749 51.4738 20.9749 51.4321 20.9749C51.3419 20.7047 51.2517 20.4345 51.162 20.1642C51.0834 19.9303 51.0013 19.6977 50.9179 19.4655C50.8181 19.136 50.8181 19.136 50.8181 18.6457C50.9397 18.6457 51.0612 18.6457 51.1865 18.6457C51.1662 18.5446 51.146 18.4434 51.1251 18.3392C51.0565 17.8596 51.0553 17.4134 51.0637 16.9294Z" fill="#3C8C91"/>
<path d="M35.4695 15.0906C35.51 15.0906 35.5505 15.0906 35.5923 15.0906C35.5948 15.2221 35.5973 15.3535 35.5999 15.489C35.6706 15.974 35.6706 15.974 36.0757 16.2245C36.6255 16.4898 37.214 16.6508 37.8025 16.8068C37.6809 16.8473 37.5594 16.8877 37.4341 16.9294C37.4341 17.0103 37.4341 17.0912 37.4341 17.1746C37.5152 17.215 37.5962 17.2555 37.6797 17.2972C36.7201 17.2791 36.1183 16.8588 35.3467 16.3165C35.3872 15.9119 35.4277 15.5074 35.4695 15.0906Z" fill="#2CD4D9"/>
<path d="M45.4464 14.6845C45.653 14.957 45.7363 15.1244 45.784 15.4583C45.703 15.4583 45.622 15.4583 45.5385 15.4583C45.5385 15.3369 45.5385 15.2156 45.5385 15.0905C45.4574 15.0905 45.3764 15.0905 45.2929 15.0905C45.3334 15.3333 45.3739 15.576 45.4157 15.8261C45.2941 15.8261 45.1725 15.8261 45.0473 15.8261C45.0473 16.5138 45.0473 17.2015 45.0473 17.9101C44.7349 17.4423 44.7699 17.0643 44.7787 16.5233C44.7788 16.4317 44.7789 16.3401 44.7789 16.2458C44.7831 15.7256 44.8226 15.2349 44.9245 14.7228C44.7624 14.7632 44.6003 14.8037 44.4333 14.8454C44.5561 14.6002 44.5561 14.6002 44.8401 14.4929C45.1701 14.4776 45.1701 14.4776 45.4464 14.6845Z" fill="#264A5B"/>
<path d="M45.784 16.0713C45.9461 16.2736 46.1082 16.4758 46.2751 16.6842C46.3562 16.5629 46.4372 16.4415 46.5207 16.3165C46.5273 16.6792 46.5322 17.0417 46.5361 17.4044C46.5381 17.5076 46.5402 17.6108 46.5423 17.7171C46.5431 17.8159 46.5439 17.9147 46.5447 18.0164C46.546 18.1076 46.5473 18.1988 46.5486 18.2927C46.5207 18.5231 46.5207 18.5231 46.2751 18.7682C46.1919 18.48 46.1103 18.1914 46.0296 17.9025C45.9944 17.7817 45.9944 17.7817 45.9586 17.6585C45.809 17.1173 45.7604 16.6377 45.784 16.0713Z" fill="#217E82"/>
<path d="M41.985 16.3088C42.1636 16.3126 42.1636 16.3126 42.3457 16.3165C41.3794 16.9597 40.3274 16.9791 39.1992 16.9524C39.0642 16.9508 38.9292 16.9491 38.7901 16.9474C38.4608 16.9431 38.1317 16.9371 37.8025 16.9294C37.8025 16.889 37.8025 16.8485 37.8025 16.8069C38.0861 16.8069 38.3698 16.8069 38.662 16.8069C38.7025 16.6855 38.7431 16.5641 38.7848 16.4391C38.9064 16.4795 39.0279 16.52 39.1532 16.5617C39.3339 16.565 39.5147 16.5606 39.6952 16.5511C39.7987 16.5458 39.9022 16.5404 40.0089 16.5349C40.1165 16.5285 40.2241 16.5222 40.335 16.5157C40.4436 16.5103 40.5522 16.505 40.6641 16.4994C41.1473 16.4728 41.5409 16.3179 41.985 16.3088Z" fill="#F71919"/>
<path d="M32.5224 5.28345C32.3714 5.59756 32.2107 5.87284 32.0159 6.16455C31.7147 6.677 31.7384 7.15648 31.7857 7.73522C31.9478 7.77568 32.1099 7.81613 32.2769 7.85781C32.2769 7.93872 32.2769 8.01963 32.2769 8.10299C32.1958 8.10299 32.1148 8.10299 32.0313 8.10299C31.9908 8.1839 31.9502 8.26481 31.9085 8.34817C31.5002 7.64756 31.263 7.08126 31.4173 6.26416C31.9531 5.28345 31.9531 5.28345 32.5224 5.28345Z" fill="#06111C"/>
<path d="M35.8379 9.81928C35.6437 9.99576 35.4492 10.1719 35.2546 10.3479C35.1464 10.4461 35.0381 10.5442 34.9265 10.6453C34.6647 10.8747 34.401 11.087 34.1188 11.2903C34.1188 11.2094 34.1188 11.1285 34.1188 11.0452C33.9972 11.1261 33.8757 11.207 33.7504 11.2903C33.4818 11.2444 33.4818 11.2444 33.2593 11.1678C33.8425 10.8 33.8425 10.8 34.1188 10.8C34.1467 10.7216 34.1745 10.6432 34.2032 10.5625C34.3644 10.3096 34.3644 10.3096 34.6867 10.2177C34.8311 10.2025 34.8311 10.2025 34.9783 10.187C35.0189 10.0657 35.0594 9.94432 35.1011 9.81928C35.407 9.6666 35.5199 9.72406 35.8379 9.81928Z" fill="#9DF1F1"/>
<path d="M38.2937 8.59326C38.5976 8.65394 38.5976 8.65394 38.9077 8.71585C38.9355 8.83216 38.9634 8.94846 38.9921 9.06829C39.1153 9.47507 39.1153 9.47507 39.4756 9.61994C39.5718 9.64523 39.668 9.67051 39.7672 9.69656C39.7672 9.85838 39.7672 10.0202 39.7672 10.1869C39.2731 10.1585 38.9911 10.1388 38.616 9.80383C38.3842 9.39429 38.3303 9.05929 38.2937 8.59326Z" fill="#051018"/>
<path d="M34.2419 14.8455C34.485 14.8455 34.7282 14.8455 34.9787 14.8455C34.9473 15.0832 34.9136 15.3207 34.8789 15.558C34.8604 15.6903 34.8419 15.8225 34.8228 15.9588C34.7311 16.3244 34.6569 16.4566 34.3647 16.6843C34.3242 16.482 34.2837 16.2797 34.2419 16.0713C34.1609 16.0713 34.0798 16.0713 33.9963 16.0713C34.0774 15.6668 34.1584 15.2623 34.2419 14.8455Z" fill="#1D2C2C"/>
<path d="M31.6631 13.6196C32.4735 13.6196 33.2839 13.6196 34.1189 13.6196C34.1189 13.7005 34.1189 13.7814 34.1189 13.8648C33.3674 14.037 32.6801 14.1385 31.9087 14.11C31.9087 14.1909 31.9087 14.2718 31.9087 14.3552C31.8276 14.3552 31.7466 14.3552 31.6631 14.3552C31.6631 14.1124 31.6631 13.8697 31.6631 13.6196Z" fill="#8D938D"/>
<path d="M45.2927 15.0906C45.3737 15.0906 45.4548 15.0906 45.5383 15.0906C45.5383 15.2119 45.5383 15.3333 45.5383 15.4583C45.6117 15.4634 45.6852 15.4685 45.7608 15.4737C46.0294 15.5809 46.0294 15.5809 46.252 15.9257C46.3954 16.3101 46.4309 16.439 46.275 16.8068C46.1129 16.645 45.9509 16.4832 45.7839 16.3165C45.5407 16.3974 45.2976 16.4783 45.0471 16.5616C45.0471 16.3189 45.0471 16.0762 45.0471 15.8261C45.1687 15.8261 45.2902 15.8261 45.4155 15.8261C45.375 15.5834 45.3344 15.3407 45.2927 15.0906Z" fill="#0D3945"/>
<path d="M32.7683 15.8262C32.8519 15.8666 32.9355 15.9071 33.0216 15.9488C33.4447 16.0926 33.7978 16.0887 34.2418 16.0713C34.2823 16.3545 34.3228 16.6377 34.3646 16.9295C34.1673 16.8981 33.9704 16.8644 33.7737 16.8299C33.664 16.8114 33.5543 16.7929 33.4413 16.7738C33.1065 16.6754 32.9679 16.6006 32.7683 16.3165C32.7683 16.1547 32.7683 15.9929 32.7683 15.8262Z" fill="#0B0F0E"/>
<path d="M34.8557 9.81934C34.9367 9.85979 35.0178 9.90024 35.1012 9.94192C34.8367 10.2324 34.5905 10.3808 34.2417 10.5549C34.1868 10.6103 34.1319 10.6658 34.0753 10.7229C33.5109 11.2811 32.8002 11.7066 32.0315 11.9033C32.6467 10.9821 33.8374 10.24 34.8557 9.81934Z" fill="#32B6BA"/>
<path d="M39.3988 7.3675C39.3514 7.41949 39.3039 7.47148 39.2549 7.52505C38.8169 8.0176 38.4802 8.50195 38.1709 9.08375C38.0899 9.04329 38.0089 9.00284 37.9254 8.96116C37.8888 8.60199 37.8631 8.33062 37.9254 7.98045C38.3834 7.45783 38.7049 7.28503 39.3988 7.3675Z" fill="#D3CBC3"/>
<path d="M35.5925 18.2778C35.7749 18.3992 35.7749 18.3992 35.9609 18.523C35.9609 18.6039 35.9609 18.6848 35.9609 18.7682C36.0546 18.8011 36.1483 18.8339 36.2449 18.8678C36.5733 19.0127 36.7252 19.1027 36.9432 19.3811C36.9792 19.6584 36.9792 19.6584 36.9662 19.9558C36.9629 20.0548 36.9596 20.1539 36.9562 20.256C36.9519 20.3314 36.9476 20.4068 36.9432 20.4844C36.2134 19.7755 35.8839 19.2435 35.5925 18.2778Z" fill="#183B45"/>
<path d="M22.6172 33.4356V55.5356H16.7172V43.6856L15.8172 41.8856L19.0172 33.4356H22.6172ZM2.21719 47.2356V43.6856L10.8172 21.4856H16.6672L7.96719 44.3856L7.06719 41.6356H27.3172V47.2356H2.21719ZM33.141 55.5356H27.341V21.4856H33.141V55.5356ZM35.7688 55.5356V21.4856H48.3188C50.6854 21.4856 52.7688 21.9856 54.5688 22.9856C56.3688 23.9523 57.7688 25.2856 58.7688 26.9856C59.8021 28.6856 60.3188 30.6356 60.3188 32.8356C60.3188 35.0356 59.8021 36.9856 58.7688 38.6856C57.7688 40.3856 56.3688 41.719 54.5688 42.6856C52.7688 43.619 50.6854 44.0856 48.3188 44.0856H40.4188V38.5856H47.5688C49.6354 38.5856 51.2688 38.0856 52.4688 37.0856C53.7021 36.0523 54.3188 34.6356 54.3188 32.8356C54.3188 30.9023 53.7021 29.4523 52.4688 28.4856C51.2688 27.4856 49.6354 26.9856 47.5688 26.9856H40.3688L41.5688 25.6856V55.5356H35.7688ZM54.3188 55.5356L46.6188 41.4856H52.9688L60.6688 55.5356H54.3188Z" fill="#323030"/>
<path d="M71.61 27.71V25.95H74.45V27.71H71.61ZM72.22 30H70.41V23.19H74.89V24.95H71.49L72.22 24.12V30ZM76.6181 26.6C76.6181 26.08 76.7015 25.6033 76.8681 25.17C77.0348 24.7367 77.2715 24.3633 77.5781 24.05C77.8848 23.73 78.2515 23.4833 78.6781 23.31C79.1048 23.1367 79.5781 23.05 80.0981 23.05C80.6181 23.05 81.0915 23.1367 81.5181 23.31C81.9515 23.4833 82.3215 23.73 82.6281 24.05C82.9415 24.3633 83.1815 24.7367 83.3481 25.17C83.5148 25.6033 83.5981 26.08 83.5981 26.6C83.5981 27.12 83.5148 27.5967 83.3481 28.03C83.1815 28.4633 82.9415 28.84 82.6281 29.16C82.3215 29.4733 81.9515 29.7167 81.5181 29.89C81.0915 30.0567 80.6181 30.14 80.0981 30.14C79.5781 30.14 79.1048 30.0567 78.6781 29.89C78.2515 29.7167 77.8848 29.4733 77.5781 29.16C77.2715 28.84 77.0348 28.4633 76.8681 28.03C76.7015 27.5967 76.6181 27.12 76.6181 26.6ZM78.4681 26.6C78.4681 26.9733 78.5348 27.29 78.6681 27.55C78.8081 27.81 79.0015 28.0067 79.2481 28.14C79.4948 28.2733 79.7781 28.34 80.0981 28.34C80.4248 28.34 80.7115 28.2733 80.9581 28.14C81.2048 28.0067 81.3981 27.81 81.5381 27.55C81.6781 27.2833 81.7481 26.9633 81.7481 26.59C81.7481 26.2167 81.6781 25.9 81.5381 25.64C81.3981 25.38 81.2048 25.1833 80.9581 25.05C80.7115 24.9167 80.4248 24.85 80.0981 24.85C79.7781 24.85 79.4948 24.92 79.2481 25.06C79.0015 25.1933 78.8081 25.39 78.6681 25.65C78.5348 25.91 78.4681 26.2267 78.4681 26.6ZM88.3354 30.14C87.6754 30.14 87.1321 30.0233 86.7054 29.79C86.2854 29.55 85.9721 29.1967 85.7654 28.73C85.5654 28.2567 85.4654 27.67 85.4654 26.97V23.19H87.2854V27.14C87.2854 27.5267 87.3721 27.83 87.5454 28.05C87.7187 28.2633 87.9821 28.37 88.3354 28.37C88.6887 28.37 88.9521 28.2633 89.1254 28.05C89.2987 27.83 89.3854 27.5267 89.3854 27.14V23.19H91.2054V26.97C91.2054 27.67 91.1021 28.2567 90.8954 28.73C90.6954 29.1967 90.3854 29.55 89.9654 29.79C89.5454 30.0233 89.0021 30.14 88.3354 30.14ZM93.4088 30V23.19H95.9288C96.4288 23.19 96.8822 23.2867 97.2888 23.48C97.7022 23.6667 98.0288 23.9467 98.2688 24.32C98.5155 24.6867 98.6388 25.1433 98.6388 25.69C98.6388 26.2367 98.5155 26.6967 98.2688 27.07C98.0288 27.4367 97.7022 27.7133 97.2888 27.9C96.8822 28.0867 96.4288 28.18 95.9288 28.18H94.7888V26.42H95.8688C96.1755 26.42 96.4055 26.36 96.5588 26.24C96.7188 26.12 96.7988 25.9367 96.7988 25.69C96.7988 25.45 96.7188 25.2667 96.5588 25.14C96.4055 25.0133 96.1755 24.95 95.8688 24.95H94.7788L95.2188 24.56V30H93.4088ZM96.7288 30L95.3888 27.28H97.3688L98.7088 30H96.7288ZM106.466 30H104.656V23.19H106.466V30ZM113.023 30L109.813 25.46L110.493 25.28V30H108.683V23.19H110.373L113.573 27.73L112.893 27.91V23.19H114.713V30H113.023ZM116.929 30V23.19H119.419C120.159 23.19 120.782 23.3267 121.289 23.6C121.802 23.8667 122.192 24.2533 122.459 24.76C122.725 25.2667 122.859 25.8767 122.859 26.59C122.859 27.3033 122.725 27.9167 122.459 28.43C122.192 28.9367 121.802 29.3267 121.289 29.6C120.775 29.8667 120.149 30 119.409 30H116.929ZM118.739 29.04L117.949 28.24H119.269C119.642 28.24 119.955 28.1867 120.209 28.08C120.469 27.9667 120.665 27.79 120.799 27.55C120.939 27.3033 121.009 26.9833 121.009 26.59C121.009 26.1967 120.942 25.88 120.809 25.64C120.675 25.4 120.479 25.2267 120.219 25.12C119.965 25.0067 119.652 24.95 119.279 24.95H117.879L118.739 24.48V29.04ZM127.605 30.14C126.945 30.14 126.401 30.0233 125.975 29.79C125.555 29.55 125.241 29.1967 125.035 28.73C124.835 28.2567 124.735 27.67 124.735 26.97V23.19H126.555V27.14C126.555 27.5267 126.641 27.83 126.815 28.05C126.988 28.2633 127.251 28.37 127.605 28.37C127.958 28.37 128.221 28.2633 128.395 28.05C128.568 27.83 128.655 27.5267 128.655 27.14V23.19H130.475V26.97C130.475 27.67 130.371 28.2567 130.165 28.73C129.965 29.1967 129.655 29.55 129.235 29.79C128.815 30.0233 128.271 30.14 127.605 30.14ZM135.218 30.18C134.791 30.18 134.401 30.12 134.048 30C133.701 29.8733 133.391 29.6933 133.118 29.46C132.851 29.2267 132.628 28.9433 132.448 28.61L133.808 27.72C133.981 27.9667 134.205 28.1667 134.478 28.32C134.758 28.4667 135.041 28.54 135.328 28.54C135.548 28.54 135.711 28.4967 135.818 28.41C135.931 28.3233 135.988 28.2167 135.988 28.09C135.988 28.0033 135.961 27.9267 135.908 27.86C135.861 27.7933 135.765 27.73 135.618 27.67C135.471 27.6033 135.258 27.54 134.978 27.48C134.391 27.3467 133.925 27.18 133.578 26.98C133.231 26.7733 132.985 26.5267 132.838 26.24C132.691 25.9467 132.618 25.6133 132.618 25.24C132.618 24.8267 132.725 24.4533 132.938 24.12C133.151 23.78 133.455 23.51 133.848 23.31C134.248 23.11 134.721 23.01 135.268 23.01C135.881 23.01 136.405 23.1333 136.838 23.38C137.271 23.62 137.605 23.93 137.838 24.31L136.478 25.29C136.325 25.0833 136.118 24.9367 135.858 24.85C135.605 24.7567 135.361 24.71 135.128 24.71C134.921 24.71 134.755 24.75 134.628 24.83C134.508 24.9033 134.448 25.0067 134.448 25.14C134.448 25.2733 134.515 25.38 134.648 25.46C134.788 25.54 135.061 25.6267 135.468 25.72C136.028 25.8467 136.485 26.01 136.838 26.21C137.198 26.4033 137.461 26.6467 137.628 26.94C137.801 27.2267 137.888 27.58 137.888 28C137.888 28.42 137.781 28.7967 137.568 29.13C137.355 29.4567 137.048 29.7133 136.648 29.9C136.248 30.0867 135.771 30.18 135.218 30.18ZM141.489 30V23.83H143.319V30H141.489ZM139.559 24.95V23.19H145.239V24.95H139.559ZM147.148 30V23.19H149.668C150.168 23.19 150.621 23.2867 151.028 23.48C151.441 23.6667 151.768 23.9467 152.008 24.32C152.255 24.6867 152.378 25.1433 152.378 25.69C152.378 26.2367 152.255 26.6967 152.008 27.07C151.768 27.4367 151.441 27.7133 151.028 27.9C150.621 28.0867 150.168 28.18 149.668 28.18H148.528V26.42H149.608C149.915 26.42 150.145 26.36 150.298 26.24C150.458 26.12 150.538 25.9367 150.538 25.69C150.538 25.45 150.458 25.2667 150.298 25.14C150.145 25.0133 149.915 24.95 149.608 24.95H148.518L148.958 24.56V30H147.148ZM150.468 30L149.128 27.28H151.108L152.448 30H150.468ZM156.208 30H154.398V23.19H156.208V30ZM159.704 27.31H162.554V28.98H159.704V27.31ZM158.054 30L160.464 23.19H162.274L164.464 30H162.644L161.014 24.42H161.734L159.864 30H158.054ZM170.609 30H166.309V23.19H168.119V29.09L167.559 28.24H170.609V30ZM70.41 42V35.19H72.93C73.43 35.19 73.8833 35.2867 74.29 35.48C74.7033 35.6667 75.03 35.9467 75.27 36.32C75.5167 36.6867 75.64 37.1433 75.64 37.69C75.64 38.2367 75.5167 38.6967 75.27 39.07C75.03 39.4367 74.7033 39.7133 74.29 39.9C73.8833 40.0867 73.43 40.18 72.93 40.18H71.79V38.42H72.87C73.1767 38.42 73.4067 38.36 73.56 38.24C73.72 38.12 73.8 37.9367 73.8 37.69C73.8 37.45 73.72 37.2667 73.56 37.14C73.4067 37.0133 73.1767 36.95 72.87 36.95H71.78L72.22 36.56V42H70.41ZM73.73 42L72.39 39.28H74.37L75.71 42H73.73ZM78.7696 39.46V37.73H81.6096V39.46H78.7696ZM78.7396 36.92L79.4696 36.12V41.2L78.6896 40.27H82.1396V42H77.6596V35.19H82.1396V36.92H78.7396ZM86.1345 42L83.9045 35.19H85.7645L87.5345 40.77H86.6745L88.4545 35.19H90.2645L88.0345 42H86.1345ZM91.4884 38.6C91.4884 38.08 91.5718 37.6033 91.7384 37.17C91.9051 36.7367 92.1418 36.3633 92.4484 36.05C92.7551 35.73 93.1218 35.4833 93.5484 35.31C93.9751 35.1367 94.4484 35.05 94.9684 35.05C95.4884 35.05 95.9618 35.1367 96.3884 35.31C96.8218 35.4833 97.1918 35.73 97.4984 36.05C97.8118 36.3633 98.0518 36.7367 98.2184 37.17C98.3851 37.6033 98.4684 38.08 98.4684 38.6C98.4684 39.12 98.3851 39.5967 98.2184 40.03C98.0518 40.4633 97.8118 40.84 97.4984 41.16C97.1918 41.4733 96.8218 41.7167 96.3884 41.89C95.9618 42.0567 95.4884 42.14 94.9684 42.14C94.4484 42.14 93.9751 42.0567 93.5484 41.89C93.1218 41.7167 92.7551 41.4733 92.4484 41.16C92.1418 40.84 91.9051 40.4633 91.7384 40.03C91.5718 39.5967 91.4884 39.12 91.4884 38.6ZM93.3384 38.6C93.3384 38.9733 93.4051 39.29 93.5384 39.55C93.6784 39.81 93.8718 40.0067 94.1184 40.14C94.3651 40.2733 94.6484 40.34 94.9684 40.34C95.2951 40.34 95.5818 40.2733 95.8284 40.14C96.0751 40.0067 96.2684 39.81 96.4084 39.55C96.5484 39.2833 96.6184 38.9633 96.6184 38.59C96.6184 38.2167 96.5484 37.9 96.4084 37.64C96.2684 37.38 96.0751 37.1833 95.8284 37.05C95.5818 36.9167 95.2951 36.85 94.9684 36.85C94.6484 36.85 94.3651 36.92 94.1184 37.06C93.8718 37.1933 93.6784 37.39 93.5384 37.65C93.4051 37.91 93.3384 38.2267 93.3384 38.6ZM104.705 42H100.405V35.19H102.215V41.09L101.655 40.24H104.705V42ZM109.547 42.14C108.887 42.14 108.344 42.0233 107.917 41.79C107.497 41.55 107.184 41.1967 106.977 40.73C106.777 40.2567 106.677 39.67 106.677 38.97V35.19H108.497V39.14C108.497 39.5267 108.584 39.83 108.757 40.05C108.93 40.2633 109.194 40.37 109.547 40.37C109.9 40.37 110.164 40.2633 110.337 40.05C110.51 39.83 110.597 39.5267 110.597 39.14V35.19H112.417V38.97C112.417 39.67 112.314 40.2567 112.107 40.73C111.907 41.1967 111.597 41.55 111.177 41.79C110.757 42.0233 110.214 42.14 109.547 42.14ZM116.231 42V35.83H118.061V42H116.231ZM114.301 36.95V35.19H119.981V36.95H114.301ZM123.7 42H121.89V35.19H123.7V42ZM125.647 38.6C125.647 38.08 125.73 37.6033 125.897 37.17C126.063 36.7367 126.3 36.3633 126.607 36.05C126.913 35.73 127.28 35.4833 127.707 35.31C128.133 35.1367 128.607 35.05 129.127 35.05C129.647 35.05 130.12 35.1367 130.547 35.31C130.98 35.4833 131.35 35.73 131.657 36.05C131.97 36.3633 132.21 36.7367 132.377 37.17C132.543 37.6033 132.627 38.08 132.627 38.6C132.627 39.12 132.543 39.5967 132.377 40.03C132.21 40.4633 131.97 40.84 131.657 41.16C131.35 41.4733 130.98 41.7167 130.547 41.89C130.12 42.0567 129.647 42.14 129.127 42.14C128.607 42.14 128.133 42.0567 127.707 41.89C127.28 41.7167 126.913 41.4733 126.607 41.16C126.3 40.84 126.063 40.4633 125.897 40.03C125.73 39.5967 125.647 39.12 125.647 38.6ZM127.497 38.6C127.497 38.9733 127.563 39.29 127.697 39.55C127.837 39.81 128.03 40.0067 128.277 40.14C128.523 40.2733 128.807 40.34 129.127 40.34C129.453 40.34 129.74 40.2733 129.987 40.14C130.233 40.0067 130.427 39.81 130.567 39.55C130.707 39.2833 130.777 38.9633 130.777 38.59C130.777 38.2167 130.707 37.9 130.567 37.64C130.427 37.38 130.233 37.1833 129.987 37.05C129.74 36.9167 129.453 36.85 129.127 36.85C128.807 36.85 128.523 36.92 128.277 37.06C128.03 37.1933 127.837 37.39 127.697 37.65C127.563 37.91 127.497 38.2267 127.497 38.6ZM138.903 42L135.693 37.46L136.373 37.28V42H134.563V35.19H136.253L139.453 39.73L138.773 39.91V35.19H140.593V42H138.903ZM73.62 54.14C72.9 54.14 72.28 53.99 71.76 53.69C71.24 53.39 70.84 52.9767 70.56 52.45C70.28 51.9167 70.14 51.3 70.14 50.6C70.14 50.08 70.2233 49.6033 70.39 49.17C70.5567 48.7367 70.7933 48.3633 71.1 48.05C71.4067 47.73 71.7733 47.4867 72.2 47.32C72.6267 47.1467 73.1 47.06 73.62 47.06C74.4333 47.06 75.1067 47.2467 75.64 47.62C76.1733 47.9867 76.56 48.5333 76.8 49.26L75.2 49.94C75.0467 49.58 74.8433 49.3033 74.59 49.11C74.3367 48.9167 74.0133 48.82 73.62 48.82C73.3 48.82 73.0167 48.89 72.77 49.03C72.5233 49.17 72.33 49.3733 72.19 49.64C72.0567 49.9067 71.99 50.2267 71.99 50.6C71.99 50.9733 72.0567 51.2933 72.19 51.56C72.33 51.8267 72.5233 52.03 72.77 52.17C73.0167 52.3033 73.3 52.37 73.62 52.37C74.0133 52.37 74.3367 52.2767 74.59 52.09C74.8433 51.8967 75.0467 51.62 75.2 51.26L76.8 51.94C76.56 52.6667 76.1733 53.2167 75.64 53.59C75.1067 53.9567 74.4333 54.14 73.62 54.14ZM82.9557 54H78.6557V47.19H80.4657V53.09L79.9057 52.24H82.9557V54ZM87.7983 54.14C87.1383 54.14 86.5949 54.0233 86.1683 53.79C85.7483 53.55 85.4349 53.1967 85.2283 52.73C85.0283 52.2567 84.9283 51.67 84.9283 50.97V47.19H86.7483V51.14C86.7483 51.5267 86.8349 51.83 87.0083 52.05C87.1816 52.2633 87.4449 52.37 87.7983 52.37C88.1516 52.37 88.4149 52.2633 88.5883 52.05C88.7616 51.83 88.8483 51.5267 88.8483 51.14V47.19H90.6683V50.97C90.6683 51.67 90.5649 52.2567 90.3583 52.73C90.1583 53.1967 89.8483 53.55 89.4283 53.79C89.0083 54.0233 88.4649 54.14 87.7983 54.14ZM92.8717 54V47.19H95.4517C96.0851 47.19 96.5817 47.2633 96.9417 47.41C97.3017 47.5567 97.5551 47.7733 97.7017 48.06C97.8484 48.34 97.9217 48.6867 97.9217 49.1C97.9217 49.4133 97.8617 49.69 97.7417 49.93C97.6217 50.1633 97.4517 50.3467 97.2317 50.48C97.0117 50.6133 96.7517 50.68 96.4517 50.68V50.51C96.8384 50.51 97.1451 50.5867 97.3717 50.74C97.5984 50.8867 97.7617 51.08 97.8617 51.32C97.9617 51.56 98.0117 51.8133 98.0117 52.08C98.0117 52.7267 97.8151 53.21 97.4217 53.53C97.0284 53.8433 96.4351 54 95.6417 54H92.8717ZM94.6817 48.03V53.09L94.0717 52.27H95.5817C95.7551 52.27 95.8951 52.2333 96.0017 52.16C96.1151 52.0867 96.1717 51.97 96.1717 51.81C96.1717 51.65 96.1184 51.5333 96.0117 51.46C95.9051 51.3867 95.7684 51.35 95.6017 51.35H94.0717V49.84H95.4717C95.6717 49.84 95.8184 49.8033 95.9117 49.73C96.0117 49.6567 96.0617 49.54 96.0617 49.38C96.0617 49.22 96.0117 49.1033 95.9117 49.03C95.8184 48.9567 95.6717 48.92 95.4717 48.92H94.1017L94.6817 48.03Z" fill="black"/>
</svg>
