<svg width="76" height="41" viewBox="0 0 76 41" fill="none" xmlns="http://www.w3.org/2000/svg">
<path d="M0.175314 40L0.215314 36.74L0.175314 32.98C0.215314 32.98 0.331981 32.9733 0.525314 32.96C0.718647 32.94 0.951981 32.9233 1.22531 32.91C1.49865 32.89 1.77865 32.8733 2.06531 32.86C2.35198 32.8467 2.60865 32.84 2.83531 32.84C3.37531 32.84 3.84198 32.9167 4.23531 33.07C4.63531 33.2233 4.94198 33.47 5.15531 33.81C5.36865 34.15 5.47531 34.6067 5.47531 35.18C5.47531 35.7333 5.35531 36.1833 5.11531 36.53C4.87531 36.8767 4.52198 37.1267 4.05531 37.28V37.34L5.58531 40H3.84531L2.61531 37.5L1.74531 37.48V40H0.175314ZM2.86531 36.25C3.27198 36.25 3.53531 36.1633 3.65531 35.99C3.78198 35.8167 3.84531 35.55 3.84531 35.19C3.84531 34.8633 3.82198 34.63 3.77531 34.49C3.72865 34.35 3.66865 34.2567 3.59531 34.21C3.53531 34.17 3.44531 34.14 3.32531 34.12C3.20531 34.1 3.05531 34.09 2.87531 34.09C2.60865 34.09 2.39198 34.0967 2.22531 34.11C2.05865 34.1167 1.89865 34.13 1.74531 34.15V36.18C1.93865 36.2 2.13198 36.2167 2.32531 36.23C2.51865 36.2433 2.69865 36.25 2.86531 36.25ZM10.3227 40.13C9.91599 40.13 9.52932 40.0767 9.16266 39.97C8.80266 39.8633 8.48266 39.6767 8.20266 39.41C7.92932 39.1433 7.71266 38.7733 7.55266 38.3C7.39932 37.82 7.32266 37.21 7.32266 36.47C7.32266 35.73 7.39932 35.1233 7.55266 34.65C7.71266 34.1767 7.92932 33.81 8.20266 33.55C8.48266 33.2833 8.80266 33.1 9.16266 33C9.52932 32.8933 9.91599 32.84 10.3227 32.84C10.736 32.84 11.1227 32.8933 11.4827 33C11.8427 33.1 12.1593 33.2833 12.4327 33.55C12.7127 33.81 12.9293 34.1767 13.0827 34.65C13.2427 35.1233 13.3227 35.73 13.3227 36.47C13.3227 37.21 13.2427 37.82 13.0827 38.3C12.9293 38.7733 12.7127 39.1433 12.4327 39.41C12.1593 39.6767 11.8427 39.8633 11.4827 39.97C11.1227 40.0767 10.736 40.13 10.3227 40.13ZM10.3227 38.75C10.5627 38.75 10.766 38.7233 10.9327 38.67C11.106 38.61 11.2493 38.5033 11.3627 38.35C11.476 38.19 11.5593 37.96 11.6127 37.66C11.666 37.36 11.6927 36.97 11.6927 36.49C11.6927 36.0033 11.666 35.61 11.6127 35.31C11.5593 35.01 11.476 34.7833 11.3627 34.63C11.256 34.47 11.116 34.3633 10.9427 34.31C10.7693 34.25 10.5627 34.22 10.3227 34.22C10.0827 34.22 9.87599 34.25 9.70266 34.31C9.52932 34.3633 9.38599 34.47 9.27266 34.63C9.16599 34.7833 9.08599 35.01 9.03266 35.31C8.97932 35.61 8.95266 36.0033 8.95266 36.49C8.95266 36.9767 8.97932 37.37 9.03266 37.67C9.08599 37.9633 9.16932 38.19 9.28266 38.35C9.39599 38.5033 9.53599 38.61 9.70266 38.67C9.87599 38.7233 10.0827 38.75 10.3227 38.75ZM17.9646 40.13C17.7046 40.13 17.4246 40.12 17.1246 40.1C16.8246 40.08 16.5413 40.0567 16.2746 40.03C16.0146 40.01 15.7979 39.99 15.6246 39.97C15.4579 39.95 15.3746 39.94 15.3746 39.94L15.4046 36.71L15.3546 32.98C15.3546 32.98 15.4379 32.9733 15.6046 32.96C15.7713 32.9467 15.9846 32.93 16.2446 32.91C16.5046 32.89 16.7813 32.8733 17.0746 32.86C17.3679 32.8467 17.6413 32.84 17.8946 32.84C18.3346 32.84 18.7346 32.9 19.0946 33.02C19.4546 33.14 19.7413 33.3467 19.9546 33.64C20.1679 33.9267 20.2746 34.3233 20.2746 34.83C20.2746 35.0833 20.2346 35.3033 20.1546 35.49C20.0813 35.67 19.9846 35.8233 19.8646 35.95C19.7513 36.07 19.6313 36.1667 19.5046 36.24C19.3846 36.3067 19.2746 36.35 19.1746 36.37L19.4546 35.57V37.03L19.0446 36.19C19.2246 36.2367 19.3979 36.3 19.5646 36.38C19.7313 36.46 19.8813 36.5633 20.0146 36.69C20.1546 36.81 20.2613 36.9667 20.3346 37.16C20.4146 37.3467 20.4546 37.5733 20.4546 37.84C20.4546 38.3 20.3846 38.68 20.2446 38.98C20.1046 39.2733 19.9146 39.5033 19.6746 39.67C19.4346 39.8367 19.1679 39.9533 18.8746 40.02C18.5813 40.0933 18.2779 40.13 17.9646 40.13ZM17.9746 38.87C18.3279 38.87 18.5579 38.79 18.6646 38.63C18.7713 38.4633 18.8246 38.2067 18.8246 37.86C18.8246 37.5067 18.7379 37.27 18.5646 37.15C18.3913 37.0233 18.1546 36.96 17.8546 36.96H16.2346L16.9346 36.26L16.9446 39.51L16.8046 38.8C16.7979 38.7933 16.8513 38.7967 16.9646 38.81C17.0779 38.8233 17.2246 38.8367 17.4046 38.85C17.5913 38.8633 17.7813 38.87 17.9746 38.87ZM17.9346 35.74C18.2279 35.74 18.4246 35.6767 18.5246 35.55C18.6246 35.4167 18.6746 35.2033 18.6746 34.91C18.6746 34.59 18.6113 34.37 18.4846 34.25C18.3646 34.13 18.1579 34.07 17.8646 34.07C17.6579 34.07 17.4813 34.0733 17.3346 34.08C17.1946 34.0867 17.0579 34.0967 16.9246 34.11C16.7979 34.1167 16.6513 34.1267 16.4846 34.14L16.9246 33.41V36.44L16.2246 35.74H17.9346ZM25.2773 40.13C24.8707 40.13 24.484 40.0767 24.1173 39.97C23.7573 39.8633 23.4373 39.6767 23.1573 39.41C22.884 39.1433 22.6673 38.7733 22.5073 38.3C22.354 37.82 22.2773 37.21 22.2773 36.47C22.2773 35.73 22.354 35.1233 22.5073 34.65C22.6673 34.1767 22.884 33.81 23.1573 33.55C23.4373 33.2833 23.7573 33.1 24.1173 33C24.484 32.8933 24.8707 32.84 25.2773 32.84C25.6907 32.84 26.0773 32.8933 26.4373 33C26.7973 33.1 27.114 33.2833 27.3873 33.55C27.6673 33.81 27.884 34.1767 28.0373 34.65C28.1973 35.1233 28.2773 35.73 28.2773 36.47C28.2773 37.21 28.1973 37.82 28.0373 38.3C27.884 38.7733 27.6673 39.1433 27.3873 39.41C27.114 39.6767 26.7973 39.8633 26.4373 39.97C26.0773 40.0767 25.6907 40.13 25.2773 40.13ZM25.2773 38.75C25.5173 38.75 25.7207 38.7233 25.8873 38.67C26.0607 38.61 26.204 38.5033 26.3173 38.35C26.4307 38.19 26.514 37.96 26.5673 37.66C26.6207 37.36 26.6473 36.97 26.6473 36.49C26.6473 36.0033 26.6207 35.61 26.5673 35.31C26.514 35.01 26.4307 34.7833 26.3173 34.63C26.2107 34.47 26.0707 34.3633 25.8973 34.31C25.724 34.25 25.5173 34.22 25.2773 34.22C25.0373 34.22 24.8307 34.25 24.6573 34.31C24.484 34.3633 24.3407 34.47 24.2273 34.63C24.1207 34.7833 24.0407 35.01 23.9873 35.31C23.934 35.61 23.9073 36.0033 23.9073 36.49C23.9073 36.9767 23.934 37.37 23.9873 37.67C24.0407 37.9633 24.124 38.19 24.2373 38.35C24.3507 38.5033 24.4907 38.61 24.6573 38.67C24.8307 38.7233 25.0373 38.75 25.2773 38.75ZM31.2493 40L31.2793 34.28L29.3193 34.31V32.97H34.7893V34.31L32.7893 34.28L32.8193 40H31.2493ZM36.1655 40L36.2055 36.76L36.1655 32.97H37.7455L37.7155 36.1L37.7455 40H36.1655ZM39.5177 40V38.76L42.8977 34.29V34.22L39.7277 34.31V32.97H44.7577V34.18L41.4477 38.68V38.74L44.8077 38.66V40H39.5177ZM45.6588 40L47.5888 32.97H49.6288L51.5588 40H49.9388L49.3988 37.76L50.2688 38.44H46.9488L47.8188 37.76L47.2788 40H45.6588ZM47.7888 37.8L47.2488 37.12H49.9688L49.4288 37.8L48.4788 33.75L49.3388 34.43H47.8788L48.7388 33.75L47.7888 37.8ZM53.7661 40L53.7961 34.28L51.8361 34.31V32.97H57.3061V34.31L55.3061 34.28L55.3361 40H53.7661ZM58.6823 40L58.7223 36.76L58.6823 32.97H60.2623L60.2323 36.1L60.2623 40H58.6823ZM65.2945 40.13C64.8879 40.13 64.5012 40.0767 64.1345 39.97C63.7745 39.8633 63.4545 39.6767 63.1745 39.41C62.9012 39.1433 62.6845 38.7733 62.5245 38.3C62.3712 37.82 62.2945 37.21 62.2945 36.47C62.2945 35.73 62.3712 35.1233 62.5245 34.65C62.6845 34.1767 62.9012 33.81 63.1745 33.55C63.4545 33.2833 63.7745 33.1 64.1345 33C64.5012 32.8933 64.8879 32.84 65.2945 32.84C65.7079 32.84 66.0945 32.8933 66.4545 33C66.8145 33.1 67.1312 33.2833 67.4045 33.55C67.6845 33.81 67.9012 34.1767 68.0545 34.65C68.2145 35.1233 68.2945 35.73 68.2945 36.47C68.2945 37.21 68.2145 37.82 68.0545 38.3C67.9012 38.7733 67.6845 39.1433 67.4045 39.41C67.1312 39.6767 66.8145 39.8633 66.4545 39.97C66.0945 40.0767 65.7079 40.13 65.2945 40.13ZM65.2945 38.75C65.5345 38.75 65.7379 38.7233 65.9045 38.67C66.0779 38.61 66.2212 38.5033 66.3345 38.35C66.4479 38.19 66.5312 37.96 66.5845 37.66C66.6379 37.36 66.6645 36.97 66.6645 36.49C66.6645 36.0033 66.6379 35.61 66.5845 35.31C66.5312 35.01 66.4479 34.7833 66.3345 34.63C66.2279 34.47 66.0879 34.3633 65.9145 34.31C65.7412 34.25 65.5345 34.22 65.2945 34.22C65.0545 34.22 64.8479 34.25 64.6745 34.31C64.5012 34.3633 64.3579 34.47 64.2445 34.63C64.1379 34.7833 64.0579 35.01 64.0045 35.31C63.9512 35.61 63.9245 36.0033 63.9245 36.49C63.9245 36.9767 63.9512 37.37 64.0045 37.67C64.0579 37.9633 64.1412 38.19 64.2545 38.35C64.3679 38.5033 64.5079 38.61 64.6745 38.67C64.8479 38.7233 65.0545 38.75 65.2945 38.75ZM70.3265 40V32.97H72.3365L74.4965 38.11H74.5565L74.4165 32.97H75.8465V40H73.8365L71.6765 34.85H71.6165L71.7565 40H70.3265Z" fill="black"/>
<path d="M0.175314 40L0.215314 36.74L0.175314 32.98C0.215314 32.98 0.331981 32.9733 0.525314 32.96C0.718647 32.94 0.951981 32.9233 1.22531 32.91C1.49865 32.89 1.77865 32.8733 2.06531 32.86C2.35198 32.8467 2.60865 32.84 2.83531 32.84C3.37531 32.84 3.84198 32.9167 4.23531 33.07C4.63531 33.2233 4.94198 33.47 5.15531 33.81C5.36865 34.15 5.47531 34.6067 5.47531 35.18C5.47531 35.7333 5.35531 36.1833 5.11531 36.53C4.87531 36.8767 4.52198 37.1267 4.05531 37.28V37.34L5.58531 40H3.84531L2.61531 37.5L1.74531 37.48V40H0.175314ZM2.86531 36.25C3.27198 36.25 3.53531 36.1633 3.65531 35.99C3.78198 35.8167 3.84531 35.55 3.84531 35.19C3.84531 34.8633 3.82198 34.63 3.77531 34.49C3.72865 34.35 3.66865 34.2567 3.59531 34.21C3.53531 34.17 3.44531 34.14 3.32531 34.12C3.20531 34.1 3.05531 34.09 2.87531 34.09C2.60865 34.09 2.39198 34.0967 2.22531 34.11C2.05865 34.1167 1.89865 34.13 1.74531 34.15V36.18C1.93865 36.2 2.13198 36.2167 2.32531 36.23C2.51865 36.2433 2.69865 36.25 2.86531 36.25ZM10.3227 40.13C9.91599 40.13 9.52932 40.0767 9.16266 39.97C8.80266 39.8633 8.48266 39.6767 8.20266 39.41C7.92932 39.1433 7.71266 38.7733 7.55266 38.3C7.39932 37.82 7.32266 37.21 7.32266 36.47C7.32266 35.73 7.39932 35.1233 7.55266 34.65C7.71266 34.1767 7.92932 33.81 8.20266 33.55C8.48266 33.2833 8.80266 33.1 9.16266 33C9.52932 32.8933 9.91599 32.84 10.3227 32.84C10.736 32.84 11.1227 32.8933 11.4827 33C11.8427 33.1 12.1593 33.2833 12.4327 33.55C12.7127 33.81 12.9293 34.1767 13.0827 34.65C13.2427 35.1233 13.3227 35.73 13.3227 36.47C13.3227 37.21 13.2427 37.82 13.0827 38.3C12.9293 38.7733 12.7127 39.1433 12.4327 39.41C12.1593 39.6767 11.8427 39.8633 11.4827 39.97C11.1227 40.0767 10.736 40.13 10.3227 40.13ZM10.3227 38.75C10.5627 38.75 10.766 38.7233 10.9327 38.67C11.106 38.61 11.2493 38.5033 11.3627 38.35C11.476 38.19 11.5593 37.96 11.6127 37.66C11.666 37.36 11.6927 36.97 11.6927 36.49C11.6927 36.0033 11.666 35.61 11.6127 35.31C11.5593 35.01 11.476 34.7833 11.3627 34.63C11.256 34.47 11.116 34.3633 10.9427 34.31C10.7693 34.25 10.5627 34.22 10.3227 34.22C10.0827 34.22 9.87599 34.25 9.70266 34.31C9.52932 34.3633 9.38599 34.47 9.27266 34.63C9.16599 34.7833 9.08599 35.01 9.03266 35.31C8.97932 35.61 8.95266 36.0033 8.95266 36.49C8.95266 36.9767 8.97932 37.37 9.03266 37.67C9.08599 37.9633 9.16932 38.19 9.28266 38.35C9.39599 38.5033 9.53599 38.61 9.70266 38.67C9.87599 38.7233 10.0827 38.75 10.3227 38.75ZM17.9646 40.13C17.7046 40.13 17.4246 40.12 17.1246 40.1C16.8246 40.08 16.5413 40.0567 16.2746 40.03C16.0146 40.01 15.7979 39.99 15.6246 39.97C15.4579 39.95 15.3746 39.94 15.3746 39.94L15.4046 36.71L15.3546 32.98C15.3546 32.98 15.4379 32.9733 15.6046 32.96C15.7713 32.9467 15.9846 32.93 16.2446 32.91C16.5046 32.89 16.7813 32.8733 17.0746 32.86C17.3679 32.8467 17.6413 32.84 17.8946 32.84C18.3346 32.84 18.7346 32.9 19.0946 33.02C19.4546 33.14 19.7413 33.3467 19.9546 33.64C20.1679 33.9267 20.2746 34.3233 20.2746 34.83C20.2746 35.0833 20.2346 35.3033 20.1546 35.49C20.0813 35.67 19.9846 35.8233 19.8646 35.95C19.7513 36.07 19.6313 36.1667 19.5046 36.24C19.3846 36.3067 19.2746 36.35 19.1746 36.37L19.4546 35.57V37.03L19.0446 36.19C19.2246 36.2367 19.3979 36.3 19.5646 36.38C19.7313 36.46 19.8813 36.5633 20.0146 36.69C20.1546 36.81 20.2613 36.9667 20.3346 37.16C20.4146 37.3467 20.4546 37.5733 20.4546 37.84C20.4546 38.3 20.3846 38.68 20.2446 38.98C20.1046 39.2733 19.9146 39.5033 19.6746 39.67C19.4346 39.8367 19.1679 39.9533 18.8746 40.02C18.5813 40.0933 18.2779 40.13 17.9646 40.13ZM17.9746 38.87C18.3279 38.87 18.5579 38.79 18.6646 38.63C18.7713 38.4633 18.8246 38.2067 18.8246 37.86C18.8246 37.5067 18.7379 37.27 18.5646 37.15C18.3913 37.0233 18.1546 36.96 17.8546 36.96H16.2346L16.9346 36.26L16.9446 39.51L16.8046 38.8C16.7979 38.7933 16.8513 38.7967 16.9646 38.81C17.0779 38.8233 17.2246 38.8367 17.4046 38.85C17.5913 38.8633 17.7813 38.87 17.9746 38.87ZM17.9346 35.74C18.2279 35.74 18.4246 35.6767 18.5246 35.55C18.6246 35.4167 18.6746 35.2033 18.6746 34.91C18.6746 34.59 18.6113 34.37 18.4846 34.25C18.3646 34.13 18.1579 34.07 17.8646 34.07C17.6579 34.07 17.4813 34.0733 17.3346 34.08C17.1946 34.0867 17.0579 34.0967 16.9246 34.11C16.7979 34.1167 16.6513 34.1267 16.4846 34.14L16.9246 33.41V36.44L16.2246 35.74H17.9346ZM25.2773 40.13C24.8707 40.13 24.484 40.0767 24.1173 39.97C23.7573 39.8633 23.4373 39.6767 23.1573 39.41C22.884 39.1433 22.6673 38.7733 22.5073 38.3C22.354 37.82 22.2773 37.21 22.2773 36.47C22.2773 35.73 22.354 35.1233 22.5073 34.65C22.6673 34.1767 22.884 33.81 23.1573 33.55C23.4373 33.2833 23.7573 33.1 24.1173 33C24.484 32.8933 24.8707 32.84 25.2773 32.84C25.6907 32.84 26.0773 32.8933 26.4373 33C26.7973 33.1 27.114 33.2833 27.3873 33.55C27.6673 33.81 27.884 34.1767 28.0373 34.65C28.1973 35.1233 28.2773 35.73 28.2773 36.47C28.2773 37.21 28.1973 37.82 28.0373 38.3C27.884 38.7733 27.6673 39.1433 27.3873 39.41C27.114 39.6767 26.7973 39.8633 26.4373 39.97C26.0773 40.0767 25.6907 40.13 25.2773 40.13ZM25.2773 38.75C25.5173 38.75 25.7207 38.7233 25.8873 38.67C26.0607 38.61 26.204 38.5033 26.3173 38.35C26.4307 38.19 26.514 37.96 26.5673 37.66C26.6207 37.36 26.6473 36.97 26.6473 36.49C26.6473 36.0033 26.6207 35.61 26.5673 35.31C26.514 35.01 26.4307 34.7833 26.3173 34.63C26.2107 34.47 26.0707 34.3633 25.8973 34.31C25.724 34.25 25.5173 34.22 25.2773 34.22C25.0373 34.22 24.8307 34.25 24.6573 34.31C24.484 34.3633 24.3407 34.47 24.2273 34.63C24.1207 34.7833 24.0407 35.01 23.9873 35.31C23.934 35.61 23.9073 36.0033 23.9073 36.49C23.9073 36.9767 23.934 37.37 23.9873 37.67C24.0407 37.9633 24.124 38.19 24.2373 38.35C24.3507 38.5033 24.4907 38.61 24.6573 38.67C24.8307 38.7233 25.0373 38.75 25.2773 38.75ZM31.2493 40L31.2793 34.28L29.3193 34.31V32.97H34.7893V34.31L32.7893 34.28L32.8193 40H31.2493ZM36.1655 40L36.2055 36.76L36.1655 32.97H37.7455L37.7155 36.1L37.7455 40H36.1655ZM39.5177 40V38.76L42.8977 34.29V34.22L39.7277 34.31V32.97H44.7577V34.18L41.4477 38.68V38.74L44.8077 38.66V40H39.5177ZM45.6588 40L47.5888 32.97H49.6288L51.5588 40H49.9388L49.3988 37.76L50.2688 38.44H46.9488L47.8188 37.76L47.2788 40H45.6588ZM47.7888 37.8L47.2488 37.12H49.9688L49.4288 37.8L48.4788 33.75L49.3388 34.43H47.8788L48.7388 33.75L47.7888 37.8ZM53.7661 40L53.7961 34.28L51.8361 34.31V32.97H57.3061V34.31L55.3061 34.28L55.3361 40H53.7661ZM58.6823 40L58.7223 36.76L58.6823 32.97H60.2623L60.2323 36.1L60.2623 40H58.6823ZM65.2945 40.13C64.8879 40.13 64.5012 40.0767 64.1345 39.97C63.7745 39.8633 63.4545 39.6767 63.1745 39.41C62.9012 39.1433 62.6845 38.7733 62.5245 38.3C62.3712 37.82 62.2945 37.21 62.2945 36.47C62.2945 35.73 62.3712 35.1233 62.5245 34.65C62.6845 34.1767 62.9012 33.81 63.1745 33.55C63.4545 33.2833 63.7745 33.1 64.1345 33C64.5012 32.8933 64.8879 32.84 65.2945 32.84C65.7079 32.84 66.0945 32.8933 66.4545 33C66.8145 33.1 67.1312 33.2833 67.4045 33.55C67.6845 33.81 67.9012 34.1767 68.0545 34.65C68.2145 35.1233 68.2945 35.73 68.2945 36.47C68.2945 37.21 68.2145 37.82 68.0545 38.3C67.9012 38.7733 67.6845 39.1433 67.4045 39.41C67.1312 39.6767 66.8145 39.8633 66.4545 39.97C66.0945 40.0767 65.7079 40.13 65.2945 40.13ZM65.2945 38.75C65.5345 38.75 65.7379 38.7233 65.9045 38.67C66.0779 38.61 66.2212 38.5033 66.3345 38.35C66.4479 38.19 66.5312 37.96 66.5845 37.66C66.6379 37.36 66.6645 36.97 66.6645 36.49C66.6645 36.0033 66.6379 35.61 66.5845 35.31C66.5312 35.01 66.4479 34.7833 66.3345 34.63C66.2279 34.47 66.0879 34.3633 65.9145 34.31C65.7412 34.25 65.5345 34.22 65.2945 34.22C65.0545 34.22 64.8479 34.25 64.6745 34.31C64.5012 34.3633 64.3579 34.47 64.2445 34.63C64.1379 34.7833 64.0579 35.01 64.0045 35.31C63.9512 35.61 63.9245 36.0033 63.9245 36.49C63.9245 36.9767 63.9512 37.37 64.0045 37.67C64.0579 37.9633 64.1412 38.19 64.2545 38.35C64.3679 38.5033 64.5079 38.61 64.6745 38.67C64.8479 38.7233 65.0545 38.75 65.2945 38.75ZM70.3265 40V32.97H72.3365L74.4965 38.11H74.5565L74.4165 32.97H75.8465V40H73.8365L71.6765 34.85H71.6165L71.7565 40H70.3265Z" fill="black"/>
<path d="M24.4403 26.535H25.2203L24.5603 30H23.5153L22.8453 26.535H23.6103C23.8036 27.6383 23.9153 28.305 23.9453 28.535C23.9753 28.765 24.0086 29.0367 24.0453 29.35C24.1086 28.7533 24.1636 28.3067 24.2103 28.01L24.4403 26.535ZM26.9721 26.535H28.7271V27.185H27.7221V27.92H28.5921V28.57H27.7221V29.35H28.7271V30H26.9721V26.535ZM32.0466 26.535H32.7866V30H32.0666C31.5732 28.74 31.2882 27.98 31.2116 27.72C31.2816 27.9833 31.3166 28.4367 31.3166 29.08V30H30.5766V26.535H31.3166L31.7716 27.695C31.9649 28.1917 32.0949 28.5683 32.1616 28.825C32.0849 28.5017 32.0466 28.0283 32.0466 27.405V26.535ZM36.5477 26.535V27.185H35.9227V30H35.1627V27.185H34.5377V26.535H36.5477ZM39.5982 26.535H40.3482V29.155C40.3482 29.4283 40.2599 29.6467 40.0832 29.81C39.9099 29.97 39.6516 30.05 39.3082 30.05C38.9682 30.05 38.7099 29.97 38.5332 29.81C38.3599 29.65 38.2732 29.4317 38.2732 29.155V26.535H39.0232V29.115C39.0232 29.2817 39.1182 29.365 39.3082 29.365C39.5016 29.365 39.5982 29.2817 39.5982 29.115V26.535ZM43.0238 28.75V30H42.2738V26.535H43.4038C43.6772 26.535 43.8905 26.6 44.0438 26.73C44.1972 26.86 44.2738 27.05 44.2738 27.3V27.94C44.2738 28.34 44.1372 28.59 43.8638 28.69L44.4088 30H43.5838L43.1188 28.75H43.0238ZM43.0238 27.175V28.155H43.3188C43.3955 28.155 43.4488 28.1383 43.4788 28.105C43.5088 28.0717 43.5238 28.0133 43.5238 27.93V27.365C43.5238 27.2917 43.5072 27.2417 43.4738 27.215C43.4405 27.1883 43.3888 27.175 43.3188 27.175H43.0238ZM46.1859 26.535H47.9409V27.185H46.9359V27.92H47.8059V28.57H46.9359V29.35H47.9409V30H46.1859V26.535ZM52.1682 27.355C52.1682 27.0883 52.2598 26.8817 52.4432 26.735C52.6298 26.585 52.9098 26.51 53.2832 26.51C53.5298 26.51 53.7398 26.5333 53.9132 26.58V27.27C53.7265 27.2133 53.5415 27.185 53.3582 27.185C53.1782 27.185 53.0615 27.2067 53.0082 27.25C52.9548 27.29 52.9282 27.35 52.9282 27.43V29.11C52.9282 29.27 53.0532 29.35 53.3032 29.35C53.5565 29.35 53.7648 29.325 53.9282 29.275V29.95C53.7482 30 53.5298 30.025 53.2732 30.025C52.8998 30.025 52.6215 29.9517 52.4382 29.805C52.2582 29.6583 52.1682 29.4517 52.1682 29.185V27.355ZM57.2587 30L57.1137 29.2H56.4287L56.2937 30H55.5787L56.2587 26.535H57.3037L57.9737 30H57.2587ZM56.5337 28.565H57.0037L56.7637 27.225L56.5337 28.565ZM60.975 27.395C60.975 27.255 60.9033 27.185 60.76 27.185H60.48V28.35H60.76C60.9033 28.35 60.975 28.28 60.975 28.14V27.395ZM59.725 26.535H60.855C61.125 26.535 61.3367 26.6 61.49 26.73C61.6467 26.86 61.725 27.0517 61.725 27.305V28.23C61.725 28.4833 61.6467 28.675 61.49 28.805C61.3367 28.935 61.125 29 60.855 29H60.48V30H59.725V26.535ZM63.5736 26.535H64.3336V30H63.5736V26.535ZM68.0946 26.535V27.185H67.4696V30H66.7096V27.185H66.0846V26.535H68.0946ZM71.3251 30L71.1801 29.2H70.4951L70.3601 30H69.6451L70.3251 26.535H71.3701L72.0401 30H71.3251ZM70.6001 28.565H71.0701L70.8301 27.225L70.6001 28.565ZM73.7914 26.535H74.5514V29.37H75.4764V30H73.7914V26.535Z" fill="#252C2C"/>
<ellipse cx="15.9749" cy="9.49308" rx="1.56731" ry="2.83576" transform="rotate(45 15.9749 9.49308)" fill="#20C4E8"/>
<path d="M13.4018 0.370304C13.7134 0.580791 13.9575 0.77444 13.9323 0.791279C13.9154 0.808118 13.8312 0.791278 13.7386 0.740761C13.284 0.488177 12.8125 0.311369 12.5851 0.311369C12.3073 0.319788 10.4971 1.21225 10.455 1.37222C10.4382 1.42274 10.8171 1.65848 11.297 1.90265L12.1642 2.34888L13.3092 1.79319C13.9407 1.49009 14.4711 1.19541 14.4879 1.1449C14.5385 0.993345 15.1278 1.1449 15.1868 1.33012C15.2204 1.41432 15.2794 1.49009 15.3215 1.49009C15.3636 1.49009 15.3972 1.53219 15.3972 1.57429C15.3972 1.63322 15.3467 1.63322 15.2373 1.57429C15.1447 1.53219 14.9931 1.49009 14.9005 1.49009C14.5553 1.49009 12.6609 2.43307 12.5767 2.64356C12.5599 2.7025 12.7535 2.91298 13.023 3.10663C13.5871 3.53602 14.0417 3.84754 14.0838 3.84754C14.1006 3.84754 14.3701 3.99909 14.6732 4.18432C15.2962 4.5632 15.5909 4.59688 16.0287 4.35271C16.1971 4.2601 16.3823 4.18432 16.4497 4.18432C16.5255 4.18432 16.6433 4.10855 16.7191 4.01593C16.8201 3.89806 16.9717 3.84754 17.2074 3.84754C17.5863 3.84754 18.0915 3.58654 18.0915 3.38447C18.0915 3.15715 18.3441 3.2666 18.4956 3.56128C18.6051 3.77177 18.5545 3.84754 18.3104 3.84754C18.0831 3.84754 17.4179 4.20116 17.4179 4.31903C17.4179 4.37797 17.3253 4.39481 17.2074 4.36955C16.9717 4.32745 16.1803 4.54636 15.9445 4.72317C15.8098 4.8242 15.8098 4.84946 16.0371 5.05995C16.1718 5.18624 16.3823 5.35463 16.5086 5.4304C16.6854 5.53143 16.7444 5.63247 16.7444 5.82612C16.7444 6.17974 16.7949 6.21341 17.1232 6.07028C17.5189 5.91031 18.243 5.91873 18.5966 6.10396C18.7566 6.17974 19.0176 6.43232 19.186 6.66806L19.4807 7.08062L19.4723 8.14147V9.1939L19.1186 9.90956C18.4451 11.2819 17.4179 12.4775 16.4076 13.0753C15.734 13.471 15.4646 13.5215 14.8584 13.3447C13.7807 13.0332 13.2334 12.0649 13.4608 10.8862C13.6628 9.86746 14.2775 8.47825 14.9005 7.66998C15.0773 7.43423 15.2289 7.22375 15.2289 7.19849C15.2289 7.17323 15.052 7.08904 14.8247 7.00484C14.6058 6.92065 14.2354 6.74384 13.9912 6.60913C13.7555 6.48284 13.486 6.37338 13.4018 6.37338C13.2082 6.37338 12.6778 7.21533 12.7199 7.44265C12.7535 7.62788 13.4776 7.99834 13.806 7.99834C14.1175 7.99834 14.1175 8.12463 13.806 8.86554C13.3008 10.0527 13.0987 10.7768 13.0566 11.5177C13.0398 11.9555 13.0566 12.368 13.1156 12.5364C13.3429 13.2268 14.2859 13.9425 14.9679 13.9593C15.2794 13.9593 15.7256 14.1024 15.4814 14.1109C14.3196 14.1782 13.385 14.3129 12.9388 14.4982C12.2989 14.7592 11.4401 15.3149 11.2801 15.5674C11.1959 15.6937 11.137 16.0642 11.1202 16.5862C11.0865 17.3692 11.0949 17.4197 11.2633 17.4618C11.4822 17.5208 11.4822 17.5292 11.2717 17.7397C11.1202 17.8912 11.1033 18.0175 11.1033 19.2552C11.1033 20.3918 11.1202 20.6023 11.2296 20.6023C11.6253 20.6023 14.3953 19.3478 14.5806 19.0784C14.7574 18.8258 14.7826 17.2261 14.6142 16.8977C14.5132 16.6956 14.4711 16.6872 13.8986 16.7125C13.385 16.7293 13.3008 16.7125 13.3429 16.603C13.4187 16.4178 13.6544 16.3083 13.9659 16.3083C14.1259 16.3083 14.4627 16.1736 14.7995 15.9716C15.111 15.7863 15.3888 15.6348 15.4225 15.6348C15.4562 15.6348 15.8772 15.3738 16.3571 15.0538C16.837 14.7339 17.519 14.3129 17.881 14.1193C18.9839 13.5299 18.9334 13.5804 18.9334 12.9827C18.9334 12.4691 18.8071 11.9302 18.6893 11.9302C18.6472 11.9302 18.5545 12.006 18.4703 12.0986C18.3862 12.1912 18.2935 12.267 18.2514 12.267C18.2178 12.267 18.2093 12.1912 18.2346 12.0986C18.2599 12.006 18.3104 11.9302 18.3525 11.9302C18.3946 11.9302 18.4283 11.8797 18.4283 11.8208C18.4283 11.7618 18.5377 11.585 18.6724 11.4251C18.7987 11.2651 18.9924 10.9704 19.0934 10.7683C19.1944 10.5747 19.2955 10.4147 19.3207 10.4147C19.3376 10.4147 19.4723 10.4989 19.607 10.5915L19.8427 10.7768L20.5921 10.4568C20.9962 10.28 21.3835 10.0779 21.434 10.0022C21.5266 9.8843 21.5687 9.90114 21.7876 10.1369C22.2591 10.6505 22.4275 11.6776 22.1665 12.427C22.0318 12.8059 22.0318 12.8227 22.2423 13.2773C22.3601 13.5299 22.5538 14.0098 22.6801 14.3466C22.798 14.675 22.9579 14.9949 23.0253 15.0454C23.0926 15.1044 23.1432 15.2222 23.1432 15.3149C23.1432 15.6348 23.4042 16.3757 23.682 16.8388L23.9598 17.3018L23.7914 18.0007C23.6988 18.388 23.581 18.8005 23.5304 18.9184C23.4042 19.2046 22.5959 20.0129 22.4359 20.0129C22.2338 20.0129 22.2675 19.954 22.638 19.6004C22.8232 19.4235 22.9748 19.2552 22.9748 19.2299C22.9748 19.1289 22.6969 19.171 22.5622 19.2888C22.3517 19.4825 21.4593 19.9287 21.2909 19.9287C21.173 19.9287 21.1225 19.8361 21.0804 19.5077C21.013 19.0278 20.8699 18.9605 20.651 19.3057C20.5247 19.4909 20.5163 19.5919 20.6005 20.0382C20.7099 20.6023 20.6847 20.6949 20.4658 20.5349C20.39 20.476 20.1879 20.3665 20.0195 20.2823C19.3123 19.9371 18.0915 19.0447 17.9652 18.7668C17.8894 18.6237 17.8136 18.4974 17.7968 18.4974C17.7379 18.4974 17.0811 19.4909 17.0811 19.5835C17.0811 19.634 17.1232 19.6761 17.1738 19.6761C17.2243 19.6761 17.5274 19.8698 17.8473 20.1055L18.4283 20.5349V21.781C18.4283 22.5303 18.3946 23.0523 18.3441 23.086C18.2935 23.1113 18.2514 23.4312 18.243 23.7848C18.2346 24.3405 18.2262 24.3658 18.2009 23.9701C18.1841 23.7175 18.1336 23.4733 18.0915 23.4312C18.0494 23.3891 17.8557 23.4312 17.6368 23.5407C17.4263 23.6333 17.2159 23.7175 17.1653 23.7175C17.1232 23.7175 17.039 23.7933 16.9801 23.8859C16.9212 23.9785 16.8286 24.0543 16.7696 24.0543C16.5339 24.0543 15.894 24.4331 15.8519 24.6015C15.8266 24.6941 15.8182 25.0898 15.8351 25.4856C15.8603 26.1339 15.8772 26.2012 16.0371 26.2265C16.2645 26.2602 17.0475 25.7213 17.0054 25.5613C16.9043 25.233 16.8959 24.7952 16.9885 24.8457C17.039 24.8794 17.0811 25.0141 17.0811 25.1404C17.0811 25.4771 17.2243 25.5698 17.7631 25.5698C18.2009 25.5698 18.243 25.5866 18.3272 25.8055C18.5798 26.4285 18.5209 26.7653 18.1588 26.8832C18.0494 26.9169 17.7715 27.0263 17.5274 27.1358C17.2916 27.2452 17.0643 27.3378 17.039 27.3378C16.9717 27.3378 16.5002 27.5399 16.1045 27.742C15.8687 27.8599 15.734 27.8599 15.01 27.7672C13.3345 27.5483 13.4018 27.5483 13.3261 27.7672C13.2924 27.8767 13.2419 28.1966 13.2166 28.4661C13.1829 28.7776 13.1156 28.9881 13.0398 29.0302C12.9724 29.0723 12.4252 29.3164 11.8274 29.5774C10.775 30.0405 10.7413 30.0489 10.3624 29.9479C9.83198 29.8132 8.0639 29.6195 6.49788 29.5269C5.79064 29.4848 4.95711 29.4006 4.64559 29.3501C4.32565 29.2996 3.93836 29.2491 3.77839 29.2322C3.61 29.2154 3.25638 29.1228 2.97854 29.0302C2.7007 28.9291 2.41443 28.8533 2.33024 28.8533C2.25447 28.8533 2.0103 28.7607 1.7914 28.6429C1.57249 28.525 1.30307 28.4324 1.20203 28.4324C1.03364 28.4324 0.999966 28.3903 0.999966 28.1798C0.999966 28.0367 1.03364 27.9272 1.06732 27.9272C1.101 27.9272 1.16836 27.8178 1.21887 27.683C1.29465 27.4978 1.37884 27.4305 1.59775 27.3968C2.10292 27.321 3.29848 27.0937 3.90468 26.959C4.22462 26.8916 4.61192 26.8327 4.75505 26.8327C5.04973 26.8327 6.40526 26.5548 6.75046 26.4201C6.88517 26.3696 7.07882 26.3275 7.19669 26.3275C7.33982 26.3275 7.42402 26.2602 7.48295 26.1086C7.57557 25.8729 7.60082 25.1488 7.51663 25.1488C7.49137 25.1488 7.34824 25.2077 7.20511 25.2835C6.70836 25.5445 6.64101 25.5698 6.48104 25.5698C6.38842 25.5698 6.28739 25.6119 6.26213 25.654C6.23687 25.7045 6.119 25.7381 6.00113 25.7381C5.89167 25.7381 5.7317 25.7802 5.63909 25.8308C5.41176 25.9823 4.97395 25.8644 4.09833 25.4266C2.50705 24.6352 1.75772 23.9701 1.75772 23.347C1.75772 23.1534 1.79139 22.8755 1.84191 22.7156C1.90085 22.5051 1.89243 22.3788 1.7914 22.1851C1.67352 21.9494 1.68194 21.8905 1.95979 21.0738C2.12817 20.6023 2.26288 20.156 2.26288 20.0718C2.26288 19.9961 2.37234 19.8108 2.49863 19.6593C2.71754 19.4067 3.14693 18.4469 3.349 17.7397C3.5258 17.125 3.55106 16.401 3.40793 16.1821C3.14693 15.7863 3.24796 15.037 3.66894 14.2372C3.9131 13.7741 3.96362 13.732 5.22654 13.1005C5.60541 12.9069 5.79906 12.6459 5.79906 12.3259C5.79906 11.9218 6.00955 11.6524 6.50629 11.3998C6.7673 11.2651 6.97779 11.122 6.97779 11.0799C6.97779 11.0293 6.86833 10.8778 6.7252 10.7262C6.48104 10.4652 6.22003 9.98533 5.93377 9.28652C5.75696 8.86554 5.75696 7.79627 5.92535 7.46791C6.00113 7.31636 6.0769 6.78594 6.12742 6.01135C6.20319 4.84104 6.22003 4.75684 6.54839 4.00751C7.14617 2.65198 7.21353 2.58463 8.53538 1.98684C8.76271 1.87739 9.13317 1.6669 9.35207 1.51535C9.57098 1.3638 9.85724 1.22067 9.98353 1.18699C10.2109 1.12806 10.8507 0.808117 11.8611 0.235594C12.4757 -0.109604 12.7114 -0.0843469 13.4018 0.370304ZM9.56256 1.77636C9.31839 1.88581 8.86374 2.06262 8.55222 2.17207C8.2407 2.27311 7.99654 2.39939 8.01338 2.44149C8.04706 2.54253 9.89934 3.57812 10.1603 3.65389C10.3877 3.70441 10.8255 3.49393 11.4654 3.01402C11.8863 2.7025 11.9368 2.52569 11.6506 2.37414C11.558 2.32362 11.3138 2.18891 11.1033 2.07945C10.7834 1.90265 10.1182 1.59955 10.0256 1.58271C10.0088 1.57429 9.7983 1.6669 9.56256 1.77636ZM11.5664 3.19082C10.9181 3.63706 10.6739 3.85596 10.7329 3.94858C10.7834 4.03277 11.9958 4.85788 12.0716 4.85788C12.0968 4.85788 12.3494 5.00943 12.6188 5.19466C13.1156 5.53143 13.3513 5.59879 13.5113 5.45566C13.5534 5.41356 13.8986 5.21992 14.2775 5.02627C14.6648 4.83262 14.9763 4.64739 14.9763 4.61371C14.9763 4.58004 14.8921 4.50426 14.7826 4.45374C14.5721 4.33587 14.4879 4.29378 13.6544 3.73809C13.0651 3.35921 12.1978 2.84563 12.1137 2.83721C12.0968 2.83721 11.8527 2.99718 11.5664 3.19082ZM10.0593 4.77368C9.89092 5.05995 9.73095 5.4304 9.70569 5.60721C9.64675 5.95241 9.65517 5.96083 10.5224 6.44074C11.1623 6.79436 11.238 6.84487 11.4148 6.99642C11.6001 7.15639 11.7769 7.12272 11.7769 6.92065C11.7769 6.86171 11.8106 6.79436 11.8442 6.77752C11.8863 6.76068 12.0547 6.55019 12.2231 6.29761C12.5851 5.75876 12.5936 5.7756 11.7348 5.18624C11.4148 4.95891 10.9939 4.66423 10.8086 4.52952C10.6234 4.39481 10.4466 4.27694 10.4129 4.27694C10.3792 4.26852 10.2193 4.49584 10.0593 4.77368ZM13.646 5.7335C13.545 5.82612 13.5786 5.88505 13.8144 6.07028C13.9659 6.19657 14.4037 6.466 14.7826 6.66806L15.4814 7.04694L15.9024 6.6428C16.5086 6.05344 16.4497 5.65773 15.6582 5.07678L15.3804 4.87472L14.5721 5.24517C14.1175 5.45566 13.7049 5.67457 13.646 5.7335ZM7.23037 7.21533C7.23037 7.25743 7.31456 7.29952 7.4156 7.29952C8.12283 7.29952 9.20894 8.9329 9.09949 9.85062C9.06581 10.1369 8.56906 10.6252 8.19019 10.7515C8.03022 10.8104 7.90392 10.8862 7.90392 10.9283C7.90392 11.0546 8.21544 11.0125 8.61116 10.8189C9.26788 10.5073 9.56256 9.72433 9.37733 8.77293C9.1921 7.77101 8.51855 7.13113 7.6345 7.13113C7.4156 7.13113 7.23037 7.16481 7.23037 7.21533ZM6.26213 7.88889C6.19477 8.0236 6.13584 8.2425 6.14426 8.3688C6.14426 8.55402 6.17794 8.5035 6.30423 8.14147C6.48946 7.61104 6.48104 7.6363 6.43052 7.6363C6.41368 7.6363 6.3379 7.74575 6.26213 7.88889ZM16.8791 8.15831C16.4328 8.57086 16.1718 9.45491 16.3992 9.81694C16.517 9.99375 17.039 9.97691 17.2411 9.79168C17.4348 9.61487 17.7547 8.82345 17.7547 8.52035C17.7547 8.26776 17.4853 7.97308 17.2579 7.97308C17.1653 7.97308 16.9969 8.05727 16.8791 8.15831ZM14.4543 9.12654C14.067 9.57278 13.8228 10.6168 14.0586 10.8104C14.4711 11.1472 14.9594 10.9199 15.2373 10.2716C15.4562 9.74959 15.4393 9.51384 15.1531 9.22758C14.8752 8.94974 14.6395 8.91606 14.4543 9.12654ZM20.912 10.6505C20.3647 10.8189 19.809 11.2062 19.5986 11.5345C19.4217 11.8292 19.3797 12.6796 19.5228 13.0584C19.5901 13.2352 19.6575 13.2773 19.8932 13.2773C20.2132 13.2773 20.9541 12.9237 21.5603 12.4775L21.9644 12.1828V11.5934C21.9644 10.8104 21.7624 10.3474 21.4593 10.4652C21.3919 10.4905 21.1393 10.5747 20.912 10.6505ZM21.4172 13.1426C21.2572 13.2605 20.7773 13.4878 20.3647 13.6646L19.607 13.9762V14.3214C19.607 14.7423 19.8006 15.8369 19.9353 16.1736C20.0195 16.3757 20.07 16.4094 20.2637 16.3673C20.39 16.342 20.752 16.1652 21.0635 15.98C21.3751 15.7863 21.6529 15.6348 21.695 15.6348C21.7287 15.6348 21.9476 15.5169 22.1665 15.3738C22.5706 15.1212 22.5706 15.1212 22.5201 14.7676C22.4864 14.5739 22.4275 14.3803 22.377 14.3298C22.3349 14.2877 22.3012 14.2035 22.3012 14.1445C22.3012 14.0183 21.8129 12.9406 21.7624 12.9406C21.7371 12.9406 21.5856 13.0332 21.4172 13.1426ZM5.04131 13.4962C4.89818 13.5299 4.78872 13.572 4.79714 13.6057C4.79714 13.6815 6.02638 14.4561 6.14426 14.4561C6.19477 14.4561 6.38 14.3382 6.55681 14.2035C6.73362 14.0604 6.91885 13.9509 6.96936 13.9509C7.23879 13.9509 6.9862 13.7909 6.40526 13.5973C5.79064 13.3784 5.65593 13.37 5.04131 13.4962ZM18.765 13.8499C18.765 13.8835 18.6893 13.9509 18.6051 13.993C17.6958 14.4645 17.0559 14.8518 16.7023 15.1296C16.4665 15.3064 16.0792 15.6011 15.8435 15.7779C15.5993 15.9547 15.3804 16.1568 15.3551 16.2242C15.2625 16.4515 15.1447 18.6995 15.212 18.7668C15.2541 18.8089 15.9445 18.5227 16.7528 18.1354C17.561 17.7397 18.3104 17.3945 18.4283 17.3608C18.925 17.2092 18.9334 17.184 18.9334 15.4075C18.9334 14.3803 18.8997 13.7825 18.8492 13.7825C18.7987 13.7825 18.765 13.8078 18.765 13.8499ZM7.0283 14.3887C6.50629 14.5318 6.48946 14.5908 6.84307 14.9276C7.21353 15.2812 7.3735 15.2728 7.96286 14.8686C8.30806 14.6329 8.40067 14.4729 8.26596 14.3466C8.18177 14.254 7.40718 14.2793 7.0283 14.3887ZM10.2193 14.6245C10.3035 14.7255 10.5055 14.877 10.6571 14.9697C10.9349 15.138 10.9433 15.138 11.2044 14.9865C11.6253 14.7423 11.6001 14.6245 11.1286 14.616C10.9097 14.616 10.6487 14.5824 10.5561 14.5403C10.4634 14.4982 10.3119 14.4645 10.2277 14.4645C10.0677 14.4561 10.0677 14.4645 10.2193 14.6245ZM5.7317 15.1296C5.63067 15.2138 5.48754 15.4411 5.42018 15.6348L5.29389 15.9884L5.60541 16.2999C5.7738 16.4683 5.94219 16.7125 5.97587 16.8556L6.0348 17.1082L6.04322 16.8725C6.05164 16.7462 6.20319 16.3841 6.39684 16.0726C6.77572 15.4496 6.7673 15.3654 6.30423 15.1128C5.95061 14.9276 5.96745 14.9276 5.7317 15.1296ZM8.03022 15.298C7.84499 15.3906 7.6345 15.4664 7.55873 15.4664C7.3314 15.4664 6.90201 15.9211 6.67468 16.4262C6.51471 16.7883 6.47262 16.9987 6.48945 17.3776L6.51471 17.8659L6.91885 17.8407C7.38192 17.807 7.96286 17.5797 8.18177 17.3439C8.37542 17.1166 8.51012 16.342 8.45961 15.6937C8.40909 15.0959 8.41751 15.1296 8.38383 15.1296C8.37542 15.1296 8.21544 15.2054 8.03022 15.298ZM22.1328 15.7948C20.8699 16.4515 20.4826 16.6704 20.3731 16.7714C20.2721 16.8725 20.2974 16.9735 20.5752 17.5039C20.9625 18.2532 21.072 18.388 21.2235 18.2701C21.434 18.1101 22.2591 17.6891 22.7643 17.4871C23.5052 17.2008 23.522 17.1671 23.16 16.4094C22.8485 15.7358 22.739 15.5506 22.6464 15.5506C22.6127 15.5506 22.3854 15.66 22.1328 15.7948ZM23.0505 17.7481C22.8906 17.807 22.7474 17.8659 22.7306 17.8744C22.6801 17.9165 23.1684 18.91 23.2358 18.91C23.3284 18.9184 23.6483 18.1775 23.6483 17.967C23.6483 17.6302 23.5304 17.5881 23.0505 17.7481ZM6.79255 18.3038C6.61575 18.329 6.44736 18.3964 6.40526 18.4469C6.36316 18.4974 6.24529 18.9184 6.14426 19.3815C6.0348 19.8445 5.91693 20.3329 5.87483 20.4676C5.7738 20.8043 5.78222 21.1664 5.89167 21.2422C6.04322 21.3348 6.39684 21.3011 7.03672 21.1495C7.82815 20.9559 7.95444 20.8885 8.06389 20.5181C8.15651 20.2066 8.19861 18.1438 8.11441 18.0596C8.08915 18.0343 7.85341 18.068 7.58398 18.1354C7.32298 18.2027 6.96094 18.2785 6.79255 18.3038ZM20.3647 18.2448C20.3647 18.3374 20.4237 18.4132 20.491 18.4132C20.6342 18.4132 20.6426 18.3964 20.5668 18.2111C20.491 18.0175 20.3647 18.0428 20.3647 18.2448ZM16.9548 18.4806C16.5591 18.59 15.2878 19.2804 15.0941 19.4825C14.9342 19.6593 14.8921 19.794 14.8837 20.1729C14.8837 20.4339 14.8416 20.7201 14.7995 20.8128C14.7489 20.9306 14.7321 20.7791 14.7658 20.3329C14.7826 19.9792 14.7742 19.6593 14.7237 19.634C14.6816 19.6088 14.2185 19.794 13.6965 20.0382C13.1745 20.2908 12.6104 20.5433 12.442 20.6023C12.2736 20.6612 12.0547 20.7791 11.9537 20.8549C11.7685 20.9896 11.7769 20.9896 12.2568 21.1916C12.5262 21.3011 13.0566 21.5368 13.4271 21.7136C13.806 21.8905 14.1596 22.0336 14.2017 22.0336C14.3448 22.0336 14.8079 21.6042 14.8079 21.4779C14.8079 21.4105 14.8331 21.3684 14.8752 21.3769C15.0352 21.4358 15.8351 20.6275 16.5928 19.6425C17.3927 18.59 17.5863 18.2448 17.2664 18.3711C17.1906 18.4048 17.0475 18.4553 16.9548 18.4806ZM10.4298 20.1392C10.4887 20.215 10.5561 20.2487 10.5729 20.2318C10.6318 20.1729 10.514 20.0129 10.4129 20.0129C10.3624 20.0129 10.3624 20.0634 10.4298 20.1392ZM16.5507 20.3497C16.0371 20.7959 15.9277 21.36 16.3571 21.36C16.6349 21.36 17.9231 20.6949 17.9231 20.5433C17.9231 20.4086 17.3674 20.1729 16.8959 20.1055C16.8622 20.0971 16.7023 20.2066 16.5507 20.3497ZM2.64176 20.9727C2.50705 21.1074 2.14501 21.7726 2.18711 21.8063C2.33024 21.9241 2.84383 22.202 2.91118 22.202C2.99538 22.202 3.28164 21.3348 3.32374 20.9811C3.34058 20.8296 3.3069 20.8128 3.03748 20.838C2.86909 20.8633 2.69228 20.9222 2.64176 20.9727ZM17.0811 21.4947C16.5676 21.7642 16.1129 22.0252 16.0624 22.0925C15.9277 22.2441 15.7761 23.7091 15.8856 23.8185C15.9782 23.9111 18.142 22.8419 18.2093 22.6566C18.2346 22.5808 18.2599 22.1851 18.2599 21.7726C18.2599 21.158 18.2346 21.0232 18.1336 21.0232C18.0578 21.0232 17.5863 21.2337 17.0811 21.4947ZM3.74471 21.7305C3.57632 22.0757 3.45845 22.404 3.48371 22.4714C3.50897 22.5388 3.63526 22.6314 3.76155 22.6903C3.88784 22.7408 4.14885 22.8839 4.35091 22.9934L4.70453 23.1955L4.74663 23.0187C4.84766 22.5135 4.95711 21.5958 4.91502 21.52C4.84766 21.4274 4.27514 21.1159 4.14885 21.1074C4.09833 21.1074 3.92152 21.3853 3.74471 21.7305ZM7.42402 21.2758C7.27246 21.3179 7.00304 21.4021 6.82623 21.4611C6.65784 21.5116 6.31265 21.5789 6.06006 21.6042C5.66435 21.6463 5.59699 21.68 5.53806 21.8652C5.1676 23.1702 5.10866 23.4649 5.2097 23.5912C5.32757 23.7343 5.63909 23.7596 5.76538 23.6333C5.86641 23.5322 7.05356 23.0439 7.20511 23.0439C7.28088 23.0439 7.30614 23.0944 7.27246 23.1955C7.23879 23.3302 7.38192 24.1048 7.53347 24.551C7.60924 24.7699 7.81131 24.4668 7.8955 24.0206C7.96286 23.6417 7.95444 23.5996 7.72712 23.3386C7.52505 23.1113 7.49979 23.0523 7.60082 22.9681C7.66818 22.9092 7.74395 22.6903 7.76921 22.4714C7.79447 22.2525 7.83657 21.8736 7.87025 21.6294C7.92918 21.1495 7.90392 21.1327 7.42402 21.2758ZM10.977 22.8839C10.6823 23.0187 10.615 23.3302 10.8086 23.5828C10.9518 23.7764 11.0696 23.7427 12.1305 23.2712C12.6778 23.0355 12.8293 22.8587 12.5936 22.7577C12.3999 22.6735 11.2296 22.7577 10.977 22.8839ZM2.18711 23.3975C2.19553 23.5491 2.21237 23.608 2.23763 23.5238C2.25446 23.4481 2.33024 23.3807 2.3976 23.3807C2.46495 23.3807 2.49863 23.4144 2.47337 23.4649C2.44811 23.507 2.46495 23.5491 2.51547 23.5491C2.56599 23.5491 2.58282 23.5912 2.55757 23.6333C2.52389 23.6838 2.46495 23.7006 2.42285 23.6754C2.29656 23.5912 2.33866 23.7175 2.49021 23.8774C2.70912 24.1048 3.43319 24.6436 3.51738 24.6436C3.55948 24.6436 3.61 24.4668 3.62684 24.2395C3.66893 23.7848 3.46687 23.4649 3.13851 23.4649C3.02906 23.4649 2.9196 23.4312 2.89434 23.3807C2.85225 23.3133 2.44811 23.1618 2.23763 23.1365C2.20395 23.1281 2.18711 23.2544 2.18711 23.3975ZM12.08 23.6333C11.6506 23.8185 11.2549 23.9701 11.2044 23.9701C11.1538 23.9701 11.0528 24.029 10.9854 24.1048C10.8086 24.2732 10.7834 25.9907 10.9518 25.9907C11.0107 25.9907 11.4233 25.8223 11.8611 25.6119C13.2082 24.9804 13.0819 25.1151 13.1072 24.3489C13.1324 23.6249 13.0819 23.2965 12.9556 23.2965C12.9051 23.2965 12.5178 23.4481 12.08 23.6333ZM5.31915 24.1553C5.15918 24.3068 5.1255 24.4247 5.1255 24.8625C5.1255 25.2414 5.1676 25.435 5.28547 25.5782C5.4286 25.7634 5.46228 25.7634 5.80748 25.6624C6.83465 25.3677 7.65976 24.7194 6.70836 24.9636C5.98429 25.1488 5.90009 25.1488 5.76538 25.0141C5.67277 24.9299 5.63067 24.7278 5.63067 24.4247C5.63067 24.1721 5.60541 23.9701 5.57173 23.9701C5.53806 23.9701 5.4286 24.0543 5.31915 24.1553ZM4.42669 24.6436C4.35933 24.9551 4.37617 25.0309 4.52772 25.174C4.62033 25.2751 4.71295 25.334 4.73821 25.3088C4.75505 25.2919 4.75505 25.0393 4.72979 24.7446C4.67085 24.1384 4.53614 24.0879 4.42669 24.6436ZM9.56256 24.9636C9.5373 25.1319 9.51204 25.3256 9.4952 25.3929C9.46153 25.5192 10.2277 26.0581 10.3119 25.9655C10.3371 25.9402 10.3287 25.654 10.2951 25.3172C10.2445 24.7783 10.2193 24.7194 10.0761 24.7531C9.98353 24.7783 9.89934 24.7531 9.87408 24.6857C9.78988 24.4752 9.61307 24.6436 9.56256 24.9636ZM12.282 25.8392C11.9284 26.016 11.9032 26.0581 11.8779 26.3949C11.8527 26.7653 11.6927 26.8158 11.6927 26.4454C11.6927 26.1844 11.4317 26.176 11.036 26.4117L10.7665 26.5801V27.481C10.7665 28.5418 10.8255 28.6934 11.1454 28.5166C11.2633 28.4492 11.5075 28.2724 11.6843 28.1209C11.9453 27.9019 12.0042 27.8009 11.9705 27.6157L11.9368 27.3799L12.0968 27.5652C12.282 27.7757 12.7704 27.8262 12.9388 27.6578C13.0482 27.5483 13.0903 25.8139 12.9809 25.7129C12.8798 25.6119 12.6609 25.654 12.282 25.8392ZM8.07231 25.9318C8.07231 26.0665 8.14809 26.1507 8.31648 26.2181C8.72903 26.3696 8.82165 26.0833 8.42593 25.8729C8.11441 25.696 8.07231 25.7045 8.07231 25.9318ZM17.0222 26.1423C16.8033 26.2686 16.5086 26.4285 16.3823 26.4959C16.0792 26.6474 15.9613 26.8748 16.0287 27.1442C16.0708 27.3294 16.1129 27.3463 16.315 27.3126C16.6265 27.2452 17.9736 26.5969 18.0915 26.4538C18.1588 26.378 18.1504 26.2854 18.0831 26.1254C17.9483 25.8308 17.5526 25.8308 17.0222 26.1423ZM10.1688 27.0347C10.1772 27.0684 10.1182 27.2031 10.0509 27.3463C9.97511 27.4894 9.92459 27.742 9.94143 27.9104C9.95827 28.163 9.93302 28.2387 9.77305 28.3061C9.52888 28.4155 9.5373 28.4745 9.8404 28.6008C9.97511 28.6597 10.093 28.7355 10.093 28.7776C10.093 28.8197 10.1267 28.8533 10.1772 28.8533C10.2277 28.8533 10.2614 28.4661 10.2614 27.8683C10.2614 27.3294 10.2361 26.9085 10.2109 26.9337C10.1856 26.9674 10.1688 27.0095 10.1688 27.0347ZM12.1389 28.1966C12.0126 28.2556 11.7011 28.4324 11.4569 28.5923C11.0528 28.8533 11.0191 28.9039 11.0191 29.2154C11.0191 29.5353 11.0275 29.5437 11.2549 29.5016C11.6927 29.4175 12.8714 28.8281 12.9135 28.6765C12.9388 28.6008 12.9388 28.4324 12.9051 28.3145C12.863 28.1461 12.8041 28.0956 12.6104 28.0956C12.4841 28.0956 12.2652 28.1377 12.1389 28.1966Z" fill="#343434"/>
<path d="M18.3525 5.49766C18.4451 5.61553 18.4367 5.63237 18.2767 5.59869C18.1673 5.59027 18.0831 5.53975 18.0831 5.48924C18.0747 5.34611 18.2262 5.35453 18.3525 5.49766Z" fill="#343434"/>
<path d="M19.4133 5.85146C19.5059 5.97775 19.607 6.17982 19.6491 6.28927L19.708 6.49976L19.5565 6.28927C19.4723 6.1714 19.3207 6.01143 19.2281 5.93565C19.1102 5.83462 19.085 5.76726 19.1523 5.70833C19.2113 5.64097 19.287 5.68307 19.4133 5.85146Z" fill="#343434"/>
<path d="M20.2805 9.32872C20.491 9.42133 20.7267 9.51395 20.8025 9.53921C21.0719 9.63182 20.9624 9.73285 20.6846 9.64866C20.5331 9.60656 20.2721 9.57288 20.1037 9.57288C19.75 9.57288 19.6911 9.53079 19.75 9.31188C19.8006 9.12665 19.7921 9.12665 20.2805 9.32872Z" fill="#343434"/>
<path d="M21.333 9.82547C21.3583 9.86757 21.3498 9.90967 21.2993 9.90967C21.2572 9.90967 21.1899 9.86757 21.1646 9.82547C21.1394 9.77496 21.1478 9.74128 21.1983 9.74128C21.2404 9.74128 21.3078 9.77496 21.333 9.82547Z" fill="#343434"/>
<path d="M21.4172 20.3498C21.4761 20.4424 21.0888 20.7202 20.9541 20.6697C20.8362 20.636 21.0972 20.2656 21.2488 20.2656C21.3161 20.2656 21.3835 20.2992 21.4172 20.3498Z" fill="#343434"/>
</svg>
